<?xml version="1.0" encoding="UTF-8" standalone="no"?>
<!-- Created with Inkscape (http://www.inkscape.org/) -->

<svg
   width="256"
   height="256"
   viewBox="0 0 67.733334 67.733334"
   version="1.1"
   id="svg5"
   xml:space="preserve"
   inkscape:version="1.4 (e7c3feb100, 2024-10-09)"
   sodipodi:docname="LibreMig.svg"
   xmlns:inkscape="http://www.inkscape.org/namespaces/inkscape"
   xmlns:sodipodi="http://sodipodi.sourceforge.net/DTD/sodipodi-0.dtd"
   xmlns="http://www.w3.org/2000/svg"
   xmlns:svg="http://www.w3.org/2000/svg"><sodipodi:namedview
     id="namedview7"
     pagecolor="#ffffff"
     bordercolor="#666666"
     borderopacity="1.0"
     inkscape:showpageshadow="2"
     inkscape:pageopacity="0.0"
     inkscape:pagecheckerboard="0"
     inkscape:deskcolor="#d1d1d1"
     inkscape:document-units="mm"
     showgrid="false"
     inkscape:zoom="2.587745"
     inkscape:cx="12.945634"
     inkscape:cy="169.45255"
     inkscape:window-width="2560"
     inkscape:window-height="1375"
     inkscape:window-x="0"
     inkscape:window-y="0"
     inkscape:window-maximized="1"
     inkscape:current-layer="layer1" /><defs
     id="defs2"><marker
       style="overflow:visible"
       id="marker3"
       refX="3"
       refY="0"
       orient="auto"
       inkscape:stockid="Filled semicircle"
       markerWidth="0.145"
       markerHeight="0.145"
       viewBox="0 0 1 1"
       inkscape:isstock="true"
       inkscape:collect="always"
       preserveAspectRatio="xMidYMid"><path
         style="fill:context-stroke;fill-rule:evenodd;stroke:context-stroke;stroke-width:0.6pt"
         d="m -0.22470421,-0.02741555 c 0,1.65599995 1.34400001,2.99999995 3.00000001,2.99999995 v -6 c -1.656,0 -3.00000001,1.344 -3.00000001,3.00000005 z"
         id="path3" /></marker><marker
       style="overflow:visible"
       id="marker2"
       refX="0"
       refY="0"
       orient="auto"
       inkscape:stockid="Filled semicircle"
       markerWidth="0.145"
       markerHeight="0.145"
       viewBox="0 0 1 1"
       inkscape:isstock="true"
       inkscape:collect="always"
       preserveAspectRatio="xMidYMid"
       markerUnits="strokeWidth"><path
         style="fill:context-stroke;fill-rule:evenodd;stroke:context-stroke;stroke-width:0.6pt"
         d="m 2.7752958,-0.02741555 c 0,1.65599995 -1.344,2.99999995 -3.00000001,2.99999995 v -6 c 1.65600001,0 3.00000001,1.344 3.00000001,3.00000005 z"
         id="path2" /></marker><rect
       x="161.76524"
       y="244.83389"
       width="0"
       height="145.37012"
       id="rect2189" /><rect
       x="89.626694"
       y="171.60233"
       width="615.36377"
       height="731.22266"
       id="rect2129" /></defs><g
     inkscape:label="Layer 1"
     inkscape:groupmode="layer"
     id="layer1"
     transform="translate(-72.854344,-60.344142)"><text
       xml:space="preserve"
       transform="scale(0.26458333)"
       id="text2127"
       style="font-size:74.6667px;line-height:1.25;font-family:Mooretronics;-inkscape-font-specification:Mooretronics;white-space:pre;shape-inside:url(#rect2129);display:inline" /><path
       style="fill:#082833;fill-opacity:1;stroke:#000000;stroke-width:0.100344;stroke-dasharray:none"
       d="m 118.41188,111.83645 c -0.0285,-0.0336 -0.28008,-0.45214 -0.55909,-0.93008 -0.6922,-1.18572 -0.63213,-1.13633 -0.79618,-0.6545 l -0.1371,0.40264 -0.19262,-0.10436 c -0.10594,-0.0574 -0.23687,-0.13006 -0.29094,-0.16142 -0.085,-0.0493 -0.30774,0.18712 -1.64186,1.7425 -0.84895,0.98975 -1.56605,1.80723 -1.59357,1.81664 -0.0275,0.009 -0.36754,-0.16573 -0.7556,-0.38919 l -0.70558,-0.4063 0.10038,-0.3389 c 0.0552,-0.18639 0.67066,-2.23954 1.36766,-4.56254 l 1.26729,-4.22365 -0.13695,-0.4066 c -0.43875,-1.30266 -0.44899,-1.32505 -0.5802,-1.26918 -0.0663,0.0282 -2.35515,1.44713 -5.08629,3.15309 l -4.9657,3.10177 -0.25366,-0.69552 c -0.13952,-0.38253 -0.56241,-1.42469 -0.93975,-2.31592 l -0.68608,-1.6204 2.98416,-6.035149 2.98416,-6.03515 -0.0924,-1.97622 -0.0924,-1.9762 -1.86318,-4.54497 c -1.02475,-2.49973 -1.85607,-4.56218 -1.84739,-4.58321 0.0124,-0.0301 0.91862,-0.47107 1.81038,-0.88093 0.11288,-0.0518 0.11169,-0.0552 -1.04457,-2.88965 l -1.15759,-2.83772 -0.4861,-1.95759 c -0.26735,-1.07667 -0.53593,-2.2513 -0.59683,-2.61027 -0.13472,-0.79407 -0.31075,-2.24188 -0.25877,-2.26348 0.0457,-0.0189 0.71953,0.7921 1.00881,1.15777 0.54703,0.6915 1.25992,1.76582 2.05642,3.09902 l 0.87384,1.46265 1.25673,2.79681 c 0.69121,1.53825 1.2639,2.79979 1.27265,2.8034 0.009,0.003 0.47607,-0.16504 1.0385,-0.37479 l 1.0226,-0.38137 1.87946,4.4658 1.87946,4.4658 1.518,1.57924 1.51801,1.57925 6.37006,2.17362 6.37006,2.17363 0.89784,2.15471 c 0.49381,1.18508 0.89292,2.16661 0.88693,2.18114 -0.006,0.0145 -2.59996,0.64166 -5.76436,1.3936 -3.16439,0.75194 -5.75931,1.38139 -5.76649,1.39878 -0.0219,0.053 0.80994,1.637809 0.88008,1.676579 0.0361,0.0199 1.94689,1.02187 4.24624,2.22652 2.29936,1.20463 4.1809,2.21155 4.18121,2.23756 2e-4,0.026 -0.0818,0.39753 -0.18242,0.82556 l -0.18297,0.77824 -0.46843,-0.0449 c -0.25763,-0.0246 -1.34884,-0.11506 -2.42492,-0.20086 l -1.95648,-0.15601 -0.10527,0.32144 -0.10527,0.32143 -0.37054,-0.14666 c -0.20379,-0.0806 -0.38547,-0.14046 -0.40373,-0.13288 -0.0639,0.0266 -0.0256,0.1847 0.28725,1.18595 l 0.31533,1.00907 -2.54096,1.05904 c -1.39752,0.58247 -2.68688,1.14124 -2.86524,1.24173 -0.24788,0.13967 -0.33647,0.1683 -0.37606,0.12159 z"
       id="path2073"
       sodipodi:nodetypes="ssscssssscsscssscsscccccsssscssssscssscccccccsssssssscsscccssscssss" /><text
       xml:space="preserve"
       transform="scale(0.26458333)"
       id="text2187"
       style="font-size:74.6667px;line-height:1.25;font-family:Mooretronics;-inkscape-font-specification:Mooretronics;white-space:pre;shape-inside:url(#rect2189);display:inline" /><path
       style="fill:none;stroke:#000000;stroke-width:5.29166667;stroke-linejoin:round;stroke-dasharray:none;stroke-dashoffset:0;stroke-opacity:1;marker-start:url(#marker3);marker-end:url(#marker2)"
       d="m 85.289592,65.188105 v 43.161875 c -0.267475,6.55922 2.916155,8.42493 7.446689,8.45886 l 39.402389,0.0723"
       id="path1"
       sodipodi:nodetypes="cccc" /></g></svg>
