<?xml version="1.0" encoding="UTF-8" standalone="no"?>
<!-- Created with Inkscape (http://www.inkscape.org/) -->

<svg
   width="256"
   height="256"
   viewBox="0 0 67.733334 67.733334"
   version="1.1"
   id="svg5"
   xml:space="preserve"
   inkscape:version="1.2.2 (b0a8486541, 2022-12-01)"
   sodipodi:docname="LibreMig_logo.svg"
   xmlns:inkscape="http://www.inkscape.org/namespaces/inkscape"
   xmlns:sodipodi="http://sodipodi.sourceforge.net/DTD/sodipodi-0.dtd"
   xmlns="http://www.w3.org/2000/svg"
   xmlns:svg="http://www.w3.org/2000/svg"><sodipodi:namedview
     id="namedview7"
     pagecolor="#ffffff"
     bordercolor="#666666"
     borderopacity="1.0"
     inkscape:showpageshadow="2"
     inkscape:pageopacity="0.0"
     inkscape:pagecheckerboard="0"
     inkscape:deskcolor="#d1d1d1"
     inkscape:document-units="mm"
     showgrid="false"
     inkscape:zoom="1.2938725"
     inkscape:cx="-205.19796"
     inkscape:cy="168.8729"
     inkscape:window-width="2532"
     inkscape:window-height="1355"
     inkscape:window-x="0"
     inkscape:window-y="0"
     inkscape:window-maximized="0"
     inkscape:current-layer="layer1" /><defs
     id="defs2"><rect
       x="161.76524"
       y="244.83389"
       width="0"
       height="145.37012"
       id="rect2189" /><rect
       x="89.626694"
       y="171.60233"
       width="615.36377"
       height="731.22266"
       id="rect2129" /></defs><g
     inkscape:label="Layer 1"
     inkscape:groupmode="layer"
     id="layer1"
     transform="translate(-72.854344,-60.344142)"><text
       xml:space="preserve"
       transform="scale(0.26458333)"
       id="text2127"
       style="font-size:74.6667px;line-height:1.25;font-family:Mooretronics;-inkscape-font-specification:Mooretronics;white-space:pre;shape-inside:url(#rect2129);display:inline" /><g
       id="g2196"
       transform="translate(9.8154957,4.9077479)"><path
         style="fill:#082833;fill-opacity:1;stroke:#000000;stroke-width:0.100344;stroke-dasharray:none"
         d="m 108.59638,106.9287 c -0.0285,-0.0336 -0.28008,-0.45214 -0.55909,-0.93008 -0.6922,-1.18572 -0.63213,-1.13633 -0.79618,-0.6545 l -0.1371,0.40264 -0.19262,-0.10436 c -0.10594,-0.0574 -0.23687,-0.13006 -0.29094,-0.16142 -0.085,-0.0493 -0.30774,0.18712 -1.64186,1.7425 -0.84895,0.98975 -1.56605,1.80723 -1.59357,1.81664 -0.0275,0.009 -0.36754,-0.16573 -0.7556,-0.38919 l -0.70558,-0.4063 0.10038,-0.3389 c 0.0552,-0.18639 0.67066,-2.23954 1.36766,-4.56254 l 1.26729,-4.223647 -0.13695,-0.4066 c -0.43875,-1.30266 -0.44899,-1.32505 -0.5802,-1.26918 -0.0663,0.0282 -2.35515,1.44713 -5.086281,3.153087 l -4.9657,3.10177 -0.253668,-0.69552 c -0.139517,-0.38253 -0.562404,-1.42469 -0.939748,-2.31592 l -0.686078,-1.620397 2.984156,-6.03515 2.984159,-6.03515 -0.09238,-1.97622 -0.09238,-1.9762 -1.863175,-4.54497 c -1.024747,-2.49973 -1.856072,-4.56218 -1.847388,-4.58321 0.01243,-0.0301 0.918617,-0.47107 1.810374,-0.88093 0.112883,-0.0518 0.111698,-0.0552 -1.044571,-2.88965 l -1.157584,-2.83772 -0.486099,-1.95759 c -0.267355,-1.07667 -0.535928,-2.2513 -0.596829,-2.61027 -0.134719,-0.79407 -0.310752,-2.24188 -0.258772,-2.26348 0.04569,-0.0189 0.719524,0.7921 1.008808,1.15777 0.547033,0.6915 1.259922,1.76582 2.056417,3.09902 l 0.873841,1.46265 1.256736,2.79681 c 0.691205,1.53825 1.263893,2.79979 1.272642,2.8034 0.0087,0.003 0.476076,-0.16504 1.038502,-0.37479 l 1.022598,-0.38137 1.87946,4.4658 1.87946,4.4658 1.518,1.57924 1.51801,1.57925 6.37006,2.17362 6.37006,2.17363 0.89784,2.15471 c 0.49381,1.18508 0.89292,2.16661 0.88693,2.18114 -0.006,0.0145 -2.59996,0.64166 -5.76436,1.3936 -3.16439,0.75194 -5.75931,1.38139 -5.76649,1.39878 -0.0219,0.053 0.80994,1.63781 0.88008,1.67658 0.0361,0.0199 1.94689,1.02187 4.24624,2.22652 2.29936,1.20463 4.1809,2.211547 4.18121,2.237557 2e-4,0.026 -0.0818,0.39753 -0.18242,0.82556 l -0.18297,0.77824 -0.46843,-0.0449 c -0.25763,-0.0246 -1.34884,-0.11506 -2.42492,-0.20086 l -1.95648,-0.15601 -0.10527,0.32144 -0.10527,0.32143 -0.37054,-0.14666 c -0.20379,-0.0806 -0.38547,-0.14046 -0.40373,-0.13288 -0.0639,0.0266 -0.0256,0.1847 0.28725,1.18595 l 0.31533,1.00907 -2.54096,1.05904 c -1.39752,0.58247 -2.68688,1.14124 -2.86524,1.24173 -0.24788,0.13967 -0.33647,0.1683 -0.37606,0.12159 z"
         id="path2073"
         sodipodi:nodetypes="ssscssssscsscssscsscccccsssscssssscssscccccccsssssssscsscccssscssss" /><text
         xml:space="preserve"
         style="font-size:19.7556px;line-height:1.25;font-family:Mooretronics;-inkscape-font-specification:Mooretronics;white-space:pre;inline-size:130.501;display:inline;stroke-width:0.264583"
         x="43.089581"
         y="63.622196"
         id="text2135"
         transform="matrix(0,-1,-1,0,136.47654,164.81736)"><tspan
           x="43.089581"
           y="63.622196"
           id="tspan2300"><tspan
             style="font-size:70.5556px;font-family:'Controller W01 Two';-inkscape-font-specification:'Controller W01 Two, Normal'"
             id="tspan2298">L</tspan></tspan></text></g><text
       xml:space="preserve"
       transform="scale(0.26458333)"
       id="text2187"
       style="font-size:74.6667px;line-height:1.25;font-family:Mooretronics;-inkscape-font-specification:Mooretronics;white-space:pre;shape-inside:url(#rect2189);display:inline" /></g></svg>
