%TF.GenerationSoftware,KiCad,Pcbnew,(6.0.9)*%
%TF.CreationDate,2022-11-09T20:57:25+01:00*%
%TF.ProjectId,libre-MIG,6c696272-652d-44d4-9947-2e6b69636164,v0.1*%
%TF.SameCoordinates,Original*%
%TF.FileFunction,Legend,Bot*%
%TF.FilePolarity,Positive*%
%FSLAX46Y46*%
G04 Gerber Fmt 4.6, Leading zero omitted, Abs format (unit mm)*
G04 Created by KiCad (PCBNEW (6.0.9)) date 2022-11-09 20:57:25*
%MOMM*%
%LPD*%
G01*
G04 APERTURE LIST*
G04 Aperture macros list*
%AMRoundRect*
0 Rectangle with rounded corners*
0 $1 Rounding radius*
0 $2 $3 $4 $5 $6 $7 $8 $9 X,Y pos of 4 corners*
0 Add a 4 corners polygon primitive as box body*
4,1,4,$2,$3,$4,$5,$6,$7,$8,$9,$2,$3,0*
0 Add four circle primitives for the rounded corners*
1,1,$1+$1,$2,$3*
1,1,$1+$1,$4,$5*
1,1,$1+$1,$6,$7*
1,1,$1+$1,$8,$9*
0 Add four rect primitives between the rounded corners*
20,1,$1+$1,$2,$3,$4,$5,0*
20,1,$1+$1,$4,$5,$6,$7,0*
20,1,$1+$1,$6,$7,$8,$9,0*
20,1,$1+$1,$8,$9,$2,$3,0*%
%AMHorizOval*
0 Thick line with rounded ends*
0 $1 width*
0 $2 $3 position (X,Y) of the first rounded end (center of the circle)*
0 $4 $5 position (X,Y) of the second rounded end (center of the circle)*
0 Add line between two ends*
20,1,$1,$2,$3,$4,$5,0*
0 Add two circle primitives to create the rounded ends*
1,1,$1,$2,$3*
1,1,$1,$4,$5*%
%AMFreePoly0*
4,1,6,0.500000,-0.750000,-0.650000,-0.750000,-0.150000,0.000000,-0.650000,0.750000,0.500000,0.750000,0.500000,-0.750000,0.500000,-0.750000,$1*%
%AMFreePoly1*
4,1,6,1.000000,0.000000,0.500000,-0.750000,-0.500000,-0.750000,-0.500000,0.750000,0.500000,0.750000,1.000000,0.000000,1.000000,0.000000,$1*%
G04 Aperture macros list end*
%ADD10C,0.000000*%
%ADD11C,0.150000*%
%ADD12C,0.120000*%
%ADD13C,0.200000*%
%ADD14C,0.500000*%
%ADD15C,3.200000*%
%ADD16O,3.000000X2.500000*%
%ADD17O,1.750000X1.200000*%
%ADD18RoundRect,0.250000X0.625000X-0.350000X0.625000X0.350000X-0.625000X0.350000X-0.625000X-0.350000X0*%
%ADD19O,1.000000X1.600000*%
%ADD20O,1.000000X2.100000*%
%ADD21C,0.650000*%
%ADD22RoundRect,0.250000X-0.625000X0.350000X-0.625000X-0.350000X0.625000X-0.350000X0.625000X0.350000X0*%
%ADD23O,1.500000X3.000000*%
%ADD24O,1.600000X1.600000*%
%ADD25R,1.600000X1.600000*%
%ADD26C,2.000000*%
%ADD27O,1.700000X1.700000*%
%ADD28R,1.700000X1.700000*%
%ADD29O,1.200000X1.750000*%
%ADD30RoundRect,0.250000X-0.350000X-0.625000X0.350000X-0.625000X0.350000X0.625000X-0.350000X0.625000X0*%
%ADD31C,1.500000*%
%ADD32C,1.000000*%
%ADD33C,0.750000*%
%ADD34C,1.524000*%
%ADD35C,1.600000*%
%ADD36R,2.200000X8.000000*%
%ADD37C,3.500000*%
%ADD38C,4.000000*%
%ADD39RoundRect,0.250000X0.350000X0.625000X-0.350000X0.625000X-0.350000X-0.625000X0.350000X-0.625000X0*%
%ADD40C,2.200000*%
%ADD41C,1.700000*%
%ADD42RoundRect,0.250000X0.194454X-0.689429X0.689429X-0.194454X-0.194454X0.689429X-0.689429X0.194454X0*%
%ADD43HorizOval,1.200000X-0.194454X0.194454X0.194454X-0.194454X0*%
%ADD44RoundRect,0.225000X-0.250000X0.225000X-0.250000X-0.225000X0.250000X-0.225000X0.250000X0.225000X0*%
%ADD45RoundRect,0.250000X0.250000X0.475000X-0.250000X0.475000X-0.250000X-0.475000X0.250000X-0.475000X0*%
%ADD46RoundRect,0.250000X-0.475000X0.250000X-0.475000X-0.250000X0.475000X-0.250000X0.475000X0.250000X0*%
%ADD47FreePoly0,270.000000*%
%ADD48FreePoly1,270.000000*%
%ADD49RoundRect,0.250000X-0.250000X-0.475000X0.250000X-0.475000X0.250000X0.475000X-0.250000X0.475000X0*%
%ADD50RoundRect,0.225000X-0.225000X-0.250000X0.225000X-0.250000X0.225000X0.250000X-0.225000X0.250000X0*%
G04 APERTURE END LIST*
D10*
G36*
X262793826Y-111568014D02*
G01*
X262795971Y-111568132D01*
X262798046Y-111568328D01*
X262800051Y-111568603D01*
X262801985Y-111568956D01*
X262803849Y-111569388D01*
X262805643Y-111569898D01*
X262807366Y-111570486D01*
X262809019Y-111571154D01*
X262810601Y-111571899D01*
X262812113Y-111572724D01*
X262813555Y-111573626D01*
X262814927Y-111574607D01*
X262816228Y-111575667D01*
X262817459Y-111576805D01*
X262818619Y-111578022D01*
X262819709Y-111579317D01*
X262820729Y-111580690D01*
X262821678Y-111582142D01*
X262822557Y-111583673D01*
X262823366Y-111585282D01*
X262824105Y-111586969D01*
X262824773Y-111588735D01*
X262825370Y-111590579D01*
X262825898Y-111592502D01*
X262826355Y-111594503D01*
X262826742Y-111596583D01*
X262827058Y-111598741D01*
X262827480Y-111603293D01*
X262827621Y-111608159D01*
X262978862Y-112404656D01*
X262978897Y-112407128D01*
X262979003Y-112409522D01*
X262979179Y-112411837D01*
X262979425Y-112414073D01*
X262979741Y-112416232D01*
X262980128Y-112418311D01*
X262980585Y-112420313D01*
X262981113Y-112422235D01*
X262981711Y-112424080D01*
X262982379Y-112425846D01*
X262983117Y-112427533D01*
X262983926Y-112429142D01*
X262984806Y-112430672D01*
X262985755Y-112432124D01*
X262986775Y-112433498D01*
X262987865Y-112434793D01*
X262989026Y-112436010D01*
X262990257Y-112437148D01*
X262991558Y-112438207D01*
X262992929Y-112439188D01*
X262994371Y-112440091D01*
X262995883Y-112440915D01*
X262997466Y-112441661D01*
X262999119Y-112442328D01*
X263000842Y-112442917D01*
X263002635Y-112443427D01*
X263004499Y-112443859D01*
X263006433Y-112444212D01*
X263008438Y-112444487D01*
X263010512Y-112444683D01*
X263012657Y-112444801D01*
X263014873Y-112444840D01*
X263540614Y-112671368D01*
X263598228Y-112671368D01*
X264253604Y-112196393D01*
X264258036Y-112196464D01*
X264262326Y-112196678D01*
X264266476Y-112197035D01*
X264270486Y-112197534D01*
X264274354Y-112198176D01*
X264278082Y-112198961D01*
X264281669Y-112199889D01*
X264285115Y-112200959D01*
X264288421Y-112202172D01*
X264291586Y-112203527D01*
X264294610Y-112205026D01*
X264297494Y-112206667D01*
X264300236Y-112208450D01*
X264302838Y-112210377D01*
X264305300Y-112212446D01*
X264307620Y-112214657D01*
X264872974Y-112766358D01*
X264872974Y-112824818D01*
X264422855Y-113489785D01*
X264422855Y-113548245D01*
X264646114Y-114099946D01*
X264650558Y-114104370D01*
X264654891Y-114108510D01*
X264659110Y-114112363D01*
X264663218Y-114115932D01*
X264667212Y-114119214D01*
X264671094Y-114122212D01*
X264674864Y-114124923D01*
X264678521Y-114127349D01*
X264682065Y-114129490D01*
X264685497Y-114131345D01*
X264688817Y-114132915D01*
X264692024Y-114134200D01*
X264695118Y-114135198D01*
X264698100Y-114135912D01*
X264700970Y-114136340D01*
X264702362Y-114136447D01*
X264703727Y-114136483D01*
X265452728Y-114268014D01*
X265454943Y-114268053D01*
X265457088Y-114268171D01*
X265459163Y-114268367D01*
X265461167Y-114268642D01*
X265463101Y-114268995D01*
X265464965Y-114269427D01*
X265466758Y-114269937D01*
X265468481Y-114270526D01*
X265470134Y-114271193D01*
X265471716Y-114271939D01*
X265473228Y-114272763D01*
X265474670Y-114273666D01*
X265476041Y-114274647D01*
X265477342Y-114275707D01*
X265478573Y-114276845D01*
X265479733Y-114278062D01*
X265480823Y-114279357D01*
X265481843Y-114280731D01*
X265482792Y-114282183D01*
X265483671Y-114283714D01*
X265484480Y-114285324D01*
X265485218Y-114287012D01*
X265485886Y-114288778D01*
X265486484Y-114290623D01*
X265487012Y-114292546D01*
X265487469Y-114294548D01*
X265487855Y-114296629D01*
X265488172Y-114298788D01*
X265488594Y-114303341D01*
X265488734Y-114308209D01*
X265488734Y-115104706D01*
X265488699Y-115107178D01*
X265488594Y-115109572D01*
X265488418Y-115111887D01*
X265488172Y-115114124D01*
X265487855Y-115116282D01*
X265487469Y-115118362D01*
X265487012Y-115120363D01*
X265486484Y-115122286D01*
X265485886Y-115124130D01*
X265485218Y-115125896D01*
X265484480Y-115127583D01*
X265483671Y-115129192D01*
X265482792Y-115130723D01*
X265481843Y-115132175D01*
X265480823Y-115133548D01*
X265479733Y-115134843D01*
X265478573Y-115136060D01*
X265477342Y-115137198D01*
X265476041Y-115138258D01*
X265474670Y-115139239D01*
X265473228Y-115140141D01*
X265471716Y-115140966D01*
X265470134Y-115141711D01*
X265468481Y-115142379D01*
X265466758Y-115142967D01*
X265464965Y-115143477D01*
X265463101Y-115143909D01*
X265461167Y-115144262D01*
X265459163Y-115144537D01*
X265457088Y-115144733D01*
X265454943Y-115144851D01*
X265452728Y-115144890D01*
X264721732Y-115298348D01*
X264719517Y-115298384D01*
X264717371Y-115298491D01*
X264715296Y-115298669D01*
X264713292Y-115298919D01*
X264711357Y-115299240D01*
X264709493Y-115299632D01*
X264707700Y-115300096D01*
X264705977Y-115300631D01*
X264704324Y-115301238D01*
X264702741Y-115301916D01*
X264701229Y-115302665D01*
X264699787Y-115303485D01*
X264698416Y-115304377D01*
X264697115Y-115305341D01*
X264695884Y-115306375D01*
X264694723Y-115307481D01*
X264693633Y-115308659D01*
X264692613Y-115309908D01*
X264691664Y-115311228D01*
X264690785Y-115312619D01*
X264689976Y-115314082D01*
X264689238Y-115315616D01*
X264688570Y-115317222D01*
X264687972Y-115318899D01*
X264687444Y-115320648D01*
X264686987Y-115322467D01*
X264686601Y-115324358D01*
X264686284Y-115326321D01*
X264686038Y-115328355D01*
X264685862Y-115330460D01*
X264685722Y-115334885D01*
X264440860Y-115923119D01*
X264440860Y-115981576D01*
X264872970Y-116610009D01*
X264872970Y-116646546D01*
X264307620Y-117216515D01*
X264306041Y-117218284D01*
X264304455Y-117219940D01*
X264302862Y-117221481D01*
X264301261Y-117222908D01*
X264299654Y-117224220D01*
X264298040Y-117225419D01*
X264296418Y-117226503D01*
X264294790Y-117227474D01*
X264293155Y-117228330D01*
X264291512Y-117229072D01*
X264289863Y-117229699D01*
X264288206Y-117230213D01*
X264286543Y-117230613D01*
X264284873Y-117230898D01*
X264283195Y-117231069D01*
X264281511Y-117231126D01*
X264279819Y-117231069D01*
X264278120Y-117230898D01*
X264276415Y-117230613D01*
X264274702Y-117230213D01*
X264272983Y-117229699D01*
X264271256Y-117229072D01*
X264269523Y-117228330D01*
X264267782Y-117227474D01*
X264266034Y-117226503D01*
X264264280Y-117225419D01*
X264262518Y-117224220D01*
X264260749Y-117222908D01*
X264258973Y-117221481D01*
X264257191Y-117219940D01*
X264255401Y-117218284D01*
X264253604Y-117216515D01*
X263652244Y-116800000D01*
X263598235Y-116800000D01*
X263335384Y-116949799D01*
X263330516Y-116949728D01*
X263325818Y-116949514D01*
X263321288Y-116949157D01*
X263316927Y-116948657D01*
X263312735Y-116948015D01*
X263308712Y-116947229D01*
X263304858Y-116946302D01*
X263301172Y-116945231D01*
X263297655Y-116944018D01*
X263294307Y-116942662D01*
X263291128Y-116941163D01*
X263288118Y-116939522D01*
X263285277Y-116937738D01*
X263282605Y-116935812D01*
X263280101Y-116933742D01*
X263277766Y-116931531D01*
X262734023Y-115583333D01*
X262734108Y-115578394D01*
X262734361Y-115573627D01*
X262734783Y-115569031D01*
X262735373Y-115564607D01*
X262736132Y-115560353D01*
X262737060Y-115556271D01*
X262738157Y-115552360D01*
X262739423Y-115548621D01*
X262740857Y-115545053D01*
X262742461Y-115541656D01*
X262744233Y-115538430D01*
X262746174Y-115535376D01*
X262748283Y-115532493D01*
X262750562Y-115529781D01*
X262753010Y-115527241D01*
X262755626Y-115524872D01*
X262827644Y-115488335D01*
X262842044Y-115477372D01*
X262845587Y-115473717D01*
X262849018Y-115470063D01*
X262852336Y-115466408D01*
X262855543Y-115462755D01*
X262858637Y-115459101D01*
X262861619Y-115455448D01*
X262864490Y-115451796D01*
X262867248Y-115448144D01*
X262914777Y-115417060D01*
X262959241Y-115384092D01*
X263000638Y-115349240D01*
X263038968Y-115312505D01*
X263074232Y-115273885D01*
X263106429Y-115233381D01*
X263135560Y-115190993D01*
X263161625Y-115146721D01*
X263184623Y-115100566D01*
X263204554Y-115052526D01*
X263221420Y-115002602D01*
X263235218Y-114950794D01*
X263245951Y-114897103D01*
X263253617Y-114841527D01*
X263258216Y-114784068D01*
X263259750Y-114724724D01*
X263258765Y-114679025D01*
X263255811Y-114634182D01*
X263250888Y-114590195D01*
X263243995Y-114547065D01*
X263235134Y-114504791D01*
X263224302Y-114463373D01*
X263211502Y-114422812D01*
X263196732Y-114383107D01*
X263179993Y-114344258D01*
X263161285Y-114306266D01*
X263140607Y-114269130D01*
X263117960Y-114232850D01*
X263093344Y-114197427D01*
X263066758Y-114162860D01*
X263038203Y-114129149D01*
X263007678Y-114096295D01*
X262975340Y-114064439D01*
X262942243Y-114034638D01*
X262908386Y-114006892D01*
X262873769Y-113981202D01*
X262838393Y-113957567D01*
X262802258Y-113935988D01*
X262765362Y-113916464D01*
X262727708Y-113898995D01*
X262689293Y-113883581D01*
X262650119Y-113870222D01*
X262610185Y-113858919D01*
X262569492Y-113849671D01*
X262528038Y-113842478D01*
X262485825Y-113837340D01*
X262442852Y-113834257D01*
X262399120Y-113833230D01*
X262353671Y-113834257D01*
X262309151Y-113837340D01*
X262265559Y-113842478D01*
X262222896Y-113849671D01*
X262181161Y-113858919D01*
X262140354Y-113870222D01*
X262100476Y-113883581D01*
X262061527Y-113898995D01*
X262023506Y-113916464D01*
X261986413Y-113935988D01*
X261950249Y-113957567D01*
X261915014Y-113981202D01*
X261880706Y-114006892D01*
X261847327Y-114034638D01*
X261814877Y-114064439D01*
X261783355Y-114096295D01*
X261753268Y-114129149D01*
X261725122Y-114162860D01*
X261698916Y-114197427D01*
X261674653Y-114232850D01*
X261652330Y-114269130D01*
X261631948Y-114306266D01*
X261613507Y-114344258D01*
X261597008Y-114383107D01*
X261582450Y-114422812D01*
X261569832Y-114463373D01*
X261559156Y-114504791D01*
X261550421Y-114547065D01*
X261543627Y-114590195D01*
X261538775Y-114634182D01*
X261535863Y-114679025D01*
X261534892Y-114724724D01*
X261536440Y-114784067D01*
X261538374Y-114813032D01*
X261541081Y-114841526D01*
X261544563Y-114869549D01*
X261548818Y-114897101D01*
X261553846Y-114924182D01*
X261559649Y-114950792D01*
X261566225Y-114976931D01*
X261573574Y-115002600D01*
X261581698Y-115027797D01*
X261590594Y-115052523D01*
X261600265Y-115076778D01*
X261610709Y-115100563D01*
X261621927Y-115123876D01*
X261633918Y-115146719D01*
X261646684Y-115169090D01*
X261660222Y-115190990D01*
X261674535Y-115212420D01*
X261689621Y-115233378D01*
X261705481Y-115253866D01*
X261722114Y-115273882D01*
X261739521Y-115293428D01*
X261757702Y-115312503D01*
X261776656Y-115331106D01*
X261796384Y-115349239D01*
X261816886Y-115366900D01*
X261838161Y-115384091D01*
X261860210Y-115400811D01*
X261883033Y-115417059D01*
X261906629Y-115432837D01*
X261930999Y-115448144D01*
X261934542Y-115451798D01*
X261937973Y-115455453D01*
X261941291Y-115459107D01*
X261944498Y-115462761D01*
X261947592Y-115466414D01*
X261950574Y-115470067D01*
X261953444Y-115473719D01*
X261956203Y-115477372D01*
X261967010Y-115488335D01*
X262042628Y-115524872D01*
X262044808Y-115527241D01*
X262046848Y-115529781D01*
X262048747Y-115532493D01*
X262050505Y-115535375D01*
X262052122Y-115538429D01*
X262053599Y-115541655D01*
X262054936Y-115545051D01*
X262056132Y-115548619D01*
X262057187Y-115552359D01*
X262058101Y-115556269D01*
X262058875Y-115560352D01*
X262059508Y-115564605D01*
X262060001Y-115569030D01*
X262060352Y-115573626D01*
X262060563Y-115578394D01*
X262060634Y-115583333D01*
X261498885Y-116931531D01*
X261498847Y-116932654D01*
X261498731Y-116933742D01*
X261498537Y-116934795D01*
X261498266Y-116935812D01*
X261497918Y-116936793D01*
X261497493Y-116937738D01*
X261496990Y-116938648D01*
X261496410Y-116939522D01*
X261495752Y-116940360D01*
X261495017Y-116941163D01*
X261493315Y-116942662D01*
X261491303Y-116944018D01*
X261488982Y-116945231D01*
X261486352Y-116946302D01*
X261483412Y-116947229D01*
X261480162Y-116948015D01*
X261476603Y-116948657D01*
X261472734Y-116949157D01*
X261468555Y-116949514D01*
X261464067Y-116949728D01*
X261459270Y-116949799D01*
X261200000Y-116800000D01*
X261142383Y-116800000D01*
X260541030Y-117216527D01*
X260539451Y-117218296D01*
X260537864Y-117219951D01*
X260536270Y-117221492D01*
X260534670Y-117222919D01*
X260533062Y-117224232D01*
X260531448Y-117225430D01*
X260529826Y-117226515D01*
X260528198Y-117227485D01*
X260526562Y-117228341D01*
X260524920Y-117229083D01*
X260523270Y-117229711D01*
X260521614Y-117230225D01*
X260519950Y-117230624D01*
X260518280Y-117230910D01*
X260516602Y-117231081D01*
X260514918Y-117231138D01*
X260513226Y-117231081D01*
X260511528Y-117230910D01*
X260509822Y-117230624D01*
X260508110Y-117230225D01*
X260506390Y-117229711D01*
X260504664Y-117229083D01*
X260502930Y-117228341D01*
X260501190Y-117227485D01*
X260499442Y-117226515D01*
X260497688Y-117225430D01*
X260495926Y-117224232D01*
X260494158Y-117222919D01*
X260492382Y-117221492D01*
X260490600Y-117219951D01*
X260488810Y-117218296D01*
X260487014Y-117216527D01*
X259925265Y-116646557D01*
X259925265Y-116610020D01*
X260353774Y-115981587D01*
X260353774Y-115923131D01*
X260112510Y-115334889D01*
X260112471Y-115332641D01*
X260112355Y-115330464D01*
X260112162Y-115328359D01*
X260111891Y-115326325D01*
X260111543Y-115324362D01*
X260111117Y-115322471D01*
X260110615Y-115320651D01*
X260110034Y-115318903D01*
X260109377Y-115317226D01*
X260108642Y-115315620D01*
X260107829Y-115314086D01*
X260106940Y-115312623D01*
X260105973Y-115311232D01*
X260104928Y-115309911D01*
X260103806Y-115308663D01*
X260102607Y-115307485D01*
X260101330Y-115306379D01*
X260099976Y-115305344D01*
X260098545Y-115304381D01*
X260097036Y-115303489D01*
X260095450Y-115302669D01*
X260093786Y-115301919D01*
X260092046Y-115301242D01*
X260090227Y-115300635D01*
X260088331Y-115300100D01*
X260086358Y-115299636D01*
X260084308Y-115299244D01*
X260082180Y-115298923D01*
X260077692Y-115298495D01*
X260072894Y-115298352D01*
X259341903Y-115144894D01*
X259339687Y-115144855D01*
X259337542Y-115144737D01*
X259335467Y-115144541D01*
X259333462Y-115144266D01*
X259331528Y-115143913D01*
X259329664Y-115143482D01*
X259327870Y-115142971D01*
X259326147Y-115142383D01*
X259324494Y-115141716D01*
X259322912Y-115140970D01*
X259321400Y-115140146D01*
X259319958Y-115139244D01*
X259318586Y-115138263D01*
X259317285Y-115137203D01*
X259316054Y-115136065D01*
X259314894Y-115134849D01*
X259313804Y-115133554D01*
X259312784Y-115132180D01*
X259311835Y-115130728D01*
X259310956Y-115129198D01*
X259310147Y-115127589D01*
X259309408Y-115125902D01*
X259308740Y-115124136D01*
X259308142Y-115122291D01*
X259307615Y-115120368D01*
X259307158Y-115118367D01*
X259306771Y-115116287D01*
X259306455Y-115114129D01*
X259306033Y-115109576D01*
X259305892Y-115104710D01*
X259305892Y-114308217D01*
X259305927Y-114305743D01*
X259306033Y-114303348D01*
X259306209Y-114301032D01*
X259306455Y-114298794D01*
X259306771Y-114296635D01*
X259307158Y-114294554D01*
X259307615Y-114292552D01*
X259308142Y-114290628D01*
X259308740Y-114288783D01*
X259309408Y-114287017D01*
X259310147Y-114285329D01*
X259310956Y-114283719D01*
X259311835Y-114282188D01*
X259312784Y-114280736D01*
X259313804Y-114279362D01*
X259314894Y-114278066D01*
X259316054Y-114276849D01*
X259317285Y-114275711D01*
X259318586Y-114274651D01*
X259319958Y-114273670D01*
X259321400Y-114272767D01*
X259322912Y-114271943D01*
X259324494Y-114271197D01*
X259326147Y-114270529D01*
X259327870Y-114269941D01*
X259329664Y-114269430D01*
X259331528Y-114268999D01*
X259333462Y-114268645D01*
X259335467Y-114268371D01*
X259337542Y-114268174D01*
X259339687Y-114268057D01*
X259341903Y-114268017D01*
X260090884Y-114136483D01*
X260093322Y-114136447D01*
X260095682Y-114136340D01*
X260097965Y-114136162D01*
X260100170Y-114135912D01*
X260102298Y-114135591D01*
X260104348Y-114135198D01*
X260106322Y-114134735D01*
X260108217Y-114134200D01*
X260110036Y-114133593D01*
X260111777Y-114132915D01*
X260113440Y-114132166D01*
X260115026Y-114131345D01*
X260116535Y-114130453D01*
X260117966Y-114129490D01*
X260119320Y-114128455D01*
X260120597Y-114127349D01*
X260121796Y-114126172D01*
X260122918Y-114124923D01*
X260123963Y-114123603D01*
X260124930Y-114122212D01*
X260125819Y-114120749D01*
X260126632Y-114119214D01*
X260127367Y-114117609D01*
X260128024Y-114115932D01*
X260128605Y-114114183D01*
X260129108Y-114112363D01*
X260129533Y-114110472D01*
X260129881Y-114108510D01*
X260130152Y-114106476D01*
X260130345Y-114104370D01*
X260130461Y-114102194D01*
X260130500Y-114099946D01*
X260375365Y-113548245D01*
X260375365Y-113489785D01*
X259925246Y-112824818D01*
X259925246Y-112766358D01*
X260486995Y-112214657D01*
X260489315Y-112212446D01*
X260491777Y-112210377D01*
X260494379Y-112208450D01*
X260497122Y-112206667D01*
X260500005Y-112205026D01*
X260503029Y-112203527D01*
X260506194Y-112202172D01*
X260509500Y-112200959D01*
X260512946Y-112199889D01*
X260516533Y-112198961D01*
X260520261Y-112198176D01*
X260524130Y-112197534D01*
X260528139Y-112197035D01*
X260532289Y-112196678D01*
X260536580Y-112196464D01*
X260541011Y-112196393D01*
X261199989Y-112671368D01*
X261253997Y-112671368D01*
X261779739Y-112444840D01*
X261781954Y-112444801D01*
X261784100Y-112444683D01*
X261786175Y-112444487D01*
X261788179Y-112444212D01*
X261790114Y-112443859D01*
X261791978Y-112443427D01*
X261793771Y-112442917D01*
X261795494Y-112442328D01*
X261797147Y-112441661D01*
X261798730Y-112440915D01*
X261800242Y-112440091D01*
X261801684Y-112439188D01*
X261803055Y-112438207D01*
X261804356Y-112437148D01*
X261805587Y-112436010D01*
X261806748Y-112434793D01*
X261807838Y-112433498D01*
X261808857Y-112432124D01*
X261809807Y-112430672D01*
X261810686Y-112429142D01*
X261811495Y-112427533D01*
X261812233Y-112425846D01*
X261812901Y-112424080D01*
X261813499Y-112422235D01*
X261814026Y-112420313D01*
X261814484Y-112418311D01*
X261814870Y-112416232D01*
X261815187Y-112414073D01*
X261815609Y-112409522D01*
X261815749Y-112404656D01*
X261966991Y-111608159D01*
X261967026Y-111605687D01*
X261967131Y-111603293D01*
X261967307Y-111600978D01*
X261967553Y-111598741D01*
X261967870Y-111596583D01*
X261968256Y-111594503D01*
X261968714Y-111592502D01*
X261969241Y-111590579D01*
X261969839Y-111588735D01*
X261970507Y-111586969D01*
X261971245Y-111585282D01*
X261972054Y-111583673D01*
X261972933Y-111582142D01*
X261973883Y-111580690D01*
X261974902Y-111579317D01*
X261975992Y-111578022D01*
X261977153Y-111576805D01*
X261978384Y-111575667D01*
X261979685Y-111574607D01*
X261981056Y-111573626D01*
X261982498Y-111572724D01*
X261984010Y-111571899D01*
X261985593Y-111571154D01*
X261987246Y-111570486D01*
X261988969Y-111569898D01*
X261990762Y-111569388D01*
X261992626Y-111568956D01*
X261994561Y-111568603D01*
X261996565Y-111568328D01*
X261998640Y-111568132D01*
X262000786Y-111568014D01*
X262003001Y-111567975D01*
X262791610Y-111567975D01*
X262793826Y-111568014D01*
G37*
G36*
X132439950Y-171480101D02*
G01*
X132442344Y-171480206D01*
X132444659Y-171480382D01*
X132446896Y-171480628D01*
X132449054Y-171480945D01*
X132451134Y-171481331D01*
X132453135Y-171481788D01*
X132455058Y-171482316D01*
X132456902Y-171482914D01*
X132458668Y-171483582D01*
X132460355Y-171484320D01*
X132461964Y-171485129D01*
X132463495Y-171486008D01*
X132464947Y-171486957D01*
X132466320Y-171487977D01*
X132467615Y-171489067D01*
X132468832Y-171490227D01*
X132469970Y-171491458D01*
X132471030Y-171492759D01*
X132472011Y-171494130D01*
X132472913Y-171495572D01*
X132473738Y-171497084D01*
X132474483Y-171498666D01*
X132475151Y-171500319D01*
X132475739Y-171502042D01*
X132476249Y-171503835D01*
X132476681Y-171505699D01*
X132477034Y-171507633D01*
X132477309Y-171509637D01*
X132477505Y-171511712D01*
X132477623Y-171513857D01*
X132477662Y-171516072D01*
X132631120Y-172247068D01*
X132631156Y-172249283D01*
X132631263Y-172251429D01*
X132631441Y-172253504D01*
X132631691Y-172255508D01*
X132632012Y-172257443D01*
X132632404Y-172259307D01*
X132632868Y-172261100D01*
X132633403Y-172262823D01*
X132634010Y-172264476D01*
X132634688Y-172266059D01*
X132635437Y-172267571D01*
X132636257Y-172269013D01*
X132637149Y-172270384D01*
X132638113Y-172271685D01*
X132639147Y-172272916D01*
X132640253Y-172274077D01*
X132641431Y-172275167D01*
X132642680Y-172276187D01*
X132644000Y-172277136D01*
X132645391Y-172278015D01*
X132646854Y-172278824D01*
X132648388Y-172279562D01*
X132649994Y-172280230D01*
X132651671Y-172280828D01*
X132653420Y-172281356D01*
X132655239Y-172281813D01*
X132657130Y-172282199D01*
X132659093Y-172282516D01*
X132661127Y-172282762D01*
X132663232Y-172282938D01*
X132667657Y-172283078D01*
X133255891Y-172527940D01*
X133314348Y-172527940D01*
X133942781Y-172095830D01*
X133979318Y-172095830D01*
X134549287Y-172661180D01*
X134551056Y-172662759D01*
X134552712Y-172664345D01*
X134554253Y-172665938D01*
X134555680Y-172667539D01*
X134556992Y-172669146D01*
X134558191Y-172670760D01*
X134559275Y-172672382D01*
X134560246Y-172674010D01*
X134561102Y-172675645D01*
X134561844Y-172677288D01*
X134562471Y-172678937D01*
X134562985Y-172680594D01*
X134563385Y-172682257D01*
X134563670Y-172683927D01*
X134563841Y-172685605D01*
X134563898Y-172687289D01*
X134563841Y-172688981D01*
X134563670Y-172690680D01*
X134563385Y-172692385D01*
X134562985Y-172694098D01*
X134562471Y-172695817D01*
X134561844Y-172697544D01*
X134561102Y-172699277D01*
X134560246Y-172701018D01*
X134559275Y-172702766D01*
X134558191Y-172704520D01*
X134556992Y-172706282D01*
X134555680Y-172708051D01*
X134554253Y-172709827D01*
X134552712Y-172711609D01*
X134551056Y-172713399D01*
X134549287Y-172715196D01*
X134132772Y-173316556D01*
X134132772Y-173370565D01*
X134282571Y-173633416D01*
X134282500Y-173638284D01*
X134282286Y-173642982D01*
X134281929Y-173647512D01*
X134281429Y-173651873D01*
X134280787Y-173656065D01*
X134280001Y-173660088D01*
X134279074Y-173663942D01*
X134278003Y-173667628D01*
X134276790Y-173671145D01*
X134275434Y-173674493D01*
X134273935Y-173677672D01*
X134272294Y-173680682D01*
X134270510Y-173683523D01*
X134268584Y-173686195D01*
X134266514Y-173688699D01*
X134264303Y-173691034D01*
X132916105Y-174234777D01*
X132911166Y-174234692D01*
X132906399Y-174234439D01*
X132901803Y-174234017D01*
X132897379Y-174233427D01*
X132893125Y-174232668D01*
X132889043Y-174231740D01*
X132885132Y-174230643D01*
X132881393Y-174229377D01*
X132877825Y-174227943D01*
X132874428Y-174226339D01*
X132871202Y-174224567D01*
X132868148Y-174222626D01*
X132865265Y-174220517D01*
X132862553Y-174218238D01*
X132860013Y-174215790D01*
X132857644Y-174213174D01*
X132821107Y-174141156D01*
X132810144Y-174126756D01*
X132806489Y-174123213D01*
X132802835Y-174119782D01*
X132799180Y-174116464D01*
X132795527Y-174113257D01*
X132791873Y-174110163D01*
X132788220Y-174107181D01*
X132784568Y-174104310D01*
X132780916Y-174101552D01*
X132749832Y-174054023D01*
X132716864Y-174009559D01*
X132682012Y-173968162D01*
X132645277Y-173929832D01*
X132606657Y-173894568D01*
X132566153Y-173862371D01*
X132523765Y-173833240D01*
X132479493Y-173807175D01*
X132433338Y-173784177D01*
X132385298Y-173764246D01*
X132335374Y-173747380D01*
X132283566Y-173733582D01*
X132229875Y-173722849D01*
X132174299Y-173715183D01*
X132116840Y-173710584D01*
X132057496Y-173709050D01*
X132011797Y-173710035D01*
X131966954Y-173712989D01*
X131922967Y-173717912D01*
X131879837Y-173724805D01*
X131837563Y-173733666D01*
X131796145Y-173744498D01*
X131755584Y-173757298D01*
X131715879Y-173772068D01*
X131677030Y-173788807D01*
X131639038Y-173807515D01*
X131601902Y-173828193D01*
X131565622Y-173850840D01*
X131530199Y-173875456D01*
X131495632Y-173902042D01*
X131461921Y-173930597D01*
X131429067Y-173961122D01*
X131397211Y-173993460D01*
X131367410Y-174026557D01*
X131339664Y-174060414D01*
X131313974Y-174095031D01*
X131290339Y-174130407D01*
X131268760Y-174166542D01*
X131249236Y-174203438D01*
X131231767Y-174241092D01*
X131216353Y-174279507D01*
X131202994Y-174318681D01*
X131191691Y-174358615D01*
X131182443Y-174399308D01*
X131175250Y-174440762D01*
X131170112Y-174482975D01*
X131167029Y-174525948D01*
X131166002Y-174569680D01*
X131167029Y-174615129D01*
X131170112Y-174659649D01*
X131175250Y-174703241D01*
X131182443Y-174745904D01*
X131191691Y-174787639D01*
X131202994Y-174828446D01*
X131216353Y-174868324D01*
X131231767Y-174907273D01*
X131249236Y-174945294D01*
X131268760Y-174982387D01*
X131290339Y-175018551D01*
X131313974Y-175053786D01*
X131339664Y-175088094D01*
X131367410Y-175121473D01*
X131397211Y-175153923D01*
X131429067Y-175185445D01*
X131461921Y-175215532D01*
X131495632Y-175243678D01*
X131530199Y-175269884D01*
X131565622Y-175294147D01*
X131601902Y-175316470D01*
X131639038Y-175336852D01*
X131677030Y-175355293D01*
X131715879Y-175371792D01*
X131755584Y-175386350D01*
X131796145Y-175398968D01*
X131837563Y-175409644D01*
X131879837Y-175418379D01*
X131922967Y-175425173D01*
X131966954Y-175430025D01*
X132011797Y-175432937D01*
X132057496Y-175433908D01*
X132116839Y-175432360D01*
X132145804Y-175430426D01*
X132174298Y-175427719D01*
X132202321Y-175424237D01*
X132229873Y-175419982D01*
X132256954Y-175414954D01*
X132283564Y-175409151D01*
X132309703Y-175402575D01*
X132335372Y-175395226D01*
X132360569Y-175387102D01*
X132385295Y-175378206D01*
X132409550Y-175368535D01*
X132433335Y-175358091D01*
X132456648Y-175346873D01*
X132479491Y-175334882D01*
X132501862Y-175322116D01*
X132523762Y-175308578D01*
X132545192Y-175294265D01*
X132566150Y-175279179D01*
X132586638Y-175263319D01*
X132606654Y-175246686D01*
X132626200Y-175229279D01*
X132645275Y-175211098D01*
X132663878Y-175192144D01*
X132682011Y-175172416D01*
X132699672Y-175151914D01*
X132716863Y-175130639D01*
X132733583Y-175108590D01*
X132749831Y-175085767D01*
X132765609Y-175062171D01*
X132780916Y-175037801D01*
X132784570Y-175034258D01*
X132788225Y-175030827D01*
X132791879Y-175027509D01*
X132795533Y-175024302D01*
X132799186Y-175021208D01*
X132802839Y-175018226D01*
X132806491Y-175015356D01*
X132810144Y-175012597D01*
X132821107Y-175001790D01*
X132857644Y-174926172D01*
X132860013Y-174923992D01*
X132862553Y-174921952D01*
X132865265Y-174920053D01*
X132868147Y-174918295D01*
X132871201Y-174916678D01*
X132874427Y-174915201D01*
X132877823Y-174913864D01*
X132881391Y-174912668D01*
X132885131Y-174911613D01*
X132889041Y-174910699D01*
X132893124Y-174909925D01*
X132897377Y-174909292D01*
X132901802Y-174908799D01*
X132906398Y-174908448D01*
X132911166Y-174908237D01*
X132916105Y-174908166D01*
X134264303Y-175469915D01*
X134265426Y-175469953D01*
X134266514Y-175470069D01*
X134267567Y-175470263D01*
X134268584Y-175470534D01*
X134269565Y-175470882D01*
X134270510Y-175471307D01*
X134271420Y-175471810D01*
X134272294Y-175472390D01*
X134273132Y-175473048D01*
X134273935Y-175473783D01*
X134275434Y-175475485D01*
X134276790Y-175477497D01*
X134278003Y-175479818D01*
X134279074Y-175482448D01*
X134280001Y-175485388D01*
X134280787Y-175488638D01*
X134281429Y-175492197D01*
X134281929Y-175496066D01*
X134282286Y-175500245D01*
X134282500Y-175504733D01*
X134282571Y-175509530D01*
X134132772Y-175768800D01*
X134132772Y-175826417D01*
X134549299Y-176427770D01*
X134551068Y-176429349D01*
X134552723Y-176430936D01*
X134554264Y-176432530D01*
X134555691Y-176434130D01*
X134557004Y-176435738D01*
X134558202Y-176437352D01*
X134559287Y-176438974D01*
X134560257Y-176440602D01*
X134561113Y-176442238D01*
X134561855Y-176443880D01*
X134562483Y-176445530D01*
X134562997Y-176447186D01*
X134563396Y-176448850D01*
X134563682Y-176450520D01*
X134563853Y-176452198D01*
X134563910Y-176453882D01*
X134563853Y-176455574D01*
X134563682Y-176457272D01*
X134563396Y-176458978D01*
X134562997Y-176460690D01*
X134562483Y-176462410D01*
X134561855Y-176464136D01*
X134561113Y-176465870D01*
X134560257Y-176467610D01*
X134559287Y-176469358D01*
X134558202Y-176471112D01*
X134557004Y-176472874D01*
X134555691Y-176474642D01*
X134554264Y-176476418D01*
X134552723Y-176478200D01*
X134551068Y-176479990D01*
X134549299Y-176481786D01*
X133979329Y-177043535D01*
X133942792Y-177043535D01*
X133314359Y-176615026D01*
X133255903Y-176615026D01*
X132667661Y-176856290D01*
X132665413Y-176856329D01*
X132663236Y-176856445D01*
X132661131Y-176856638D01*
X132659097Y-176856909D01*
X132657134Y-176857257D01*
X132655243Y-176857683D01*
X132653423Y-176858185D01*
X132651675Y-176858766D01*
X132649998Y-176859423D01*
X132648392Y-176860158D01*
X132646858Y-176860971D01*
X132645395Y-176861860D01*
X132644004Y-176862827D01*
X132642683Y-176863872D01*
X132641435Y-176864994D01*
X132640257Y-176866193D01*
X132639151Y-176867470D01*
X132638116Y-176868824D01*
X132637153Y-176870255D01*
X132636261Y-176871764D01*
X132635441Y-176873350D01*
X132634691Y-176875014D01*
X132634014Y-176876754D01*
X132633407Y-176878573D01*
X132632872Y-176880469D01*
X132632408Y-176882442D01*
X132632016Y-176884492D01*
X132631695Y-176886620D01*
X132631267Y-176891108D01*
X132631124Y-176895906D01*
X132477666Y-177626897D01*
X132477627Y-177629113D01*
X132477509Y-177631258D01*
X132477313Y-177633333D01*
X132477038Y-177635338D01*
X132476685Y-177637272D01*
X132476254Y-177639136D01*
X132475743Y-177640930D01*
X132475155Y-177642653D01*
X132474488Y-177644306D01*
X132473742Y-177645888D01*
X132472918Y-177647400D01*
X132472016Y-177648842D01*
X132471035Y-177650214D01*
X132469975Y-177651515D01*
X132468837Y-177652746D01*
X132467621Y-177653906D01*
X132466326Y-177654996D01*
X132464952Y-177656016D01*
X132463500Y-177656965D01*
X132461970Y-177657844D01*
X132460361Y-177658653D01*
X132458674Y-177659392D01*
X132456908Y-177660060D01*
X132455063Y-177660658D01*
X132453140Y-177661185D01*
X132451139Y-177661642D01*
X132449059Y-177662029D01*
X132446901Y-177662345D01*
X132442348Y-177662767D01*
X132437482Y-177662908D01*
X131640989Y-177662908D01*
X131638515Y-177662873D01*
X131636120Y-177662767D01*
X131633804Y-177662591D01*
X131631566Y-177662345D01*
X131629407Y-177662029D01*
X131627326Y-177661642D01*
X131625324Y-177661185D01*
X131623400Y-177660658D01*
X131621555Y-177660060D01*
X131619789Y-177659392D01*
X131618101Y-177658653D01*
X131616491Y-177657844D01*
X131614960Y-177656965D01*
X131613508Y-177656016D01*
X131612134Y-177654996D01*
X131610838Y-177653906D01*
X131609621Y-177652746D01*
X131608483Y-177651515D01*
X131607423Y-177650214D01*
X131606442Y-177648842D01*
X131605539Y-177647400D01*
X131604715Y-177645888D01*
X131603969Y-177644306D01*
X131603301Y-177642653D01*
X131602713Y-177640930D01*
X131602202Y-177639136D01*
X131601771Y-177637272D01*
X131601417Y-177635338D01*
X131601143Y-177633333D01*
X131600946Y-177631258D01*
X131600829Y-177629113D01*
X131600789Y-177626897D01*
X131469255Y-176877916D01*
X131469219Y-176875478D01*
X131469112Y-176873118D01*
X131468934Y-176870835D01*
X131468684Y-176868630D01*
X131468363Y-176866502D01*
X131467970Y-176864452D01*
X131467507Y-176862478D01*
X131466972Y-176860583D01*
X131466365Y-176858764D01*
X131465687Y-176857023D01*
X131464938Y-176855360D01*
X131464117Y-176853774D01*
X131463225Y-176852265D01*
X131462262Y-176850834D01*
X131461227Y-176849480D01*
X131460121Y-176848203D01*
X131458944Y-176847004D01*
X131457695Y-176845882D01*
X131456375Y-176844837D01*
X131454984Y-176843870D01*
X131453521Y-176842981D01*
X131451986Y-176842168D01*
X131450381Y-176841433D01*
X131448704Y-176840776D01*
X131446955Y-176840195D01*
X131445135Y-176839692D01*
X131443244Y-176839267D01*
X131441282Y-176838919D01*
X131439248Y-176838648D01*
X131437142Y-176838455D01*
X131434966Y-176838339D01*
X131432718Y-176838300D01*
X130881017Y-176593435D01*
X130822557Y-176593435D01*
X130157590Y-177043554D01*
X130099130Y-177043554D01*
X129547429Y-176481805D01*
X129545218Y-176479485D01*
X129543149Y-176477023D01*
X129541222Y-176474421D01*
X129539439Y-176471678D01*
X129537798Y-176468795D01*
X129536299Y-176465771D01*
X129534944Y-176462606D01*
X129533731Y-176459300D01*
X129532661Y-176455854D01*
X129531733Y-176452267D01*
X129530948Y-176448539D01*
X129530306Y-176444670D01*
X129529807Y-176440661D01*
X129529450Y-176436511D01*
X129529236Y-176432220D01*
X129529165Y-176427789D01*
X130004140Y-175768811D01*
X130004140Y-175714803D01*
X129777612Y-175189061D01*
X129777573Y-175186846D01*
X129777455Y-175184700D01*
X129777259Y-175182625D01*
X129776984Y-175180621D01*
X129776631Y-175178686D01*
X129776199Y-175176822D01*
X129775689Y-175175029D01*
X129775100Y-175173306D01*
X129774433Y-175171653D01*
X129773687Y-175170070D01*
X129772863Y-175168558D01*
X129771960Y-175167116D01*
X129770979Y-175165745D01*
X129769920Y-175164444D01*
X129768782Y-175163213D01*
X129767565Y-175162052D01*
X129766270Y-175160962D01*
X129764896Y-175159943D01*
X129763444Y-175158993D01*
X129761914Y-175158114D01*
X129760305Y-175157305D01*
X129758618Y-175156567D01*
X129756852Y-175155899D01*
X129755007Y-175155301D01*
X129753085Y-175154774D01*
X129751083Y-175154316D01*
X129749004Y-175153930D01*
X129746845Y-175153613D01*
X129742294Y-175153191D01*
X129737428Y-175153051D01*
X128940931Y-175001809D01*
X128938459Y-175001774D01*
X128936065Y-175001669D01*
X128933750Y-175001493D01*
X128931513Y-175001247D01*
X128929355Y-175000930D01*
X128927275Y-175000544D01*
X128925274Y-175000086D01*
X128923351Y-174999559D01*
X128921507Y-174998961D01*
X128919741Y-174998293D01*
X128918054Y-174997555D01*
X128916445Y-174996746D01*
X128914914Y-174995867D01*
X128913462Y-174994917D01*
X128912089Y-174993898D01*
X128910794Y-174992808D01*
X128909577Y-174991647D01*
X128908439Y-174990416D01*
X128907379Y-174989115D01*
X128906398Y-174987744D01*
X128905496Y-174986302D01*
X128904671Y-174984790D01*
X128903926Y-174983207D01*
X128903258Y-174981554D01*
X128902670Y-174979831D01*
X128902160Y-174978038D01*
X128901728Y-174976174D01*
X128901375Y-174974239D01*
X128901100Y-174972235D01*
X128900904Y-174970160D01*
X128900786Y-174968014D01*
X128900747Y-174965799D01*
X128900747Y-174177190D01*
X128900786Y-174174974D01*
X128900904Y-174172829D01*
X128901100Y-174170754D01*
X128901375Y-174168749D01*
X128901728Y-174166815D01*
X128902160Y-174164951D01*
X128902670Y-174163157D01*
X128903258Y-174161434D01*
X128903926Y-174159781D01*
X128904671Y-174158199D01*
X128905496Y-174156687D01*
X128906398Y-174155245D01*
X128907379Y-174153873D01*
X128908439Y-174152572D01*
X128909577Y-174151341D01*
X128910794Y-174150181D01*
X128912089Y-174149091D01*
X128913462Y-174148071D01*
X128914914Y-174147122D01*
X128916445Y-174146243D01*
X128918054Y-174145434D01*
X128919741Y-174144695D01*
X128921507Y-174144027D01*
X128923351Y-174143430D01*
X128925274Y-174142902D01*
X128927275Y-174142445D01*
X128929355Y-174142058D01*
X128931513Y-174141742D01*
X128936065Y-174141320D01*
X128940931Y-174141179D01*
X129737428Y-173989938D01*
X129739900Y-173989903D01*
X129742294Y-173989797D01*
X129744609Y-173989621D01*
X129746845Y-173989375D01*
X129749004Y-173989059D01*
X129751083Y-173988672D01*
X129753085Y-173988215D01*
X129755007Y-173987687D01*
X129756852Y-173987089D01*
X129758618Y-173986421D01*
X129760305Y-173985683D01*
X129761914Y-173984874D01*
X129763444Y-173983994D01*
X129764896Y-173983045D01*
X129766270Y-173982025D01*
X129767565Y-173980935D01*
X129768782Y-173979774D01*
X129769920Y-173978543D01*
X129770979Y-173977242D01*
X129771960Y-173975871D01*
X129772863Y-173974429D01*
X129773687Y-173972917D01*
X129774433Y-173971334D01*
X129775100Y-173969681D01*
X129775689Y-173967958D01*
X129776199Y-173966165D01*
X129776631Y-173964301D01*
X129776984Y-173962367D01*
X129777259Y-173960362D01*
X129777455Y-173958288D01*
X129777573Y-173956143D01*
X129777612Y-173953927D01*
X130004140Y-173428186D01*
X130004140Y-173370572D01*
X129529165Y-172715196D01*
X129529236Y-172710764D01*
X129529450Y-172706474D01*
X129529807Y-172702324D01*
X129530306Y-172698314D01*
X129530948Y-172694446D01*
X129531733Y-172690718D01*
X129532661Y-172687131D01*
X129533731Y-172683685D01*
X129534944Y-172680379D01*
X129536299Y-172677214D01*
X129537798Y-172674190D01*
X129539439Y-172671306D01*
X129541222Y-172668564D01*
X129543149Y-172665962D01*
X129545218Y-172663500D01*
X129547429Y-172661180D01*
X130099130Y-172095826D01*
X130157590Y-172095826D01*
X130822557Y-172545945D01*
X130881017Y-172545945D01*
X131432718Y-172322686D01*
X131437142Y-172318242D01*
X131441282Y-172313909D01*
X131445135Y-172309690D01*
X131448704Y-172305582D01*
X131451986Y-172301588D01*
X131454984Y-172297706D01*
X131457695Y-172293936D01*
X131460121Y-172290279D01*
X131462262Y-172286735D01*
X131464117Y-172283303D01*
X131465687Y-172279983D01*
X131466972Y-172276776D01*
X131467970Y-172273682D01*
X131468684Y-172270700D01*
X131469112Y-172267830D01*
X131469219Y-172266438D01*
X131469255Y-172265073D01*
X131600786Y-171516072D01*
X131600825Y-171513857D01*
X131600943Y-171511712D01*
X131601139Y-171509637D01*
X131601414Y-171507633D01*
X131601767Y-171505699D01*
X131602199Y-171503835D01*
X131602709Y-171502042D01*
X131603298Y-171500319D01*
X131603965Y-171498666D01*
X131604711Y-171497084D01*
X131605535Y-171495572D01*
X131606438Y-171494130D01*
X131607419Y-171492759D01*
X131608479Y-171491458D01*
X131609617Y-171490227D01*
X131610834Y-171489067D01*
X131612129Y-171487977D01*
X131613503Y-171486957D01*
X131614955Y-171486008D01*
X131616486Y-171485129D01*
X131618096Y-171484320D01*
X131619784Y-171483582D01*
X131621550Y-171482914D01*
X131623395Y-171482316D01*
X131625318Y-171481788D01*
X131627320Y-171481331D01*
X131629401Y-171480945D01*
X131631560Y-171480628D01*
X131636113Y-171480206D01*
X131640981Y-171480066D01*
X132437478Y-171480066D01*
X132439950Y-171480101D01*
G37*
G36*
X243194257Y-174705927D02*
G01*
X243196652Y-174706033D01*
X243198968Y-174706209D01*
X243201206Y-174706455D01*
X243203365Y-174706771D01*
X243205446Y-174707158D01*
X243207448Y-174707615D01*
X243209372Y-174708142D01*
X243211217Y-174708740D01*
X243212983Y-174709408D01*
X243214671Y-174710147D01*
X243216281Y-174710956D01*
X243217812Y-174711835D01*
X243219264Y-174712784D01*
X243220638Y-174713804D01*
X243221934Y-174714894D01*
X243223151Y-174716054D01*
X243224289Y-174717285D01*
X243225349Y-174718586D01*
X243226330Y-174719958D01*
X243227233Y-174721400D01*
X243228057Y-174722912D01*
X243228803Y-174724494D01*
X243229471Y-174726147D01*
X243230059Y-174727870D01*
X243230570Y-174729664D01*
X243231001Y-174731528D01*
X243231355Y-174733462D01*
X243231629Y-174735467D01*
X243231826Y-174737542D01*
X243231943Y-174739687D01*
X243231983Y-174741903D01*
X243363517Y-175490884D01*
X243363553Y-175493322D01*
X243363660Y-175495682D01*
X243363838Y-175497965D01*
X243364088Y-175500170D01*
X243364409Y-175502298D01*
X243364802Y-175504348D01*
X243365265Y-175506322D01*
X243365800Y-175508217D01*
X243366407Y-175510036D01*
X243367085Y-175511777D01*
X243367834Y-175513440D01*
X243368655Y-175515026D01*
X243369547Y-175516535D01*
X243370510Y-175517966D01*
X243371545Y-175519320D01*
X243372651Y-175520597D01*
X243373828Y-175521796D01*
X243375077Y-175522918D01*
X243376397Y-175523963D01*
X243377788Y-175524930D01*
X243379251Y-175525819D01*
X243380786Y-175526632D01*
X243382391Y-175527367D01*
X243384068Y-175528024D01*
X243385817Y-175528605D01*
X243387637Y-175529108D01*
X243389528Y-175529533D01*
X243391490Y-175529881D01*
X243393524Y-175530152D01*
X243395630Y-175530345D01*
X243397806Y-175530461D01*
X243400054Y-175530500D01*
X243951755Y-175775365D01*
X244010215Y-175775365D01*
X244675182Y-175325246D01*
X244733642Y-175325246D01*
X245285343Y-175886995D01*
X245287554Y-175889315D01*
X245289623Y-175891777D01*
X245291550Y-175894379D01*
X245293333Y-175897122D01*
X245294974Y-175900005D01*
X245296473Y-175903029D01*
X245297828Y-175906194D01*
X245299041Y-175909500D01*
X245300111Y-175912946D01*
X245301039Y-175916533D01*
X245301824Y-175920261D01*
X245302466Y-175924130D01*
X245302965Y-175928139D01*
X245303322Y-175932289D01*
X245303536Y-175936580D01*
X245303607Y-175941011D01*
X244828632Y-176599989D01*
X244828632Y-176653997D01*
X245055160Y-177179739D01*
X245055199Y-177181954D01*
X245055317Y-177184100D01*
X245055513Y-177186175D01*
X245055788Y-177188179D01*
X245056141Y-177190114D01*
X245056573Y-177191978D01*
X245057083Y-177193771D01*
X245057672Y-177195494D01*
X245058339Y-177197147D01*
X245059085Y-177198730D01*
X245059909Y-177200242D01*
X245060812Y-177201684D01*
X245061793Y-177203055D01*
X245062852Y-177204356D01*
X245063990Y-177205587D01*
X245065207Y-177206748D01*
X245066502Y-177207838D01*
X245067876Y-177208857D01*
X245069328Y-177209807D01*
X245070858Y-177210686D01*
X245072467Y-177211495D01*
X245074154Y-177212233D01*
X245075920Y-177212901D01*
X245077765Y-177213499D01*
X245079687Y-177214026D01*
X245081689Y-177214484D01*
X245083768Y-177214870D01*
X245085927Y-177215187D01*
X245090478Y-177215609D01*
X245095344Y-177215749D01*
X245891841Y-177366991D01*
X245894313Y-177367026D01*
X245896707Y-177367131D01*
X245899022Y-177367307D01*
X245901259Y-177367553D01*
X245903417Y-177367870D01*
X245905497Y-177368256D01*
X245907498Y-177368714D01*
X245909421Y-177369241D01*
X245911265Y-177369839D01*
X245913031Y-177370507D01*
X245914718Y-177371245D01*
X245916327Y-177372054D01*
X245917858Y-177372933D01*
X245919310Y-177373883D01*
X245920683Y-177374902D01*
X245921978Y-177375992D01*
X245923195Y-177377153D01*
X245924333Y-177378384D01*
X245925393Y-177379685D01*
X245926374Y-177381056D01*
X245927276Y-177382498D01*
X245928101Y-177384010D01*
X245928846Y-177385593D01*
X245929514Y-177387246D01*
X245930102Y-177388969D01*
X245930612Y-177390762D01*
X245931044Y-177392626D01*
X245931397Y-177394561D01*
X245931672Y-177396565D01*
X245931868Y-177398640D01*
X245931986Y-177400786D01*
X245932025Y-177403001D01*
X245932025Y-178191610D01*
X245931986Y-178193826D01*
X245931868Y-178195971D01*
X245931672Y-178198046D01*
X245931397Y-178200051D01*
X245931044Y-178201985D01*
X245930612Y-178203849D01*
X245930102Y-178205643D01*
X245929514Y-178207366D01*
X245928846Y-178209019D01*
X245928101Y-178210601D01*
X245927276Y-178212113D01*
X245926374Y-178213555D01*
X245925393Y-178214927D01*
X245924333Y-178216228D01*
X245923195Y-178217459D01*
X245921978Y-178218619D01*
X245920683Y-178219709D01*
X245919310Y-178220729D01*
X245917858Y-178221678D01*
X245916327Y-178222557D01*
X245914718Y-178223366D01*
X245913031Y-178224105D01*
X245911265Y-178224773D01*
X245909421Y-178225370D01*
X245907498Y-178225898D01*
X245905497Y-178226355D01*
X245903417Y-178226742D01*
X245901259Y-178227058D01*
X245896707Y-178227480D01*
X245891841Y-178227621D01*
X245095344Y-178378862D01*
X245092872Y-178378897D01*
X245090478Y-178379003D01*
X245088163Y-178379179D01*
X245085927Y-178379425D01*
X245083768Y-178379741D01*
X245081689Y-178380128D01*
X245079687Y-178380585D01*
X245077765Y-178381113D01*
X245075920Y-178381711D01*
X245074154Y-178382379D01*
X245072467Y-178383117D01*
X245070858Y-178383926D01*
X245069328Y-178384806D01*
X245067876Y-178385755D01*
X245066502Y-178386775D01*
X245065207Y-178387865D01*
X245063990Y-178389026D01*
X245062852Y-178390257D01*
X245061793Y-178391558D01*
X245060812Y-178392929D01*
X245059909Y-178394371D01*
X245059085Y-178395883D01*
X245058339Y-178397466D01*
X245057672Y-178399119D01*
X245057083Y-178400842D01*
X245056573Y-178402635D01*
X245056141Y-178404499D01*
X245055788Y-178406433D01*
X245055513Y-178408438D01*
X245055317Y-178410512D01*
X245055199Y-178412657D01*
X245055160Y-178414873D01*
X244828632Y-178940614D01*
X244828632Y-178998228D01*
X245303607Y-179653604D01*
X245303536Y-179658036D01*
X245303322Y-179662326D01*
X245302965Y-179666476D01*
X245302466Y-179670486D01*
X245301824Y-179674354D01*
X245301039Y-179678082D01*
X245300111Y-179681669D01*
X245299041Y-179685115D01*
X245297828Y-179688421D01*
X245296473Y-179691586D01*
X245294974Y-179694610D01*
X245293333Y-179697494D01*
X245291550Y-179700236D01*
X245289623Y-179702838D01*
X245287554Y-179705300D01*
X245285343Y-179707620D01*
X244733642Y-180272974D01*
X244675182Y-180272974D01*
X244010215Y-179822855D01*
X243951755Y-179822855D01*
X243400054Y-180046114D01*
X243395630Y-180050558D01*
X243391490Y-180054891D01*
X243387637Y-180059110D01*
X243384068Y-180063218D01*
X243380786Y-180067212D01*
X243377788Y-180071094D01*
X243375077Y-180074864D01*
X243372651Y-180078521D01*
X243370510Y-180082065D01*
X243368655Y-180085497D01*
X243367085Y-180088817D01*
X243365800Y-180092024D01*
X243364802Y-180095118D01*
X243364088Y-180098100D01*
X243363660Y-180100970D01*
X243363553Y-180102362D01*
X243363517Y-180103727D01*
X243231986Y-180852728D01*
X243231947Y-180854943D01*
X243231829Y-180857088D01*
X243231633Y-180859163D01*
X243231358Y-180861167D01*
X243231005Y-180863101D01*
X243230573Y-180864965D01*
X243230063Y-180866758D01*
X243229474Y-180868481D01*
X243228807Y-180870134D01*
X243228061Y-180871716D01*
X243227237Y-180873228D01*
X243226334Y-180874670D01*
X243225353Y-180876041D01*
X243224293Y-180877342D01*
X243223155Y-180878573D01*
X243221938Y-180879733D01*
X243220643Y-180880823D01*
X243219269Y-180881843D01*
X243217817Y-180882792D01*
X243216286Y-180883671D01*
X243214676Y-180884480D01*
X243212988Y-180885218D01*
X243211222Y-180885886D01*
X243209377Y-180886484D01*
X243207454Y-180887012D01*
X243205452Y-180887469D01*
X243203371Y-180887855D01*
X243201212Y-180888172D01*
X243196659Y-180888594D01*
X243191791Y-180888734D01*
X242395294Y-180888734D01*
X242392822Y-180888699D01*
X242390428Y-180888594D01*
X242388113Y-180888418D01*
X242385876Y-180888172D01*
X242383718Y-180887855D01*
X242381638Y-180887469D01*
X242379637Y-180887012D01*
X242377714Y-180886484D01*
X242375870Y-180885886D01*
X242374104Y-180885218D01*
X242372417Y-180884480D01*
X242370808Y-180883671D01*
X242369277Y-180882792D01*
X242367825Y-180881843D01*
X242366452Y-180880823D01*
X242365157Y-180879733D01*
X242363940Y-180878573D01*
X242362802Y-180877342D01*
X242361742Y-180876041D01*
X242360761Y-180874670D01*
X242359859Y-180873228D01*
X242359034Y-180871716D01*
X242358289Y-180870134D01*
X242357621Y-180868481D01*
X242357033Y-180866758D01*
X242356523Y-180864965D01*
X242356091Y-180863101D01*
X242355738Y-180861167D01*
X242355463Y-180859163D01*
X242355267Y-180857088D01*
X242355149Y-180854943D01*
X242355110Y-180852728D01*
X242201652Y-180121732D01*
X242201616Y-180119517D01*
X242201509Y-180117371D01*
X242201331Y-180115296D01*
X242201081Y-180113292D01*
X242200760Y-180111357D01*
X242200368Y-180109493D01*
X242199904Y-180107700D01*
X242199369Y-180105977D01*
X242198762Y-180104324D01*
X242198084Y-180102741D01*
X242197335Y-180101229D01*
X242196515Y-180099787D01*
X242195623Y-180098416D01*
X242194659Y-180097115D01*
X242193625Y-180095884D01*
X242192519Y-180094723D01*
X242191341Y-180093633D01*
X242190092Y-180092613D01*
X242188772Y-180091664D01*
X242187381Y-180090785D01*
X242185918Y-180089976D01*
X242184384Y-180089238D01*
X242182778Y-180088570D01*
X242181101Y-180087972D01*
X242179352Y-180087444D01*
X242177533Y-180086987D01*
X242175642Y-180086601D01*
X242173679Y-180086284D01*
X242171645Y-180086038D01*
X242169540Y-180085862D01*
X242165115Y-180085722D01*
X241576881Y-179840860D01*
X241518424Y-179840860D01*
X240889991Y-180272970D01*
X240853454Y-180272970D01*
X240283485Y-179707620D01*
X240281716Y-179706041D01*
X240280060Y-179704455D01*
X240278519Y-179702862D01*
X240277092Y-179701261D01*
X240275780Y-179699654D01*
X240274581Y-179698040D01*
X240273497Y-179696418D01*
X240272526Y-179694790D01*
X240271670Y-179693155D01*
X240270928Y-179691512D01*
X240270301Y-179689863D01*
X240269787Y-179688206D01*
X240269387Y-179686543D01*
X240269102Y-179684873D01*
X240268931Y-179683195D01*
X240268874Y-179681511D01*
X240268931Y-179679819D01*
X240269102Y-179678120D01*
X240269387Y-179676415D01*
X240269787Y-179674702D01*
X240270301Y-179672983D01*
X240270928Y-179671256D01*
X240271670Y-179669523D01*
X240272526Y-179667782D01*
X240273497Y-179666034D01*
X240274581Y-179664280D01*
X240275780Y-179662518D01*
X240277092Y-179660749D01*
X240278519Y-179658973D01*
X240280060Y-179657191D01*
X240281716Y-179655401D01*
X240283485Y-179653604D01*
X240700000Y-179052244D01*
X240700000Y-178998235D01*
X240550201Y-178735384D01*
X240550272Y-178730516D01*
X240550486Y-178725818D01*
X240550843Y-178721288D01*
X240551343Y-178716927D01*
X240551985Y-178712735D01*
X240552771Y-178708712D01*
X240553698Y-178704858D01*
X240554769Y-178701172D01*
X240555982Y-178697655D01*
X240557338Y-178694307D01*
X240558837Y-178691128D01*
X240560478Y-178688118D01*
X240562262Y-178685277D01*
X240564188Y-178682605D01*
X240566258Y-178680101D01*
X240568469Y-178677766D01*
X241916667Y-178134023D01*
X241921606Y-178134108D01*
X241926373Y-178134361D01*
X241930969Y-178134783D01*
X241935393Y-178135373D01*
X241939647Y-178136132D01*
X241943729Y-178137060D01*
X241947640Y-178138157D01*
X241951379Y-178139423D01*
X241954947Y-178140857D01*
X241958344Y-178142461D01*
X241961570Y-178144233D01*
X241964624Y-178146174D01*
X241967507Y-178148283D01*
X241970219Y-178150562D01*
X241972759Y-178153010D01*
X241975128Y-178155626D01*
X242011665Y-178227644D01*
X242022628Y-178242044D01*
X242026283Y-178245587D01*
X242029937Y-178249018D01*
X242033592Y-178252336D01*
X242037245Y-178255543D01*
X242040899Y-178258637D01*
X242044552Y-178261619D01*
X242048204Y-178264490D01*
X242051856Y-178267248D01*
X242082940Y-178314777D01*
X242115908Y-178359241D01*
X242150760Y-178400638D01*
X242187495Y-178438968D01*
X242226115Y-178474232D01*
X242266619Y-178506429D01*
X242309007Y-178535560D01*
X242353279Y-178561625D01*
X242399434Y-178584623D01*
X242447474Y-178604554D01*
X242497398Y-178621420D01*
X242549206Y-178635218D01*
X242602897Y-178645951D01*
X242658473Y-178653617D01*
X242715932Y-178658216D01*
X242775276Y-178659750D01*
X242820975Y-178658765D01*
X242865818Y-178655811D01*
X242909805Y-178650888D01*
X242952935Y-178643995D01*
X242995209Y-178635134D01*
X243036627Y-178624302D01*
X243077188Y-178611502D01*
X243116893Y-178596732D01*
X243155742Y-178579993D01*
X243193734Y-178561285D01*
X243230870Y-178540607D01*
X243267150Y-178517960D01*
X243302573Y-178493344D01*
X243337140Y-178466758D01*
X243370851Y-178438203D01*
X243403705Y-178407678D01*
X243435561Y-178375340D01*
X243465362Y-178342243D01*
X243493108Y-178308386D01*
X243518798Y-178273769D01*
X243542433Y-178238393D01*
X243564012Y-178202258D01*
X243583536Y-178165362D01*
X243601005Y-178127708D01*
X243616419Y-178089293D01*
X243629778Y-178050119D01*
X243641081Y-178010185D01*
X243650329Y-177969492D01*
X243657522Y-177928038D01*
X243662660Y-177885825D01*
X243665743Y-177842852D01*
X243666770Y-177799120D01*
X243665743Y-177753671D01*
X243662660Y-177709151D01*
X243657522Y-177665559D01*
X243650329Y-177622896D01*
X243641081Y-177581161D01*
X243629778Y-177540354D01*
X243616419Y-177500476D01*
X243601005Y-177461527D01*
X243583536Y-177423506D01*
X243564012Y-177386413D01*
X243542433Y-177350249D01*
X243518798Y-177315014D01*
X243493108Y-177280706D01*
X243465362Y-177247327D01*
X243435561Y-177214877D01*
X243403705Y-177183355D01*
X243370851Y-177153268D01*
X243337140Y-177125122D01*
X243302573Y-177098916D01*
X243267150Y-177074653D01*
X243230870Y-177052330D01*
X243193734Y-177031948D01*
X243155742Y-177013507D01*
X243116893Y-176997008D01*
X243077188Y-176982450D01*
X243036627Y-176969832D01*
X242995209Y-176959156D01*
X242952935Y-176950421D01*
X242909805Y-176943627D01*
X242865818Y-176938775D01*
X242820975Y-176935863D01*
X242775276Y-176934892D01*
X242715933Y-176936440D01*
X242686968Y-176938374D01*
X242658474Y-176941081D01*
X242630451Y-176944563D01*
X242602899Y-176948818D01*
X242575818Y-176953846D01*
X242549208Y-176959649D01*
X242523069Y-176966225D01*
X242497400Y-176973574D01*
X242472203Y-176981698D01*
X242447477Y-176990594D01*
X242423222Y-177000265D01*
X242399437Y-177010709D01*
X242376124Y-177021927D01*
X242353281Y-177033918D01*
X242330910Y-177046684D01*
X242309010Y-177060222D01*
X242287580Y-177074535D01*
X242266622Y-177089621D01*
X242246134Y-177105481D01*
X242226118Y-177122114D01*
X242206572Y-177139521D01*
X242187497Y-177157702D01*
X242168894Y-177176656D01*
X242150761Y-177196384D01*
X242133100Y-177216886D01*
X242115909Y-177238161D01*
X242099189Y-177260210D01*
X242082941Y-177283033D01*
X242067163Y-177306629D01*
X242051856Y-177330999D01*
X242048202Y-177334542D01*
X242044547Y-177337973D01*
X242040893Y-177341291D01*
X242037239Y-177344498D01*
X242033586Y-177347592D01*
X242029933Y-177350574D01*
X242026281Y-177353444D01*
X242022628Y-177356203D01*
X242011665Y-177367010D01*
X241975128Y-177442628D01*
X241972759Y-177444808D01*
X241970219Y-177446848D01*
X241967507Y-177448747D01*
X241964625Y-177450505D01*
X241961571Y-177452122D01*
X241958345Y-177453599D01*
X241954949Y-177454936D01*
X241951381Y-177456132D01*
X241947641Y-177457187D01*
X241943731Y-177458101D01*
X241939648Y-177458875D01*
X241935395Y-177459508D01*
X241930970Y-177460001D01*
X241926374Y-177460352D01*
X241921606Y-177460563D01*
X241916667Y-177460634D01*
X240568469Y-176898885D01*
X240567346Y-176898847D01*
X240566258Y-176898731D01*
X240565205Y-176898537D01*
X240564188Y-176898266D01*
X240563207Y-176897918D01*
X240562262Y-176897493D01*
X240561352Y-176896990D01*
X240560478Y-176896410D01*
X240559640Y-176895752D01*
X240558837Y-176895017D01*
X240557338Y-176893315D01*
X240555982Y-176891303D01*
X240554769Y-176888982D01*
X240553698Y-176886352D01*
X240552771Y-176883412D01*
X240551985Y-176880162D01*
X240551343Y-176876603D01*
X240550843Y-176872734D01*
X240550486Y-176868555D01*
X240550272Y-176864067D01*
X240550201Y-176859270D01*
X240700000Y-176600000D01*
X240700000Y-176542383D01*
X240283473Y-175941030D01*
X240281704Y-175939451D01*
X240280049Y-175937864D01*
X240278508Y-175936270D01*
X240277081Y-175934670D01*
X240275768Y-175933062D01*
X240274570Y-175931448D01*
X240273485Y-175929826D01*
X240272515Y-175928198D01*
X240271659Y-175926562D01*
X240270917Y-175924920D01*
X240270289Y-175923270D01*
X240269775Y-175921614D01*
X240269376Y-175919950D01*
X240269090Y-175918280D01*
X240268919Y-175916602D01*
X240268862Y-175914918D01*
X240268919Y-175913226D01*
X240269090Y-175911528D01*
X240269376Y-175909822D01*
X240269775Y-175908110D01*
X240270289Y-175906390D01*
X240270917Y-175904664D01*
X240271659Y-175902930D01*
X240272515Y-175901190D01*
X240273485Y-175899442D01*
X240274570Y-175897688D01*
X240275768Y-175895926D01*
X240277081Y-175894158D01*
X240278508Y-175892382D01*
X240280049Y-175890600D01*
X240281704Y-175888810D01*
X240283473Y-175887014D01*
X240853443Y-175325265D01*
X240889980Y-175325265D01*
X241518413Y-175753774D01*
X241576869Y-175753774D01*
X242165111Y-175512510D01*
X242167359Y-175512471D01*
X242169536Y-175512355D01*
X242171641Y-175512162D01*
X242173675Y-175511891D01*
X242175638Y-175511543D01*
X242177529Y-175511117D01*
X242179349Y-175510615D01*
X242181097Y-175510034D01*
X242182774Y-175509377D01*
X242184380Y-175508642D01*
X242185914Y-175507829D01*
X242187377Y-175506940D01*
X242188768Y-175505973D01*
X242190089Y-175504928D01*
X242191337Y-175503806D01*
X242192515Y-175502607D01*
X242193621Y-175501330D01*
X242194656Y-175499976D01*
X242195619Y-175498545D01*
X242196511Y-175497036D01*
X242197331Y-175495450D01*
X242198081Y-175493786D01*
X242198758Y-175492046D01*
X242199365Y-175490227D01*
X242199900Y-175488331D01*
X242200364Y-175486358D01*
X242200756Y-175484308D01*
X242201077Y-175482180D01*
X242201505Y-175477692D01*
X242201648Y-175472894D01*
X242355106Y-174741903D01*
X242355145Y-174739687D01*
X242355263Y-174737542D01*
X242355459Y-174735467D01*
X242355734Y-174733462D01*
X242356087Y-174731528D01*
X242356518Y-174729664D01*
X242357029Y-174727870D01*
X242357617Y-174726147D01*
X242358284Y-174724494D01*
X242359030Y-174722912D01*
X242359854Y-174721400D01*
X242360756Y-174719958D01*
X242361737Y-174718586D01*
X242362797Y-174717285D01*
X242363935Y-174716054D01*
X242365151Y-174714894D01*
X242366446Y-174713804D01*
X242367820Y-174712784D01*
X242369272Y-174711835D01*
X242370802Y-174710956D01*
X242372411Y-174710147D01*
X242374098Y-174709408D01*
X242375864Y-174708740D01*
X242377709Y-174708142D01*
X242379632Y-174707615D01*
X242381633Y-174707158D01*
X242383713Y-174706771D01*
X242385871Y-174706455D01*
X242390424Y-174706033D01*
X242395290Y-174705892D01*
X243191783Y-174705892D01*
X243194257Y-174705927D01*
G37*
D11*
%TO.C,SW12*%
X215169523Y-141386761D02*
X215026666Y-141434380D01*
X214788571Y-141434380D01*
X214693333Y-141386761D01*
X214645714Y-141339142D01*
X214598095Y-141243904D01*
X214598095Y-141148666D01*
X214645714Y-141053428D01*
X214693333Y-141005809D01*
X214788571Y-140958190D01*
X214979047Y-140910571D01*
X215074285Y-140862952D01*
X215121904Y-140815333D01*
X215169523Y-140720095D01*
X215169523Y-140624857D01*
X215121904Y-140529619D01*
X215074285Y-140482000D01*
X214979047Y-140434380D01*
X214740952Y-140434380D01*
X214598095Y-140482000D01*
X214264761Y-140434380D02*
X214026666Y-141434380D01*
X213836190Y-140720095D01*
X213645714Y-141434380D01*
X213407619Y-140434380D01*
X212502857Y-141434380D02*
X213074285Y-141434380D01*
X212788571Y-141434380D02*
X212788571Y-140434380D01*
X212883809Y-140577238D01*
X212979047Y-140672476D01*
X213074285Y-140720095D01*
X212121904Y-140529619D02*
X212074285Y-140482000D01*
X211979047Y-140434380D01*
X211740952Y-140434380D01*
X211645714Y-140482000D01*
X211598095Y-140529619D01*
X211550476Y-140624857D01*
X211550476Y-140720095D01*
X211598095Y-140862952D01*
X212169523Y-141434380D01*
X211550476Y-141434380D01*
%TO.C,SW8*%
X194493333Y-121828761D02*
X194350476Y-121876380D01*
X194112380Y-121876380D01*
X194017142Y-121828761D01*
X193969523Y-121781142D01*
X193921904Y-121685904D01*
X193921904Y-121590666D01*
X193969523Y-121495428D01*
X194017142Y-121447809D01*
X194112380Y-121400190D01*
X194302857Y-121352571D01*
X194398095Y-121304952D01*
X194445714Y-121257333D01*
X194493333Y-121162095D01*
X194493333Y-121066857D01*
X194445714Y-120971619D01*
X194398095Y-120924000D01*
X194302857Y-120876380D01*
X194064761Y-120876380D01*
X193921904Y-120924000D01*
X193588571Y-120876380D02*
X193350476Y-121876380D01*
X193160000Y-121162095D01*
X192969523Y-121876380D01*
X192731428Y-120876380D01*
X192207619Y-121304952D02*
X192302857Y-121257333D01*
X192350476Y-121209714D01*
X192398095Y-121114476D01*
X192398095Y-121066857D01*
X192350476Y-120971619D01*
X192302857Y-120924000D01*
X192207619Y-120876380D01*
X192017142Y-120876380D01*
X191921904Y-120924000D01*
X191874285Y-120971619D01*
X191826666Y-121066857D01*
X191826666Y-121114476D01*
X191874285Y-121209714D01*
X191921904Y-121257333D01*
X192017142Y-121304952D01*
X192207619Y-121304952D01*
X192302857Y-121352571D01*
X192350476Y-121400190D01*
X192398095Y-121495428D01*
X192398095Y-121685904D01*
X192350476Y-121781142D01*
X192302857Y-121828761D01*
X192207619Y-121876380D01*
X192017142Y-121876380D01*
X191921904Y-121828761D01*
X191874285Y-121781142D01*
X191826666Y-121685904D01*
X191826666Y-121495428D01*
X191874285Y-121400190D01*
X191921904Y-121352571D01*
X192017142Y-121304952D01*
%TO.C,J21*%
X263774918Y-140430078D02*
X264279994Y-140935154D01*
X264414681Y-141002497D01*
X264549368Y-141002497D01*
X264684055Y-140935154D01*
X264751399Y-140867810D01*
X263539216Y-140800467D02*
X263471872Y-140800467D01*
X263370857Y-140834139D01*
X263202498Y-141002497D01*
X263168827Y-141103513D01*
X263168827Y-141170856D01*
X263202498Y-141271871D01*
X263269842Y-141339215D01*
X263404529Y-141406558D01*
X264212651Y-141406558D01*
X263774918Y-141844291D01*
X263101483Y-142517726D02*
X263505544Y-142113665D01*
X263303514Y-142315696D02*
X262596407Y-141608589D01*
X262764766Y-141642261D01*
X262899453Y-141642261D01*
X263000468Y-141608589D01*
%TO.C,TP7*%
X187152380Y-164087095D02*
X187152380Y-164658523D01*
X188152380Y-164372809D02*
X187152380Y-164372809D01*
X188152380Y-164991857D02*
X187152380Y-164991857D01*
X187152380Y-165372809D01*
X187200000Y-165468047D01*
X187247619Y-165515666D01*
X187342857Y-165563285D01*
X187485714Y-165563285D01*
X187580952Y-165515666D01*
X187628571Y-165468047D01*
X187676190Y-165372809D01*
X187676190Y-164991857D01*
X187152380Y-165896619D02*
X187152380Y-166563285D01*
X188152380Y-166134714D01*
%TO.C,J11*%
X205509523Y-164651380D02*
X205509523Y-165365666D01*
X205557142Y-165508523D01*
X205652380Y-165603761D01*
X205795238Y-165651380D01*
X205890476Y-165651380D01*
X204509523Y-165651380D02*
X205080952Y-165651380D01*
X204795238Y-165651380D02*
X204795238Y-164651380D01*
X204890476Y-164794238D01*
X204985714Y-164889476D01*
X205080952Y-164937095D01*
X203557142Y-165651380D02*
X204128571Y-165651380D01*
X203842857Y-165651380D02*
X203842857Y-164651380D01*
X203938095Y-164794238D01*
X204033333Y-164889476D01*
X204128571Y-164937095D01*
%TO.C,SW9*%
X214693333Y-121828761D02*
X214550476Y-121876380D01*
X214312380Y-121876380D01*
X214217142Y-121828761D01*
X214169523Y-121781142D01*
X214121904Y-121685904D01*
X214121904Y-121590666D01*
X214169523Y-121495428D01*
X214217142Y-121447809D01*
X214312380Y-121400190D01*
X214502857Y-121352571D01*
X214598095Y-121304952D01*
X214645714Y-121257333D01*
X214693333Y-121162095D01*
X214693333Y-121066857D01*
X214645714Y-120971619D01*
X214598095Y-120924000D01*
X214502857Y-120876380D01*
X214264761Y-120876380D01*
X214121904Y-120924000D01*
X213788571Y-120876380D02*
X213550476Y-121876380D01*
X213360000Y-121162095D01*
X213169523Y-121876380D01*
X212931428Y-120876380D01*
X212502857Y-121876380D02*
X212312380Y-121876380D01*
X212217142Y-121828761D01*
X212169523Y-121781142D01*
X212074285Y-121638285D01*
X212026666Y-121447809D01*
X212026666Y-121066857D01*
X212074285Y-120971619D01*
X212121904Y-120924000D01*
X212217142Y-120876380D01*
X212407619Y-120876380D01*
X212502857Y-120924000D01*
X212550476Y-120971619D01*
X212598095Y-121066857D01*
X212598095Y-121304952D01*
X212550476Y-121400190D01*
X212502857Y-121447809D01*
X212407619Y-121495428D01*
X212217142Y-121495428D01*
X212121904Y-121447809D01*
X212074285Y-121400190D01*
X212026666Y-121304952D01*
%TO.C,J19*%
X256352523Y-188103380D02*
X256352523Y-188817666D01*
X256400142Y-188960523D01*
X256495380Y-189055761D01*
X256638238Y-189103380D01*
X256733476Y-189103380D01*
X255352523Y-189103380D02*
X255923952Y-189103380D01*
X255638238Y-189103380D02*
X255638238Y-188103380D01*
X255733476Y-188246238D01*
X255828714Y-188341476D01*
X255923952Y-188389095D01*
X254876333Y-189103380D02*
X254685857Y-189103380D01*
X254590619Y-189055761D01*
X254543000Y-189008142D01*
X254447761Y-188865285D01*
X254400142Y-188674809D01*
X254400142Y-188293857D01*
X254447761Y-188198619D01*
X254495380Y-188151000D01*
X254590619Y-188103380D01*
X254781095Y-188103380D01*
X254876333Y-188151000D01*
X254923952Y-188198619D01*
X254971571Y-188293857D01*
X254971571Y-188531952D01*
X254923952Y-188627190D01*
X254876333Y-188674809D01*
X254781095Y-188722428D01*
X254590619Y-188722428D01*
X254495380Y-188674809D01*
X254447761Y-188627190D01*
X254400142Y-188531952D01*
%TO.C,SW14*%
X131290476Y-125181238D02*
X131433333Y-125133619D01*
X131671428Y-125133619D01*
X131766666Y-125181238D01*
X131814285Y-125228857D01*
X131861904Y-125324095D01*
X131861904Y-125419333D01*
X131814285Y-125514571D01*
X131766666Y-125562190D01*
X131671428Y-125609809D01*
X131480952Y-125657428D01*
X131385714Y-125705047D01*
X131338095Y-125752666D01*
X131290476Y-125847904D01*
X131290476Y-125943142D01*
X131338095Y-126038380D01*
X131385714Y-126086000D01*
X131480952Y-126133619D01*
X131719047Y-126133619D01*
X131861904Y-126086000D01*
X132195238Y-126133619D02*
X132433333Y-125133619D01*
X132623809Y-125847904D01*
X132814285Y-125133619D01*
X133052380Y-126133619D01*
X133957142Y-125133619D02*
X133385714Y-125133619D01*
X133671428Y-125133619D02*
X133671428Y-126133619D01*
X133576190Y-125990761D01*
X133480952Y-125895523D01*
X133385714Y-125847904D01*
X134814285Y-125800285D02*
X134814285Y-125133619D01*
X134576190Y-126181238D02*
X134338095Y-125466952D01*
X134957142Y-125466952D01*
%TO.C,C25*%
X203800142Y-178457142D02*
X203847761Y-178409523D01*
X203895380Y-178266666D01*
X203895380Y-178171428D01*
X203847761Y-178028571D01*
X203752523Y-177933333D01*
X203657285Y-177885714D01*
X203466809Y-177838095D01*
X203323952Y-177838095D01*
X203133476Y-177885714D01*
X203038238Y-177933333D01*
X202943000Y-178028571D01*
X202895380Y-178171428D01*
X202895380Y-178266666D01*
X202943000Y-178409523D01*
X202990619Y-178457142D01*
X202990619Y-178838095D02*
X202943000Y-178885714D01*
X202895380Y-178980952D01*
X202895380Y-179219047D01*
X202943000Y-179314285D01*
X202990619Y-179361904D01*
X203085857Y-179409523D01*
X203181095Y-179409523D01*
X203323952Y-179361904D01*
X203895380Y-178790476D01*
X203895380Y-179409523D01*
X202895380Y-180314285D02*
X202895380Y-179838095D01*
X203371571Y-179790476D01*
X203323952Y-179838095D01*
X203276333Y-179933333D01*
X203276333Y-180171428D01*
X203323952Y-180266666D01*
X203371571Y-180314285D01*
X203466809Y-180361904D01*
X203704904Y-180361904D01*
X203800142Y-180314285D01*
X203847761Y-180266666D01*
X203895380Y-180171428D01*
X203895380Y-179933333D01*
X203847761Y-179838095D01*
X203800142Y-179790476D01*
%TO.C,TP1*%
X166061904Y-132052380D02*
X165490476Y-132052380D01*
X165776190Y-133052380D02*
X165776190Y-132052380D01*
X165157142Y-133052380D02*
X165157142Y-132052380D01*
X164776190Y-132052380D01*
X164680952Y-132100000D01*
X164633333Y-132147619D01*
X164585714Y-132242857D01*
X164585714Y-132385714D01*
X164633333Y-132480952D01*
X164680952Y-132528571D01*
X164776190Y-132576190D01*
X165157142Y-132576190D01*
X163633333Y-133052380D02*
X164204761Y-133052380D01*
X163919047Y-133052380D02*
X163919047Y-132052380D01*
X164014285Y-132195238D01*
X164109523Y-132290476D01*
X164204761Y-132338095D01*
%TO.C,C32*%
X251485857Y-197628142D02*
X251533476Y-197675761D01*
X251676333Y-197723380D01*
X251771571Y-197723380D01*
X251914428Y-197675761D01*
X252009666Y-197580523D01*
X252057285Y-197485285D01*
X252104904Y-197294809D01*
X252104904Y-197151952D01*
X252057285Y-196961476D01*
X252009666Y-196866238D01*
X251914428Y-196771000D01*
X251771571Y-196723380D01*
X251676333Y-196723380D01*
X251533476Y-196771000D01*
X251485857Y-196818619D01*
X251152523Y-196723380D02*
X250533476Y-196723380D01*
X250866809Y-197104333D01*
X250723952Y-197104333D01*
X250628714Y-197151952D01*
X250581095Y-197199571D01*
X250533476Y-197294809D01*
X250533476Y-197532904D01*
X250581095Y-197628142D01*
X250628714Y-197675761D01*
X250723952Y-197723380D01*
X251009666Y-197723380D01*
X251104904Y-197675761D01*
X251152523Y-197628142D01*
X250152523Y-196818619D02*
X250104904Y-196771000D01*
X250009666Y-196723380D01*
X249771571Y-196723380D01*
X249676333Y-196771000D01*
X249628714Y-196818619D01*
X249581095Y-196913857D01*
X249581095Y-197009095D01*
X249628714Y-197151952D01*
X250200142Y-197723380D01*
X249581095Y-197723380D01*
%TO.C,J17*%
X124215219Y-179150748D02*
X124215219Y-179865034D01*
X124262838Y-180007891D01*
X124358076Y-180103129D01*
X124500934Y-180150748D01*
X124596172Y-180150748D01*
X123215219Y-180150748D02*
X123786648Y-180150748D01*
X123500934Y-180150748D02*
X123500934Y-179150748D01*
X123596172Y-179293606D01*
X123691410Y-179388844D01*
X123786648Y-179436463D01*
X122881886Y-179150748D02*
X122215219Y-179150748D01*
X122643791Y-180150748D01*
%TO.C,C30*%
X257485857Y-166708142D02*
X257533476Y-166755761D01*
X257676333Y-166803380D01*
X257771571Y-166803380D01*
X257914428Y-166755761D01*
X258009666Y-166660523D01*
X258057285Y-166565285D01*
X258104904Y-166374809D01*
X258104904Y-166231952D01*
X258057285Y-166041476D01*
X258009666Y-165946238D01*
X257914428Y-165851000D01*
X257771571Y-165803380D01*
X257676333Y-165803380D01*
X257533476Y-165851000D01*
X257485857Y-165898619D01*
X257152523Y-165803380D02*
X256533476Y-165803380D01*
X256866809Y-166184333D01*
X256723952Y-166184333D01*
X256628714Y-166231952D01*
X256581095Y-166279571D01*
X256533476Y-166374809D01*
X256533476Y-166612904D01*
X256581095Y-166708142D01*
X256628714Y-166755761D01*
X256723952Y-166803380D01*
X257009666Y-166803380D01*
X257104904Y-166755761D01*
X257152523Y-166708142D01*
X255914428Y-165803380D02*
X255819190Y-165803380D01*
X255723952Y-165851000D01*
X255676333Y-165898619D01*
X255628714Y-165993857D01*
X255581095Y-166184333D01*
X255581095Y-166422428D01*
X255628714Y-166612904D01*
X255676333Y-166708142D01*
X255723952Y-166755761D01*
X255819190Y-166803380D01*
X255914428Y-166803380D01*
X256009666Y-166755761D01*
X256057285Y-166708142D01*
X256104904Y-166612904D01*
X256152523Y-166422428D01*
X256152523Y-166184333D01*
X256104904Y-165993857D01*
X256057285Y-165898619D01*
X256009666Y-165851000D01*
X255914428Y-165803380D01*
%TO.C,JP2*%
X145833333Y-112852380D02*
X145833333Y-113566666D01*
X145880952Y-113709523D01*
X145976190Y-113804761D01*
X146119047Y-113852380D01*
X146214285Y-113852380D01*
X145357142Y-113852380D02*
X145357142Y-112852380D01*
X144976190Y-112852380D01*
X144880952Y-112900000D01*
X144833333Y-112947619D01*
X144785714Y-113042857D01*
X144785714Y-113185714D01*
X144833333Y-113280952D01*
X144880952Y-113328571D01*
X144976190Y-113376190D01*
X145357142Y-113376190D01*
X144404761Y-112947619D02*
X144357142Y-112900000D01*
X144261904Y-112852380D01*
X144023809Y-112852380D01*
X143928571Y-112900000D01*
X143880952Y-112947619D01*
X143833333Y-113042857D01*
X143833333Y-113138095D01*
X143880952Y-113280952D01*
X144452380Y-113852380D01*
X143833333Y-113852380D01*
%TO.C,TP8*%
X184952380Y-164087095D02*
X184952380Y-164658523D01*
X185952380Y-164372809D02*
X184952380Y-164372809D01*
X185952380Y-164991857D02*
X184952380Y-164991857D01*
X184952380Y-165372809D01*
X185000000Y-165468047D01*
X185047619Y-165515666D01*
X185142857Y-165563285D01*
X185285714Y-165563285D01*
X185380952Y-165515666D01*
X185428571Y-165468047D01*
X185476190Y-165372809D01*
X185476190Y-164991857D01*
X185380952Y-166134714D02*
X185333333Y-166039476D01*
X185285714Y-165991857D01*
X185190476Y-165944238D01*
X185142857Y-165944238D01*
X185047619Y-165991857D01*
X185000000Y-166039476D01*
X184952380Y-166134714D01*
X184952380Y-166325190D01*
X185000000Y-166420428D01*
X185047619Y-166468047D01*
X185142857Y-166515666D01*
X185190476Y-166515666D01*
X185285714Y-166468047D01*
X185333333Y-166420428D01*
X185380952Y-166325190D01*
X185380952Y-166134714D01*
X185428571Y-166039476D01*
X185476190Y-165991857D01*
X185571428Y-165944238D01*
X185761904Y-165944238D01*
X185857142Y-165991857D01*
X185904761Y-166039476D01*
X185952380Y-166134714D01*
X185952380Y-166325190D01*
X185904761Y-166420428D01*
X185857142Y-166468047D01*
X185761904Y-166515666D01*
X185571428Y-166515666D01*
X185476190Y-166468047D01*
X185428571Y-166420428D01*
X185380952Y-166325190D01*
%TO.C,SW13*%
X235369523Y-141386761D02*
X235226666Y-141434380D01*
X234988571Y-141434380D01*
X234893333Y-141386761D01*
X234845714Y-141339142D01*
X234798095Y-141243904D01*
X234798095Y-141148666D01*
X234845714Y-141053428D01*
X234893333Y-141005809D01*
X234988571Y-140958190D01*
X235179047Y-140910571D01*
X235274285Y-140862952D01*
X235321904Y-140815333D01*
X235369523Y-140720095D01*
X235369523Y-140624857D01*
X235321904Y-140529619D01*
X235274285Y-140482000D01*
X235179047Y-140434380D01*
X234940952Y-140434380D01*
X234798095Y-140482000D01*
X234464761Y-140434380D02*
X234226666Y-141434380D01*
X234036190Y-140720095D01*
X233845714Y-141434380D01*
X233607619Y-140434380D01*
X232702857Y-141434380D02*
X233274285Y-141434380D01*
X232988571Y-141434380D02*
X232988571Y-140434380D01*
X233083809Y-140577238D01*
X233179047Y-140672476D01*
X233274285Y-140720095D01*
X232369523Y-140434380D02*
X231750476Y-140434380D01*
X232083809Y-140815333D01*
X231940952Y-140815333D01*
X231845714Y-140862952D01*
X231798095Y-140910571D01*
X231750476Y-141005809D01*
X231750476Y-141243904D01*
X231798095Y-141339142D01*
X231845714Y-141386761D01*
X231940952Y-141434380D01*
X232226666Y-141434380D01*
X232321904Y-141386761D01*
X232369523Y-141339142D01*
%TO.C,C31*%
X257985857Y-205388142D02*
X258033476Y-205435761D01*
X258176333Y-205483380D01*
X258271571Y-205483380D01*
X258414428Y-205435761D01*
X258509666Y-205340523D01*
X258557285Y-205245285D01*
X258604904Y-205054809D01*
X258604904Y-204911952D01*
X258557285Y-204721476D01*
X258509666Y-204626238D01*
X258414428Y-204531000D01*
X258271571Y-204483380D01*
X258176333Y-204483380D01*
X258033476Y-204531000D01*
X257985857Y-204578619D01*
X257652523Y-204483380D02*
X257033476Y-204483380D01*
X257366809Y-204864333D01*
X257223952Y-204864333D01*
X257128714Y-204911952D01*
X257081095Y-204959571D01*
X257033476Y-205054809D01*
X257033476Y-205292904D01*
X257081095Y-205388142D01*
X257128714Y-205435761D01*
X257223952Y-205483380D01*
X257509666Y-205483380D01*
X257604904Y-205435761D01*
X257652523Y-205388142D01*
X256081095Y-205483380D02*
X256652523Y-205483380D01*
X256366809Y-205483380D02*
X256366809Y-204483380D01*
X256462047Y-204626238D01*
X256557285Y-204721476D01*
X256652523Y-204769095D01*
%TO.C,C28*%
X256785857Y-191828142D02*
X256833476Y-191875761D01*
X256976333Y-191923380D01*
X257071571Y-191923380D01*
X257214428Y-191875761D01*
X257309666Y-191780523D01*
X257357285Y-191685285D01*
X257404904Y-191494809D01*
X257404904Y-191351952D01*
X257357285Y-191161476D01*
X257309666Y-191066238D01*
X257214428Y-190971000D01*
X257071571Y-190923380D01*
X256976333Y-190923380D01*
X256833476Y-190971000D01*
X256785857Y-191018619D01*
X256404904Y-191018619D02*
X256357285Y-190971000D01*
X256262047Y-190923380D01*
X256023952Y-190923380D01*
X255928714Y-190971000D01*
X255881095Y-191018619D01*
X255833476Y-191113857D01*
X255833476Y-191209095D01*
X255881095Y-191351952D01*
X256452523Y-191923380D01*
X255833476Y-191923380D01*
X255262047Y-191351952D02*
X255357285Y-191304333D01*
X255404904Y-191256714D01*
X255452523Y-191161476D01*
X255452523Y-191113857D01*
X255404904Y-191018619D01*
X255357285Y-190971000D01*
X255262047Y-190923380D01*
X255071571Y-190923380D01*
X254976333Y-190971000D01*
X254928714Y-191018619D01*
X254881095Y-191113857D01*
X254881095Y-191161476D01*
X254928714Y-191256714D01*
X254976333Y-191304333D01*
X255071571Y-191351952D01*
X255262047Y-191351952D01*
X255357285Y-191399571D01*
X255404904Y-191447190D01*
X255452523Y-191542428D01*
X255452523Y-191732904D01*
X255404904Y-191828142D01*
X255357285Y-191875761D01*
X255262047Y-191923380D01*
X255071571Y-191923380D01*
X254976333Y-191875761D01*
X254928714Y-191828142D01*
X254881095Y-191732904D01*
X254881095Y-191542428D01*
X254928714Y-191447190D01*
X254976333Y-191399571D01*
X255071571Y-191351952D01*
%TO.C,TP2*%
X163161904Y-132152380D02*
X162590476Y-132152380D01*
X162876190Y-133152380D02*
X162876190Y-132152380D01*
X162257142Y-133152380D02*
X162257142Y-132152380D01*
X161876190Y-132152380D01*
X161780952Y-132200000D01*
X161733333Y-132247619D01*
X161685714Y-132342857D01*
X161685714Y-132485714D01*
X161733333Y-132580952D01*
X161780952Y-132628571D01*
X161876190Y-132676190D01*
X162257142Y-132676190D01*
X161304761Y-132247619D02*
X161257142Y-132200000D01*
X161161904Y-132152380D01*
X160923809Y-132152380D01*
X160828571Y-132200000D01*
X160780952Y-132247619D01*
X160733333Y-132342857D01*
X160733333Y-132438095D01*
X160780952Y-132580952D01*
X161352380Y-133152380D01*
X160733333Y-133152380D01*
%TO.C,SW5*%
X124433333Y-142149761D02*
X124290476Y-142197380D01*
X124052380Y-142197380D01*
X123957142Y-142149761D01*
X123909523Y-142102142D01*
X123861904Y-142006904D01*
X123861904Y-141911666D01*
X123909523Y-141816428D01*
X123957142Y-141768809D01*
X124052380Y-141721190D01*
X124242857Y-141673571D01*
X124338095Y-141625952D01*
X124385714Y-141578333D01*
X124433333Y-141483095D01*
X124433333Y-141387857D01*
X124385714Y-141292619D01*
X124338095Y-141245000D01*
X124242857Y-141197380D01*
X124004761Y-141197380D01*
X123861904Y-141245000D01*
X123528571Y-141197380D02*
X123290476Y-142197380D01*
X123100000Y-141483095D01*
X122909523Y-142197380D01*
X122671428Y-141197380D01*
X121814285Y-141197380D02*
X122290476Y-141197380D01*
X122338095Y-141673571D01*
X122290476Y-141625952D01*
X122195238Y-141578333D01*
X121957142Y-141578333D01*
X121861904Y-141625952D01*
X121814285Y-141673571D01*
X121766666Y-141768809D01*
X121766666Y-142006904D01*
X121814285Y-142102142D01*
X121861904Y-142149761D01*
X121957142Y-142197380D01*
X122195238Y-142197380D01*
X122290476Y-142149761D01*
X122338095Y-142102142D01*
%TO.C,C29*%
X259485857Y-181408142D02*
X259533476Y-181455761D01*
X259676333Y-181503380D01*
X259771571Y-181503380D01*
X259914428Y-181455761D01*
X260009666Y-181360523D01*
X260057285Y-181265285D01*
X260104904Y-181074809D01*
X260104904Y-180931952D01*
X260057285Y-180741476D01*
X260009666Y-180646238D01*
X259914428Y-180551000D01*
X259771571Y-180503380D01*
X259676333Y-180503380D01*
X259533476Y-180551000D01*
X259485857Y-180598619D01*
X259104904Y-180598619D02*
X259057285Y-180551000D01*
X258962047Y-180503380D01*
X258723952Y-180503380D01*
X258628714Y-180551000D01*
X258581095Y-180598619D01*
X258533476Y-180693857D01*
X258533476Y-180789095D01*
X258581095Y-180931952D01*
X259152523Y-181503380D01*
X258533476Y-181503380D01*
X258057285Y-181503380D02*
X257866809Y-181503380D01*
X257771571Y-181455761D01*
X257723952Y-181408142D01*
X257628714Y-181265285D01*
X257581095Y-181074809D01*
X257581095Y-180693857D01*
X257628714Y-180598619D01*
X257676333Y-180551000D01*
X257771571Y-180503380D01*
X257962047Y-180503380D01*
X258057285Y-180551000D01*
X258104904Y-180598619D01*
X258152523Y-180693857D01*
X258152523Y-180931952D01*
X258104904Y-181027190D01*
X258057285Y-181074809D01*
X257962047Y-181122428D01*
X257771571Y-181122428D01*
X257676333Y-181074809D01*
X257628714Y-181027190D01*
X257581095Y-180931952D01*
%TO.C,C33*%
X206400142Y-178457142D02*
X206447761Y-178409523D01*
X206495380Y-178266666D01*
X206495380Y-178171428D01*
X206447761Y-178028571D01*
X206352523Y-177933333D01*
X206257285Y-177885714D01*
X206066809Y-177838095D01*
X205923952Y-177838095D01*
X205733476Y-177885714D01*
X205638238Y-177933333D01*
X205543000Y-178028571D01*
X205495380Y-178171428D01*
X205495380Y-178266666D01*
X205543000Y-178409523D01*
X205590619Y-178457142D01*
X205495380Y-178790476D02*
X205495380Y-179409523D01*
X205876333Y-179076190D01*
X205876333Y-179219047D01*
X205923952Y-179314285D01*
X205971571Y-179361904D01*
X206066809Y-179409523D01*
X206304904Y-179409523D01*
X206400142Y-179361904D01*
X206447761Y-179314285D01*
X206495380Y-179219047D01*
X206495380Y-178933333D01*
X206447761Y-178838095D01*
X206400142Y-178790476D01*
X205495380Y-179742857D02*
X205495380Y-180361904D01*
X205876333Y-180028571D01*
X205876333Y-180171428D01*
X205923952Y-180266666D01*
X205971571Y-180314285D01*
X206066809Y-180361904D01*
X206304904Y-180361904D01*
X206400142Y-180314285D01*
X206447761Y-180266666D01*
X206495380Y-180171428D01*
X206495380Y-179885714D01*
X206447761Y-179790476D01*
X206400142Y-179742857D01*
%TO.C,C36*%
X209000142Y-178457142D02*
X209047761Y-178409523D01*
X209095380Y-178266666D01*
X209095380Y-178171428D01*
X209047761Y-178028571D01*
X208952523Y-177933333D01*
X208857285Y-177885714D01*
X208666809Y-177838095D01*
X208523952Y-177838095D01*
X208333476Y-177885714D01*
X208238238Y-177933333D01*
X208143000Y-178028571D01*
X208095380Y-178171428D01*
X208095380Y-178266666D01*
X208143000Y-178409523D01*
X208190619Y-178457142D01*
X208095380Y-178790476D02*
X208095380Y-179409523D01*
X208476333Y-179076190D01*
X208476333Y-179219047D01*
X208523952Y-179314285D01*
X208571571Y-179361904D01*
X208666809Y-179409523D01*
X208904904Y-179409523D01*
X209000142Y-179361904D01*
X209047761Y-179314285D01*
X209095380Y-179219047D01*
X209095380Y-178933333D01*
X209047761Y-178838095D01*
X209000142Y-178790476D01*
X208095380Y-180266666D02*
X208095380Y-180076190D01*
X208143000Y-179980952D01*
X208190619Y-179933333D01*
X208333476Y-179838095D01*
X208523952Y-179790476D01*
X208904904Y-179790476D01*
X209000142Y-179838095D01*
X209047761Y-179885714D01*
X209095380Y-179980952D01*
X209095380Y-180171428D01*
X209047761Y-180266666D01*
X209000142Y-180314285D01*
X208904904Y-180361904D01*
X208666809Y-180361904D01*
X208571571Y-180314285D01*
X208523952Y-180266666D01*
X208476333Y-180171428D01*
X208476333Y-179980952D01*
X208523952Y-179885714D01*
X208571571Y-179838095D01*
X208666809Y-179790476D01*
%TO.C,C42*%
X215185857Y-188357142D02*
X215233476Y-188404761D01*
X215376333Y-188452380D01*
X215471571Y-188452380D01*
X215614428Y-188404761D01*
X215709666Y-188309523D01*
X215757285Y-188214285D01*
X215804904Y-188023809D01*
X215804904Y-187880952D01*
X215757285Y-187690476D01*
X215709666Y-187595238D01*
X215614428Y-187500000D01*
X215471571Y-187452380D01*
X215376333Y-187452380D01*
X215233476Y-187500000D01*
X215185857Y-187547619D01*
X214328714Y-187785714D02*
X214328714Y-188452380D01*
X214566809Y-187404761D02*
X214804904Y-188119047D01*
X214185857Y-188119047D01*
X213852523Y-187547619D02*
X213804904Y-187500000D01*
X213709666Y-187452380D01*
X213471571Y-187452380D01*
X213376333Y-187500000D01*
X213328714Y-187547619D01*
X213281095Y-187642857D01*
X213281095Y-187738095D01*
X213328714Y-187880952D01*
X213900142Y-188452380D01*
X213281095Y-188452380D01*
%TO.C,C35*%
X198600142Y-178457142D02*
X198647761Y-178409523D01*
X198695380Y-178266666D01*
X198695380Y-178171428D01*
X198647761Y-178028571D01*
X198552523Y-177933333D01*
X198457285Y-177885714D01*
X198266809Y-177838095D01*
X198123952Y-177838095D01*
X197933476Y-177885714D01*
X197838238Y-177933333D01*
X197743000Y-178028571D01*
X197695380Y-178171428D01*
X197695380Y-178266666D01*
X197743000Y-178409523D01*
X197790619Y-178457142D01*
X197695380Y-178790476D02*
X197695380Y-179409523D01*
X198076333Y-179076190D01*
X198076333Y-179219047D01*
X198123952Y-179314285D01*
X198171571Y-179361904D01*
X198266809Y-179409523D01*
X198504904Y-179409523D01*
X198600142Y-179361904D01*
X198647761Y-179314285D01*
X198695380Y-179219047D01*
X198695380Y-178933333D01*
X198647761Y-178838095D01*
X198600142Y-178790476D01*
X197695380Y-180314285D02*
X197695380Y-179838095D01*
X198171571Y-179790476D01*
X198123952Y-179838095D01*
X198076333Y-179933333D01*
X198076333Y-180171428D01*
X198123952Y-180266666D01*
X198171571Y-180314285D01*
X198266809Y-180361904D01*
X198504904Y-180361904D01*
X198600142Y-180314285D01*
X198647761Y-180266666D01*
X198695380Y-180171428D01*
X198695380Y-179933333D01*
X198647761Y-179838095D01*
X198600142Y-179790476D01*
%TO.C,C27*%
X265585857Y-191708142D02*
X265633476Y-191755761D01*
X265776333Y-191803380D01*
X265871571Y-191803380D01*
X266014428Y-191755761D01*
X266109666Y-191660523D01*
X266157285Y-191565285D01*
X266204904Y-191374809D01*
X266204904Y-191231952D01*
X266157285Y-191041476D01*
X266109666Y-190946238D01*
X266014428Y-190851000D01*
X265871571Y-190803380D01*
X265776333Y-190803380D01*
X265633476Y-190851000D01*
X265585857Y-190898619D01*
X265204904Y-190898619D02*
X265157285Y-190851000D01*
X265062047Y-190803380D01*
X264823952Y-190803380D01*
X264728714Y-190851000D01*
X264681095Y-190898619D01*
X264633476Y-190993857D01*
X264633476Y-191089095D01*
X264681095Y-191231952D01*
X265252523Y-191803380D01*
X264633476Y-191803380D01*
X264300142Y-190803380D02*
X263633476Y-190803380D01*
X264062047Y-191803380D01*
%TO.C,SW7*%
X149514333Y-142149761D02*
X149371476Y-142197380D01*
X149133380Y-142197380D01*
X149038142Y-142149761D01*
X148990523Y-142102142D01*
X148942904Y-142006904D01*
X148942904Y-141911666D01*
X148990523Y-141816428D01*
X149038142Y-141768809D01*
X149133380Y-141721190D01*
X149323857Y-141673571D01*
X149419095Y-141625952D01*
X149466714Y-141578333D01*
X149514333Y-141483095D01*
X149514333Y-141387857D01*
X149466714Y-141292619D01*
X149419095Y-141245000D01*
X149323857Y-141197380D01*
X149085761Y-141197380D01*
X148942904Y-141245000D01*
X148609571Y-141197380D02*
X148371476Y-142197380D01*
X148181000Y-141483095D01*
X147990523Y-142197380D01*
X147752428Y-141197380D01*
X147466714Y-141197380D02*
X146800047Y-141197380D01*
X147228619Y-142197380D01*
%TO.C,J20*%
X251084523Y-161395250D02*
X251084523Y-162109536D01*
X251132142Y-162252393D01*
X251227380Y-162347631D01*
X251370238Y-162395250D01*
X251465476Y-162395250D01*
X250655952Y-161490489D02*
X250608333Y-161442870D01*
X250513095Y-161395250D01*
X250275000Y-161395250D01*
X250179761Y-161442870D01*
X250132142Y-161490489D01*
X250084523Y-161585727D01*
X250084523Y-161680965D01*
X250132142Y-161823822D01*
X250703571Y-162395250D01*
X250084523Y-162395250D01*
X249465476Y-161395250D02*
X249370238Y-161395250D01*
X249275000Y-161442870D01*
X249227380Y-161490489D01*
X249179761Y-161585727D01*
X249132142Y-161776203D01*
X249132142Y-162014298D01*
X249179761Y-162204774D01*
X249227380Y-162300012D01*
X249275000Y-162347631D01*
X249370238Y-162395250D01*
X249465476Y-162395250D01*
X249560714Y-162347631D01*
X249608333Y-162300012D01*
X249655952Y-162204774D01*
X249703571Y-162014298D01*
X249703571Y-161776203D01*
X249655952Y-161585727D01*
X249608333Y-161490489D01*
X249560714Y-161442870D01*
X249465476Y-161395250D01*
%TO.C,SW10*%
X235369523Y-121828761D02*
X235226666Y-121876380D01*
X234988571Y-121876380D01*
X234893333Y-121828761D01*
X234845714Y-121781142D01*
X234798095Y-121685904D01*
X234798095Y-121590666D01*
X234845714Y-121495428D01*
X234893333Y-121447809D01*
X234988571Y-121400190D01*
X235179047Y-121352571D01*
X235274285Y-121304952D01*
X235321904Y-121257333D01*
X235369523Y-121162095D01*
X235369523Y-121066857D01*
X235321904Y-120971619D01*
X235274285Y-120924000D01*
X235179047Y-120876380D01*
X234940952Y-120876380D01*
X234798095Y-120924000D01*
X234464761Y-120876380D02*
X234226666Y-121876380D01*
X234036190Y-121162095D01*
X233845714Y-121876380D01*
X233607619Y-120876380D01*
X232702857Y-121876380D02*
X233274285Y-121876380D01*
X232988571Y-121876380D02*
X232988571Y-120876380D01*
X233083809Y-121019238D01*
X233179047Y-121114476D01*
X233274285Y-121162095D01*
X232083809Y-120876380D02*
X231988571Y-120876380D01*
X231893333Y-120924000D01*
X231845714Y-120971619D01*
X231798095Y-121066857D01*
X231750476Y-121257333D01*
X231750476Y-121495428D01*
X231798095Y-121685904D01*
X231845714Y-121781142D01*
X231893333Y-121828761D01*
X231988571Y-121876380D01*
X232083809Y-121876380D01*
X232179047Y-121828761D01*
X232226666Y-121781142D01*
X232274285Y-121685904D01*
X232321904Y-121495428D01*
X232321904Y-121257333D01*
X232274285Y-121066857D01*
X232226666Y-120971619D01*
X232179047Y-120924000D01*
X232083809Y-120876380D01*
%TO.C,C26*%
X265485857Y-195808142D02*
X265533476Y-195855761D01*
X265676333Y-195903380D01*
X265771571Y-195903380D01*
X265914428Y-195855761D01*
X266009666Y-195760523D01*
X266057285Y-195665285D01*
X266104904Y-195474809D01*
X266104904Y-195331952D01*
X266057285Y-195141476D01*
X266009666Y-195046238D01*
X265914428Y-194951000D01*
X265771571Y-194903380D01*
X265676333Y-194903380D01*
X265533476Y-194951000D01*
X265485857Y-194998619D01*
X265104904Y-194998619D02*
X265057285Y-194951000D01*
X264962047Y-194903380D01*
X264723952Y-194903380D01*
X264628714Y-194951000D01*
X264581095Y-194998619D01*
X264533476Y-195093857D01*
X264533476Y-195189095D01*
X264581095Y-195331952D01*
X265152523Y-195903380D01*
X264533476Y-195903380D01*
X263676333Y-194903380D02*
X263866809Y-194903380D01*
X263962047Y-194951000D01*
X264009666Y-194998619D01*
X264104904Y-195141476D01*
X264152523Y-195331952D01*
X264152523Y-195712904D01*
X264104904Y-195808142D01*
X264057285Y-195855761D01*
X263962047Y-195903380D01*
X263771571Y-195903380D01*
X263676333Y-195855761D01*
X263628714Y-195808142D01*
X263581095Y-195712904D01*
X263581095Y-195474809D01*
X263628714Y-195379571D01*
X263676333Y-195331952D01*
X263771571Y-195284333D01*
X263962047Y-195284333D01*
X264057285Y-195331952D01*
X264104904Y-195379571D01*
X264152523Y-195474809D01*
%TO.C,SW11*%
X194969523Y-141386761D02*
X194826666Y-141434380D01*
X194588571Y-141434380D01*
X194493333Y-141386761D01*
X194445714Y-141339142D01*
X194398095Y-141243904D01*
X194398095Y-141148666D01*
X194445714Y-141053428D01*
X194493333Y-141005809D01*
X194588571Y-140958190D01*
X194779047Y-140910571D01*
X194874285Y-140862952D01*
X194921904Y-140815333D01*
X194969523Y-140720095D01*
X194969523Y-140624857D01*
X194921904Y-140529619D01*
X194874285Y-140482000D01*
X194779047Y-140434380D01*
X194540952Y-140434380D01*
X194398095Y-140482000D01*
X194064761Y-140434380D02*
X193826666Y-141434380D01*
X193636190Y-140720095D01*
X193445714Y-141434380D01*
X193207619Y-140434380D01*
X192302857Y-141434380D02*
X192874285Y-141434380D01*
X192588571Y-141434380D02*
X192588571Y-140434380D01*
X192683809Y-140577238D01*
X192779047Y-140672476D01*
X192874285Y-140720095D01*
X191350476Y-141434380D02*
X191921904Y-141434380D01*
X191636190Y-141434380D02*
X191636190Y-140434380D01*
X191731428Y-140577238D01*
X191826666Y-140672476D01*
X191921904Y-140720095D01*
%TO.C,SW6*%
X136973833Y-142149761D02*
X136830976Y-142197380D01*
X136592880Y-142197380D01*
X136497642Y-142149761D01*
X136450023Y-142102142D01*
X136402404Y-142006904D01*
X136402404Y-141911666D01*
X136450023Y-141816428D01*
X136497642Y-141768809D01*
X136592880Y-141721190D01*
X136783357Y-141673571D01*
X136878595Y-141625952D01*
X136926214Y-141578333D01*
X136973833Y-141483095D01*
X136973833Y-141387857D01*
X136926214Y-141292619D01*
X136878595Y-141245000D01*
X136783357Y-141197380D01*
X136545261Y-141197380D01*
X136402404Y-141245000D01*
X136069071Y-141197380D02*
X135830976Y-142197380D01*
X135640500Y-141483095D01*
X135450023Y-142197380D01*
X135211928Y-141197380D01*
X134402404Y-141197380D02*
X134592880Y-141197380D01*
X134688119Y-141245000D01*
X134735738Y-141292619D01*
X134830976Y-141435476D01*
X134878595Y-141625952D01*
X134878595Y-142006904D01*
X134830976Y-142102142D01*
X134783357Y-142149761D01*
X134688119Y-142197380D01*
X134497642Y-142197380D01*
X134402404Y-142149761D01*
X134354785Y-142102142D01*
X134307166Y-142006904D01*
X134307166Y-141768809D01*
X134354785Y-141673571D01*
X134402404Y-141625952D01*
X134497642Y-141578333D01*
X134688119Y-141578333D01*
X134783357Y-141625952D01*
X134830976Y-141673571D01*
X134878595Y-141768809D01*
%TO.C,C34*%
X201200142Y-178457142D02*
X201247761Y-178409523D01*
X201295380Y-178266666D01*
X201295380Y-178171428D01*
X201247761Y-178028571D01*
X201152523Y-177933333D01*
X201057285Y-177885714D01*
X200866809Y-177838095D01*
X200723952Y-177838095D01*
X200533476Y-177885714D01*
X200438238Y-177933333D01*
X200343000Y-178028571D01*
X200295380Y-178171428D01*
X200295380Y-178266666D01*
X200343000Y-178409523D01*
X200390619Y-178457142D01*
X200295380Y-178790476D02*
X200295380Y-179409523D01*
X200676333Y-179076190D01*
X200676333Y-179219047D01*
X200723952Y-179314285D01*
X200771571Y-179361904D01*
X200866809Y-179409523D01*
X201104904Y-179409523D01*
X201200142Y-179361904D01*
X201247761Y-179314285D01*
X201295380Y-179219047D01*
X201295380Y-178933333D01*
X201247761Y-178838095D01*
X201200142Y-178790476D01*
X200628714Y-180266666D02*
X201295380Y-180266666D01*
X200247761Y-180028571D02*
X200962047Y-179790476D01*
X200962047Y-180409523D01*
%TO.C,C43*%
X215285857Y-186757142D02*
X215333476Y-186804761D01*
X215476333Y-186852380D01*
X215571571Y-186852380D01*
X215714428Y-186804761D01*
X215809666Y-186709523D01*
X215857285Y-186614285D01*
X215904904Y-186423809D01*
X215904904Y-186280952D01*
X215857285Y-186090476D01*
X215809666Y-185995238D01*
X215714428Y-185900000D01*
X215571571Y-185852380D01*
X215476333Y-185852380D01*
X215333476Y-185900000D01*
X215285857Y-185947619D01*
X214428714Y-186185714D02*
X214428714Y-186852380D01*
X214666809Y-185804761D02*
X214904904Y-186519047D01*
X214285857Y-186519047D01*
X214000142Y-185852380D02*
X213381095Y-185852380D01*
X213714428Y-186233333D01*
X213571571Y-186233333D01*
X213476333Y-186280952D01*
X213428714Y-186328571D01*
X213381095Y-186423809D01*
X213381095Y-186661904D01*
X213428714Y-186757142D01*
X213476333Y-186804761D01*
X213571571Y-186852380D01*
X213857285Y-186852380D01*
X213952523Y-186804761D01*
X214000142Y-186757142D01*
%TO.C,TP9*%
X183352380Y-164087095D02*
X183352380Y-164658523D01*
X184352380Y-164372809D02*
X183352380Y-164372809D01*
X184352380Y-164991857D02*
X183352380Y-164991857D01*
X183352380Y-165372809D01*
X183400000Y-165468047D01*
X183447619Y-165515666D01*
X183542857Y-165563285D01*
X183685714Y-165563285D01*
X183780952Y-165515666D01*
X183828571Y-165468047D01*
X183876190Y-165372809D01*
X183876190Y-164991857D01*
X184352380Y-166039476D02*
X184352380Y-166229952D01*
X184304761Y-166325190D01*
X184257142Y-166372809D01*
X184114285Y-166468047D01*
X183923809Y-166515666D01*
X183542857Y-166515666D01*
X183447619Y-166468047D01*
X183400000Y-166420428D01*
X183352380Y-166325190D01*
X183352380Y-166134714D01*
X183400000Y-166039476D01*
X183447619Y-165991857D01*
X183542857Y-165944238D01*
X183780952Y-165944238D01*
X183876190Y-165991857D01*
X183923809Y-166039476D01*
X183971428Y-166134714D01*
X183971428Y-166325190D01*
X183923809Y-166420428D01*
X183876190Y-166468047D01*
X183780952Y-166515666D01*
%TO.C,TP10*%
X182638095Y-164801380D02*
X182066666Y-164801380D01*
X182352380Y-165801380D02*
X182352380Y-164801380D01*
X181733333Y-165801380D02*
X181733333Y-164801380D01*
X181352380Y-164801380D01*
X181257142Y-164849000D01*
X181209523Y-164896619D01*
X181161904Y-164991857D01*
X181161904Y-165134714D01*
X181209523Y-165229952D01*
X181257142Y-165277571D01*
X181352380Y-165325190D01*
X181733333Y-165325190D01*
X180209523Y-165801380D02*
X180780952Y-165801380D01*
X180495238Y-165801380D02*
X180495238Y-164801380D01*
X180590476Y-164944238D01*
X180685714Y-165039476D01*
X180780952Y-165087095D01*
X179590476Y-164801380D02*
X179495238Y-164801380D01*
X179400000Y-164849000D01*
X179352380Y-164896619D01*
X179304761Y-164991857D01*
X179257142Y-165182333D01*
X179257142Y-165420428D01*
X179304761Y-165610904D01*
X179352380Y-165706142D01*
X179400000Y-165753761D01*
X179495238Y-165801380D01*
X179590476Y-165801380D01*
X179685714Y-165753761D01*
X179733333Y-165706142D01*
X179780952Y-165610904D01*
X179828571Y-165420428D01*
X179828571Y-165182333D01*
X179780952Y-164991857D01*
X179733333Y-164896619D01*
X179685714Y-164849000D01*
X179590476Y-164801380D01*
%TO.C,J18*%
X150609524Y-173302381D02*
X150609524Y-174016667D01*
X150657143Y-174159524D01*
X150752381Y-174254762D01*
X150895239Y-174302381D01*
X150990477Y-174302381D01*
X149609524Y-174302381D02*
X150180953Y-174302381D01*
X149895239Y-174302381D02*
X149895239Y-173302381D01*
X149990477Y-173445239D01*
X150085715Y-173540477D01*
X150180953Y-173588096D01*
X149038096Y-173730953D02*
X149133334Y-173683334D01*
X149180953Y-173635715D01*
X149228572Y-173540477D01*
X149228572Y-173492858D01*
X149180953Y-173397620D01*
X149133334Y-173350001D01*
X149038096Y-173302381D01*
X148847620Y-173302381D01*
X148752381Y-173350001D01*
X148704762Y-173397620D01*
X148657143Y-173492858D01*
X148657143Y-173540477D01*
X148704762Y-173635715D01*
X148752381Y-173683334D01*
X148847620Y-173730953D01*
X149038096Y-173730953D01*
X149133334Y-173778572D01*
X149180953Y-173826191D01*
X149228572Y-173921429D01*
X149228572Y-174111905D01*
X149180953Y-174207143D01*
X149133334Y-174254762D01*
X149038096Y-174302381D01*
X148847620Y-174302381D01*
X148752381Y-174254762D01*
X148704762Y-174207143D01*
X148657143Y-174111905D01*
X148657143Y-173921429D01*
X148704762Y-173826191D01*
X148752381Y-173778572D01*
X148847620Y-173730953D01*
D12*
%TO.C,SW12*%
X220345000Y-155841000D02*
X220345000Y-141871000D01*
X206375000Y-141871000D02*
X206375000Y-155841000D01*
X220345000Y-141871000D02*
X206375000Y-141871000D01*
X206375000Y-155841000D02*
X220345000Y-155841000D01*
%TO.C,SW8*%
X186175000Y-122313000D02*
X186175000Y-136283000D01*
X200145000Y-136283000D02*
X200145000Y-122313000D01*
X186175000Y-136283000D02*
X200145000Y-136283000D01*
X200145000Y-122313000D02*
X186175000Y-122313000D01*
%TO.C,J21*%
X269225365Y-134212589D02*
X256412590Y-147025364D01*
X260337033Y-137995611D02*
X259983480Y-137642057D01*
X255952971Y-142379673D02*
X256094392Y-142238251D01*
X263024039Y-135308605D02*
X263165460Y-135167184D01*
X255599418Y-142026119D02*
X255952971Y-142379673D01*
X256412590Y-147025364D02*
X253075046Y-143687820D01*
X264438252Y-133894391D02*
X264579674Y-133752970D01*
X261326982Y-136298554D02*
X261680536Y-136652108D01*
X268362695Y-134212589D02*
X266983837Y-135591448D01*
X256412590Y-147449628D02*
X255528707Y-146565745D01*
X265887821Y-131737716D02*
X268362695Y-134212589D01*
X258222784Y-145215171D02*
X257791449Y-144783836D01*
X257791449Y-144783836D02*
X256412590Y-146162694D01*
X258781398Y-139551246D02*
X258922819Y-139409824D01*
X253075046Y-143687820D02*
X265887821Y-130875045D01*
X255486280Y-146099054D02*
X255917616Y-145667719D01*
X262741196Y-134884341D02*
X263094749Y-135237894D01*
X258498555Y-139126981D02*
X258852109Y-139480535D01*
X257798520Y-145922278D02*
X257586388Y-146134410D01*
X257084342Y-140541195D02*
X257437895Y-140894748D01*
X261609825Y-136722818D02*
X261751247Y-136581397D01*
X259912769Y-137712768D02*
X260266322Y-138066321D01*
X257727809Y-145851567D02*
X257515677Y-146063699D01*
X261256272Y-136369265D02*
X261609825Y-136722818D01*
X257586388Y-146134410D02*
X257444966Y-145992988D01*
X256094392Y-142238251D02*
X255740839Y-141884698D01*
X257657098Y-145780856D02*
X257798520Y-145922278D01*
X262670485Y-134955051D02*
X263024039Y-135308605D01*
X268299055Y-133286279D02*
X267867720Y-133717615D01*
X260195612Y-138137032D02*
X260337033Y-137995611D01*
X259842058Y-137783479D02*
X260195612Y-138137032D01*
X264155410Y-133470127D02*
X264508963Y-133823681D01*
X257367184Y-140965459D02*
X257508606Y-140824038D01*
X257013631Y-140611906D02*
X257367184Y-140965459D01*
X254567042Y-145179816D02*
X254998377Y-144748480D01*
X253937717Y-143687820D02*
X265887821Y-131737716D01*
X258427845Y-139197692D02*
X258781398Y-139551246D01*
X266983837Y-135591448D02*
X267415172Y-136022783D01*
X265887821Y-130875045D02*
X269225365Y-134212589D01*
X264084699Y-133540838D02*
X264438252Y-133894391D01*
X263165460Y-135167184D02*
X262811907Y-134813630D01*
X267379816Y-132367041D02*
X266948481Y-132798376D01*
X257296474Y-146565745D02*
X256412590Y-147449628D01*
X264579674Y-133752970D02*
X264226120Y-133399417D01*
X261751247Y-136581397D02*
X261397693Y-136227844D01*
X258922819Y-139409824D02*
X258569266Y-139056271D01*
X255670128Y-141955409D02*
X256023682Y-142308962D01*
X257508606Y-140824038D02*
X257155052Y-140470484D01*
X256412590Y-146162694D02*
X253937717Y-143687820D01*
%TO.C,TP7*%
X188400000Y-167549000D02*
G75*
G03*
X188400000Y-167549000I-700000J0D01*
G01*
%TO.C,J11*%
X198200000Y-169749000D02*
X198200000Y-174109000D01*
X213760000Y-166289000D02*
X213760000Y-174109000D01*
X197400000Y-170249000D02*
X196400000Y-170249000D01*
X213760000Y-167889000D02*
X212840000Y-167889000D01*
X195640000Y-167889000D02*
X196560000Y-167889000D01*
X212840000Y-167889000D02*
X212840000Y-166289000D01*
X196400000Y-170249000D02*
X196400000Y-171849000D01*
X195640000Y-166289000D02*
X196560000Y-166289000D01*
X213760000Y-174109000D02*
X195640000Y-174109000D01*
X212000000Y-171849000D02*
X212000000Y-170249000D01*
X212000000Y-171849000D02*
X212000000Y-174109000D01*
X196560000Y-166289000D02*
X196560000Y-167889000D01*
X212560000Y-167889000D02*
X212840000Y-167889000D01*
X196560000Y-167889000D02*
X196840000Y-167889000D01*
X213000000Y-170249000D02*
X213000000Y-171849000D01*
X213000000Y-171849000D02*
X212000000Y-171849000D01*
X212500000Y-171849000D02*
X212500000Y-174109000D01*
X212560000Y-167889000D02*
X212560000Y-166674000D01*
X212840000Y-166289000D02*
X213760000Y-166289000D01*
X211200000Y-174109000D02*
X211200000Y-169749000D01*
X196400000Y-171849000D02*
X197400000Y-171849000D01*
X195640000Y-174109000D02*
X195640000Y-166289000D01*
X197400000Y-171849000D02*
X197400000Y-170249000D01*
X212000000Y-170249000D02*
X213000000Y-170249000D01*
X211200000Y-169749000D02*
X198200000Y-169749000D01*
%TO.C,SW9*%
X206375000Y-136283000D02*
X220345000Y-136283000D01*
X220345000Y-136283000D02*
X220345000Y-122313000D01*
X220345000Y-122313000D02*
X206375000Y-122313000D01*
X206375000Y-122313000D02*
X206375000Y-136283000D01*
%TO.C,J19*%
X255125000Y-186460870D02*
X255125000Y-186740870D01*
X256725000Y-170460870D02*
X255125000Y-170460870D01*
X252765000Y-186900870D02*
X251165000Y-186900870D01*
X248905000Y-169540870D02*
X256725000Y-169540870D01*
X252765000Y-185900870D02*
X252765000Y-186900870D01*
X252765000Y-171300870D02*
X252765000Y-170300870D01*
X255125000Y-169540870D02*
X255125000Y-170460870D01*
X251165000Y-186900870D02*
X251165000Y-185900870D01*
X255125000Y-170460870D02*
X255125000Y-170740870D01*
X253265000Y-185100870D02*
X253265000Y-172100870D01*
X253265000Y-172100870D02*
X248905000Y-172100870D01*
X251165000Y-185900870D02*
X248905000Y-185900870D01*
X256725000Y-187660870D02*
X248905000Y-187660870D01*
X255125000Y-187660870D02*
X255125000Y-186740870D01*
X256725000Y-169540870D02*
X256725000Y-170460870D01*
X251165000Y-171300870D02*
X252765000Y-171300870D01*
X251165000Y-170300870D02*
X251165000Y-171300870D01*
X256725000Y-186740870D02*
X256725000Y-187660870D01*
X255125000Y-186740870D02*
X256725000Y-186740870D01*
X248905000Y-185100870D02*
X253265000Y-185100870D01*
X251165000Y-185900870D02*
X252765000Y-185900870D01*
X252765000Y-170300870D02*
X251165000Y-170300870D01*
X248905000Y-187660870D02*
X248905000Y-169540870D01*
X255125000Y-186460870D02*
X256340000Y-186460870D01*
X251165000Y-186400870D02*
X248905000Y-186400870D01*
%TO.C,SW14*%
X146850000Y-125086000D02*
G75*
G03*
X146850000Y-125086000I-13750000J0D01*
G01*
X141649999Y-131986000D02*
G75*
G03*
X143318097Y-129123395I-8551418J6900404D01*
G01*
X143949999Y-126836000D02*
G75*
G03*
X143920006Y-123349577I-10849999J1650000D01*
G01*
X139749999Y-116336001D02*
G75*
G03*
X122231670Y-126731204I-6651464J-8749566D01*
G01*
X122900001Y-129186000D02*
G75*
G03*
X139962914Y-133726515I10199999J3999999D01*
G01*
D13*
X137099999Y-124959000D02*
G75*
G03*
X136390425Y-127363987I-4001463J-126568D01*
G01*
D12*
X143400000Y-121136000D02*
G75*
G03*
X141660470Y-118146202I-10400044J-4050026D01*
G01*
%TO.C,C25*%
X203953000Y-175859420D02*
X203953000Y-176140580D01*
X202933000Y-175859420D02*
X202933000Y-176140580D01*
%TO.C,TP1*%
X165200000Y-134400000D02*
G75*
G03*
X165200000Y-134400000I-700000J0D01*
G01*
%TO.C,C32*%
X251104252Y-199686000D02*
X250581748Y-199686000D01*
X251104252Y-198216000D02*
X250581748Y-198216000D01*
%TO.C,J17*%
X135405696Y-176048368D02*
X134405696Y-176048368D01*
X122965696Y-172088368D02*
X123245696Y-172088368D01*
X134965696Y-172088368D02*
X135245696Y-172088368D01*
X122805696Y-174448368D02*
X122805696Y-176048368D01*
X135245696Y-172088368D02*
X135245696Y-170488368D01*
X134405696Y-176048368D02*
X134405696Y-174448368D01*
X122045696Y-178308368D02*
X122045696Y-170488368D01*
X122045696Y-172088368D02*
X122965696Y-172088368D01*
X134405696Y-174448368D02*
X135405696Y-174448368D01*
X134905696Y-176048368D02*
X134905696Y-178308368D01*
X133605696Y-178308368D02*
X133605696Y-173948368D01*
X136165696Y-170488368D02*
X136165696Y-178308368D01*
X134965696Y-172088368D02*
X134965696Y-170873368D01*
X135405696Y-174448368D02*
X135405696Y-176048368D01*
X136165696Y-178308368D02*
X122045696Y-178308368D01*
X124605696Y-173948368D02*
X124605696Y-178308368D01*
X123805696Y-174448368D02*
X122805696Y-174448368D01*
X134405696Y-176048368D02*
X134405696Y-178308368D01*
X136165696Y-172088368D02*
X135245696Y-172088368D01*
X123805696Y-176048368D02*
X123805696Y-174448368D01*
X133605696Y-173948368D02*
X124605696Y-173948368D01*
X122805696Y-176048368D02*
X123805696Y-176048368D01*
X122045696Y-170488368D02*
X122965696Y-170488368D01*
X122965696Y-170488368D02*
X122965696Y-172088368D01*
X135245696Y-170488368D02*
X136165696Y-170488368D01*
%TO.C,C30*%
X257578000Y-163389748D02*
X257578000Y-163912252D01*
X256108000Y-163389748D02*
X256108000Y-163912252D01*
%TO.C,JP2*%
X146100000Y-109600000D02*
X144100000Y-109600000D01*
X144100000Y-109600000D02*
X144100000Y-112400000D01*
X146100000Y-112400000D02*
X146100000Y-109600000D01*
X144100000Y-112400000D02*
X146100000Y-112400000D01*
%TO.C,TP8*%
X186249000Y-167912000D02*
G75*
G03*
X186249000Y-167912000I-700000J0D01*
G01*
%TO.C,SW13*%
X226575000Y-141871000D02*
X226575000Y-155841000D01*
X240545000Y-155841000D02*
X240545000Y-141871000D01*
X226575000Y-155841000D02*
X240545000Y-155841000D01*
X240545000Y-141871000D02*
X226575000Y-141871000D01*
%TO.C,C31*%
X257081748Y-204086000D02*
X257604252Y-204086000D01*
X257081748Y-202616000D02*
X257604252Y-202616000D01*
%TO.C,C28*%
X256404252Y-193886000D02*
X255881748Y-193886000D01*
X256404252Y-192416000D02*
X255881748Y-192416000D01*
%TO.C,TP2*%
X163000000Y-134300000D02*
G75*
G03*
X163000000Y-134300000I-700000J0D01*
G01*
%TO.C,SW5*%
X124430000Y-150485000D02*
X121770000Y-150485000D01*
X124430000Y-142745000D02*
X123100000Y-142745000D01*
X121770000Y-145345000D02*
X121770000Y-150485000D01*
X124430000Y-145345000D02*
X121770000Y-145345000D01*
X124430000Y-145345000D02*
X124430000Y-150485000D01*
X124430000Y-144075000D02*
X124430000Y-142745000D01*
%TO.C,C29*%
X258108000Y-177589748D02*
X258108000Y-178112252D01*
X259578000Y-177589748D02*
X259578000Y-178112252D01*
%TO.C,C33*%
X205483000Y-175859420D02*
X205483000Y-176140580D01*
X206503000Y-175859420D02*
X206503000Y-176140580D01*
%TO.C,C36*%
X208033000Y-175859420D02*
X208033000Y-176140580D01*
X209053000Y-175859420D02*
X209053000Y-176140580D01*
%TO.C,C42*%
X211502420Y-187790000D02*
X211783580Y-187790000D01*
X211502420Y-188810000D02*
X211783580Y-188810000D01*
%TO.C,C35*%
X198853000Y-175859420D02*
X198853000Y-176140580D01*
X197833000Y-175859420D02*
X197833000Y-176140580D01*
%TO.C,C27*%
X261481748Y-191986000D02*
X262004252Y-191986000D01*
X261481748Y-190516000D02*
X262004252Y-190516000D01*
%TO.C,SW7*%
X149511000Y-142745000D02*
X148181000Y-142745000D01*
X149511000Y-145345000D02*
X146851000Y-145345000D01*
X146851000Y-145345000D02*
X146851000Y-150485000D01*
X149511000Y-150485000D02*
X146851000Y-150485000D01*
X149511000Y-144075000D02*
X149511000Y-142745000D01*
X149511000Y-145345000D02*
X149511000Y-150485000D01*
%TO.C,J20*%
X254335000Y-163032870D02*
X254335000Y-167752870D01*
X252575000Y-163032870D02*
X252575000Y-162832870D01*
X249375000Y-166642870D02*
X249175000Y-166642870D01*
X249175000Y-166642870D02*
X249175000Y-167142870D01*
X246215000Y-165642870D02*
X246825000Y-165642870D01*
X253725000Y-167142870D02*
X246825000Y-167142870D01*
X246215000Y-163032870D02*
X254335000Y-163032870D01*
X251275000Y-167142870D02*
X251275000Y-166642870D01*
X246215000Y-164342870D02*
X246825000Y-164342870D01*
X251775000Y-163032870D02*
X251775000Y-163642870D01*
X251775000Y-163642870D02*
X253725000Y-163642870D01*
X246215000Y-167752870D02*
X246215000Y-163032870D01*
X246825000Y-167142870D02*
X246825000Y-163642870D01*
X246825000Y-163642870D02*
X248775000Y-163642870D01*
X252575000Y-162932870D02*
X252875000Y-162932870D01*
X252575000Y-162832870D02*
X252875000Y-162832870D01*
X254335000Y-167752870D02*
X246215000Y-167752870D01*
X248775000Y-163642870D02*
X248775000Y-163032870D01*
X253725000Y-163642870D02*
X253725000Y-167142870D01*
X254635000Y-162732870D02*
X254635000Y-163982870D01*
X253385000Y-162732870D02*
X254635000Y-162732870D01*
X251175000Y-166642870D02*
X251175000Y-167142870D01*
X254335000Y-165642870D02*
X253725000Y-165642870D01*
X252875000Y-162832870D02*
X252875000Y-163032870D01*
X249275000Y-167142870D02*
X249275000Y-166642870D01*
X249375000Y-167142870D02*
X249375000Y-166642870D01*
X251375000Y-167142870D02*
X251375000Y-166642870D01*
X251375000Y-166642870D02*
X251175000Y-166642870D01*
X254335000Y-164342870D02*
X253725000Y-164342870D01*
%TO.C,SW10*%
X226575000Y-122313000D02*
X226575000Y-136283000D01*
X226575000Y-136283000D02*
X240545000Y-136283000D01*
X240545000Y-136283000D02*
X240545000Y-122313000D01*
X240545000Y-122313000D02*
X226575000Y-122313000D01*
%TO.C,C26*%
X261481748Y-196186000D02*
X262004252Y-196186000D01*
X261481748Y-194716000D02*
X262004252Y-194716000D01*
%TO.C,SW11*%
X186175000Y-155841000D02*
X200145000Y-155841000D01*
X200145000Y-155841000D02*
X200145000Y-141871000D01*
X186175000Y-141871000D02*
X186175000Y-155841000D01*
X200145000Y-141871000D02*
X186175000Y-141871000D01*
%TO.C,SW6*%
X134310500Y-145345000D02*
X134310500Y-150485000D01*
X136970500Y-142745000D02*
X135640500Y-142745000D01*
X136970500Y-150485000D02*
X134310500Y-150485000D01*
X136970500Y-145345000D02*
X134310500Y-145345000D01*
X136970500Y-144075000D02*
X136970500Y-142745000D01*
X136970500Y-145345000D02*
X136970500Y-150485000D01*
%TO.C,C34*%
X201403000Y-175859420D02*
X201403000Y-176140580D01*
X200383000Y-175859420D02*
X200383000Y-176140580D01*
%TO.C,C43*%
X211502420Y-186810000D02*
X211783580Y-186810000D01*
X211502420Y-185790000D02*
X211783580Y-185790000D01*
%TO.C,TP9*%
X184000000Y-167749000D02*
G75*
G03*
X184000000Y-167749000I-700000J0D01*
G01*
%TO.C,TP10*%
X182000000Y-167712000D02*
G75*
G03*
X182000000Y-167712000I-700000J0D01*
G01*
%TO.C,J18*%
X155740001Y-176940001D02*
X155740001Y-175340001D01*
X149300001Y-179300001D02*
X149300001Y-180900001D01*
X154100001Y-178800001D02*
X151100001Y-178800001D01*
X148540001Y-176940001D02*
X149460001Y-176940001D01*
X155460001Y-176940001D02*
X155460001Y-175725001D01*
X155400001Y-180900001D02*
X155400001Y-183160001D01*
X154900001Y-180900001D02*
X154900001Y-183160001D01*
X150300001Y-179300001D02*
X149300001Y-179300001D01*
X148540001Y-175340001D02*
X149460001Y-175340001D01*
X156660001Y-176940001D02*
X155740001Y-176940001D01*
X148540001Y-183160001D02*
X148540001Y-175340001D01*
X150300001Y-180900001D02*
X150300001Y-179300001D01*
X155460001Y-176940001D02*
X155740001Y-176940001D01*
X155740001Y-175340001D02*
X156660001Y-175340001D01*
X149300001Y-180900001D02*
X150300001Y-180900001D01*
X155900001Y-179300001D02*
X155900001Y-180900001D01*
X151100001Y-178800001D02*
X151100001Y-183160001D01*
X156660001Y-183160001D02*
X148540001Y-183160001D01*
X154100001Y-183160001D02*
X154100001Y-178800001D01*
X154900001Y-179300001D02*
X155900001Y-179300001D01*
X156660001Y-175340001D02*
X156660001Y-183160001D01*
X155900001Y-180900001D02*
X154900001Y-180900001D01*
X149460001Y-175340001D02*
X149460001Y-176940001D01*
X154900001Y-180900001D02*
X154900001Y-179300001D01*
X149460001Y-176940001D02*
X149740001Y-176940001D01*
%TD*%
%LPC*%
D14*
%TO.C,*%
X133800000Y-158000000D03*
%TD*%
%TO.C,*%
X124000000Y-157400000D03*
%TD*%
%TO.C,*%
X124700000Y-157700000D03*
%TD*%
%TO.C,*%
X131350000Y-162900000D03*
%TD*%
%TO.C,*%
X126200000Y-163600000D03*
%TD*%
%TO.C,*%
X127600000Y-162800000D03*
%TD*%
%TO.C,*%
X128350000Y-162600000D03*
%TD*%
%TO.C,*%
X132000000Y-163300000D03*
%TD*%
%TO.C,*%
X129850000Y-162500000D03*
%TD*%
%TO.C,*%
X130600000Y-162700000D03*
%TD*%
%TO.C,*%
X125600000Y-164100000D03*
%TD*%
%TO.C,*%
X132600000Y-163800000D03*
%TD*%
%TO.C,*%
X126900000Y-163100000D03*
%TD*%
%TO.C,*%
X129100000Y-162500000D03*
%TD*%
%TO.C,*%
X131450000Y-158000000D03*
%TD*%
%TO.C,*%
X126200000Y-158000000D03*
%TD*%
%TO.C,*%
X127700000Y-158000000D03*
%TD*%
%TO.C,*%
X128450000Y-158000000D03*
%TD*%
%TO.C,*%
X132200000Y-158000000D03*
%TD*%
%TO.C,*%
X129950000Y-158000000D03*
%TD*%
%TO.C,*%
X130700000Y-158000000D03*
%TD*%
%TO.C,*%
X125450000Y-157900000D03*
%TD*%
%TO.C,*%
X132950000Y-158000000D03*
%TD*%
%TO.C,*%
X126950000Y-158000000D03*
%TD*%
%TO.C,*%
X129200000Y-158000000D03*
%TD*%
%TO.C,*%
X138000000Y-178950000D03*
%TD*%
%TO.C,*%
X137900000Y-173700000D03*
%TD*%
%TO.C,*%
X138300000Y-175200000D03*
%TD*%
%TO.C,*%
X138300000Y-175950000D03*
%TD*%
%TO.C,*%
X137800000Y-179700000D03*
%TD*%
%TO.C,*%
X138300000Y-177450000D03*
%TD*%
%TO.C,*%
X138200000Y-178200000D03*
%TD*%
%TO.C,*%
X137600000Y-173000000D03*
%TD*%
%TO.C,*%
X137500000Y-180400000D03*
%TD*%
%TO.C,*%
X138100000Y-174450000D03*
%TD*%
%TO.C,*%
X138300000Y-176700000D03*
%TD*%
%TO.C,*%
X143300000Y-178950000D03*
%TD*%
%TO.C,*%
X143300000Y-173700000D03*
%TD*%
%TO.C,*%
X143300000Y-175200000D03*
%TD*%
%TO.C,*%
X143300000Y-175950000D03*
%TD*%
%TO.C,*%
X143300000Y-179700000D03*
%TD*%
%TO.C,*%
X143300000Y-177450000D03*
%TD*%
%TO.C,*%
X143300000Y-178200000D03*
%TD*%
%TO.C,*%
X143300000Y-172950000D03*
%TD*%
%TO.C,*%
X143300000Y-180450000D03*
%TD*%
%TO.C,*%
X143300000Y-174450000D03*
%TD*%
%TO.C,*%
X143300000Y-176700000D03*
%TD*%
%TO.C,*%
X263600000Y-129550000D03*
%TD*%
%TO.C,*%
X258350000Y-129625000D03*
%TD*%
%TO.C,*%
X262850000Y-129375000D03*
%TD*%
%TO.C,*%
X259825000Y-129275000D03*
%TD*%
%TO.C,*%
X259075000Y-129425000D03*
%TD*%
%TO.C,*%
X261325000Y-129200000D03*
%TD*%
%TO.C,*%
X260575000Y-129200000D03*
%TD*%
%TO.C,*%
X262075000Y-129250000D03*
%TD*%
%TO.C,*%
X257950000Y-148075000D03*
%TD*%
%TO.C,*%
X256500000Y-147425000D03*
%TD*%
%TO.C,*%
X261050000Y-148575000D03*
%TD*%
%TO.C,*%
X260275000Y-148550000D03*
%TD*%
%TO.C,*%
X259500000Y-148450000D03*
%TD*%
%TO.C,*%
X262575000Y-148450000D03*
%TD*%
%TO.C,*%
X261825000Y-148550000D03*
%TD*%
%TO.C,*%
X258725000Y-148275000D03*
%TD*%
%TO.C,*%
X257200000Y-147775000D03*
%TD*%
%TO.C,*%
X261400000Y-151675000D03*
%TD*%
%TO.C,*%
X256150000Y-151675000D03*
%TD*%
%TO.C,*%
X257650000Y-151675000D03*
%TD*%
%TO.C,*%
X258400000Y-151675000D03*
%TD*%
%TO.C,*%
X262150000Y-151800000D03*
%TD*%
%TO.C,*%
X259900000Y-151675000D03*
%TD*%
%TO.C,*%
X260650000Y-151675000D03*
%TD*%
%TO.C,*%
X255400000Y-151675000D03*
%TD*%
%TO.C,*%
X256900000Y-151675000D03*
%TD*%
%TO.C,*%
X259150000Y-151675000D03*
%TD*%
%TO.C,*%
X263325000Y-126225000D03*
%TD*%
%TO.C,*%
X258075000Y-126225000D03*
%TD*%
%TO.C,*%
X259575000Y-126225000D03*
%TD*%
%TO.C,*%
X260325000Y-126225000D03*
%TD*%
%TO.C,*%
X264075000Y-126225000D03*
%TD*%
%TO.C,*%
X261825000Y-126225000D03*
%TD*%
%TO.C,*%
X262575000Y-126225000D03*
%TD*%
%TO.C,*%
X257325000Y-126225000D03*
%TD*%
%TO.C,*%
X264825000Y-126225000D03*
%TD*%
%TO.C,*%
X258825000Y-126225000D03*
%TD*%
%TO.C,*%
X261075000Y-126225000D03*
%TD*%
%TO.C,*%
X246975000Y-133575000D03*
%TD*%
%TO.C,*%
X246975000Y-140375000D03*
%TD*%
%TO.C,*%
X246975000Y-135125000D03*
%TD*%
%TO.C,*%
X246975000Y-136625000D03*
%TD*%
%TO.C,*%
X246975000Y-137375000D03*
%TD*%
%TO.C,*%
X246975000Y-141125000D03*
%TD*%
%TO.C,*%
X246975000Y-138875000D03*
%TD*%
%TO.C,*%
X246975000Y-139625000D03*
%TD*%
%TO.C,*%
X246975000Y-134375000D03*
%TD*%
%TO.C,*%
X246975000Y-141875000D03*
%TD*%
%TO.C,*%
X246975000Y-135875000D03*
%TD*%
%TO.C,*%
X246975000Y-138125000D03*
%TD*%
%TO.C,*%
X251525000Y-140550000D03*
%TD*%
%TO.C,*%
X251425000Y-139775000D03*
%TD*%
%TO.C,*%
X251375000Y-139000000D03*
%TD*%
%TO.C,*%
X251400000Y-138225000D03*
%TD*%
%TO.C,*%
X251475000Y-137450000D03*
%TD*%
%TO.C,*%
X251625000Y-136700000D03*
%TD*%
%TO.C,*%
X251825000Y-135975000D03*
%TD*%
%TO.C,*%
X252075000Y-135250000D03*
%TD*%
%TO.C,mouse-bite-5mm-slot*%
X196100000Y-163000000D03*
X195350000Y-163000000D03*
X196100000Y-158000000D03*
X196850000Y-158000000D03*
X198350000Y-163000000D03*
X193100000Y-158000000D03*
X193100000Y-163000000D03*
X196850000Y-163000000D03*
X199100000Y-163000000D03*
X199850000Y-158000000D03*
X192350000Y-163000000D03*
X197600000Y-158000000D03*
X199100000Y-158000000D03*
X194600000Y-158000000D03*
X192350000Y-158000000D03*
X197600000Y-163000000D03*
X193100000Y-158000000D03*
X193850000Y-163000000D03*
X193850000Y-158000000D03*
X193100000Y-163000000D03*
X198350000Y-158000000D03*
X199850000Y-163000000D03*
X194600000Y-163000000D03*
X195350000Y-158000000D03*
%TD*%
%TO.C,mouse-bite-5mm-slot*%
X156350000Y-158000000D03*
X155600000Y-163000000D03*
X156350000Y-163000000D03*
X151100000Y-163000000D03*
X154100000Y-163000000D03*
X152600000Y-158000000D03*
X149600000Y-163000000D03*
X151850000Y-158000000D03*
X155600000Y-158000000D03*
X153350000Y-163000000D03*
X151100000Y-158000000D03*
X154850000Y-158000000D03*
X148850000Y-158000000D03*
X150350000Y-158000000D03*
X154100000Y-158000000D03*
X154850000Y-163000000D03*
X152600000Y-163000000D03*
X153350000Y-158000000D03*
X149600000Y-158000000D03*
X149600000Y-158000000D03*
X149600000Y-163000000D03*
X150350000Y-163000000D03*
X148850000Y-163000000D03*
X151850000Y-163000000D03*
%TD*%
%TO.C,mouse-bite-5mm-slot*%
X161300000Y-179550000D03*
X166300000Y-177300000D03*
X166300000Y-179550000D03*
X161300000Y-184050000D03*
X161300000Y-181800000D03*
X166300000Y-184050000D03*
X166300000Y-180300000D03*
X161300000Y-183300000D03*
X166300000Y-183300000D03*
X161300000Y-178050000D03*
X161300000Y-183300000D03*
X161300000Y-177300000D03*
X161300000Y-178800000D03*
X161300000Y-182550000D03*
X161300000Y-180300000D03*
X166300000Y-181800000D03*
X166300000Y-176550000D03*
X166300000Y-178050000D03*
X166300000Y-178800000D03*
X166300000Y-183300000D03*
X166300000Y-181050000D03*
X166300000Y-182550000D03*
X161300000Y-176550000D03*
X161300000Y-181050000D03*
%TD*%
%TO.C,mouse-bite-5mm-slot*%
X226300000Y-178950000D03*
X231300000Y-181950000D03*
X231300000Y-184950000D03*
X231300000Y-180450000D03*
X226300000Y-181950000D03*
X226300000Y-184950000D03*
X226300000Y-182700000D03*
X226300000Y-181200000D03*
X226300000Y-180450000D03*
X231300000Y-182700000D03*
X231300000Y-183450000D03*
X231300000Y-179700000D03*
X226300000Y-183450000D03*
X226300000Y-177450000D03*
X226300000Y-184200000D03*
X226300000Y-184200000D03*
X231300000Y-181200000D03*
X226300000Y-179700000D03*
X231300000Y-177450000D03*
X231300000Y-184200000D03*
X226300000Y-178200000D03*
X231300000Y-178950000D03*
X231300000Y-178200000D03*
X231300000Y-184200000D03*
%TD*%
%TO.C,mouse-bite-5mm-slot*%
X252000000Y-119500000D03*
X247000000Y-117250000D03*
X252000000Y-116500000D03*
X252000000Y-118000000D03*
X252000000Y-118750000D03*
X247000000Y-121000000D03*
X247000000Y-118750000D03*
X252000000Y-121000000D03*
X247000000Y-119500000D03*
X247000000Y-114250000D03*
X252000000Y-121000000D03*
X247000000Y-121750000D03*
X252000000Y-120250000D03*
X252000000Y-115750000D03*
X247000000Y-115750000D03*
X247000000Y-120250000D03*
X252000000Y-121750000D03*
X247000000Y-115000000D03*
X247000000Y-121000000D03*
X252000000Y-114250000D03*
X247000000Y-116500000D03*
X252000000Y-117250000D03*
X247000000Y-118000000D03*
X252000000Y-115000000D03*
%TD*%
D15*
%TO.C,REF\u002A\u002A*%
X182500000Y-125000000D03*
%TD*%
D16*
%TO.C,SW2*%
X158950001Y-167185787D03*
X146450001Y-167185787D03*
X158950001Y-172185787D03*
X146450001Y-172185787D03*
%TD*%
D15*
%TO.C,REF\u002A\u002A*%
X192043000Y-166900000D03*
%TD*%
D17*
%TO.C,J10*%
X208450000Y-186249000D03*
X208450000Y-188249000D03*
D18*
X208450000Y-190249000D03*
%TD*%
D15*
%TO.C,REF\u002A\u002A*%
X129500000Y-146500000D03*
%TD*%
%TO.C,REF\u002A\u002A*%
X269678000Y-108966000D03*
%TD*%
D19*
%TO.C,P1*%
X266763000Y-108000000D03*
D20*
X258123000Y-112180000D03*
X266763000Y-112180000D03*
D19*
X258123000Y-108000000D03*
D21*
X259553000Y-111650000D03*
X265333000Y-111650000D03*
%TD*%
D17*
%TO.C,J3*%
X141050000Y-111500000D03*
X141050000Y-109500000D03*
D22*
X141050000Y-107500000D03*
%TD*%
D15*
%TO.C,REF\u002A\u002A*%
X243303300Y-167700000D03*
%TD*%
%TO.C,REF\u002A\u002A*%
X129212779Y-166500000D03*
%TD*%
D23*
%TO.C,SW16*%
X259634000Y-157415870D03*
X255634000Y-157415870D03*
%TD*%
D24*
%TO.C,RN6*%
X203968000Y-183977000D03*
X201428000Y-183977000D03*
X198888000Y-183977000D03*
X196348000Y-183977000D03*
X193808000Y-183977000D03*
D25*
X191268000Y-183977000D03*
%TD*%
D15*
%TO.C,REF\u002A\u002A*%
X157743001Y-194036787D03*
%TD*%
D24*
%TO.C,RN3*%
X198380000Y-171023000D03*
X200920000Y-171023000D03*
X203460000Y-171023000D03*
X206000000Y-171023000D03*
X208540000Y-171023000D03*
D25*
X211080000Y-171023000D03*
%TD*%
D24*
%TO.C,RN1*%
X203454000Y-144284000D03*
X203454000Y-141744000D03*
X203454000Y-139204000D03*
X203454000Y-136664000D03*
X203454000Y-134124000D03*
D25*
X203454000Y-131584000D03*
%TD*%
D16*
%TO.C,SW1*%
X236934000Y-175255870D03*
X249434000Y-175255870D03*
X249434000Y-180255870D03*
X236934000Y-180255870D03*
%TD*%
D17*
%TO.C,J12*%
X223060000Y-185389000D03*
X223060000Y-183389000D03*
X223060000Y-181389000D03*
X223060000Y-179389000D03*
X223060000Y-177389000D03*
X223060000Y-175389000D03*
X223060000Y-173389000D03*
D22*
X223060000Y-171389000D03*
%TD*%
D24*
%TO.C,RN2*%
X158750000Y-131000000D03*
X156210000Y-131000000D03*
X153670000Y-131000000D03*
X151130000Y-131000000D03*
X148590000Y-131000000D03*
D25*
X146050000Y-131000000D03*
%TD*%
D26*
%TO.C,SW4*%
X176250000Y-122050000D03*
X169750000Y-122050000D03*
X169750000Y-126550000D03*
X176250000Y-126550000D03*
%TD*%
D15*
%TO.C,REF\u002A\u002A*%
X237000000Y-111000000D03*
%TD*%
%TO.C,REF\u002A\u002A*%
X202513000Y-189150000D03*
%TD*%
D27*
%TO.C,J6*%
X183760000Y-139760000D03*
X181220000Y-139760000D03*
X178680000Y-139760000D03*
X176140000Y-139760000D03*
X173600000Y-139760000D03*
X171060000Y-139760000D03*
X168520000Y-139760000D03*
X165980000Y-139760000D03*
X163440000Y-139760000D03*
X160900000Y-139760000D03*
X158360000Y-139760000D03*
X155820000Y-139760000D03*
X153280000Y-139760000D03*
X150740000Y-139760000D03*
X148200000Y-139760000D03*
X145660000Y-139760000D03*
X143120000Y-139760000D03*
X140580000Y-139760000D03*
X138040000Y-139760000D03*
D28*
X135500000Y-139760000D03*
%TD*%
D29*
%TO.C,J9*%
X218700000Y-190049000D03*
X216700000Y-190049000D03*
D30*
X214700000Y-190049000D03*
%TD*%
D15*
%TO.C,REF\u002A\u002A*%
X254428000Y-108966000D03*
%TD*%
D17*
%TO.C,J13*%
X170399000Y-181373000D03*
X170399000Y-179373000D03*
X170399000Y-177373000D03*
X170399000Y-175373000D03*
D22*
X170399000Y-173373000D03*
%TD*%
D31*
%TO.C,Y1*%
X164543000Y-108300000D03*
X159663000Y-108300000D03*
%TD*%
D27*
%TO.C,J7*%
X183760000Y-155000000D03*
X181220000Y-155000000D03*
X178680000Y-155000000D03*
X176140000Y-155000000D03*
X173600000Y-155000000D03*
X171060000Y-155000000D03*
X168520000Y-155000000D03*
X165980000Y-155000000D03*
X163440000Y-155000000D03*
X160900000Y-155000000D03*
X158360000Y-155000000D03*
X155820000Y-155000000D03*
X153280000Y-155000000D03*
X150740000Y-155000000D03*
X148200000Y-155000000D03*
X145660000Y-155000000D03*
X143120000Y-155000000D03*
X140580000Y-155000000D03*
X138040000Y-155000000D03*
D28*
X135500000Y-155000000D03*
%TD*%
D17*
%TO.C,J14*%
X169128000Y-186549000D03*
X169128000Y-188549000D03*
D18*
X169128000Y-190549000D03*
%TD*%
D32*
%TO.C,SW18*%
X127505696Y-177848368D03*
D33*
X131305696Y-177848368D03*
%TD*%
D15*
%TO.C,REF\u002A\u002A*%
X243308300Y-187700000D03*
%TD*%
D17*
%TO.C,J4*%
X209157000Y-106449000D03*
X209157000Y-108449000D03*
X209157000Y-110449000D03*
X209157000Y-112449000D03*
D18*
X209157000Y-114449000D03*
%TD*%
D15*
%TO.C,REF\u002A\u002A*%
X124000000Y-111000000D03*
%TD*%
D32*
%TO.C,SW17*%
X254340497Y-198072367D03*
D33*
X257027503Y-200759373D03*
%TD*%
D15*
%TO.C,REF\u002A\u002A*%
X129312779Y-186600000D03*
%TD*%
D29*
%TO.C,J15*%
X185092000Y-187237000D03*
X183092000Y-187237000D03*
X181092000Y-187237000D03*
X179092000Y-187237000D03*
X177092000Y-187237000D03*
D30*
X175092000Y-187237000D03*
%TD*%
D16*
%TO.C,SW3*%
X158950001Y-181700001D03*
X146450001Y-181700001D03*
X158950001Y-186700001D03*
X146450001Y-186700001D03*
%TD*%
D24*
%TO.C,RN4*%
X218043000Y-184993000D03*
X218043000Y-182453000D03*
X218043000Y-179913000D03*
X218043000Y-177373000D03*
X218043000Y-174833000D03*
D25*
X218043000Y-172293000D03*
%TD*%
D34*
%TO.C,VR1*%
X276414000Y-179515870D03*
X276414000Y-177015870D03*
X276414000Y-174515870D03*
X270184000Y-168285870D03*
X267684000Y-168285870D03*
X265184000Y-168285870D03*
D35*
X271984000Y-177015870D03*
D31*
X274009000Y-172015870D03*
D36*
X267684000Y-181015870D03*
D31*
X261359000Y-182015870D03*
X274009000Y-182015870D03*
X261359000Y-172015870D03*
D37*
X267684000Y-185015870D03*
D38*
X267684000Y-177015870D03*
D35*
X263384000Y-177015870D03*
%TD*%
D24*
%TO.C,RN5*%
X187204000Y-183215000D03*
X184664000Y-183215000D03*
X182124000Y-183215000D03*
X179584000Y-183215000D03*
X177044000Y-183215000D03*
D25*
X174504000Y-183215000D03*
%TD*%
D29*
%TO.C,J16*%
X133157000Y-107349000D03*
D30*
X131157000Y-107349000D03*
%TD*%
D29*
%TO.C,J8*%
X192543000Y-189250000D03*
X194543000Y-189250000D03*
D39*
X196543000Y-189250000D03*
%TD*%
D35*
%TO.C,SW15*%
X257250205Y-140374205D03*
D34*
X259550205Y-146674205D03*
X268850205Y-140374205D03*
X262450205Y-131074205D03*
X253250205Y-137374205D03*
X262050205Y-145874205D03*
X260050205Y-133094205D03*
X253250205Y-140374205D03*
X268850205Y-137374205D03*
X259550205Y-131074205D03*
X267910205Y-142624205D03*
%TD*%
D17*
%TO.C,J2*%
X148050000Y-111500000D03*
X148050000Y-109500000D03*
D22*
X148050000Y-107500000D03*
%TD*%
D29*
%TO.C,J5*%
X266443000Y-119400000D03*
X264443000Y-119400000D03*
X262443000Y-119400000D03*
X260443000Y-119400000D03*
D30*
X258443000Y-119400000D03*
%TD*%
D17*
%TO.C,J1*%
X178300000Y-114400000D03*
X178300000Y-112400000D03*
X178300000Y-110400000D03*
X178300000Y-108400000D03*
D22*
X178300000Y-106400000D03*
%TD*%
D40*
%TO.C,SW12*%
X217170000Y-146316000D03*
X210820000Y-143776000D03*
D41*
X208280000Y-148856000D03*
D38*
X213360000Y-148856000D03*
D41*
X218440000Y-148856000D03*
%TD*%
D40*
%TO.C,SW8*%
X196970000Y-126758000D03*
X190620000Y-124218000D03*
D41*
X198240000Y-129298000D03*
D38*
X193160000Y-129298000D03*
D41*
X188080000Y-129298000D03*
%TD*%
D42*
%TO.C,J21*%
X256589367Y-144288861D03*
D43*
X258003581Y-142874647D03*
X259417794Y-141460434D03*
X260832008Y-140046220D03*
X262246221Y-138632007D03*
X263660435Y-137217793D03*
X265074648Y-135803580D03*
X266488862Y-134389366D03*
%TD*%
D32*
%TO.C,TP7*%
X187700000Y-167549000D03*
%TD*%
D29*
%TO.C,J11*%
X197700000Y-167749000D03*
X199700000Y-167749000D03*
X201700000Y-167749000D03*
X203700000Y-167749000D03*
X205700000Y-167749000D03*
X207700000Y-167749000D03*
X209700000Y-167749000D03*
D39*
X211700000Y-167749000D03*
%TD*%
D40*
%TO.C,SW9*%
X217170000Y-126758000D03*
X210820000Y-124218000D03*
D41*
X218440000Y-129298000D03*
D38*
X213360000Y-129298000D03*
D41*
X208280000Y-129298000D03*
%TD*%
D17*
%TO.C,J19*%
X255265000Y-171600870D03*
X255265000Y-173600870D03*
X255265000Y-175600870D03*
X255265000Y-177600870D03*
X255265000Y-179600870D03*
X255265000Y-181600870D03*
X255265000Y-183600870D03*
D18*
X255265000Y-185600870D03*
%TD*%
D26*
%TO.C,SW14*%
X140870000Y-117306000D03*
X143725000Y-122236000D03*
X143725000Y-127936000D03*
X140800000Y-132886000D03*
X136964000Y-126121000D03*
X122475000Y-127936000D03*
%TD*%
D44*
%TO.C,C25*%
X203443000Y-176775000D03*
X203443000Y-175225000D03*
%TD*%
D32*
%TO.C,TP1*%
X164500000Y-134400000D03*
%TD*%
D45*
%TO.C,C32*%
X249893000Y-198951000D03*
X251793000Y-198951000D03*
%TD*%
D39*
%TO.C,J17*%
X134105696Y-171948368D03*
D29*
X132105696Y-171948368D03*
X130105696Y-171948368D03*
X128105696Y-171948368D03*
X126105696Y-171948368D03*
X124105696Y-171948368D03*
%TD*%
D46*
%TO.C,C30*%
X256843000Y-164601000D03*
X256843000Y-162701000D03*
%TD*%
D47*
%TO.C,JP2*%
X145100000Y-111725000D03*
D48*
X145100000Y-110275000D03*
%TD*%
D32*
%TO.C,TP8*%
X185549000Y-167912000D03*
%TD*%
D40*
%TO.C,SW13*%
X237370000Y-146316000D03*
X231020000Y-143776000D03*
D41*
X228480000Y-148856000D03*
D38*
X233560000Y-148856000D03*
D41*
X238640000Y-148856000D03*
%TD*%
D49*
%TO.C,C31*%
X258293000Y-203351000D03*
X256393000Y-203351000D03*
%TD*%
D45*
%TO.C,C28*%
X255193000Y-193151000D03*
X257093000Y-193151000D03*
%TD*%
D32*
%TO.C,TP2*%
X162300000Y-134300000D03*
%TD*%
D27*
%TO.C,SW5*%
X123100000Y-149155000D03*
X123100000Y-146615000D03*
D28*
X123100000Y-144075000D03*
%TD*%
D46*
%TO.C,C29*%
X258843000Y-178801000D03*
X258843000Y-176901000D03*
%TD*%
D44*
%TO.C,C33*%
X205993000Y-176775000D03*
X205993000Y-175225000D03*
%TD*%
%TO.C,C36*%
X208543000Y-176775000D03*
X208543000Y-175225000D03*
%TD*%
D50*
%TO.C,C42*%
X212418000Y-188300000D03*
X210868000Y-188300000D03*
%TD*%
D44*
%TO.C,C35*%
X198343000Y-176775000D03*
X198343000Y-175225000D03*
%TD*%
D49*
%TO.C,C27*%
X262693000Y-191251000D03*
X260793000Y-191251000D03*
%TD*%
D27*
%TO.C,SW7*%
X148181000Y-149155000D03*
X148181000Y-146615000D03*
D28*
X148181000Y-144075000D03*
%TD*%
D29*
%TO.C,J20*%
X248275000Y-164842870D03*
X250275000Y-164842870D03*
D39*
X252275000Y-164842870D03*
%TD*%
D40*
%TO.C,SW10*%
X237370000Y-126758000D03*
X231020000Y-124218000D03*
D38*
X233560000Y-129298000D03*
D41*
X228480000Y-129298000D03*
X238640000Y-129298000D03*
%TD*%
D49*
%TO.C,C26*%
X262693000Y-195451000D03*
X260793000Y-195451000D03*
%TD*%
D40*
%TO.C,SW11*%
X196970000Y-146316000D03*
X190620000Y-143776000D03*
D41*
X188080000Y-148856000D03*
D38*
X193160000Y-148856000D03*
D41*
X198240000Y-148856000D03*
%TD*%
D27*
%TO.C,SW6*%
X135640500Y-149155000D03*
X135640500Y-146615000D03*
D28*
X135640500Y-144075000D03*
%TD*%
D44*
%TO.C,C34*%
X200893000Y-176775000D03*
X200893000Y-175225000D03*
%TD*%
D50*
%TO.C,C43*%
X212418000Y-186300000D03*
X210868000Y-186300000D03*
%TD*%
D32*
%TO.C,TP9*%
X183300000Y-167749000D03*
%TD*%
%TO.C,TP10*%
X181300000Y-167712000D03*
%TD*%
D29*
%TO.C,J18*%
X150600001Y-176800001D03*
X152600001Y-176800001D03*
D39*
X154600001Y-176800001D03*
%TD*%
M02*
