%TF.GenerationSoftware,KiCad,Pcbnew,(6.0.9)*%
%TF.CreationDate,2022-11-09T20:57:25+01:00*%
%TF.ProjectId,libre-MIG,6c696272-652d-44d4-9947-2e6b69636164,v0.1*%
%TF.SameCoordinates,Original*%
%TF.FileFunction,Soldermask,Top*%
%TF.FilePolarity,Negative*%
%FSLAX46Y46*%
G04 Gerber Fmt 4.6, Leading zero omitted, Abs format (unit mm)*
G04 Created by KiCad (PCBNEW (6.0.9)) date 2022-11-09 20:57:25*
%MOMM*%
%LPD*%
G01*
G04 APERTURE LIST*
G04 Aperture macros list*
%AMRoundRect*
0 Rectangle with rounded corners*
0 $1 Rounding radius*
0 $2 $3 $4 $5 $6 $7 $8 $9 X,Y pos of 4 corners*
0 Add a 4 corners polygon primitive as box body*
4,1,4,$2,$3,$4,$5,$6,$7,$8,$9,$2,$3,0*
0 Add four circle primitives for the rounded corners*
1,1,$1+$1,$2,$3*
1,1,$1+$1,$4,$5*
1,1,$1+$1,$6,$7*
1,1,$1+$1,$8,$9*
0 Add four rect primitives between the rounded corners*
20,1,$1+$1,$2,$3,$4,$5,0*
20,1,$1+$1,$4,$5,$6,$7,0*
20,1,$1+$1,$6,$7,$8,$9,0*
20,1,$1+$1,$8,$9,$2,$3,0*%
%AMHorizOval*
0 Thick line with rounded ends*
0 $1 width*
0 $2 $3 position (X,Y) of the first rounded end (center of the circle)*
0 $4 $5 position (X,Y) of the second rounded end (center of the circle)*
0 Add line between two ends*
20,1,$1,$2,$3,$4,$5,0*
0 Add two circle primitives to create the rounded ends*
1,1,$1,$2,$3*
1,1,$1,$4,$5*%
%AMFreePoly0*
4,1,6,0.500000,-0.750000,-0.650000,-0.750000,-0.150000,0.000000,-0.650000,0.750000,0.500000,0.750000,0.500000,-0.750000,0.500000,-0.750000,$1*%
%AMFreePoly1*
4,1,6,1.000000,0.000000,0.500000,-0.750000,-0.500000,-0.750000,-0.500000,0.750000,0.500000,0.750000,1.000000,0.000000,1.000000,0.000000,$1*%
G04 Aperture macros list end*
%ADD10C,0.500000*%
%ADD11RoundRect,0.250000X-0.262500X-0.450000X0.262500X-0.450000X0.262500X0.450000X-0.262500X0.450000X0*%
%ADD12C,3.200000*%
%ADD13RoundRect,0.250000X0.475000X-0.250000X0.475000X0.250000X-0.475000X0.250000X-0.475000X-0.250000X0*%
%ADD14RoundRect,0.250000X-0.475000X0.250000X-0.475000X-0.250000X0.475000X-0.250000X0.475000X0.250000X0*%
%ADD15O,3.000000X2.500000*%
%ADD16RoundRect,0.250000X-0.250000X-0.475000X0.250000X-0.475000X0.250000X0.475000X-0.250000X0.475000X0*%
%ADD17RoundRect,0.250000X-0.450000X0.262500X-0.450000X-0.262500X0.450000X-0.262500X0.450000X0.262500X0*%
%ADD18O,1.750000X1.200000*%
%ADD19RoundRect,0.250000X0.625000X-0.350000X0.625000X0.350000X-0.625000X0.350000X-0.625000X-0.350000X0*%
%ADD20C,1.000000*%
%ADD21RoundRect,0.150000X0.512500X0.150000X-0.512500X0.150000X-0.512500X-0.150000X0.512500X-0.150000X0*%
%ADD22RoundRect,0.250000X0.450000X-0.262500X0.450000X0.262500X-0.450000X0.262500X-0.450000X-0.262500X0*%
%ADD23O,1.000000X1.600000*%
%ADD24O,1.000000X2.100000*%
%ADD25R,0.600000X1.450000*%
%ADD26R,0.300000X1.450000*%
%ADD27C,0.650000*%
%ADD28RoundRect,0.250000X-0.625000X0.350000X-0.625000X-0.350000X0.625000X-0.350000X0.625000X0.350000X0*%
%ADD29R,0.360000X0.250000*%
%ADD30RoundRect,0.250000X0.262500X0.450000X-0.262500X0.450000X-0.262500X-0.450000X0.262500X-0.450000X0*%
%ADD31O,1.500000X3.000000*%
%ADD32O,1.600000X1.600000*%
%ADD33R,1.600000X1.600000*%
%ADD34RoundRect,0.225000X-0.250000X0.225000X-0.250000X-0.225000X0.250000X-0.225000X0.250000X0.225000X0*%
%ADD35RoundRect,0.250000X0.250000X0.475000X-0.250000X0.475000X-0.250000X-0.475000X0.250000X-0.475000X0*%
%ADD36C,2.000000*%
%ADD37R,0.410000X1.600000*%
%ADD38RoundRect,0.225000X-0.225000X-0.250000X0.225000X-0.250000X0.225000X0.250000X-0.225000X0.250000X0*%
%ADD39O,1.700000X1.700000*%
%ADD40R,1.700000X1.700000*%
%ADD41O,1.200000X1.750000*%
%ADD42RoundRect,0.250000X-0.350000X-0.625000X0.350000X-0.625000X0.350000X0.625000X-0.350000X0.625000X0*%
%ADD43R,1.200000X0.400000*%
%ADD44R,0.250000X0.360000*%
%ADD45C,1.500000*%
%ADD46RoundRect,0.500000X-0.500000X0.500000X-0.500000X-0.500000X0.500000X-0.500000X0.500000X0.500000X0*%
%ADD47C,0.750000*%
%ADD48RoundRect,0.250000X-0.250000X0.425000X-0.250000X-0.425000X0.250000X-0.425000X0.250000X0.425000X0*%
%ADD49RoundRect,0.100000X0.100000X-0.637500X0.100000X0.637500X-0.100000X0.637500X-0.100000X-0.637500X0*%
%ADD50RoundRect,0.075000X-0.662500X0.075000X-0.662500X-0.075000X0.662500X-0.075000X0.662500X0.075000X0*%
%ADD51RoundRect,0.075000X-0.075000X0.662500X-0.075000X-0.662500X0.075000X-0.662500X0.075000X0.662500X0*%
%ADD52FreePoly0,180.000000*%
%ADD53FreePoly1,180.000000*%
%ADD54RoundRect,0.250000X0.123744X0.477297X-0.477297X-0.123744X-0.123744X-0.477297X0.477297X0.123744X0*%
%ADD55RoundRect,0.500000X0.000000X0.707107X-0.707107X0.000000X0.000000X-0.707107X0.707107X0.000000X0*%
%ADD56C,1.524000*%
%ADD57C,1.600000*%
%ADD58R,2.200000X8.000000*%
%ADD59C,3.500000*%
%ADD60C,4.000000*%
%ADD61RoundRect,0.250000X0.350000X0.625000X-0.350000X0.625000X-0.350000X-0.625000X0.350000X-0.625000X0*%
%ADD62RoundRect,0.225000X0.225000X0.250000X-0.225000X0.250000X-0.225000X-0.250000X0.225000X-0.250000X0*%
%ADD63C,2.200000*%
%ADD64C,1.700000*%
%ADD65RoundRect,0.250000X0.194454X-0.689429X0.689429X-0.194454X-0.194454X0.689429X-0.689429X0.194454X0*%
%ADD66HorizOval,1.200000X-0.194454X0.194454X0.194454X-0.194454X0*%
G04 APERTURE END LIST*
D10*
%TO.C,*%
X133800000Y-158000000D03*
%TD*%
%TO.C,*%
X124000000Y-157400000D03*
%TD*%
%TO.C,*%
X124700000Y-157700000D03*
%TD*%
%TO.C,*%
X131350000Y-162900000D03*
%TD*%
%TO.C,*%
X126200000Y-163600000D03*
%TD*%
%TO.C,*%
X127600000Y-162800000D03*
%TD*%
%TO.C,*%
X128350000Y-162600000D03*
%TD*%
%TO.C,*%
X132000000Y-163300000D03*
%TD*%
%TO.C,*%
X129850000Y-162500000D03*
%TD*%
%TO.C,*%
X130600000Y-162700000D03*
%TD*%
%TO.C,*%
X125600000Y-164100000D03*
%TD*%
%TO.C,*%
X132600000Y-163800000D03*
%TD*%
%TO.C,*%
X126900000Y-163100000D03*
%TD*%
%TO.C,*%
X129100000Y-162500000D03*
%TD*%
%TO.C,*%
X131450000Y-158000000D03*
%TD*%
%TO.C,*%
X126200000Y-158000000D03*
%TD*%
%TO.C,*%
X127700000Y-158000000D03*
%TD*%
%TO.C,*%
X128450000Y-158000000D03*
%TD*%
%TO.C,*%
X132200000Y-158000000D03*
%TD*%
%TO.C,*%
X129950000Y-158000000D03*
%TD*%
%TO.C,*%
X130700000Y-158000000D03*
%TD*%
%TO.C,*%
X125450000Y-157900000D03*
%TD*%
%TO.C,*%
X132950000Y-158000000D03*
%TD*%
%TO.C,*%
X126950000Y-158000000D03*
%TD*%
%TO.C,*%
X129200000Y-158000000D03*
%TD*%
%TO.C,*%
X138000000Y-178950000D03*
%TD*%
%TO.C,*%
X137900000Y-173700000D03*
%TD*%
%TO.C,*%
X138300000Y-175200000D03*
%TD*%
%TO.C,*%
X138300000Y-175950000D03*
%TD*%
%TO.C,*%
X137800000Y-179700000D03*
%TD*%
%TO.C,*%
X138300000Y-177450000D03*
%TD*%
%TO.C,*%
X138200000Y-178200000D03*
%TD*%
%TO.C,*%
X137600000Y-173000000D03*
%TD*%
%TO.C,*%
X137500000Y-180400000D03*
%TD*%
%TO.C,*%
X138100000Y-174450000D03*
%TD*%
%TO.C,*%
X138300000Y-176700000D03*
%TD*%
%TO.C,*%
X143300000Y-178950000D03*
%TD*%
%TO.C,*%
X143300000Y-173700000D03*
%TD*%
%TO.C,*%
X143300000Y-175200000D03*
%TD*%
%TO.C,*%
X143300000Y-175950000D03*
%TD*%
%TO.C,*%
X143300000Y-179700000D03*
%TD*%
%TO.C,*%
X143300000Y-177450000D03*
%TD*%
%TO.C,*%
X143300000Y-178200000D03*
%TD*%
%TO.C,*%
X143300000Y-172950000D03*
%TD*%
%TO.C,*%
X143300000Y-180450000D03*
%TD*%
%TO.C,*%
X143300000Y-174450000D03*
%TD*%
%TO.C,*%
X143300000Y-176700000D03*
%TD*%
%TO.C,*%
X263600000Y-129550000D03*
%TD*%
%TO.C,*%
X258350000Y-129625000D03*
%TD*%
%TO.C,*%
X262850000Y-129375000D03*
%TD*%
%TO.C,*%
X259825000Y-129275000D03*
%TD*%
%TO.C,*%
X259075000Y-129425000D03*
%TD*%
%TO.C,*%
X261325000Y-129200000D03*
%TD*%
%TO.C,*%
X260575000Y-129200000D03*
%TD*%
%TO.C,*%
X262075000Y-129250000D03*
%TD*%
%TO.C,*%
X257950000Y-148075000D03*
%TD*%
%TO.C,*%
X256500000Y-147425000D03*
%TD*%
%TO.C,*%
X261050000Y-148575000D03*
%TD*%
%TO.C,*%
X260275000Y-148550000D03*
%TD*%
%TO.C,*%
X259500000Y-148450000D03*
%TD*%
%TO.C,*%
X262575000Y-148450000D03*
%TD*%
%TO.C,*%
X261825000Y-148550000D03*
%TD*%
%TO.C,*%
X258725000Y-148275000D03*
%TD*%
%TO.C,*%
X257200000Y-147775000D03*
%TD*%
%TO.C,*%
X261400000Y-151675000D03*
%TD*%
%TO.C,*%
X256150000Y-151675000D03*
%TD*%
%TO.C,*%
X257650000Y-151675000D03*
%TD*%
%TO.C,*%
X258400000Y-151675000D03*
%TD*%
%TO.C,*%
X262150000Y-151800000D03*
%TD*%
%TO.C,*%
X259900000Y-151675000D03*
%TD*%
%TO.C,*%
X260650000Y-151675000D03*
%TD*%
%TO.C,*%
X255400000Y-151675000D03*
%TD*%
%TO.C,*%
X256900000Y-151675000D03*
%TD*%
%TO.C,*%
X259150000Y-151675000D03*
%TD*%
%TO.C,*%
X263325000Y-126225000D03*
%TD*%
%TO.C,*%
X258075000Y-126225000D03*
%TD*%
%TO.C,*%
X259575000Y-126225000D03*
%TD*%
%TO.C,*%
X260325000Y-126225000D03*
%TD*%
%TO.C,*%
X264075000Y-126225000D03*
%TD*%
%TO.C,*%
X261825000Y-126225000D03*
%TD*%
%TO.C,*%
X262575000Y-126225000D03*
%TD*%
%TO.C,*%
X257325000Y-126225000D03*
%TD*%
%TO.C,*%
X264825000Y-126225000D03*
%TD*%
%TO.C,*%
X258825000Y-126225000D03*
%TD*%
%TO.C,*%
X261075000Y-126225000D03*
%TD*%
%TO.C,*%
X246975000Y-133575000D03*
%TD*%
%TO.C,*%
X246975000Y-140375000D03*
%TD*%
%TO.C,*%
X246975000Y-135125000D03*
%TD*%
%TO.C,*%
X246975000Y-136625000D03*
%TD*%
%TO.C,*%
X246975000Y-137375000D03*
%TD*%
%TO.C,*%
X246975000Y-141125000D03*
%TD*%
%TO.C,*%
X246975000Y-138875000D03*
%TD*%
%TO.C,*%
X246975000Y-139625000D03*
%TD*%
%TO.C,*%
X246975000Y-134375000D03*
%TD*%
%TO.C,*%
X246975000Y-141875000D03*
%TD*%
%TO.C,*%
X246975000Y-135875000D03*
%TD*%
%TO.C,*%
X246975000Y-138125000D03*
%TD*%
%TO.C,*%
X251525000Y-140550000D03*
%TD*%
%TO.C,*%
X251425000Y-139775000D03*
%TD*%
%TO.C,*%
X251375000Y-139000000D03*
%TD*%
%TO.C,*%
X251400000Y-138225000D03*
%TD*%
%TO.C,*%
X251475000Y-137450000D03*
%TD*%
%TO.C,*%
X251625000Y-136700000D03*
%TD*%
%TO.C,*%
X251825000Y-135975000D03*
%TD*%
%TO.C,*%
X252075000Y-135250000D03*
%TD*%
%TO.C,mouse-bite-5mm-slot*%
X196100000Y-163000000D03*
X195350000Y-163000000D03*
X196100000Y-158000000D03*
X196850000Y-158000000D03*
X198350000Y-163000000D03*
X193100000Y-158000000D03*
X193100000Y-163000000D03*
X196850000Y-163000000D03*
X199100000Y-163000000D03*
X199850000Y-158000000D03*
X192350000Y-163000000D03*
X197600000Y-158000000D03*
X199100000Y-158000000D03*
X194600000Y-158000000D03*
X192350000Y-158000000D03*
X197600000Y-163000000D03*
X193100000Y-158000000D03*
X193850000Y-163000000D03*
X193850000Y-158000000D03*
X193100000Y-163000000D03*
X198350000Y-158000000D03*
X199850000Y-163000000D03*
X194600000Y-163000000D03*
X195350000Y-158000000D03*
%TD*%
%TO.C,mouse-bite-5mm-slot*%
X156350000Y-158000000D03*
X155600000Y-163000000D03*
X156350000Y-163000000D03*
X151100000Y-163000000D03*
X154100000Y-163000000D03*
X152600000Y-158000000D03*
X149600000Y-163000000D03*
X151850000Y-158000000D03*
X155600000Y-158000000D03*
X153350000Y-163000000D03*
X151100000Y-158000000D03*
X154850000Y-158000000D03*
X148850000Y-158000000D03*
X150350000Y-158000000D03*
X154100000Y-158000000D03*
X154850000Y-163000000D03*
X152600000Y-163000000D03*
X153350000Y-158000000D03*
X149600000Y-158000000D03*
X149600000Y-158000000D03*
X149600000Y-163000000D03*
X150350000Y-163000000D03*
X148850000Y-163000000D03*
X151850000Y-163000000D03*
%TD*%
%TO.C,mouse-bite-5mm-slot*%
X161300000Y-179550000D03*
X166300000Y-177300000D03*
X166300000Y-179550000D03*
X161300000Y-184050000D03*
X161300000Y-181800000D03*
X166300000Y-184050000D03*
X166300000Y-180300000D03*
X161300000Y-183300000D03*
X166300000Y-183300000D03*
X161300000Y-178050000D03*
X161300000Y-183300000D03*
X161300000Y-177300000D03*
X161300000Y-178800000D03*
X161300000Y-182550000D03*
X161300000Y-180300000D03*
X166300000Y-181800000D03*
X166300000Y-176550000D03*
X166300000Y-178050000D03*
X166300000Y-178800000D03*
X166300000Y-183300000D03*
X166300000Y-181050000D03*
X166300000Y-182550000D03*
X161300000Y-176550000D03*
X161300000Y-181050000D03*
%TD*%
%TO.C,mouse-bite-5mm-slot*%
X226300000Y-178950000D03*
X231300000Y-181950000D03*
X231300000Y-184950000D03*
X231300000Y-180450000D03*
X226300000Y-181950000D03*
X226300000Y-184950000D03*
X226300000Y-182700000D03*
X226300000Y-181200000D03*
X226300000Y-180450000D03*
X231300000Y-182700000D03*
X231300000Y-183450000D03*
X231300000Y-179700000D03*
X226300000Y-183450000D03*
X226300000Y-177450000D03*
X226300000Y-184200000D03*
X226300000Y-184200000D03*
X231300000Y-181200000D03*
X226300000Y-179700000D03*
X231300000Y-177450000D03*
X231300000Y-184200000D03*
X226300000Y-178200000D03*
X231300000Y-178950000D03*
X231300000Y-178200000D03*
X231300000Y-184200000D03*
%TD*%
%TO.C,mouse-bite-5mm-slot*%
X252000000Y-119500000D03*
X247000000Y-117250000D03*
X252000000Y-116500000D03*
X252000000Y-118000000D03*
X252000000Y-118750000D03*
X247000000Y-121000000D03*
X247000000Y-118750000D03*
X252000000Y-121000000D03*
X247000000Y-119500000D03*
X247000000Y-114250000D03*
X252000000Y-121000000D03*
X247000000Y-121750000D03*
X252000000Y-120250000D03*
X252000000Y-115750000D03*
X247000000Y-115750000D03*
X247000000Y-120250000D03*
X252000000Y-121750000D03*
X247000000Y-115000000D03*
X247000000Y-121000000D03*
X252000000Y-114250000D03*
X247000000Y-116500000D03*
X252000000Y-117250000D03*
X247000000Y-118000000D03*
X252000000Y-115000000D03*
%TD*%
D11*
%TO.C,R1*%
X205636500Y-109486000D03*
X203811500Y-109486000D03*
%TD*%
D12*
%TO.C,REF\u002A\u002A*%
X182500000Y-125000000D03*
%TD*%
D13*
%TO.C,C9*%
X165700000Y-113650000D03*
X165700000Y-115550000D03*
%TD*%
D14*
%TO.C,C2*%
X205740000Y-115262000D03*
X205740000Y-113362000D03*
%TD*%
D13*
%TO.C,C13*%
X197170000Y-116222000D03*
X197170000Y-118122000D03*
%TD*%
D11*
%TO.C,R8*%
X181258500Y-178412000D03*
X179433500Y-178412000D03*
%TD*%
D15*
%TO.C,SW2*%
X158950001Y-167185787D03*
X146450001Y-167185787D03*
X158950001Y-172185787D03*
X146450001Y-172185787D03*
%TD*%
D16*
%TO.C,C23*%
X210434000Y-140474000D03*
X208534000Y-140474000D03*
%TD*%
%TO.C,C20*%
X210500000Y-120916000D03*
X208600000Y-120916000D03*
%TD*%
D17*
%TO.C,R7*%
X189900000Y-181061500D03*
X189900000Y-179236500D03*
%TD*%
D12*
%TO.C,REF\u002A\u002A*%
X192043000Y-166900000D03*
%TD*%
D18*
%TO.C,J10*%
X208450000Y-186249000D03*
X208450000Y-188249000D03*
D19*
X208450000Y-190249000D03*
%TD*%
D12*
%TO.C,REF\u002A\u002A*%
X129500000Y-146500000D03*
%TD*%
%TO.C,REF\u002A\u002A*%
X269678000Y-108966000D03*
%TD*%
D16*
%TO.C,C7*%
X163949000Y-115292000D03*
X162049000Y-115292000D03*
%TD*%
D20*
%TO.C,TP5*%
X184900000Y-165949000D03*
%TD*%
D21*
%TO.C,U5*%
X199334500Y-118056000D03*
X199334500Y-116156000D03*
X201609500Y-116156000D03*
X201609500Y-117106000D03*
X201609500Y-118056000D03*
%TD*%
D22*
%TO.C,R5*%
X173800000Y-106787500D03*
X173800000Y-108612500D03*
%TD*%
D23*
%TO.C,P1*%
X266763000Y-108000000D03*
D24*
X258123000Y-112180000D03*
X266763000Y-112180000D03*
D23*
X258123000Y-108000000D03*
D25*
X265693000Y-113095000D03*
X264893000Y-113095000D03*
D26*
X264193000Y-113095000D03*
X263193000Y-113095000D03*
X261693000Y-113095000D03*
X260693000Y-113095000D03*
D25*
X259993000Y-113095000D03*
X259193000Y-113095000D03*
X259193000Y-113095000D03*
X259993000Y-113095000D03*
D26*
X261193000Y-113095000D03*
X262193000Y-113095000D03*
X262693000Y-113095000D03*
X263693000Y-113095000D03*
D25*
X264893000Y-113095000D03*
X265693000Y-113095000D03*
D27*
X259553000Y-111650000D03*
X265333000Y-111650000D03*
%TD*%
D13*
%TO.C,C8*%
X154713000Y-108550000D03*
X154713000Y-110450000D03*
%TD*%
D14*
%TO.C,C15*%
X178902000Y-168513000D03*
X178902000Y-166613000D03*
%TD*%
D18*
%TO.C,J3*%
X141050000Y-111500000D03*
X141050000Y-109500000D03*
D28*
X141050000Y-107500000D03*
%TD*%
D29*
%TO.C,D1*%
X261023000Y-115850000D03*
X261863000Y-115850000D03*
%TD*%
D16*
%TO.C,C12*%
X205420000Y-118376000D03*
X203520000Y-118376000D03*
%TD*%
D12*
%TO.C,REF\u002A\u002A*%
X243303300Y-167700000D03*
%TD*%
D30*
%TO.C,R2*%
X203811500Y-111518000D03*
X205636500Y-111518000D03*
%TD*%
D22*
%TO.C,R9*%
X167199000Y-121179500D03*
X167199000Y-123004500D03*
%TD*%
D12*
%TO.C,REF\u002A\u002A*%
X129212779Y-166500000D03*
%TD*%
D31*
%TO.C,SW16*%
X259634000Y-157415870D03*
X255634000Y-157415870D03*
%TD*%
D32*
%TO.C,RN6*%
X203968000Y-183977000D03*
X201428000Y-183977000D03*
X198888000Y-183977000D03*
X196348000Y-183977000D03*
X193808000Y-183977000D03*
D33*
X191268000Y-183977000D03*
%TD*%
D34*
%TO.C,FB2*%
X258443000Y-116726000D03*
X258443000Y-115176000D03*
%TD*%
D12*
%TO.C,REF\u002A\u002A*%
X157743001Y-194036787D03*
%TD*%
D32*
%TO.C,RN3*%
X198380000Y-171023000D03*
X200920000Y-171023000D03*
X203460000Y-171023000D03*
X206000000Y-171023000D03*
X208540000Y-171023000D03*
D33*
X211080000Y-171023000D03*
%TD*%
D22*
%TO.C,R6*%
X173800000Y-110187500D03*
X173800000Y-112012500D03*
%TD*%
D34*
%TO.C,C39*%
X179093000Y-192900000D03*
X179093000Y-191350000D03*
%TD*%
%TO.C,C40*%
X181118000Y-192850000D03*
X181118000Y-191300000D03*
%TD*%
D20*
%TO.C,TP6*%
X183149000Y-167512000D03*
%TD*%
D32*
%TO.C,RN1*%
X203454000Y-144284000D03*
X203454000Y-141744000D03*
X203454000Y-139204000D03*
X203454000Y-136664000D03*
X203454000Y-134124000D03*
D33*
X203454000Y-131584000D03*
%TD*%
D29*
%TO.C,D2*%
X264863000Y-115850000D03*
X264023000Y-115850000D03*
%TD*%
D13*
%TO.C,C3*%
X205486000Y-105742000D03*
X205486000Y-107642000D03*
%TD*%
D30*
%TO.C,R3*%
X145487501Y-176900001D03*
X147312501Y-176900001D03*
%TD*%
D15*
%TO.C,SW1*%
X236934000Y-175255870D03*
X249434000Y-175255870D03*
X249434000Y-180255870D03*
X236934000Y-180255870D03*
%TD*%
D16*
%TO.C,C24*%
X230754000Y-140728000D03*
X228854000Y-140728000D03*
%TD*%
D35*
%TO.C,C6*%
X151350000Y-124434000D03*
X153250000Y-124434000D03*
%TD*%
%TO.C,C4*%
X151350000Y-126400000D03*
X153250000Y-126400000D03*
%TD*%
D13*
%TO.C,C1*%
X199390000Y-108790000D03*
X199390000Y-110690000D03*
%TD*%
D18*
%TO.C,J12*%
X223060000Y-185389000D03*
X223060000Y-183389000D03*
X223060000Y-181389000D03*
X223060000Y-179389000D03*
X223060000Y-177389000D03*
X223060000Y-175389000D03*
X223060000Y-173389000D03*
D28*
X223060000Y-171389000D03*
%TD*%
D34*
%TO.C,C41*%
X183143000Y-192875000D03*
X183143000Y-191325000D03*
%TD*%
D32*
%TO.C,RN2*%
X158750000Y-131000000D03*
X156210000Y-131000000D03*
X153670000Y-131000000D03*
X151130000Y-131000000D03*
X148590000Y-131000000D03*
D33*
X146050000Y-131000000D03*
%TD*%
D36*
%TO.C,SW4*%
X176250000Y-122050000D03*
X169750000Y-122050000D03*
X169750000Y-126550000D03*
X176250000Y-126550000D03*
%TD*%
D20*
%TO.C,TP3*%
X187449000Y-165712000D03*
%TD*%
D12*
%TO.C,REF\u002A\u002A*%
X237000000Y-111000000D03*
%TD*%
D16*
%TO.C,C21*%
X230566000Y-120916000D03*
X228666000Y-120916000D03*
%TD*%
D37*
%TO.C,U6*%
X173551500Y-171924700D03*
X174186500Y-171924700D03*
X174821500Y-171924700D03*
X175456500Y-171924700D03*
X176091500Y-171924700D03*
X176726500Y-171924700D03*
X177361500Y-171924700D03*
X177996500Y-171924700D03*
X177996500Y-177233300D03*
X177361500Y-177233300D03*
X176726500Y-177233300D03*
X176091500Y-177233300D03*
X175456500Y-177233300D03*
X174821500Y-177233300D03*
X174186500Y-177233300D03*
X173551500Y-177233300D03*
%TD*%
D13*
%TO.C,C11*%
X254986000Y-117501000D03*
X254986000Y-119401000D03*
%TD*%
D38*
%TO.C,C18*%
X159586000Y-112110000D03*
X158036000Y-112110000D03*
%TD*%
D12*
%TO.C,REF\u002A\u002A*%
X202513000Y-189150000D03*
%TD*%
D39*
%TO.C,J6*%
X183760000Y-139760000D03*
X181220000Y-139760000D03*
X178680000Y-139760000D03*
X176140000Y-139760000D03*
X173600000Y-139760000D03*
X171060000Y-139760000D03*
X168520000Y-139760000D03*
X165980000Y-139760000D03*
X163440000Y-139760000D03*
X160900000Y-139760000D03*
X158360000Y-139760000D03*
X155820000Y-139760000D03*
X153280000Y-139760000D03*
X150740000Y-139760000D03*
X148200000Y-139760000D03*
X145660000Y-139760000D03*
X143120000Y-139760000D03*
X140580000Y-139760000D03*
X138040000Y-139760000D03*
D40*
X135500000Y-139760000D03*
%TD*%
D41*
%TO.C,J9*%
X218700000Y-190049000D03*
X216700000Y-190049000D03*
D42*
X214700000Y-190049000D03*
%TD*%
D12*
%TO.C,REF\u002A\u002A*%
X254428000Y-108966000D03*
%TD*%
D18*
%TO.C,J13*%
X170399000Y-181373000D03*
X170399000Y-179373000D03*
X170399000Y-177373000D03*
X170399000Y-175373000D03*
D28*
X170399000Y-173373000D03*
%TD*%
D43*
%TO.C,U4*%
X197418000Y-107644500D03*
X197418000Y-108279500D03*
X197418000Y-108914500D03*
X197418000Y-109549500D03*
X197418000Y-110184500D03*
X197418000Y-110819500D03*
X197418000Y-111454500D03*
X197418000Y-112089500D03*
X197418000Y-112724500D03*
X197418000Y-113359500D03*
X192218000Y-113359500D03*
X192218000Y-112724500D03*
X192218000Y-112089500D03*
X192218000Y-111454500D03*
X192218000Y-110819500D03*
X192218000Y-110184500D03*
X192218000Y-109549500D03*
X192218000Y-108914500D03*
X192218000Y-108279500D03*
X192218000Y-107644500D03*
%TD*%
D44*
%TO.C,D3*%
X253386000Y-117931000D03*
X253386000Y-118771000D03*
%TD*%
D34*
%TO.C,C37*%
X175043000Y-192875000D03*
X175043000Y-191325000D03*
%TD*%
%TO.C,C38*%
X177068000Y-192875000D03*
X177068000Y-191325000D03*
%TD*%
D45*
%TO.C,Y1*%
X164543000Y-108300000D03*
X159663000Y-108300000D03*
%TD*%
D16*
%TO.C,C5*%
X166150000Y-117300000D03*
X164250000Y-117300000D03*
%TD*%
D11*
%TO.C,R4*%
X159712501Y-176900001D03*
X157887501Y-176900001D03*
%TD*%
D14*
%TO.C,C10*%
X268886000Y-116301000D03*
X268886000Y-114401000D03*
%TD*%
D39*
%TO.C,J7*%
X183760000Y-155000000D03*
X181220000Y-155000000D03*
X178680000Y-155000000D03*
X176140000Y-155000000D03*
X173600000Y-155000000D03*
X171060000Y-155000000D03*
X168520000Y-155000000D03*
X165980000Y-155000000D03*
X163440000Y-155000000D03*
X160900000Y-155000000D03*
X158360000Y-155000000D03*
X155820000Y-155000000D03*
X153280000Y-155000000D03*
X150740000Y-155000000D03*
X148200000Y-155000000D03*
X145660000Y-155000000D03*
X143120000Y-155000000D03*
X140580000Y-155000000D03*
X138040000Y-155000000D03*
D40*
X135500000Y-155000000D03*
%TD*%
D13*
%TO.C,C14*%
X189743000Y-170950000D03*
X189743000Y-172850000D03*
%TD*%
D18*
%TO.C,J14*%
X169128000Y-186549000D03*
X169128000Y-188549000D03*
D19*
X169128000Y-190549000D03*
%TD*%
D20*
%TO.C,TP4*%
X186149000Y-167612000D03*
%TD*%
%TO.C,SW18*%
X127505696Y-177848368D03*
D46*
X125355696Y-177848368D03*
D47*
X131305696Y-177848368D03*
D46*
X133455696Y-177848368D03*
D48*
X130855696Y-174273368D03*
X129405696Y-174273368D03*
X127955696Y-174273368D03*
X130855696Y-181423368D03*
X129405696Y-181423368D03*
X127955696Y-181423368D03*
%TD*%
D12*
%TO.C,REF\u002A\u002A*%
X243308300Y-187700000D03*
%TD*%
D35*
%TO.C,C16*%
X171899000Y-169512000D03*
X173799000Y-169512000D03*
%TD*%
D49*
%TO.C,U3*%
X180327000Y-170700500D03*
X180977000Y-170700500D03*
X181627000Y-170700500D03*
X182277000Y-170700500D03*
X182927000Y-170700500D03*
X183577000Y-170700500D03*
X184227000Y-170700500D03*
X184877000Y-170700500D03*
X185527000Y-170700500D03*
X186177000Y-170700500D03*
X186827000Y-170700500D03*
X187477000Y-170700500D03*
X187477000Y-176425500D03*
X186827000Y-176425500D03*
X186177000Y-176425500D03*
X185527000Y-176425500D03*
X184877000Y-176425500D03*
X184227000Y-176425500D03*
X183577000Y-176425500D03*
X182927000Y-176425500D03*
X182277000Y-176425500D03*
X181627000Y-176425500D03*
X180977000Y-176425500D03*
X180327000Y-176425500D03*
%TD*%
D18*
%TO.C,J4*%
X209157000Y-106449000D03*
X209157000Y-108449000D03*
X209157000Y-110449000D03*
X209157000Y-112449000D03*
D19*
X209157000Y-114449000D03*
%TD*%
D50*
%TO.C,U1*%
X162089500Y-117366000D03*
X162089500Y-117866000D03*
X162089500Y-118366000D03*
X162089500Y-118866000D03*
X162089500Y-119366000D03*
X162089500Y-119866000D03*
X162089500Y-120366000D03*
X162089500Y-120866000D03*
X162089500Y-121366000D03*
X162089500Y-121866000D03*
X162089500Y-122366000D03*
X162089500Y-122866000D03*
D51*
X160677000Y-124278500D03*
X160177000Y-124278500D03*
X159677000Y-124278500D03*
X159177000Y-124278500D03*
X158677000Y-124278500D03*
X158177000Y-124278500D03*
X157677000Y-124278500D03*
X157177000Y-124278500D03*
X156677000Y-124278500D03*
X156177000Y-124278500D03*
X155677000Y-124278500D03*
X155177000Y-124278500D03*
D50*
X153764500Y-122866000D03*
X153764500Y-122366000D03*
X153764500Y-121866000D03*
X153764500Y-121366000D03*
X153764500Y-120866000D03*
X153764500Y-120366000D03*
X153764500Y-119866000D03*
X153764500Y-119366000D03*
X153764500Y-118866000D03*
X153764500Y-118366000D03*
X153764500Y-117866000D03*
X153764500Y-117366000D03*
D51*
X155177000Y-115953500D03*
X155677000Y-115953500D03*
X156177000Y-115953500D03*
X156677000Y-115953500D03*
X157177000Y-115953500D03*
X157677000Y-115953500D03*
X158177000Y-115953500D03*
X158677000Y-115953500D03*
X159177000Y-115953500D03*
X159677000Y-115953500D03*
X160177000Y-115953500D03*
X160677000Y-115953500D03*
%TD*%
D12*
%TO.C,REF\u002A\u002A*%
X124000000Y-111000000D03*
%TD*%
D52*
%TO.C,JP1*%
X135075000Y-112000000D03*
D53*
X136525000Y-112000000D03*
%TD*%
D54*
%TO.C,SW17*%
X252130788Y-200918472D03*
X253156093Y-201943777D03*
X254181398Y-202969082D03*
X257186602Y-195862658D03*
X258211907Y-196887963D03*
X259237212Y-197913268D03*
D55*
X258547782Y-202279652D03*
X252820218Y-196552088D03*
D20*
X254340497Y-198072367D03*
D47*
X257027503Y-200759373D03*
%TD*%
D35*
%TO.C,C22*%
X190307000Y-140749000D03*
X192207000Y-140749000D03*
%TD*%
%TO.C,C19*%
X190707000Y-121049000D03*
X192607000Y-121049000D03*
%TD*%
D12*
%TO.C,REF\u002A\u002A*%
X129312779Y-186600000D03*
%TD*%
D41*
%TO.C,J15*%
X185092000Y-187237000D03*
X183092000Y-187237000D03*
X181092000Y-187237000D03*
X179092000Y-187237000D03*
X177092000Y-187237000D03*
D42*
X175092000Y-187237000D03*
%TD*%
D15*
%TO.C,SW3*%
X158950001Y-181700001D03*
X146450001Y-181700001D03*
X158950001Y-186700001D03*
X146450001Y-186700001D03*
%TD*%
D32*
%TO.C,RN4*%
X218043000Y-184993000D03*
X218043000Y-182453000D03*
X218043000Y-179913000D03*
X218043000Y-177373000D03*
X218043000Y-174833000D03*
D33*
X218043000Y-172293000D03*
%TD*%
D34*
%TO.C,FB1*%
X256286000Y-115626000D03*
X256286000Y-114076000D03*
%TD*%
D49*
%TO.C,U2*%
X191503000Y-174510500D03*
X192153000Y-174510500D03*
X192803000Y-174510500D03*
X193453000Y-174510500D03*
X194103000Y-174510500D03*
X194753000Y-174510500D03*
X195403000Y-174510500D03*
X196053000Y-174510500D03*
X196703000Y-174510500D03*
X197353000Y-174510500D03*
X198003000Y-174510500D03*
X198653000Y-174510500D03*
X198653000Y-180235500D03*
X198003000Y-180235500D03*
X197353000Y-180235500D03*
X196703000Y-180235500D03*
X196053000Y-180235500D03*
X195403000Y-180235500D03*
X194753000Y-180235500D03*
X194103000Y-180235500D03*
X193453000Y-180235500D03*
X192803000Y-180235500D03*
X192153000Y-180235500D03*
X191503000Y-180235500D03*
%TD*%
D56*
%TO.C,VR1*%
X276414000Y-179515870D03*
X276414000Y-177015870D03*
X276414000Y-174515870D03*
X270184000Y-168285870D03*
X267684000Y-168285870D03*
X265184000Y-168285870D03*
D57*
X271984000Y-177015870D03*
D45*
X274009000Y-172015870D03*
D58*
X267684000Y-181015870D03*
D45*
X261359000Y-182015870D03*
X274009000Y-182015870D03*
X261359000Y-172015870D03*
D59*
X267684000Y-185015870D03*
D60*
X267684000Y-177015870D03*
D57*
X263384000Y-177015870D03*
%TD*%
D32*
%TO.C,RN5*%
X187204000Y-183215000D03*
X184664000Y-183215000D03*
X182124000Y-183215000D03*
X179584000Y-183215000D03*
X177044000Y-183215000D03*
D33*
X174504000Y-183215000D03*
%TD*%
D41*
%TO.C,J16*%
X133157000Y-107349000D03*
D42*
X131157000Y-107349000D03*
%TD*%
D41*
%TO.C,J8*%
X192543000Y-189250000D03*
X194543000Y-189250000D03*
D61*
X196543000Y-189250000D03*
%TD*%
D57*
%TO.C,SW15*%
X257250205Y-140374205D03*
D56*
X259550205Y-146674205D03*
X268850205Y-140374205D03*
X262450205Y-131074205D03*
X253250205Y-137374205D03*
X262050205Y-145874205D03*
X260050205Y-133094205D03*
X253250205Y-140374205D03*
X268850205Y-137374205D03*
X259550205Y-131074205D03*
X267910205Y-142624205D03*
%TD*%
D18*
%TO.C,J2*%
X148050000Y-111500000D03*
X148050000Y-109500000D03*
D28*
X148050000Y-107500000D03*
%TD*%
D62*
%TO.C,C17*%
X164640000Y-112110000D03*
X166190000Y-112110000D03*
%TD*%
D41*
%TO.C,J5*%
X266443000Y-119400000D03*
X264443000Y-119400000D03*
X262443000Y-119400000D03*
X260443000Y-119400000D03*
D42*
X258443000Y-119400000D03*
%TD*%
D18*
%TO.C,J1*%
X178300000Y-114400000D03*
X178300000Y-112400000D03*
X178300000Y-110400000D03*
X178300000Y-108400000D03*
D28*
X178300000Y-106400000D03*
%TD*%
D63*
%TO.C,SW12*%
X217170000Y-146316000D03*
X210820000Y-143776000D03*
D64*
X208280000Y-148856000D03*
D60*
X213360000Y-148856000D03*
D64*
X218440000Y-148856000D03*
%TD*%
D63*
%TO.C,SW8*%
X196970000Y-126758000D03*
X190620000Y-124218000D03*
D64*
X198240000Y-129298000D03*
D60*
X193160000Y-129298000D03*
D64*
X188080000Y-129298000D03*
%TD*%
D65*
%TO.C,J21*%
X256589367Y-144288861D03*
D66*
X258003581Y-142874647D03*
X259417794Y-141460434D03*
X260832008Y-140046220D03*
X262246221Y-138632007D03*
X263660435Y-137217793D03*
X265074648Y-135803580D03*
X266488862Y-134389366D03*
%TD*%
D41*
%TO.C,J11*%
X197700000Y-167749000D03*
X199700000Y-167749000D03*
X201700000Y-167749000D03*
X203700000Y-167749000D03*
X205700000Y-167749000D03*
X207700000Y-167749000D03*
X209700000Y-167749000D03*
D61*
X211700000Y-167749000D03*
%TD*%
D63*
%TO.C,SW9*%
X217170000Y-126758000D03*
X210820000Y-124218000D03*
D64*
X218440000Y-129298000D03*
D60*
X213360000Y-129298000D03*
D64*
X208280000Y-129298000D03*
%TD*%
D18*
%TO.C,J19*%
X255265000Y-171600870D03*
X255265000Y-173600870D03*
X255265000Y-175600870D03*
X255265000Y-177600870D03*
X255265000Y-179600870D03*
X255265000Y-181600870D03*
X255265000Y-183600870D03*
D19*
X255265000Y-185600870D03*
%TD*%
D36*
%TO.C,SW14*%
X140870000Y-117306000D03*
X143725000Y-122236000D03*
X143725000Y-127936000D03*
X140800000Y-132886000D03*
X136964000Y-126121000D03*
X122475000Y-127936000D03*
%TD*%
D61*
%TO.C,J17*%
X134105696Y-171948368D03*
D41*
X132105696Y-171948368D03*
X130105696Y-171948368D03*
X128105696Y-171948368D03*
X126105696Y-171948368D03*
X124105696Y-171948368D03*
%TD*%
D63*
%TO.C,SW13*%
X237370000Y-146316000D03*
X231020000Y-143776000D03*
D64*
X228480000Y-148856000D03*
D60*
X233560000Y-148856000D03*
D64*
X238640000Y-148856000D03*
%TD*%
D39*
%TO.C,SW5*%
X123100000Y-149155000D03*
X123100000Y-146615000D03*
D40*
X123100000Y-144075000D03*
%TD*%
D39*
%TO.C,SW7*%
X148181000Y-149155000D03*
X148181000Y-146615000D03*
D40*
X148181000Y-144075000D03*
%TD*%
D41*
%TO.C,J20*%
X248275000Y-164842870D03*
X250275000Y-164842870D03*
D61*
X252275000Y-164842870D03*
%TD*%
D63*
%TO.C,SW10*%
X237370000Y-126758000D03*
X231020000Y-124218000D03*
D60*
X233560000Y-129298000D03*
D64*
X228480000Y-129298000D03*
X238640000Y-129298000D03*
%TD*%
D63*
%TO.C,SW11*%
X196970000Y-146316000D03*
X190620000Y-143776000D03*
D64*
X188080000Y-148856000D03*
D60*
X193160000Y-148856000D03*
D64*
X198240000Y-148856000D03*
%TD*%
D39*
%TO.C,SW6*%
X135640500Y-149155000D03*
X135640500Y-146615000D03*
D40*
X135640500Y-144075000D03*
%TD*%
D41*
%TO.C,J18*%
X150600001Y-176800001D03*
X152600001Y-176800001D03*
D61*
X154600001Y-176800001D03*
%TD*%
M02*
