M48
; DRILL file {KiCad (6.0.9)} date Thu 10 Nov 2022 09:35:01 PM CET
; FORMAT={-:-/ absolute / metric / decimal}
; #@! TF.CreationDate,2022-11-10T21:35:01+01:00
; #@! TF.GenerationSoftware,Kicad,Pcbnew,(6.0.9)
; #@! TF.FileFunction,NonPlated,1,2,NPTH
FMAT,2
METRIC
; #@! TA.AperFunction,NonPlated,NPTH,ComponentDrill
T1C0.500
; #@! TA.AperFunction,NonPlated,NPTH,ComponentDrill
T2C0.650
; #@! TA.AperFunction,NonPlated,NPTH,ComponentDrill
T3C0.750
; #@! TA.AperFunction,NonPlated,NPTH,ComponentDrill
T4C1.050
; #@! TA.AperFunction,NonPlated,NPTH,ComponentDrill
T5C1.100
; #@! TA.AperFunction,NonPlated,NPTH,ComponentDrill
T6C1.500
; #@! TA.AperFunction,NonPlated,NPTH,ComponentDrill
T7C1.600
; #@! TA.AperFunction,NonPlated,NPTH,ComponentDrill
T8C1.700
; #@! TA.AperFunction,NonPlated,NPTH,ComponentDrill
T9C2.200
; #@! TA.AperFunction,NonPlated,NPTH,ComponentDrill
T10C3.200
; #@! TA.AperFunction,NonPlated,NPTH,ComponentDrill
T11C3.500
; #@! TA.AperFunction,NonPlated,NPTH,ComponentDrill
T12C4.000
%
G90
G05
T1
X124.0Y-157.3
X124.7Y-157.7
X125.45Y-157.9
X125.6Y-164.1
X126.2Y-158.0
X126.2Y-163.6
X126.9Y-163.1
X126.95Y-158.0
X127.6Y-162.8
X127.7Y-158.0
X128.35Y-162.6
X128.45Y-158.0
X129.1Y-162.5
X129.2Y-158.0
X129.85Y-162.5
X129.95Y-158.0
X130.6Y-162.7
X130.7Y-158.0
X131.35Y-162.9
X131.45Y-158.0
X132.0Y-163.3
X132.2Y-158.0
X132.6Y-163.8
X132.95Y-158.0
X133.8Y-158.0
X137.5Y-180.4
X137.6Y-173.0
X137.8Y-179.7
X137.9Y-173.7
X138.0Y-178.95
X138.1Y-174.45
X138.2Y-178.2
X138.3Y-175.2
X138.3Y-175.95
X138.3Y-176.7
X138.3Y-177.45
X143.3Y-172.95
X143.3Y-173.7
X143.3Y-174.45
X143.3Y-175.2
X143.3Y-175.95
X143.3Y-176.7
X143.3Y-177.45
X143.3Y-178.2
X143.3Y-178.95
X143.3Y-179.7
X143.3Y-180.45
X148.85Y-158.0
X148.85Y-163.0
X149.6Y-158.0
X149.6Y-158.0
X149.6Y-163.0
X149.6Y-163.0
X150.35Y-158.0
X150.35Y-163.0
X151.1Y-158.0
X151.1Y-163.0
X151.85Y-158.0
X151.85Y-163.0
X152.6Y-158.0
X152.6Y-163.0
X153.35Y-158.0
X153.35Y-163.0
X154.1Y-158.0
X154.1Y-163.0
X154.85Y-158.0
X154.85Y-163.0
X155.6Y-158.0
X155.6Y-163.0
X156.35Y-158.0
X156.35Y-163.0
X161.3Y-176.55
X161.3Y-177.3
X161.3Y-178.05
X161.3Y-178.8
X161.3Y-179.55
X161.3Y-180.3
X161.3Y-181.05
X161.3Y-181.8
X161.3Y-182.55
X161.3Y-183.3
X161.3Y-183.3
X161.3Y-184.05
X166.3Y-176.55
X166.3Y-177.3
X166.3Y-178.05
X166.3Y-178.8
X166.3Y-179.55
X166.3Y-180.3
X166.3Y-181.05
X166.3Y-181.8
X166.3Y-182.55
X166.3Y-183.3
X166.3Y-183.3
X166.3Y-184.05
X192.35Y-158.0
X192.35Y-163.0
X193.1Y-158.0
X193.1Y-158.0
X193.1Y-163.0
X193.1Y-163.0
X193.85Y-158.0
X193.85Y-163.0
X194.6Y-158.0
X194.6Y-163.0
X195.35Y-158.0
X195.35Y-163.0
X196.1Y-158.0
X196.1Y-163.0
X196.85Y-158.0
X196.85Y-163.0
X197.6Y-158.0
X197.6Y-163.0
X198.35Y-158.0
X198.35Y-163.0
X199.1Y-158.0
X199.1Y-163.0
X199.85Y-158.0
X199.85Y-163.0
X226.3Y-177.45
X226.3Y-178.2
X226.3Y-178.95
X226.3Y-179.7
X226.3Y-180.45
X226.3Y-181.2
X226.3Y-181.95
X226.3Y-182.7
X226.3Y-183.45
X226.3Y-184.2
X226.3Y-184.2
X226.3Y-184.95
X231.3Y-177.45
X231.3Y-178.2
X231.3Y-178.95
X231.3Y-179.7
X231.3Y-180.45
X231.3Y-181.2
X231.3Y-181.95
X231.3Y-182.7
X231.3Y-183.45
X231.3Y-184.2
X231.3Y-184.2
X231.3Y-184.95
X246.975Y-133.575
X246.975Y-134.375
X246.975Y-135.125
X246.975Y-135.875
X246.975Y-136.625
X246.975Y-137.375
X246.975Y-138.125
X246.975Y-138.875
X246.975Y-139.625
X246.975Y-140.375
X246.975Y-141.125
X246.975Y-141.875
X247.0Y-114.25
X247.0Y-115.0
X247.0Y-115.75
X247.0Y-116.5
X247.0Y-117.25
X247.0Y-118.0
X247.0Y-118.75
X247.0Y-119.5
X247.0Y-120.25
X247.0Y-121.0
X247.0Y-121.0
X247.0Y-121.75
X251.375Y-139.0
X251.4Y-138.225
X251.425Y-139.775
X251.475Y-137.45
X251.525Y-140.55
X251.625Y-136.7
X251.825Y-135.975
X252.0Y-114.25
X252.0Y-115.0
X252.0Y-115.75
X252.0Y-116.5
X252.0Y-117.25
X252.0Y-118.0
X252.0Y-118.75
X252.0Y-119.5
X252.0Y-120.25
X252.0Y-121.0
X252.0Y-121.0
X252.0Y-121.75
X252.075Y-135.25
X255.4Y-151.675
X256.15Y-151.675
X256.5Y-147.425
X256.9Y-151.675
X257.2Y-147.775
X257.325Y-126.225
X257.65Y-151.675
X257.95Y-148.075
X258.075Y-126.225
X258.35Y-129.625
X258.4Y-151.675
X258.725Y-148.275
X258.825Y-126.225
X259.075Y-129.425
X259.15Y-151.675
X259.5Y-148.45
X259.575Y-126.225
X259.825Y-129.275
X259.9Y-151.675
X260.275Y-148.55
X260.325Y-126.225
X260.575Y-129.2
X260.65Y-151.675
X261.05Y-148.575
X261.075Y-126.225
X261.325Y-129.2
X261.4Y-151.675
X261.825Y-126.225
X261.825Y-148.55
X262.075Y-129.25
X262.15Y-151.8
X262.575Y-126.225
X262.575Y-148.45
X262.85Y-129.375
X263.325Y-126.225
X263.6Y-129.55
X264.075Y-126.225
X264.825Y-126.225
T2
X259.553Y-111.65
X265.333Y-111.65
T3
X131.306Y-177.848
X257.028Y-200.759
T4
X127.506Y-177.848
X254.34Y-198.072
T5
X257.25Y-140.374
T6
X261.359Y-172.016
X261.359Y-182.016
X274.009Y-172.016
X274.009Y-182.016
T7
X263.384Y-177.016
X271.984Y-177.016
T8
X188.08Y-129.298
X188.08Y-148.856
X198.24Y-129.298
X198.24Y-148.856
X208.28Y-129.298
X208.28Y-148.856
X218.44Y-129.298
X218.44Y-148.856
X228.48Y-129.298
X228.48Y-148.856
X238.64Y-129.298
X238.64Y-148.856
T10
X124.0Y-111.0
X129.213Y-166.5
X129.313Y-186.6
X129.5Y-146.5
X157.743Y-194.037
X182.5Y-125.0
X192.043Y-166.9
X202.513Y-189.15
X237.0Y-111.0
X243.303Y-167.7
X243.308Y-187.7
X254.428Y-108.966
X269.678Y-108.966
T11
X267.684Y-185.016
T12
X193.16Y-129.298
X193.16Y-148.856
X213.36Y-129.298
X213.36Y-148.856
X233.56Y-129.298
X233.56Y-148.856
X267.684Y-177.016
T9
X267.684Y-178.116G85X267.684Y-183.916
G05
T0
M30
