%TF.GenerationSoftware,KiCad,Pcbnew,(6.0.9)*%
%TF.CreationDate,2022-11-09T22:31:11+01:00*%
%TF.ProjectId,libre-MIG-rounded,6c696272-652d-44d4-9947-2d726f756e64,v0.1*%
%TF.SameCoordinates,Original*%
%TF.FileFunction,Profile,NP*%
%FSLAX46Y46*%
G04 Gerber Fmt 4.6, Leading zero omitted, Abs format (unit mm)*
G04 Created by KiCad (PCBNEW (6.0.9)) date 2022-11-09 22:31:11*
%MOMM*%
%LPD*%
G01*
G04 APERTURE LIST*
%TA.AperFunction,Profile*%
%ADD10C,0.200000*%
%TD*%
G04 APERTURE END LIST*
D10*
X135012666Y-183497439D02*
G75*
G03*
X134287228Y-185185722I1269434J-1545461D01*
G01*
X266000000Y-126281026D02*
G75*
G03*
X265350000Y-130400000I0J-2110774D01*
G01*
X157600000Y-158000000D02*
G75*
G03*
X157600000Y-163000000I0J-2500000D01*
G01*
X159300000Y-198000000D02*
G75*
G03*
X161300000Y-196000000I0J2000000D01*
G01*
X125099956Y-161199998D02*
G75*
G03*
X123100000Y-157200000I-4556856J221598D01*
G01*
X166300000Y-175300000D02*
X166258569Y-170084530D01*
X226258493Y-170084530D02*
G75*
G03*
X222120591Y-165159404I-5000093J-70D01*
G01*
X278158131Y-172477000D02*
G75*
G03*
X273998484Y-165629123I-7716531J0D01*
G01*
X264000001Y-147900004D02*
G75*
G03*
X265350000Y-130400000I-2957771J9030244D01*
G01*
X252200028Y-142299990D02*
G75*
G03*
X247000000Y-143200000I-2522128J-900010D01*
G01*
X191000080Y-162997994D02*
G75*
G03*
X170397035Y-165158952I2138420J-119685606D01*
G01*
X257526369Y-130035167D02*
G75*
G03*
X252775000Y-134200000I3503731J-8789833D01*
G01*
X234100000Y-163600000D02*
G75*
G03*
X231300000Y-166400000I0J-2800000D01*
G01*
X124312808Y-185185725D02*
G75*
G03*
X123587357Y-183497412I-1994908J142825D01*
G01*
X272000000Y-106300000D02*
X272000000Y-126300000D01*
X247000000Y-113000000D02*
G75*
G03*
X237000000Y-103000000I-10000000J0D01*
G01*
X161300000Y-196000000D02*
X161300000Y-185200000D01*
X143300031Y-181199962D02*
G75*
G03*
X136100000Y-182400000I-3067031J-3797838D01*
G01*
X143299980Y-196000000D02*
X143300000Y-181200000D01*
X161300000Y-165000000D02*
G75*
G03*
X159300000Y-163000000I-2000000J0D01*
G01*
X157600000Y-158000000D02*
X191100000Y-158000000D01*
X226300000Y-186200000D02*
X226258509Y-192526030D01*
X143299980Y-165000000D02*
X143300000Y-172300000D01*
X258322800Y-206515700D02*
X253906000Y-206515700D01*
X201100000Y-158000000D02*
X237000000Y-158000000D01*
X236300000Y-163600000D02*
G75*
G03*
X250840089Y-154091701I0J15871500D01*
G01*
X133200000Y-160500000D02*
X133200000Y-164400000D01*
X116999997Y-148000000D02*
G75*
G03*
X123100000Y-157199999I10043203J36800D01*
G01*
X265106987Y-154999089D02*
G75*
G03*
X273998463Y-165629103I17188513J5343689D01*
G01*
X252000000Y-113000000D02*
X252000000Y-106292000D01*
X134287250Y-167900012D02*
G75*
G03*
X135012632Y-169588311I1994850J-142888D01*
G01*
X226300000Y-176200000D02*
G75*
G03*
X231300000Y-176200000I2500000J0D01*
G01*
X226300000Y-176200000D02*
X226258539Y-170084530D01*
X272000000Y-126300000D02*
X266000000Y-126281038D01*
X244581529Y-198721948D02*
G75*
G03*
X253906000Y-206515610I9324471J1681148D01*
G01*
X246994043Y-131600000D02*
G75*
G03*
X252775000Y-134200000I3475157J0D01*
G01*
X237000000Y-158000000D02*
G75*
G03*
X247000000Y-148000000I0J10000000D01*
G01*
X234100000Y-163600000D02*
X236300000Y-163600000D01*
X137000004Y-171899998D02*
G75*
G03*
X135012632Y-169588312I-7658804J-4574202D01*
G01*
X253950003Y-151800029D02*
G75*
G03*
X250840152Y-154091679I431497J-3841471D01*
G01*
X157600000Y-163000000D02*
X159300000Y-163000000D01*
X191000080Y-162998002D02*
G75*
G03*
X191100000Y-158000000I99920J2498002D01*
G01*
X231300000Y-186200000D02*
G75*
G03*
X226300000Y-186200000I-2500000J0D01*
G01*
X145299980Y-163000080D02*
G75*
G03*
X143299980Y-165000000I-80J-1999920D01*
G01*
X252000000Y-123000000D02*
G75*
G03*
X247000000Y-123000000I-2500000J0D01*
G01*
X247000000Y-148000000D02*
X247000000Y-143200000D01*
X252000000Y-126300000D02*
X252000000Y-123000000D01*
X258322800Y-206515640D02*
G75*
G03*
X267067369Y-198817149I0J8815640D01*
G01*
X166258559Y-192237130D02*
G75*
G03*
X172449003Y-197093342I4999941J-70D01*
G01*
X124312771Y-185185727D02*
G75*
G03*
X134287229Y-185185727I4987229J-357139D01*
G01*
X252000000Y-106292000D02*
X272000000Y-106292000D01*
X161300000Y-165000000D02*
X161300000Y-175300000D01*
X265106974Y-154999093D02*
G75*
G03*
X263200000Y-152499999I-4371874J-1358907D01*
G01*
X127000000Y-103000000D02*
G75*
G03*
X117000000Y-113000000I0J-10000000D01*
G01*
X273636828Y-189588364D02*
G75*
G03*
X278158080Y-182297770I-3617428J7290564D01*
G01*
X170396492Y-165159436D02*
G75*
G03*
X166258569Y-170084530I862008J-4925064D01*
G01*
X136999967Y-171900026D02*
G75*
G03*
X143300000Y-172300000I3333033J2682726D01*
G01*
X145299980Y-198000000D02*
X159300000Y-198000000D01*
X117000000Y-113000000D02*
X117000000Y-148000000D01*
X278158100Y-172477000D02*
X278158100Y-182297770D01*
X231300000Y-189000000D02*
X231300000Y-186200000D01*
X264000016Y-147900052D02*
G75*
G03*
X263200000Y-152499999I794084J-2507648D01*
G01*
X135007048Y-183497422D02*
G75*
G03*
X136094398Y-182400000I-2486448J3551022D01*
G01*
X166301999Y-185300000D02*
G75*
G03*
X161300000Y-185200000I-2501999J0D01*
G01*
X220335298Y-197159505D02*
G75*
G03*
X172449006Y-197093488I-24076998J-97057995D01*
G01*
X247000000Y-123000000D02*
X246994123Y-131600000D01*
X147600000Y-163000000D02*
G75*
G03*
X147600000Y-158000000I0J2500000D01*
G01*
X257524245Y-130029839D02*
G75*
G03*
X256200000Y-126300000I-1324245J1629839D01*
G01*
X147600000Y-158000000D02*
X134600000Y-158000000D01*
X253950005Y-151800047D02*
G75*
G03*
X255325000Y-146450000I-314905J2932647D01*
G01*
X222120591Y-165159405D02*
G75*
G03*
X201100000Y-163000001I-22941291J-119929095D01*
G01*
X252199980Y-142300008D02*
G75*
G03*
X255325000Y-146450000I8733920J3325208D01*
G01*
X123587382Y-169588328D02*
G75*
G03*
X124312772Y-167900010I-1269482J1545428D01*
G01*
X166301999Y-185300000D02*
X166258539Y-192237130D01*
X256200000Y-126300000D02*
X252000000Y-126300000D01*
X125100000Y-161200000D02*
X125100000Y-164800000D01*
X201100000Y-158000000D02*
G75*
G03*
X201100000Y-163000000I0J-2500000D01*
G01*
X237000000Y-103000000D02*
X127000000Y-103000000D01*
X247000000Y-113000000D02*
G75*
G03*
X252000000Y-113000000I2500000J0D01*
G01*
X231300000Y-176200000D02*
X231300000Y-166400000D01*
X234100000Y-191800000D02*
X236300000Y-191800000D01*
X220335345Y-197159383D02*
G75*
G03*
X226258509Y-192526030I1149355J4633383D01*
G01*
X273636854Y-189588328D02*
G75*
G03*
X267067343Y-198817117I5333746J-10749472D01*
G01*
X125100011Y-164800007D02*
G75*
G03*
X124312772Y-167900010I4391189J-2765093D01*
G01*
X161300000Y-175300000D02*
G75*
G03*
X166300000Y-175300000I2500000J0D01*
G01*
X231300000Y-189000000D02*
G75*
G03*
X234100000Y-191800000I2800000J0D01*
G01*
X244581584Y-198722023D02*
G75*
G03*
X236300000Y-191800000I-8281584J-1493077D01*
G01*
X147600000Y-163000000D02*
X145299980Y-163000000D01*
X134600007Y-158000013D02*
G75*
G03*
X133200000Y-160500000I1336393J-2390387D01*
G01*
X143300000Y-196000000D02*
G75*
G03*
X145299980Y-198000000I2000000J0D01*
G01*
X134287233Y-167900010D02*
G75*
G03*
X133200000Y-164400000I-5072033J343310D01*
G01*
X123587357Y-169588328D02*
G75*
G03*
X123587304Y-183497368I5712643J-6954542D01*
G01*
M02*
