%TF.GenerationSoftware,KiCad,Pcbnew,(6.0.9)*%
%TF.CreationDate,2022-11-09T21:55:08+01:00*%
%TF.ProjectId,libre-MIG-rounded,6c696272-652d-44d4-9947-2d726f756e64,v0.1*%
%TF.SameCoordinates,Original*%
%TF.FileFunction,Drillmap*%
%TF.FilePolarity,Positive*%
%FSLAX45Y45*%
G04 Gerber Fmt 4.5, Leading zero omitted, Abs format (unit mm)*
G04 Created by KiCad (PCBNEW (6.0.9)) date 2022-11-09 21:55:08*
%MOMM*%
%LPD*%
G01*
G04 APERTURE LIST*
%ADD10C,0.200000*%
%ADD11C,0.040000*%
%ADD12C,0.060000*%
%ADD13C,0.075000*%
%ADD14C,0.080000*%
%ADD15C,0.100000*%
%ADD16C,0.110000*%
%ADD17C,0.120000*%
%ADD18C,0.140000*%
%ADD19C,0.150000*%
G04 APERTURE END LIST*
D10*
X13501267Y-18349744D02*
G75*
G03*
X13428723Y-18518572I126943J-154546D01*
G01*
X26600000Y-12628103D02*
G75*
G03*
X26535000Y-13040000I0J-211077D01*
G01*
X15760000Y-15800000D02*
G75*
G03*
X15760000Y-16300000I0J-250000D01*
G01*
X15930000Y-19800000D02*
G75*
G03*
X16130000Y-19600000I0J200000D01*
G01*
X12509996Y-16120000D02*
G75*
G03*
X12310000Y-15720000I-455686J22160D01*
G01*
X16630000Y-17530000D02*
X16625857Y-17008453D01*
X22625849Y-17008453D02*
G75*
G03*
X22212059Y-16515940I-500009J-7D01*
G01*
X27815813Y-17247700D02*
G75*
G03*
X27399848Y-16562912I-771653J0D01*
G01*
X26400000Y-14790000D02*
G75*
G03*
X26535000Y-13040000I-295777J903024D01*
G01*
X25220003Y-14229999D02*
G75*
G03*
X24700000Y-14320000I-252213J-90001D01*
G01*
X19100008Y-16299799D02*
G75*
G03*
X17039704Y-16515895I213842J-11968561D01*
G01*
X25752637Y-13003517D02*
G75*
G03*
X25277500Y-13420000I350373J-878983D01*
G01*
X23410000Y-16360000D02*
G75*
G03*
X23130000Y-16640000I0J-280000D01*
G01*
X12431281Y-18518573D02*
G75*
G03*
X12358736Y-18349741I-199491J14283D01*
G01*
X27200000Y-10630000D02*
X27200000Y-12630000D01*
X24700000Y-11300000D02*
G75*
G03*
X23700000Y-10300000I-1000000J0D01*
G01*
X16130000Y-19600000D02*
X16130000Y-18520000D01*
X14330003Y-18119996D02*
G75*
G03*
X13610000Y-18240000I-306703J-379784D01*
G01*
X14329998Y-19600000D02*
X14330000Y-18120000D01*
X16130000Y-16500000D02*
G75*
G03*
X15930000Y-16300000I-200000J0D01*
G01*
X15760000Y-15800000D02*
X19110000Y-15800000D01*
X22630000Y-18620000D02*
X22625851Y-19252603D01*
X14329998Y-16500000D02*
X14330000Y-17230000D01*
X25832280Y-20651570D02*
X25390600Y-20651570D01*
X20110000Y-15800000D02*
X23700000Y-15800000D01*
X23630000Y-16360000D02*
G75*
G03*
X25084009Y-15409170I0J1587150D01*
G01*
X13320000Y-16050000D02*
X13320000Y-16440000D01*
X11700000Y-14800000D02*
G75*
G03*
X12310000Y-15720000I1004320J3680D01*
G01*
X26510699Y-15499909D02*
G75*
G03*
X27399846Y-16562910I1718851J534369D01*
G01*
X25200000Y-11300000D02*
X25200000Y-10629200D01*
X13428725Y-16790001D02*
G75*
G03*
X13501263Y-16958831I199485J-14289D01*
G01*
X22630000Y-17620000D02*
G75*
G03*
X23130000Y-17620000I250000J0D01*
G01*
X22630000Y-17620000D02*
X22625854Y-17008453D01*
X27200000Y-12630000D02*
X26600000Y-12628104D01*
X24458153Y-19872195D02*
G75*
G03*
X25390600Y-20651561I932447J168115D01*
G01*
X24699404Y-13160000D02*
G75*
G03*
X25277500Y-13420000I347516J0D01*
G01*
X23700000Y-15800000D02*
G75*
G03*
X24700000Y-14800000I0J1000000D01*
G01*
X23410000Y-16360000D02*
X23630000Y-16360000D01*
X13700000Y-17190000D02*
G75*
G03*
X13501263Y-16958831I-765880J-457420D01*
G01*
X25395000Y-15180003D02*
G75*
G03*
X25084015Y-15409168I43150J-384147D01*
G01*
X15760000Y-16300000D02*
X15930000Y-16300000D01*
X19100008Y-16299800D02*
G75*
G03*
X19110000Y-15800000I9992J249800D01*
G01*
X23130000Y-18620000D02*
G75*
G03*
X22630000Y-18620000I-250000J0D01*
G01*
X14529998Y-16300008D02*
G75*
G03*
X14329998Y-16500000I-8J-199992D01*
G01*
X25200000Y-12300000D02*
G75*
G03*
X24700000Y-12300000I-250000J0D01*
G01*
X24700000Y-14800000D02*
X24700000Y-14320000D01*
X25200000Y-12630000D02*
X25200000Y-12300000D01*
X25832280Y-20651564D02*
G75*
G03*
X26706737Y-19881715I0J881564D01*
G01*
X16625856Y-19223713D02*
G75*
G03*
X17244900Y-19709334I499994J-7D01*
G01*
X12431277Y-18518573D02*
G75*
G03*
X13428723Y-18518573I498723J-35714D01*
G01*
X25200000Y-10629200D02*
X27200000Y-10629200D01*
X16130000Y-16500000D02*
X16130000Y-17530000D01*
X26510697Y-15499909D02*
G75*
G03*
X26320000Y-15250000I-437187J-135891D01*
G01*
X12700000Y-10300000D02*
G75*
G03*
X11700000Y-11300000I0J-1000000D01*
G01*
X27363683Y-18958836D02*
G75*
G03*
X27815808Y-18229777I-361743J729056D01*
G01*
X17039649Y-16515944D02*
G75*
G03*
X16625857Y-17008453I86201J-492506D01*
G01*
X13699997Y-17190003D02*
G75*
G03*
X14330000Y-17230000I333303J268273D01*
G01*
X14529998Y-19800000D02*
X15930000Y-19800000D01*
X11700000Y-11300000D02*
X11700000Y-14800000D01*
X27815810Y-17247700D02*
X27815810Y-18229777D01*
X23130000Y-18900000D02*
X23130000Y-18620000D01*
X26400002Y-14790005D02*
G75*
G03*
X26320000Y-15250000I79408J-250765D01*
G01*
X13500705Y-18349742D02*
G75*
G03*
X13609440Y-18240000I-248645J355102D01*
G01*
X16630200Y-18530000D02*
G75*
G03*
X16130000Y-18520000I-250200J0D01*
G01*
X22033530Y-19715951D02*
G75*
G03*
X17244901Y-19709349I-2407700J-9705799D01*
G01*
X24700000Y-12300000D02*
X24699412Y-13160000D01*
X14760000Y-16300000D02*
G75*
G03*
X14760000Y-15800000I0J250000D01*
G01*
X25752424Y-13002984D02*
G75*
G03*
X25620000Y-12630000I-132425J162984D01*
G01*
X14760000Y-15800000D02*
X13460000Y-15800000D01*
X25395000Y-15180005D02*
G75*
G03*
X25532500Y-14645000I-31491J293265D01*
G01*
X22212059Y-16515940D02*
G75*
G03*
X20110000Y-16300000I-2294129J-11992909D01*
G01*
X25219998Y-14230001D02*
G75*
G03*
X25532500Y-14645000I873392J332521D01*
G01*
X12358738Y-16958833D02*
G75*
G03*
X12431277Y-16790001I-126948J154543D01*
G01*
X16630200Y-18530000D02*
X16625854Y-19223713D01*
X25620000Y-12630000D02*
X25200000Y-12630000D01*
X12510000Y-16120000D02*
X12510000Y-16480000D01*
X20110000Y-15800000D02*
G75*
G03*
X20110000Y-16300000I0J-250000D01*
G01*
X23700000Y-10300000D02*
X12700000Y-10300000D01*
X24700000Y-11300000D02*
G75*
G03*
X25200000Y-11300000I250000J0D01*
G01*
X23130000Y-17620000D02*
X23130000Y-16640000D01*
X23410000Y-19180000D02*
X23630000Y-19180000D01*
X22033535Y-19715938D02*
G75*
G03*
X22625851Y-19252603I114936J463338D01*
G01*
X27363685Y-18958833D02*
G75*
G03*
X26706734Y-19881712I533375J-1074947D01*
G01*
X12510001Y-16480001D02*
G75*
G03*
X12431277Y-16790001I439119J-276509D01*
G01*
X16130000Y-17530000D02*
G75*
G03*
X16630000Y-17530000I250000J0D01*
G01*
X23130000Y-18900000D02*
G75*
G03*
X23410000Y-19180000I280000J0D01*
G01*
X24458158Y-19872202D02*
G75*
G03*
X23630000Y-19180000I-828158J-149308D01*
G01*
X14760000Y-16300000D02*
X14529998Y-16300000D01*
X13460001Y-15800001D02*
G75*
G03*
X13320000Y-16050000I133639J-239039D01*
G01*
X14330000Y-19600000D02*
G75*
G03*
X14529998Y-19800000I200000J0D01*
G01*
X13428723Y-16790001D02*
G75*
G03*
X13320000Y-16440000I-507203J34331D01*
G01*
X12358736Y-16958833D02*
G75*
G03*
X12358730Y-18349737I571264J-695454D01*
G01*
D11*
X11800000Y-13920000D02*
X11840000Y-13960000D01*
X11840000Y-13920000D02*
X11800000Y-13960000D01*
X11800000Y-14170000D02*
X11840000Y-14210000D01*
X11840000Y-14170000D02*
X11800000Y-14210000D01*
X11800000Y-14390000D02*
X11840000Y-14430000D01*
X11840000Y-14390000D02*
X11800000Y-14430000D01*
X11800000Y-14650000D02*
X11840000Y-14690000D01*
X11840000Y-14650000D02*
X11800000Y-14690000D01*
X11800000Y-14890000D02*
X11840000Y-14930000D01*
X11840000Y-14890000D02*
X11800000Y-14930000D01*
X11860000Y-12080000D02*
X11900000Y-12120000D01*
X11900000Y-12080000D02*
X11860000Y-12120000D01*
X11860000Y-15110000D02*
X11900000Y-15150000D01*
X11900000Y-15110000D02*
X11860000Y-15150000D01*
X11960000Y-13920000D02*
X12000000Y-13960000D01*
X12000000Y-13920000D02*
X11960000Y-13960000D01*
X11960000Y-14170000D02*
X12000000Y-14210000D01*
X12000000Y-14170000D02*
X11960000Y-14210000D01*
X11960000Y-14390000D02*
X12000000Y-14430000D01*
X12000000Y-14390000D02*
X11960000Y-14430000D01*
X11960000Y-14650000D02*
X12000000Y-14690000D01*
X12000000Y-14650000D02*
X11960000Y-14690000D01*
X11960000Y-14890000D02*
X12000000Y-14930000D01*
X12000000Y-14890000D02*
X11960000Y-14930000D01*
X11990000Y-15280000D02*
X12030000Y-15320000D01*
X12030000Y-15280000D02*
X11990000Y-15320000D01*
X12030000Y-12240000D02*
X12070000Y-12280000D01*
X12070000Y-12240000D02*
X12030000Y-12280000D01*
X12030000Y-15040000D02*
X12070000Y-15080000D01*
X12070000Y-15040000D02*
X12030000Y-15080000D01*
X12110000Y-13920000D02*
X12150000Y-13960000D01*
X12150000Y-13920000D02*
X12110000Y-13960000D01*
X12110000Y-14170000D02*
X12150000Y-14210000D01*
X12150000Y-14170000D02*
X12110000Y-14210000D01*
X12110000Y-14390000D02*
X12150000Y-14430000D01*
X12150000Y-14390000D02*
X12110000Y-14430000D01*
X12110000Y-14650000D02*
X12150000Y-14690000D01*
X12150000Y-14650000D02*
X12110000Y-14690000D01*
X12150000Y-15160000D02*
X12190000Y-15200000D01*
X12190000Y-15160000D02*
X12150000Y-15200000D01*
X12160000Y-15390000D02*
X12200000Y-15430000D01*
X12200000Y-15390000D02*
X12160000Y-15430000D01*
X12190000Y-12420000D02*
X12230000Y-12460000D01*
X12230000Y-12420000D02*
X12190000Y-12460000D01*
X12300000Y-15240000D02*
X12340000Y-15280000D01*
X12340000Y-15240000D02*
X12300000Y-15280000D01*
X12423334Y-15420000D02*
X12463334Y-15460000D01*
X12463334Y-15420000D02*
X12423334Y-15460000D01*
X12548889Y-15240000D02*
X12588889Y-15280000D01*
X12588889Y-15240000D02*
X12548889Y-15280000D01*
X12550000Y-15090000D02*
X12590000Y-15130000D01*
X12590000Y-15090000D02*
X12550000Y-15130000D01*
X12610000Y-11360000D02*
X12650000Y-11400000D01*
X12650000Y-11360000D02*
X12610000Y-11400000D01*
X12640000Y-14420000D02*
X12680000Y-14460000D01*
X12680000Y-14420000D02*
X12640000Y-14460000D01*
X12672222Y-15420000D02*
X12712222Y-15460000D01*
X12712222Y-15420000D02*
X12672222Y-15460000D01*
X12750000Y-12040000D02*
X12790000Y-12080000D01*
X12790000Y-12040000D02*
X12750000Y-12080000D01*
X12750000Y-12340000D02*
X12790000Y-12380000D01*
X12790000Y-12340000D02*
X12750000Y-12380000D01*
X12750000Y-12640000D02*
X12790000Y-12680000D01*
X12790000Y-12640000D02*
X12750000Y-12680000D01*
X12750000Y-12960000D02*
X12790000Y-13000000D01*
X12790000Y-12960000D02*
X12750000Y-13000000D01*
X12750000Y-13250000D02*
X12790000Y-13290000D01*
X12790000Y-13250000D02*
X12750000Y-13290000D01*
X12750000Y-13520000D02*
X12790000Y-13560000D01*
X12790000Y-13520000D02*
X12750000Y-13560000D01*
X12750000Y-13800000D02*
X12790000Y-13840000D01*
X12790000Y-13800000D02*
X12750000Y-13840000D01*
X12750000Y-14090000D02*
X12790000Y-14130000D01*
X12790000Y-14090000D02*
X12750000Y-14130000D01*
X12770000Y-11510000D02*
X12810000Y-11550000D01*
X12810000Y-11510000D02*
X12770000Y-11550000D01*
X12797778Y-15240000D02*
X12837778Y-15280000D01*
X12837778Y-15240000D02*
X12797778Y-15280000D01*
X12798889Y-15090000D02*
X12838889Y-15130000D01*
X12838889Y-15090000D02*
X12798889Y-15130000D01*
X12810000Y-11810000D02*
X12850000Y-11850000D01*
X12850000Y-11810000D02*
X12810000Y-11850000D01*
X12840000Y-11270000D02*
X12880000Y-11310000D01*
X12880000Y-11270000D02*
X12840000Y-11310000D01*
X12921111Y-15420000D02*
X12961111Y-15460000D01*
X12961111Y-15420000D02*
X12921111Y-15460000D01*
X12940000Y-11670000D02*
X12980000Y-11710000D01*
X12980000Y-11670000D02*
X12940000Y-11710000D01*
X12970000Y-11310000D02*
X13010000Y-11350000D01*
X13010000Y-11310000D02*
X12970000Y-11350000D01*
X12970000Y-11480000D02*
X13010000Y-11520000D01*
X13010000Y-11480000D02*
X12970000Y-11520000D01*
X13040000Y-14070000D02*
X13080000Y-14110000D01*
X13080000Y-14070000D02*
X13040000Y-14110000D01*
X13046666Y-15240000D02*
X13086666Y-15280000D01*
X13086666Y-15240000D02*
X13046666Y-15280000D01*
X13047778Y-15090000D02*
X13087778Y-15130000D01*
X13087778Y-15090000D02*
X13047778Y-15130000D01*
X13170000Y-12340000D02*
X13210000Y-12380000D01*
X13210000Y-12340000D02*
X13170000Y-12380000D01*
X13170000Y-12640000D02*
X13210000Y-12680000D01*
X13210000Y-12640000D02*
X13170000Y-12680000D01*
X13170000Y-13250000D02*
X13210000Y-13290000D01*
X13210000Y-13250000D02*
X13170000Y-13290000D01*
X13170000Y-13520000D02*
X13210000Y-13560000D01*
X13210000Y-13520000D02*
X13170000Y-13560000D01*
X13170000Y-13800000D02*
X13210000Y-13840000D01*
X13210000Y-13800000D02*
X13170000Y-13840000D01*
X13170000Y-15420000D02*
X13210000Y-15460000D01*
X13210000Y-15420000D02*
X13170000Y-15460000D01*
X13180000Y-12960000D02*
X13220000Y-13000000D01*
X13220000Y-12960000D02*
X13180000Y-13000000D01*
X13200000Y-14040000D02*
X13240000Y-14080000D01*
X13240000Y-14040000D02*
X13200000Y-14080000D01*
X13260000Y-11310000D02*
X13300000Y-11350000D01*
X13300000Y-11310000D02*
X13260000Y-11350000D01*
X13260000Y-11480000D02*
X13300000Y-11520000D01*
X13300000Y-11480000D02*
X13260000Y-11520000D01*
X13295555Y-15240000D02*
X13335555Y-15280000D01*
X13335555Y-15240000D02*
X13295555Y-15280000D01*
X13296666Y-15090000D02*
X13336666Y-15130000D01*
X13336666Y-15090000D02*
X13296666Y-15130000D01*
X13400000Y-12130000D02*
X13440000Y-12170000D01*
X13440000Y-12130000D02*
X13400000Y-12170000D01*
X13544444Y-15240000D02*
X13584444Y-15280000D01*
X13584444Y-15240000D02*
X13544444Y-15280000D01*
X13545555Y-15090000D02*
X13585555Y-15130000D01*
X13585555Y-15090000D02*
X13545555Y-15130000D01*
X13660000Y-12130000D02*
X13700000Y-12170000D01*
X13700000Y-12130000D02*
X13660000Y-12170000D01*
X13793333Y-15240000D02*
X13833333Y-15280000D01*
X13833333Y-15240000D02*
X13793333Y-15280000D01*
X13794444Y-15090000D02*
X13834444Y-15130000D01*
X13834444Y-15090000D02*
X13794444Y-15130000D01*
X13900000Y-12220000D02*
X13940000Y-12260000D01*
X13940000Y-12220000D02*
X13900000Y-12260000D01*
X14042222Y-15240000D02*
X14082222Y-15280000D01*
X14082222Y-15240000D02*
X14042222Y-15280000D01*
X14043333Y-15090000D02*
X14083333Y-15130000D01*
X14083333Y-15090000D02*
X14043333Y-15130000D01*
X14110000Y-12140000D02*
X14150000Y-12180000D01*
X14150000Y-12140000D02*
X14110000Y-12180000D01*
X14291110Y-15240000D02*
X14331110Y-15280000D01*
X14331110Y-15240000D02*
X14291110Y-15280000D01*
X14292222Y-15090000D02*
X14332222Y-15130000D01*
X14332222Y-15090000D02*
X14292222Y-15130000D01*
X14470000Y-14220000D02*
X14510000Y-14260000D01*
X14510000Y-14220000D02*
X14470000Y-14260000D01*
X14540000Y-15240000D02*
X14580000Y-15280000D01*
X14580000Y-15240000D02*
X14540000Y-15280000D01*
X14541110Y-15090000D02*
X14581110Y-15130000D01*
X14581110Y-15090000D02*
X14541110Y-15130000D01*
X14660000Y-11940000D02*
X14700000Y-11980000D01*
X14700000Y-11940000D02*
X14660000Y-11980000D01*
X14680000Y-11690000D02*
X14720000Y-11730000D01*
X14720000Y-11690000D02*
X14680000Y-11730000D01*
X14680000Y-15320000D02*
X14720000Y-15360000D01*
X14720000Y-15320000D02*
X14680000Y-15360000D01*
X14710000Y-12370000D02*
X14750000Y-12410000D01*
X14750000Y-12370000D02*
X14710000Y-12410000D01*
X14740000Y-11580000D02*
X14780000Y-11620000D01*
X14780000Y-11580000D02*
X14740000Y-11620000D01*
X14790000Y-15090000D02*
X14830000Y-15130000D01*
X14830000Y-15090000D02*
X14790000Y-15130000D01*
X14790000Y-17828579D02*
X14830000Y-17868579D01*
X14830000Y-17828579D02*
X14790000Y-17868579D01*
X14910000Y-15240000D02*
X14950000Y-15280000D01*
X14950000Y-15240000D02*
X14910000Y-15280000D01*
X14940000Y-11560000D02*
X14980000Y-11600000D01*
X14980000Y-11560000D02*
X14940000Y-11600000D01*
X14940000Y-11970000D02*
X14980000Y-12010000D01*
X14980000Y-11970000D02*
X14940000Y-12010000D01*
X15010000Y-11190000D02*
X15050000Y-11230000D01*
X15050000Y-11190000D02*
X15010000Y-11230000D01*
X15100000Y-11560000D02*
X15140000Y-11600000D01*
X15140000Y-11560000D02*
X15100000Y-11600000D01*
X15110000Y-11030000D02*
X15150000Y-11070000D01*
X15150000Y-11030000D02*
X15110000Y-11070000D01*
X15120000Y-11300000D02*
X15160000Y-11340000D01*
X15160000Y-11300000D02*
X15120000Y-11340000D01*
X15240000Y-11410000D02*
X15280000Y-11450000D01*
X15280000Y-11410000D02*
X15240000Y-11450000D01*
X15260000Y-11560000D02*
X15300000Y-11600000D01*
X15300000Y-11560000D02*
X15260000Y-11600000D01*
X15291300Y-10650000D02*
X15331300Y-10690000D01*
X15331300Y-10650000D02*
X15291300Y-10690000D01*
X15291300Y-10830000D02*
X15331300Y-10870000D01*
X15331300Y-10830000D02*
X15291300Y-10870000D01*
X15291300Y-11010000D02*
X15331300Y-11050000D01*
X15331300Y-11010000D02*
X15291300Y-11050000D01*
X15291300Y-11190000D02*
X15331300Y-11230000D01*
X15331300Y-11190000D02*
X15291300Y-11230000D01*
X15405000Y-10544900D02*
X15445000Y-10584900D01*
X15445000Y-10544900D02*
X15405000Y-10584900D01*
X15410000Y-11560000D02*
X15450000Y-11600000D01*
X15450000Y-11560000D02*
X15410000Y-11600000D01*
X15411300Y-11330000D02*
X15451300Y-11370000D01*
X15451300Y-11330000D02*
X15411300Y-11370000D01*
X15500000Y-12110000D02*
X15540000Y-12150000D01*
X15540000Y-12110000D02*
X15500000Y-12150000D01*
X15530000Y-11760000D02*
X15570000Y-11800000D01*
X15570000Y-11760000D02*
X15530000Y-11800000D01*
X15531300Y-10430000D02*
X15571300Y-10470000D01*
X15571300Y-10430000D02*
X15531300Y-10470000D01*
X15545000Y-14645000D02*
X15585000Y-14685000D01*
X15585000Y-14645000D02*
X15545000Y-14685000D01*
X15571300Y-11350000D02*
X15611300Y-11390000D01*
X15611300Y-11350000D02*
X15571300Y-11390000D01*
X15680190Y-10430000D02*
X15720190Y-10470000D01*
X15720190Y-10430000D02*
X15680190Y-10470000D01*
X15700000Y-12240000D02*
X15740000Y-12280000D01*
X15740000Y-12240000D02*
X15700000Y-12280000D01*
X15720000Y-11980000D02*
X15760000Y-12020000D01*
X15760000Y-11980000D02*
X15720000Y-12020000D01*
X15730000Y-11800000D02*
X15770000Y-11840000D01*
X15770000Y-11800000D02*
X15730000Y-11840000D01*
X15810000Y-11740000D02*
X15850000Y-11780000D01*
X15850000Y-11740000D02*
X15810000Y-11780000D01*
X15829078Y-10430000D02*
X15869078Y-10470000D01*
X15869078Y-10430000D02*
X15829078Y-10470000D01*
X15900000Y-12240000D02*
X15940000Y-12280000D01*
X15940000Y-12240000D02*
X15900000Y-12280000D01*
X15977967Y-10430000D02*
X16017967Y-10470000D01*
X16017967Y-10430000D02*
X15977967Y-10470000D01*
X15980000Y-11820000D02*
X16020000Y-11860000D01*
X16020000Y-11820000D02*
X15980000Y-11860000D01*
X15990000Y-12090000D02*
X16030000Y-12130000D01*
X16030000Y-12090000D02*
X15990000Y-12130000D01*
X16071300Y-11350000D02*
X16111300Y-11390000D01*
X16111300Y-11350000D02*
X16071300Y-11390000D01*
X16126856Y-10430000D02*
X16166856Y-10470000D01*
X16166856Y-10430000D02*
X16126856Y-10470000D01*
X16231300Y-11350000D02*
X16271300Y-11390000D01*
X16271300Y-11350000D02*
X16231300Y-11390000D01*
X16275745Y-10430000D02*
X16315745Y-10470000D01*
X16315745Y-10430000D02*
X16275745Y-10470000D01*
X16310000Y-12540000D02*
X16350000Y-12580000D01*
X16350000Y-12540000D02*
X16310000Y-12580000D01*
X16360000Y-11899150D02*
X16400000Y-11939150D01*
X16400000Y-11899150D02*
X16360000Y-11939150D01*
X16371300Y-11350000D02*
X16411300Y-11390000D01*
X16411300Y-11350000D02*
X16371300Y-11390000D01*
X16400000Y-12440000D02*
X16440000Y-12480000D01*
X16440000Y-12440000D02*
X16400000Y-12480000D01*
X16424634Y-10430000D02*
X16464634Y-10470000D01*
X16464634Y-10430000D02*
X16424634Y-10470000D01*
X16440000Y-12620000D02*
X16480000Y-12660000D01*
X16480000Y-12620000D02*
X16440000Y-12660000D01*
X16500000Y-11840000D02*
X16540000Y-11880000D01*
X16540000Y-11840000D02*
X16500000Y-11880000D01*
X16530000Y-12240000D02*
X16570000Y-12280000D01*
X16570000Y-12240000D02*
X16530000Y-12280000D01*
X16530000Y-12460000D02*
X16570000Y-12500000D01*
X16570000Y-12460000D02*
X16530000Y-12500000D01*
X16560000Y-12110000D02*
X16600000Y-12150000D01*
X16600000Y-12110000D02*
X16560000Y-12150000D01*
X16573522Y-10430000D02*
X16613522Y-10470000D01*
X16613522Y-10430000D02*
X16573522Y-10470000D01*
X16580000Y-12690000D02*
X16620000Y-12730000D01*
X16620000Y-12690000D02*
X16580000Y-12730000D01*
X16712100Y-11297900D02*
X16752100Y-11337900D01*
X16752100Y-11297900D02*
X16712100Y-11337900D01*
X16720000Y-12770000D02*
X16760000Y-12810000D01*
X16760000Y-12770000D02*
X16720000Y-12810000D01*
X16722411Y-10430000D02*
X16762411Y-10470000D01*
X16762411Y-10430000D02*
X16722411Y-10470000D01*
X16760000Y-11680000D02*
X16800000Y-11720000D01*
X16800000Y-11680000D02*
X16760000Y-11720000D01*
X16811300Y-11190000D02*
X16851300Y-11230000D01*
X16851300Y-11190000D02*
X16811300Y-11230000D01*
X16850000Y-12862550D02*
X16890000Y-12902550D01*
X16890000Y-12862550D02*
X16850000Y-12902550D01*
X16871300Y-10430000D02*
X16911300Y-10470000D01*
X16911300Y-10430000D02*
X16871300Y-10470000D01*
X16871300Y-10582000D02*
X16911300Y-10622000D01*
X16911300Y-10582000D02*
X16871300Y-10622000D01*
X16871300Y-10734000D02*
X16911300Y-10774000D01*
X16911300Y-10734000D02*
X16871300Y-10774000D01*
X16871300Y-10886000D02*
X16911300Y-10926000D01*
X16911300Y-10886000D02*
X16871300Y-10926000D01*
X16871300Y-11038000D02*
X16911300Y-11078000D01*
X16911300Y-11038000D02*
X16871300Y-11078000D01*
X17030000Y-11440000D02*
X17070000Y-11480000D01*
X17070000Y-11440000D02*
X17030000Y-11480000D01*
X17182694Y-12742694D02*
X17222694Y-12782694D01*
X17222694Y-12742694D02*
X17182694Y-12782694D01*
X17200000Y-12910000D02*
X17240000Y-12950000D01*
X17240000Y-12910000D02*
X17200000Y-12950000D01*
X17250000Y-16754900D02*
X17290000Y-16794900D01*
X17290000Y-16754900D02*
X17250000Y-16794900D01*
X17300000Y-12660000D02*
X17340000Y-12700000D01*
X17340000Y-12660000D02*
X17300000Y-12700000D01*
X17320000Y-13000000D02*
X17360000Y-13040000D01*
X17360000Y-13000000D02*
X17320000Y-13040000D01*
X17356600Y-11402200D02*
X17396600Y-11442200D01*
X17396600Y-11402200D02*
X17356600Y-11442200D01*
X17410000Y-12530000D02*
X17450000Y-12570000D01*
X17450000Y-12530000D02*
X17410000Y-12570000D01*
X17450000Y-13100000D02*
X17490000Y-13140000D01*
X17490000Y-13100000D02*
X17450000Y-13140000D01*
X17472565Y-17414000D02*
X17512565Y-17454000D01*
X17512565Y-17414000D02*
X17472565Y-17454000D01*
X17484300Y-19400000D02*
X17524300Y-19440000D01*
X17524300Y-19400000D02*
X17484300Y-19440000D01*
X17490000Y-16874900D02*
X17530000Y-16914900D01*
X17530000Y-16874900D02*
X17490000Y-16914900D01*
X17524900Y-17021200D02*
X17564900Y-17061200D01*
X17564900Y-17021200D02*
X17524900Y-17061200D01*
X17600000Y-13210000D02*
X17640000Y-13250000D01*
X17640000Y-13210000D02*
X17600000Y-13250000D01*
X17630000Y-16914900D02*
X17670000Y-16954900D01*
X17670000Y-16914900D02*
X17630000Y-16954900D01*
X17630000Y-17474900D02*
X17670000Y-17514900D01*
X17670000Y-17474900D02*
X17630000Y-17514900D01*
X17684300Y-19400000D02*
X17724300Y-19440000D01*
X17724300Y-19400000D02*
X17684300Y-19440000D01*
X17710000Y-16834900D02*
X17750000Y-16874900D01*
X17750000Y-16834900D02*
X17710000Y-16874900D01*
X17730000Y-17494900D02*
X17770000Y-17534900D01*
X17770000Y-17494900D02*
X17730000Y-17534900D01*
X17770000Y-13330000D02*
X17810000Y-13370000D01*
X17810000Y-13330000D02*
X17770000Y-13370000D01*
X17800000Y-11710000D02*
X17840000Y-11750000D01*
X17840000Y-11710000D02*
X17800000Y-11750000D01*
X17884300Y-19400000D02*
X17924300Y-19440000D01*
X17924300Y-19400000D02*
X17884300Y-19440000D01*
X17890000Y-16974900D02*
X17930000Y-17014900D01*
X17930000Y-16974900D02*
X17890000Y-17014900D01*
X17990000Y-11630000D02*
X18030000Y-11670000D01*
X18030000Y-11630000D02*
X17990000Y-11670000D01*
X18030000Y-16594900D02*
X18070000Y-16634900D01*
X18070000Y-16594900D02*
X18030000Y-16634900D01*
X18070000Y-17474900D02*
X18110000Y-17514900D01*
X18110000Y-17474900D02*
X18070000Y-17514900D01*
X18090000Y-16894900D02*
X18130000Y-16934900D01*
X18130000Y-16894900D02*
X18090000Y-16934900D01*
X18094300Y-19400000D02*
X18134300Y-19440000D01*
X18134300Y-19400000D02*
X18094300Y-19440000D01*
X18095000Y-14705000D02*
X18135000Y-14745000D01*
X18135000Y-14705000D02*
X18095000Y-14745000D01*
X18104300Y-17980000D02*
X18144300Y-18020000D01*
X18144300Y-17980000D02*
X18104300Y-18020000D01*
X18120000Y-11550000D02*
X18160000Y-11590000D01*
X18160000Y-11550000D02*
X18120000Y-11590000D01*
X18120000Y-17310000D02*
X18160000Y-17350000D01*
X18160000Y-17310000D02*
X18120000Y-17350000D01*
X18140000Y-13680000D02*
X18180000Y-13720000D01*
X18180000Y-13680000D02*
X18140000Y-13720000D01*
X18210000Y-17474900D02*
X18250000Y-17514900D01*
X18250000Y-17474900D02*
X18210000Y-17514900D01*
X18250000Y-13430000D02*
X18290000Y-13470000D01*
X18290000Y-13430000D02*
X18250000Y-13470000D01*
X18254900Y-16901200D02*
X18294900Y-16941200D01*
X18294900Y-16901200D02*
X18254900Y-16941200D01*
X18270000Y-16594900D02*
X18310000Y-16634900D01*
X18310000Y-16594900D02*
X18270000Y-16634900D01*
X18293183Y-17382450D02*
X18333183Y-17422450D01*
X18333183Y-17382450D02*
X18293183Y-17422450D01*
X18304300Y-19390000D02*
X18344300Y-19430000D01*
X18344300Y-19390000D02*
X18304300Y-19430000D01*
X18310000Y-11180000D02*
X18350000Y-11220000D01*
X18350000Y-11180000D02*
X18310000Y-11220000D01*
X18330000Y-13770000D02*
X18370000Y-13810000D01*
X18370000Y-13770000D02*
X18330000Y-13810000D01*
X18380000Y-11600000D02*
X18420000Y-11640000D01*
X18420000Y-11600000D02*
X18380000Y-11640000D01*
X18400000Y-12800000D02*
X18440000Y-12840000D01*
X18440000Y-12800000D02*
X18400000Y-12840000D01*
X18400000Y-13580000D02*
X18440000Y-13620000D01*
X18440000Y-13580000D02*
X18400000Y-13620000D01*
X18430000Y-11280000D02*
X18470000Y-11320000D01*
X18470000Y-11280000D02*
X18430000Y-11320000D01*
X18530000Y-13220000D02*
X18570000Y-13260000D01*
X18570000Y-13220000D02*
X18530000Y-13260000D01*
X18540150Y-16901200D02*
X18580150Y-16941200D01*
X18580150Y-16901200D02*
X18540150Y-16941200D01*
X18569950Y-13010000D02*
X18609950Y-13050000D01*
X18609950Y-13010000D02*
X18569950Y-13050000D01*
X18570000Y-11410000D02*
X18610000Y-11450000D01*
X18610000Y-11410000D02*
X18570000Y-11450000D01*
X18704900Y-16881200D02*
X18744900Y-16921200D01*
X18744900Y-16881200D02*
X18704900Y-16921200D01*
X18720000Y-11860000D02*
X18760000Y-11900000D01*
X18760000Y-11860000D02*
X18720000Y-11900000D01*
X18800000Y-13130000D02*
X18840000Y-13170000D01*
X18840000Y-13130000D02*
X18800000Y-13170000D01*
X18830000Y-17154900D02*
X18870000Y-17194900D01*
X18870000Y-17154900D02*
X18830000Y-17194900D01*
X18830000Y-17985700D02*
X18870000Y-18025700D01*
X18870000Y-17985700D02*
X18830000Y-18025700D01*
X18850000Y-17634900D02*
X18890000Y-17674900D01*
X18890000Y-17634900D02*
X18850000Y-17674900D01*
X18855700Y-11254900D02*
X18895700Y-11294900D01*
X18895700Y-11254900D02*
X18855700Y-11294900D01*
X19060000Y-11060000D02*
X19100000Y-11100000D01*
X19100000Y-11060000D02*
X19060000Y-11100000D01*
X19454900Y-17861200D02*
X19494900Y-17901200D01*
X19494900Y-17861200D02*
X19454900Y-17901200D01*
X19615700Y-12064900D02*
X19655700Y-12104900D01*
X19655700Y-12064900D02*
X19615700Y-12104900D01*
X19745700Y-11964900D02*
X19785700Y-12004900D01*
X19785700Y-11964900D02*
X19745700Y-12004900D01*
X19865700Y-12064900D02*
X19905700Y-12104900D01*
X19905700Y-12064900D02*
X19865700Y-12104900D01*
X19920000Y-11180000D02*
X19960000Y-11220000D01*
X19960000Y-11180000D02*
X19920000Y-11220000D01*
X19974300Y-18000000D02*
X20014300Y-18040000D01*
X20014300Y-18000000D02*
X19974300Y-18040000D01*
X20100000Y-15300000D02*
X20140000Y-15340000D01*
X20140000Y-15300000D02*
X20100000Y-15340000D01*
X21110000Y-17454900D02*
X21150000Y-17494900D01*
X21150000Y-17454900D02*
X21110000Y-17494900D01*
X21110000Y-17673750D02*
X21150000Y-17713750D01*
X21150000Y-17673750D02*
X21110000Y-17713750D01*
X21287550Y-18032450D02*
X21327550Y-18072450D01*
X21327550Y-18032450D02*
X21287550Y-18072450D01*
X25314926Y-19950000D02*
X25354926Y-19990000D01*
X25354926Y-19950000D02*
X25314926Y-19990000D01*
X25497124Y-20177924D02*
X25537124Y-20217924D01*
X25537124Y-20177924D02*
X25497124Y-20217924D01*
X25700000Y-16110000D02*
X25740000Y-16150000D01*
X25740000Y-16110000D02*
X25700000Y-16150000D01*
X25754300Y-17535100D02*
X25794300Y-17575100D01*
X25794300Y-17535100D02*
X25754300Y-17575100D01*
X25840000Y-19310800D02*
X25880000Y-19350800D01*
X25880000Y-19310800D02*
X25840000Y-19350800D01*
X25930000Y-19539987D02*
X25970000Y-19579987D01*
X25970000Y-19539987D02*
X25930000Y-19579987D01*
X26064300Y-19315100D02*
X26104300Y-19355100D01*
X26104300Y-19315100D02*
X26064300Y-19355100D01*
X26354300Y-11465000D02*
X26394300Y-11505000D01*
X26394300Y-11465000D02*
X26354300Y-11505000D01*
D12*
X25842300Y-10800000D02*
G75*
G03*
X25842300Y-10800000I-30000J0D01*
G01*
D10*
X25842300Y-10830000D02*
X25842300Y-10770000D01*
X25782300Y-10830000D02*
X25782300Y-10770000D01*
X25842300Y-10770000D02*
G75*
G03*
X25782300Y-10770000I-30000J0D01*
G01*
X25782300Y-10830000D02*
G75*
G03*
X25842300Y-10830000I30000J0D01*
G01*
D12*
X25842300Y-11218000D02*
G75*
G03*
X25842300Y-11218000I-30000J0D01*
G01*
D10*
X25842300Y-11273000D02*
X25842300Y-11163000D01*
X25782300Y-11273000D02*
X25782300Y-11163000D01*
X25842300Y-11163000D02*
G75*
G03*
X25782300Y-11163000I-30000J0D01*
G01*
X25782300Y-11273000D02*
G75*
G03*
X25842300Y-11273000I30000J0D01*
G01*
D12*
X26706300Y-10800000D02*
G75*
G03*
X26706300Y-10800000I-30000J0D01*
G01*
D10*
X26706300Y-10830000D02*
X26706300Y-10770000D01*
X26646300Y-10830000D02*
X26646300Y-10770000D01*
X26706300Y-10770000D02*
G75*
G03*
X26646300Y-10770000I-30000J0D01*
G01*
X26646300Y-10830000D02*
G75*
G03*
X26706300Y-10830000I30000J0D01*
G01*
D12*
X26706300Y-11218000D02*
G75*
G03*
X26706300Y-11218000I-30000J0D01*
G01*
D10*
X26706300Y-11273000D02*
X26706300Y-11163000D01*
X26646300Y-11273000D02*
X26646300Y-11163000D01*
X26706300Y-11163000D02*
G75*
G03*
X26646300Y-11163000I-30000J0D01*
G01*
X26646300Y-11273000D02*
G75*
G03*
X26706300Y-11273000I30000J0D01*
G01*
D13*
X12410570Y-17157337D02*
X12410570Y-17232337D01*
X12373070Y-17194837D02*
X12448070Y-17194837D01*
X12610570Y-17157337D02*
X12610570Y-17232337D01*
X12573070Y-17194837D02*
X12648070Y-17194837D01*
X12810570Y-17157337D02*
X12810570Y-17232337D01*
X12773070Y-17194837D02*
X12848070Y-17194837D01*
X13010570Y-17157337D02*
X13010570Y-17232337D01*
X12973070Y-17194837D02*
X13048070Y-17194837D01*
X13115700Y-10697400D02*
X13115700Y-10772400D01*
X13078200Y-10734900D02*
X13153200Y-10734900D01*
X13210570Y-17157337D02*
X13210570Y-17232337D01*
X13173070Y-17194837D02*
X13248070Y-17194837D01*
X13315700Y-10697400D02*
X13315700Y-10772400D01*
X13278200Y-10734900D02*
X13353200Y-10734900D01*
X13410570Y-17157337D02*
X13410570Y-17232337D01*
X13373070Y-17194837D02*
X13448070Y-17194837D01*
X14105000Y-10712500D02*
X14105000Y-10787500D01*
X14067500Y-10750000D02*
X14142500Y-10750000D01*
X14105000Y-10912500D02*
X14105000Y-10987500D01*
X14067500Y-10950000D02*
X14142500Y-10950000D01*
X14105000Y-11112500D02*
X14105000Y-11187500D01*
X14067500Y-11150000D02*
X14142500Y-11150000D01*
X14805000Y-10712500D02*
X14805000Y-10787500D01*
X14767500Y-10750000D02*
X14842500Y-10750000D01*
X14805000Y-10912500D02*
X14805000Y-10987500D01*
X14767500Y-10950000D02*
X14842500Y-10950000D01*
X14805000Y-11112500D02*
X14805000Y-11187500D01*
X14767500Y-11150000D02*
X14842500Y-11150000D01*
X15060000Y-17642500D02*
X15060000Y-17717500D01*
X15022500Y-17680000D02*
X15097500Y-17680000D01*
X15260000Y-17642500D02*
X15260000Y-17717500D01*
X15222500Y-17680000D02*
X15297500Y-17680000D01*
X15460000Y-17642500D02*
X15460000Y-17717500D01*
X15422500Y-17680000D02*
X15497500Y-17680000D01*
X16912800Y-18617400D02*
X16912800Y-18692400D01*
X16875300Y-18654900D02*
X16950300Y-18654900D01*
X16912800Y-18817400D02*
X16912800Y-18892400D01*
X16875300Y-18854900D02*
X16950300Y-18854900D01*
X16912800Y-19017400D02*
X16912800Y-19092400D01*
X16875300Y-19054900D02*
X16950300Y-19054900D01*
X17039900Y-17299800D02*
X17039900Y-17374800D01*
X17002400Y-17337300D02*
X17077400Y-17337300D01*
X17039900Y-17499800D02*
X17039900Y-17574800D01*
X17002400Y-17537300D02*
X17077400Y-17537300D01*
X17039900Y-17699800D02*
X17039900Y-17774800D01*
X17002400Y-17737300D02*
X17077400Y-17737300D01*
X17039900Y-17899800D02*
X17039900Y-17974800D01*
X17002400Y-17937300D02*
X17077400Y-17937300D01*
X17039900Y-18099800D02*
X17039900Y-18174800D01*
X17002400Y-18137300D02*
X17077400Y-18137300D01*
X17509200Y-18686200D02*
X17509200Y-18761200D01*
X17471700Y-18723700D02*
X17546700Y-18723700D01*
X17709200Y-18686200D02*
X17709200Y-18761200D01*
X17671700Y-18723700D02*
X17746700Y-18723700D01*
X17830000Y-10602500D02*
X17830000Y-10677500D01*
X17792500Y-10640000D02*
X17867500Y-10640000D01*
X17830000Y-10802500D02*
X17830000Y-10877500D01*
X17792500Y-10840000D02*
X17867500Y-10840000D01*
X17830000Y-11002500D02*
X17830000Y-11077500D01*
X17792500Y-11040000D02*
X17867500Y-11040000D01*
X17830000Y-11202500D02*
X17830000Y-11277500D01*
X17792500Y-11240000D02*
X17867500Y-11240000D01*
X17830000Y-11402500D02*
X17830000Y-11477500D01*
X17792500Y-11440000D02*
X17867500Y-11440000D01*
X17909200Y-18686200D02*
X17909200Y-18761200D01*
X17871700Y-18723700D02*
X17946700Y-18723700D01*
X18109200Y-18686200D02*
X18109200Y-18761200D01*
X18071700Y-18723700D02*
X18146700Y-18723700D01*
X18309200Y-18686200D02*
X18309200Y-18761200D01*
X18271700Y-18723700D02*
X18346700Y-18723700D01*
X18509200Y-18686200D02*
X18509200Y-18761200D01*
X18471700Y-18723700D02*
X18546700Y-18723700D01*
X19254300Y-18887500D02*
X19254300Y-18962500D01*
X19216800Y-18925000D02*
X19291800Y-18925000D01*
X19454300Y-18887500D02*
X19454300Y-18962500D01*
X19416800Y-18925000D02*
X19491800Y-18925000D01*
X19654300Y-18887500D02*
X19654300Y-18962500D01*
X19616800Y-18925000D02*
X19691800Y-18925000D01*
X19770000Y-16737400D02*
X19770000Y-16812400D01*
X19732500Y-16774900D02*
X19807500Y-16774900D01*
X19970000Y-16737400D02*
X19970000Y-16812400D01*
X19932500Y-16774900D02*
X20007500Y-16774900D01*
X20170000Y-16737400D02*
X20170000Y-16812400D01*
X20132500Y-16774900D02*
X20207500Y-16774900D01*
X20370000Y-16737400D02*
X20370000Y-16812400D01*
X20332500Y-16774900D02*
X20407500Y-16774900D01*
X20570000Y-16737400D02*
X20570000Y-16812400D01*
X20532500Y-16774900D02*
X20607500Y-16774900D01*
X20770000Y-16737400D02*
X20770000Y-16812400D01*
X20732500Y-16774900D02*
X20807500Y-16774900D01*
X20845000Y-18587400D02*
X20845000Y-18662400D01*
X20807500Y-18624900D02*
X20882500Y-18624900D01*
X20845000Y-18787400D02*
X20845000Y-18862400D01*
X20807500Y-18824900D02*
X20882500Y-18824900D01*
X20845000Y-18987400D02*
X20845000Y-19062400D01*
X20807500Y-19024900D02*
X20882500Y-19024900D01*
X20915700Y-10607400D02*
X20915700Y-10682400D01*
X20878200Y-10644900D02*
X20953200Y-10644900D01*
X20915700Y-10807400D02*
X20915700Y-10882400D01*
X20878200Y-10844900D02*
X20953200Y-10844900D01*
X20915700Y-11007400D02*
X20915700Y-11082400D01*
X20878200Y-11044900D02*
X20953200Y-11044900D01*
X20915700Y-11207400D02*
X20915700Y-11282400D01*
X20878200Y-11244900D02*
X20953200Y-11244900D01*
X20915700Y-11407400D02*
X20915700Y-11482400D01*
X20878200Y-11444900D02*
X20953200Y-11444900D01*
X20970000Y-16737400D02*
X20970000Y-16812400D01*
X20932500Y-16774900D02*
X21007500Y-16774900D01*
X21170000Y-16737400D02*
X21170000Y-16812400D01*
X21132500Y-16774900D02*
X21207500Y-16774900D01*
X21470000Y-18967400D02*
X21470000Y-19042400D01*
X21432500Y-19004900D02*
X21507500Y-19004900D01*
X21670000Y-18967400D02*
X21670000Y-19042400D01*
X21632500Y-19004900D02*
X21707500Y-19004900D01*
X21870000Y-18967400D02*
X21870000Y-19042400D01*
X21832500Y-19004900D02*
X21907500Y-19004900D01*
X22306000Y-17101400D02*
X22306000Y-17176400D01*
X22268500Y-17138900D02*
X22343500Y-17138900D01*
X22306000Y-17301400D02*
X22306000Y-17376400D01*
X22268500Y-17338900D02*
X22343500Y-17338900D01*
X22306000Y-17501400D02*
X22306000Y-17576400D01*
X22268500Y-17538900D02*
X22343500Y-17538900D01*
X22306000Y-17701400D02*
X22306000Y-17776400D01*
X22268500Y-17738900D02*
X22343500Y-17738900D01*
X22306000Y-17901400D02*
X22306000Y-17976400D01*
X22268500Y-17938900D02*
X22343500Y-17938900D01*
X22306000Y-18101400D02*
X22306000Y-18176400D01*
X22268500Y-18138900D02*
X22343500Y-18138900D01*
X22306000Y-18301400D02*
X22306000Y-18376400D01*
X22268500Y-18338900D02*
X22343500Y-18338900D01*
X22306000Y-18501400D02*
X22306000Y-18576400D01*
X22268500Y-18538900D02*
X22343500Y-18538900D01*
X24827500Y-16446787D02*
X24827500Y-16521787D01*
X24790000Y-16484287D02*
X24865000Y-16484287D01*
X25027500Y-16446787D02*
X25027500Y-16521787D01*
X24990000Y-16484287D02*
X25065000Y-16484287D01*
X25227500Y-16446787D02*
X25227500Y-16521787D01*
X25190000Y-16484287D02*
X25265000Y-16484287D01*
X25526500Y-17122587D02*
X25526500Y-17197587D01*
X25489000Y-17160087D02*
X25564000Y-17160087D01*
X25526500Y-17322587D02*
X25526500Y-17397587D01*
X25489000Y-17360087D02*
X25564000Y-17360087D01*
X25526500Y-17522587D02*
X25526500Y-17597587D01*
X25489000Y-17560087D02*
X25564000Y-17560087D01*
X25526500Y-17722587D02*
X25526500Y-17797587D01*
X25489000Y-17760087D02*
X25564000Y-17760087D01*
X25526500Y-17922587D02*
X25526500Y-17997587D01*
X25489000Y-17960087D02*
X25564000Y-17960087D01*
X25526500Y-18122587D02*
X25526500Y-18197587D01*
X25489000Y-18160087D02*
X25564000Y-18160087D01*
X25526500Y-18322587D02*
X25526500Y-18397587D01*
X25489000Y-18360087D02*
X25564000Y-18360087D01*
X25526500Y-18522587D02*
X25526500Y-18597587D01*
X25489000Y-18560087D02*
X25564000Y-18560087D01*
X25563400Y-15704087D02*
X25563400Y-15779087D01*
X25525900Y-15741587D02*
X25600900Y-15741587D01*
D10*
X25600900Y-15816587D02*
X25600900Y-15666587D01*
X25525900Y-15816587D02*
X25525900Y-15666587D01*
X25600900Y-15666587D02*
G75*
G03*
X25525900Y-15666587I-37500J0D01*
G01*
X25525900Y-15816587D02*
G75*
G03*
X25600900Y-15816587I37500J0D01*
G01*
D13*
X25658937Y-14391386D02*
X25658937Y-14466386D01*
X25621437Y-14428886D02*
X25696437Y-14428886D01*
X25800358Y-14249965D02*
X25800358Y-14324965D01*
X25762858Y-14287465D02*
X25837858Y-14287465D01*
X25844300Y-11902500D02*
X25844300Y-11977500D01*
X25806800Y-11940000D02*
X25881800Y-11940000D01*
X25941779Y-14108543D02*
X25941779Y-14183543D01*
X25904279Y-14146043D02*
X25979279Y-14146043D01*
X25963400Y-15704087D02*
X25963400Y-15779087D01*
X25925900Y-15741587D02*
X26000900Y-15741587D01*
D10*
X26000900Y-15816587D02*
X26000900Y-15666587D01*
X25925900Y-15816587D02*
X25925900Y-15666587D01*
X26000900Y-15666587D02*
G75*
G03*
X25925900Y-15666587I-37500J0D01*
G01*
X25925900Y-15816587D02*
G75*
G03*
X26000900Y-15816587I37500J0D01*
G01*
D13*
X26044300Y-11902500D02*
X26044300Y-11977500D01*
X26006800Y-11940000D02*
X26081800Y-11940000D01*
X26083201Y-13967122D02*
X26083201Y-14042122D01*
X26045701Y-14004622D02*
X26120701Y-14004622D01*
X26224622Y-13825701D02*
X26224622Y-13900701D01*
X26187122Y-13863201D02*
X26262122Y-13863201D01*
X26244300Y-11902500D02*
X26244300Y-11977500D01*
X26206800Y-11940000D02*
X26281800Y-11940000D01*
X26366043Y-13684279D02*
X26366043Y-13759279D01*
X26328543Y-13721779D02*
X26403543Y-13721779D01*
X26444300Y-11902500D02*
X26444300Y-11977500D01*
X26406800Y-11940000D02*
X26481800Y-11940000D01*
X26507465Y-13542858D02*
X26507465Y-13617858D01*
X26469965Y-13580358D02*
X26544965Y-13580358D01*
X26644300Y-11902500D02*
X26644300Y-11977500D01*
X26606800Y-11940000D02*
X26681800Y-11940000D01*
X26648886Y-13401437D02*
X26648886Y-13476437D01*
X26611386Y-13438937D02*
X26686386Y-13438937D01*
D14*
X14633284Y-13128284D02*
X14633284Y-13071715D01*
X14576715Y-13071715D01*
X14576715Y-13128284D01*
X14633284Y-13128284D01*
X14887284Y-13128284D02*
X14887284Y-13071715D01*
X14830715Y-13071715D01*
X14830715Y-13128284D01*
X14887284Y-13128284D01*
X15141284Y-13128284D02*
X15141284Y-13071715D01*
X15084715Y-13071715D01*
X15084715Y-13128284D01*
X15141284Y-13128284D01*
X15395284Y-13128284D02*
X15395284Y-13071715D01*
X15338715Y-13071715D01*
X15338715Y-13128284D01*
X15395284Y-13128284D01*
X15649284Y-13128284D02*
X15649284Y-13071715D01*
X15592715Y-13071715D01*
X15592715Y-13128284D01*
X15649284Y-13128284D01*
X15903284Y-13128284D02*
X15903284Y-13071715D01*
X15846715Y-13071715D01*
X15846715Y-13128284D01*
X15903284Y-13128284D01*
X15994584Y-10858285D02*
X15994584Y-10801716D01*
X15938015Y-10801716D01*
X15938015Y-10858285D01*
X15994584Y-10858285D01*
X16482584Y-10858285D02*
X16482584Y-10801716D01*
X16426015Y-10801716D01*
X16426015Y-10858285D01*
X16482584Y-10858285D01*
X17478685Y-18349785D02*
X17478685Y-18293216D01*
X17422116Y-18293216D01*
X17422116Y-18349785D01*
X17478685Y-18349785D01*
X17732685Y-18349785D02*
X17732685Y-18293216D01*
X17676116Y-18293216D01*
X17676116Y-18349785D01*
X17732685Y-18349785D01*
X17986685Y-18349785D02*
X17986685Y-18293216D01*
X17930116Y-18293216D01*
X17930116Y-18349785D01*
X17986685Y-18349785D01*
X18240685Y-18349785D02*
X18240685Y-18293216D01*
X18184116Y-18293216D01*
X18184116Y-18349785D01*
X18240685Y-18349785D01*
X18494685Y-18349785D02*
X18494685Y-18293216D01*
X18438116Y-18293216D01*
X18438116Y-18349785D01*
X18494685Y-18349785D01*
X18748685Y-18349785D02*
X18748685Y-18293216D01*
X18692116Y-18293216D01*
X18692116Y-18349785D01*
X18748685Y-18349785D01*
X19155085Y-18425985D02*
X19155085Y-18369416D01*
X19098516Y-18369416D01*
X19098516Y-18425985D01*
X19155085Y-18425985D01*
X19409085Y-18425985D02*
X19409085Y-18369416D01*
X19352516Y-18369416D01*
X19352516Y-18425985D01*
X19409085Y-18425985D01*
X19663085Y-18425985D02*
X19663085Y-18369416D01*
X19606516Y-18369416D01*
X19606516Y-18425985D01*
X19663085Y-18425985D01*
X19866285Y-17130585D02*
X19866285Y-17074016D01*
X19809716Y-17074016D01*
X19809716Y-17130585D01*
X19866285Y-17130585D01*
X19917085Y-18425985D02*
X19917085Y-18369416D01*
X19860516Y-18369416D01*
X19860516Y-18425985D01*
X19917085Y-18425985D01*
X20120285Y-17130585D02*
X20120285Y-17074016D01*
X20063716Y-17074016D01*
X20063716Y-17130585D01*
X20120285Y-17130585D01*
X20171085Y-18425985D02*
X20171085Y-18369416D01*
X20114516Y-18369416D01*
X20114516Y-18425985D01*
X20171085Y-18425985D01*
X20373685Y-13186684D02*
X20373685Y-13130115D01*
X20317116Y-13130115D01*
X20317116Y-13186684D01*
X20373685Y-13186684D01*
X20373685Y-13440684D02*
X20373685Y-13384115D01*
X20317116Y-13384115D01*
X20317116Y-13440684D01*
X20373685Y-13440684D01*
X20373685Y-13694684D02*
X20373685Y-13638115D01*
X20317116Y-13638115D01*
X20317116Y-13694684D01*
X20373685Y-13694684D01*
X20373685Y-13948684D02*
X20373685Y-13892115D01*
X20317116Y-13892115D01*
X20317116Y-13948684D01*
X20373685Y-13948684D01*
X20373685Y-14202684D02*
X20373685Y-14146115D01*
X20317116Y-14146115D01*
X20317116Y-14202684D01*
X20373685Y-14202684D01*
X20373685Y-14456684D02*
X20373685Y-14400115D01*
X20317116Y-14400115D01*
X20317116Y-14456684D01*
X20373685Y-14456684D01*
X20374285Y-17130585D02*
X20374285Y-17074016D01*
X20317716Y-17074016D01*
X20317716Y-17130585D01*
X20374285Y-17130585D01*
X20425085Y-18425985D02*
X20425085Y-18369416D01*
X20368516Y-18369416D01*
X20368516Y-18425985D01*
X20425085Y-18425985D01*
X20628285Y-17130585D02*
X20628285Y-17074016D01*
X20571716Y-17074016D01*
X20571716Y-17130585D01*
X20628285Y-17130585D01*
X20882285Y-17130585D02*
X20882285Y-17074016D01*
X20825716Y-17074016D01*
X20825716Y-17130585D01*
X20882285Y-17130585D01*
X21136285Y-17130585D02*
X21136285Y-17074016D01*
X21079716Y-17074016D01*
X21079716Y-17130585D01*
X21136285Y-17130585D01*
X21832585Y-17257585D02*
X21832585Y-17201016D01*
X21776016Y-17201016D01*
X21776016Y-17257585D01*
X21832585Y-17257585D01*
X21832585Y-17511585D02*
X21832585Y-17455016D01*
X21776016Y-17455016D01*
X21776016Y-17511585D01*
X21832585Y-17511585D01*
X21832585Y-17765585D02*
X21832585Y-17709016D01*
X21776016Y-17709016D01*
X21776016Y-17765585D01*
X21832585Y-17765585D01*
X21832585Y-18019585D02*
X21832585Y-17963016D01*
X21776016Y-17963016D01*
X21776016Y-18019585D01*
X21832585Y-18019585D01*
X21832585Y-18273585D02*
X21832585Y-18217016D01*
X21776016Y-18217016D01*
X21776016Y-18273585D01*
X21832585Y-18273585D01*
X21832585Y-18527585D02*
X21832585Y-18471016D01*
X21776016Y-18471016D01*
X21776016Y-18527585D01*
X21832585Y-18527585D01*
D15*
X12310000Y-14457500D02*
X12360000Y-14407500D01*
X12310000Y-14357500D01*
X12260000Y-14407500D01*
X12310000Y-14457500D01*
X12310000Y-14711500D02*
X12360000Y-14661500D01*
X12310000Y-14611500D01*
X12260000Y-14661500D01*
X12310000Y-14711500D01*
X12310000Y-14965500D02*
X12360000Y-14915500D01*
X12310000Y-14865500D01*
X12260000Y-14915500D01*
X12310000Y-14965500D01*
X13550000Y-14026000D02*
X13600000Y-13976000D01*
X13550000Y-13926000D01*
X13500000Y-13976000D01*
X13550000Y-14026000D01*
X13550000Y-15550000D02*
X13600000Y-15500000D01*
X13550000Y-15450000D01*
X13500000Y-15500000D01*
X13550000Y-15550000D01*
X13564050Y-14457500D02*
X13614050Y-14407500D01*
X13564050Y-14357500D01*
X13514050Y-14407500D01*
X13564050Y-14457500D01*
X13564050Y-14711500D02*
X13614050Y-14661500D01*
X13564050Y-14611500D01*
X13514050Y-14661500D01*
X13564050Y-14711500D01*
X13564050Y-14965500D02*
X13614050Y-14915500D01*
X13564050Y-14865500D01*
X13514050Y-14915500D01*
X13564050Y-14965500D01*
X13804000Y-14026000D02*
X13854000Y-13976000D01*
X13804000Y-13926000D01*
X13754000Y-13976000D01*
X13804000Y-14026000D01*
X13804000Y-15550000D02*
X13854000Y-15500000D01*
X13804000Y-15450000D01*
X13754000Y-15500000D01*
X13804000Y-15550000D01*
X14058000Y-14026000D02*
X14108000Y-13976000D01*
X14058000Y-13926000D01*
X14008000Y-13976000D01*
X14058000Y-14026000D01*
X14058000Y-15550000D02*
X14108000Y-15500000D01*
X14058000Y-15450000D01*
X14008000Y-15500000D01*
X14058000Y-15550000D01*
X14312000Y-14026000D02*
X14362000Y-13976000D01*
X14312000Y-13926000D01*
X14262000Y-13976000D01*
X14312000Y-14026000D01*
X14312000Y-15550000D02*
X14362000Y-15500000D01*
X14312000Y-15450000D01*
X14262000Y-15500000D01*
X14312000Y-15550000D01*
X14566000Y-14026000D02*
X14616000Y-13976000D01*
X14566000Y-13926000D01*
X14516000Y-13976000D01*
X14566000Y-14026000D01*
X14566000Y-15550000D02*
X14616000Y-15500000D01*
X14566000Y-15450000D01*
X14516000Y-15500000D01*
X14566000Y-15550000D01*
X14818100Y-14457500D02*
X14868100Y-14407500D01*
X14818100Y-14357500D01*
X14768100Y-14407500D01*
X14818100Y-14457500D01*
X14818100Y-14711500D02*
X14868100Y-14661500D01*
X14818100Y-14611500D01*
X14768100Y-14661500D01*
X14818100Y-14711500D01*
X14818100Y-14965500D02*
X14868100Y-14915500D01*
X14818100Y-14865500D01*
X14768100Y-14915500D01*
X14818100Y-14965500D01*
X14820000Y-14026000D02*
X14870000Y-13976000D01*
X14820000Y-13926000D01*
X14770000Y-13976000D01*
X14820000Y-14026000D01*
X14820000Y-15550000D02*
X14870000Y-15500000D01*
X14820000Y-15450000D01*
X14770000Y-15500000D01*
X14820000Y-15550000D01*
X15074000Y-14026000D02*
X15124000Y-13976000D01*
X15074000Y-13926000D01*
X15024000Y-13976000D01*
X15074000Y-14026000D01*
X15074000Y-15550000D02*
X15124000Y-15500000D01*
X15074000Y-15450000D01*
X15024000Y-15500000D01*
X15074000Y-15550000D01*
X15328000Y-14026000D02*
X15378000Y-13976000D01*
X15328000Y-13926000D01*
X15278000Y-13976000D01*
X15328000Y-14026000D01*
X15328000Y-15550000D02*
X15378000Y-15500000D01*
X15328000Y-15450000D01*
X15278000Y-15500000D01*
X15328000Y-15550000D01*
X15582000Y-14026000D02*
X15632000Y-13976000D01*
X15582000Y-13926000D01*
X15532000Y-13976000D01*
X15582000Y-14026000D01*
X15582000Y-15550000D02*
X15632000Y-15500000D01*
X15582000Y-15450000D01*
X15532000Y-15500000D01*
X15582000Y-15550000D01*
X15836000Y-14026000D02*
X15886000Y-13976000D01*
X15836000Y-13926000D01*
X15786000Y-13976000D01*
X15836000Y-14026000D01*
X15836000Y-15550000D02*
X15886000Y-15500000D01*
X15836000Y-15450000D01*
X15786000Y-15500000D01*
X15836000Y-15550000D01*
X16090000Y-14026000D02*
X16140000Y-13976000D01*
X16090000Y-13926000D01*
X16040000Y-13976000D01*
X16090000Y-14026000D01*
X16090000Y-15550000D02*
X16140000Y-15500000D01*
X16090000Y-15450000D01*
X16040000Y-15500000D01*
X16090000Y-15550000D01*
X16344000Y-14026000D02*
X16394000Y-13976000D01*
X16344000Y-13926000D01*
X16294000Y-13976000D01*
X16344000Y-14026000D01*
X16344000Y-15550000D02*
X16394000Y-15500000D01*
X16344000Y-15450000D01*
X16294000Y-15500000D01*
X16344000Y-15550000D01*
X16598000Y-14026000D02*
X16648000Y-13976000D01*
X16598000Y-13926000D01*
X16548000Y-13976000D01*
X16598000Y-14026000D01*
X16598000Y-15550000D02*
X16648000Y-15500000D01*
X16598000Y-15450000D01*
X16548000Y-15500000D01*
X16598000Y-15550000D01*
X16852000Y-14026000D02*
X16902000Y-13976000D01*
X16852000Y-13926000D01*
X16802000Y-13976000D01*
X16852000Y-14026000D01*
X16852000Y-15550000D02*
X16902000Y-15500000D01*
X16852000Y-15450000D01*
X16802000Y-15500000D01*
X16852000Y-15550000D01*
X17106000Y-14026000D02*
X17156000Y-13976000D01*
X17106000Y-13926000D01*
X17056000Y-13976000D01*
X17106000Y-14026000D01*
X17106000Y-15550000D02*
X17156000Y-15500000D01*
X17106000Y-15450000D01*
X17056000Y-15500000D01*
X17106000Y-15550000D01*
X17360000Y-14026000D02*
X17410000Y-13976000D01*
X17360000Y-13926000D01*
X17310000Y-13976000D01*
X17360000Y-14026000D01*
X17360000Y-15550000D02*
X17410000Y-15500000D01*
X17360000Y-15450000D01*
X17310000Y-15500000D01*
X17360000Y-15550000D01*
X17614000Y-14026000D02*
X17664000Y-13976000D01*
X17614000Y-13926000D01*
X17564000Y-13976000D01*
X17614000Y-14026000D01*
X17614000Y-15550000D02*
X17664000Y-15500000D01*
X17614000Y-15450000D01*
X17564000Y-15500000D01*
X17614000Y-15550000D01*
X17868000Y-14026000D02*
X17918000Y-13976000D01*
X17868000Y-13926000D01*
X17818000Y-13976000D01*
X17868000Y-14026000D01*
X17868000Y-15550000D02*
X17918000Y-15500000D01*
X17868000Y-15450000D01*
X17818000Y-15500000D01*
X17868000Y-15550000D01*
X18122000Y-14026000D02*
X18172000Y-13976000D01*
X18122000Y-13926000D01*
X18072000Y-13976000D01*
X18122000Y-14026000D01*
X18122000Y-15550000D02*
X18172000Y-15500000D01*
X18122000Y-15450000D01*
X18072000Y-15500000D01*
X18122000Y-15550000D01*
X18376000Y-14026000D02*
X18426000Y-13976000D01*
X18376000Y-13926000D01*
X18326000Y-13976000D01*
X18376000Y-14026000D01*
X18376000Y-15550000D02*
X18426000Y-15500000D01*
X18376000Y-15450000D01*
X18326000Y-15500000D01*
X18376000Y-15550000D01*
X25325020Y-13787420D02*
X25375020Y-13737420D01*
X25325020Y-13687420D01*
X25275020Y-13737420D01*
X25325020Y-13787420D01*
X25325020Y-14087420D02*
X25375020Y-14037420D01*
X25325020Y-13987420D01*
X25275020Y-14037420D01*
X25325020Y-14087420D01*
X25955020Y-13157420D02*
X26005020Y-13107420D01*
X25955020Y-13057420D01*
X25905020Y-13107420D01*
X25955020Y-13157420D01*
X25955020Y-14717420D02*
X26005020Y-14667420D01*
X25955020Y-14617420D01*
X25905020Y-14667420D01*
X25955020Y-14717420D01*
X26005020Y-13359420D02*
X26055020Y-13309420D01*
X26005020Y-13259420D01*
X25955020Y-13309420D01*
X26005020Y-13359420D01*
X26205020Y-14637420D02*
X26255020Y-14587420D01*
X26205020Y-14537420D01*
X26155020Y-14587420D01*
X26205020Y-14637420D01*
X26245020Y-13157420D02*
X26295020Y-13107420D01*
X26245020Y-13057420D01*
X26195020Y-13107420D01*
X26245020Y-13157420D01*
X26518400Y-16878587D02*
X26568400Y-16828587D01*
X26518400Y-16778587D01*
X26468400Y-16828587D01*
X26518400Y-16878587D01*
X26768400Y-16878587D02*
X26818400Y-16828587D01*
X26768400Y-16778587D01*
X26718400Y-16828587D01*
X26768400Y-16878587D01*
X26791020Y-14312420D02*
X26841020Y-14262420D01*
X26791020Y-14212420D01*
X26741020Y-14262420D01*
X26791020Y-14312420D01*
X26885020Y-13787420D02*
X26935020Y-13737420D01*
X26885020Y-13687420D01*
X26835020Y-13737420D01*
X26885020Y-13787420D01*
X26885020Y-14087420D02*
X26935020Y-14037420D01*
X26885020Y-13987420D01*
X26835020Y-14037420D01*
X26885020Y-14087420D01*
X27018400Y-16878587D02*
X27068400Y-16828587D01*
X27018400Y-16778587D01*
X26968400Y-16828587D01*
X27018400Y-16878587D01*
X27641400Y-17501587D02*
X27691400Y-17451587D01*
X27641400Y-17401587D01*
X27591400Y-17451587D01*
X27641400Y-17501587D01*
X27641400Y-17751587D02*
X27691400Y-17701587D01*
X27641400Y-17651587D01*
X27591400Y-17701587D01*
X27641400Y-17751587D01*
X27641400Y-18001587D02*
X27691400Y-17951587D01*
X27641400Y-17901587D01*
X27591400Y-17951587D01*
X27641400Y-18001587D01*
D16*
X16920000Y-12150000D02*
X17030000Y-12260000D01*
X17030000Y-12150000D02*
X16920000Y-12260000D01*
X17030000Y-12205000D02*
G75*
G03*
X17030000Y-12205000I-55000J0D01*
G01*
X16920000Y-12600000D02*
X17030000Y-12710000D01*
X17030000Y-12600000D02*
X16920000Y-12710000D01*
X17030000Y-12655000D02*
G75*
G03*
X17030000Y-12655000I-55000J0D01*
G01*
X17570000Y-12150000D02*
X17680000Y-12260000D01*
X17680000Y-12150000D02*
X17570000Y-12260000D01*
X17680000Y-12205000D02*
G75*
G03*
X17680000Y-12205000I-55000J0D01*
G01*
X17570000Y-12600000D02*
X17680000Y-12710000D01*
X17680000Y-12600000D02*
X17570000Y-12710000D01*
X17680000Y-12655000D02*
G75*
G03*
X17680000Y-12655000I-55000J0D01*
G01*
D17*
X14585000Y-16658579D02*
X14705000Y-16778579D01*
X14705000Y-16658579D02*
X14585000Y-16778579D01*
X14645000Y-16658579D02*
X14645000Y-16778579D01*
X14585000Y-16718579D02*
X14705000Y-16718579D01*
X14585000Y-17158579D02*
X14705000Y-17278579D01*
X14705000Y-17158579D02*
X14585000Y-17278579D01*
X14645000Y-17158579D02*
X14645000Y-17278579D01*
X14585000Y-17218579D02*
X14705000Y-17218579D01*
X14585000Y-18110000D02*
X14705000Y-18230000D01*
X14705000Y-18110000D02*
X14585000Y-18230000D01*
X14645000Y-18110000D02*
X14645000Y-18230000D01*
X14585000Y-18170000D02*
X14705000Y-18170000D01*
X14585000Y-18610000D02*
X14705000Y-18730000D01*
X14705000Y-18610000D02*
X14585000Y-18730000D01*
X14645000Y-18610000D02*
X14645000Y-18730000D01*
X14585000Y-18670000D02*
X14705000Y-18670000D01*
X15835000Y-16658579D02*
X15955000Y-16778579D01*
X15955000Y-16658579D02*
X15835000Y-16778579D01*
X15895000Y-16658579D02*
X15895000Y-16778579D01*
X15835000Y-16718579D02*
X15955000Y-16718579D01*
X15835000Y-17158579D02*
X15955000Y-17278579D01*
X15955000Y-17158579D02*
X15835000Y-17278579D01*
X15895000Y-17158579D02*
X15895000Y-17278579D01*
X15835000Y-17218579D02*
X15955000Y-17218579D01*
X15835000Y-18110000D02*
X15955000Y-18230000D01*
X15955000Y-18110000D02*
X15835000Y-18230000D01*
X15895000Y-18110000D02*
X15895000Y-18230000D01*
X15835000Y-18170000D02*
X15955000Y-18170000D01*
X15835000Y-18610000D02*
X15955000Y-18730000D01*
X15955000Y-18610000D02*
X15835000Y-18730000D01*
X15895000Y-18610000D02*
X15895000Y-18730000D01*
X15835000Y-18670000D02*
X15955000Y-18670000D01*
X23633400Y-17465587D02*
X23753400Y-17585587D01*
X23753400Y-17465587D02*
X23633400Y-17585587D01*
X23693400Y-17465587D02*
X23693400Y-17585587D01*
X23633400Y-17525587D02*
X23753400Y-17525587D01*
X23633400Y-17965587D02*
X23753400Y-18085587D01*
X23753400Y-17965587D02*
X23633400Y-18085587D01*
X23693400Y-17965587D02*
X23693400Y-18085587D01*
X23633400Y-18025587D02*
X23753400Y-18025587D01*
X24883400Y-17465587D02*
X25003400Y-17585587D01*
X25003400Y-17465587D02*
X24883400Y-17585587D01*
X24943400Y-17465587D02*
X24943400Y-17585587D01*
X24883400Y-17525587D02*
X25003400Y-17525587D01*
X24883400Y-17965587D02*
X25003400Y-18085587D01*
X25003400Y-17965587D02*
X24883400Y-18085587D01*
X24943400Y-17965587D02*
X24943400Y-18085587D01*
X24883400Y-18025587D02*
X25003400Y-18025587D01*
D18*
X12177500Y-12723600D02*
X12317500Y-12863600D01*
X12317500Y-12723600D02*
X12177500Y-12863600D01*
X12296998Y-12843098D02*
X12296998Y-12744102D01*
X12198002Y-12744102D01*
X12198002Y-12843098D01*
X12296998Y-12843098D01*
X13626400Y-12542100D02*
X13766400Y-12682100D01*
X13766400Y-12542100D02*
X13626400Y-12682100D01*
X13745898Y-12661598D02*
X13745898Y-12562602D01*
X13646902Y-12562602D01*
X13646902Y-12661598D01*
X13745898Y-12661598D01*
X14010000Y-13218600D02*
X14150000Y-13358600D01*
X14150000Y-13218600D02*
X14010000Y-13358600D01*
X14129498Y-13338098D02*
X14129498Y-13239102D01*
X14030502Y-13239102D01*
X14030502Y-13338098D01*
X14129498Y-13338098D01*
X14017000Y-11660600D02*
X14157000Y-11800600D01*
X14157000Y-11660600D02*
X14017000Y-11800600D01*
X14136498Y-11780098D02*
X14136498Y-11681102D01*
X14037502Y-11681102D01*
X14037502Y-11780098D01*
X14136498Y-11780098D01*
X14302500Y-12153600D02*
X14442500Y-12293600D01*
X14442500Y-12153600D02*
X14302500Y-12293600D01*
X14421998Y-12273098D02*
X14421998Y-12174102D01*
X14323002Y-12174102D01*
X14323002Y-12273098D01*
X14421998Y-12273098D01*
X14302500Y-12723600D02*
X14442500Y-12863600D01*
X14442500Y-12723600D02*
X14302500Y-12863600D01*
X14421998Y-12843098D02*
X14421998Y-12744102D01*
X14323002Y-12744102D01*
X14323002Y-12843098D01*
X14421998Y-12843098D01*
D19*
X18987000Y-12346800D02*
X19137000Y-12496800D01*
X19137000Y-12346800D02*
X18987000Y-12496800D01*
X19062000Y-12496800D02*
X19137000Y-12421800D01*
X19062000Y-12346800D01*
X18987000Y-12421800D01*
X19062000Y-12496800D01*
X18987000Y-14302600D02*
X19137000Y-14452600D01*
X19137000Y-14302600D02*
X18987000Y-14452600D01*
X19062000Y-14452600D02*
X19137000Y-14377600D01*
X19062000Y-14302600D01*
X18987000Y-14377600D01*
X19062000Y-14452600D01*
X19622000Y-12600800D02*
X19772000Y-12750800D01*
X19772000Y-12600800D02*
X19622000Y-12750800D01*
X19697000Y-12750800D02*
X19772000Y-12675800D01*
X19697000Y-12600800D01*
X19622000Y-12675800D01*
X19697000Y-12750800D01*
X19622000Y-14556600D02*
X19772000Y-14706600D01*
X19772000Y-14556600D02*
X19622000Y-14706600D01*
X19697000Y-14706600D02*
X19772000Y-14631600D01*
X19697000Y-14556600D01*
X19622000Y-14631600D01*
X19697000Y-14706600D01*
X21007000Y-12346800D02*
X21157000Y-12496800D01*
X21157000Y-12346800D02*
X21007000Y-12496800D01*
X21082000Y-12496800D02*
X21157000Y-12421800D01*
X21082000Y-12346800D01*
X21007000Y-12421800D01*
X21082000Y-12496800D01*
X21007000Y-14302600D02*
X21157000Y-14452600D01*
X21157000Y-14302600D02*
X21007000Y-14452600D01*
X21082000Y-14452600D02*
X21157000Y-14377600D01*
X21082000Y-14302600D01*
X21007000Y-14377600D01*
X21082000Y-14452600D01*
X21642000Y-12600800D02*
X21792000Y-12750800D01*
X21792000Y-12600800D02*
X21642000Y-12750800D01*
X21717000Y-12750800D02*
X21792000Y-12675800D01*
X21717000Y-12600800D01*
X21642000Y-12675800D01*
X21717000Y-12750800D01*
X21642000Y-14556600D02*
X21792000Y-14706600D01*
X21792000Y-14556600D02*
X21642000Y-14706600D01*
X21717000Y-14706600D02*
X21792000Y-14631600D01*
X21717000Y-14556600D01*
X21642000Y-14631600D01*
X21717000Y-14706600D01*
X23027000Y-12346800D02*
X23177000Y-12496800D01*
X23177000Y-12346800D02*
X23027000Y-12496800D01*
X23102000Y-12496800D02*
X23177000Y-12421800D01*
X23102000Y-12346800D01*
X23027000Y-12421800D01*
X23102000Y-12496800D01*
X23027000Y-14302600D02*
X23177000Y-14452600D01*
X23177000Y-14302600D02*
X23027000Y-14452600D01*
X23102000Y-14452600D02*
X23177000Y-14377600D01*
X23102000Y-14302600D01*
X23027000Y-14377600D01*
X23102000Y-14452600D01*
X23662000Y-12600800D02*
X23812000Y-12750800D01*
X23812000Y-12600800D02*
X23662000Y-12750800D01*
X23737000Y-12750800D02*
X23812000Y-12675800D01*
X23737000Y-12600800D01*
X23662000Y-12675800D01*
X23737000Y-12750800D01*
X23662000Y-14556600D02*
X23812000Y-14706600D01*
X23812000Y-14556600D02*
X23662000Y-14706600D01*
X23737000Y-14706600D02*
X23812000Y-14631600D01*
X23737000Y-14556600D01*
X23662000Y-14631600D01*
X23737000Y-14706600D01*
D10*
X11947619Y-20972046D02*
X11947619Y-20772046D01*
X11995238Y-20772046D01*
X12023809Y-20781570D01*
X12042857Y-20800618D01*
X12052381Y-20819665D01*
X12061905Y-20857760D01*
X12061905Y-20886332D01*
X12052381Y-20924427D01*
X12042857Y-20943475D01*
X12023809Y-20962522D01*
X11995238Y-20972046D01*
X11947619Y-20972046D01*
X12147619Y-20972046D02*
X12147619Y-20838713D01*
X12147619Y-20876808D02*
X12157143Y-20857760D01*
X12166667Y-20848237D01*
X12185714Y-20838713D01*
X12204762Y-20838713D01*
X12271428Y-20972046D02*
X12271428Y-20838713D01*
X12271428Y-20772046D02*
X12261905Y-20781570D01*
X12271428Y-20791094D01*
X12280952Y-20781570D01*
X12271428Y-20772046D01*
X12271428Y-20791094D01*
X12395238Y-20972046D02*
X12376190Y-20962522D01*
X12366667Y-20943475D01*
X12366667Y-20772046D01*
X12500000Y-20972046D02*
X12480952Y-20962522D01*
X12471428Y-20943475D01*
X12471428Y-20772046D01*
X12728571Y-20972046D02*
X12728571Y-20772046D01*
X12795238Y-20914903D01*
X12861905Y-20772046D01*
X12861905Y-20972046D01*
X13042857Y-20972046D02*
X13042857Y-20867284D01*
X13033333Y-20848237D01*
X13014286Y-20838713D01*
X12976190Y-20838713D01*
X12957143Y-20848237D01*
X13042857Y-20962522D02*
X13023809Y-20972046D01*
X12976190Y-20972046D01*
X12957143Y-20962522D01*
X12947619Y-20943475D01*
X12947619Y-20924427D01*
X12957143Y-20905380D01*
X12976190Y-20895856D01*
X13023809Y-20895856D01*
X13042857Y-20886332D01*
X13138095Y-20838713D02*
X13138095Y-21038713D01*
X13138095Y-20848237D02*
X13157143Y-20838713D01*
X13195238Y-20838713D01*
X13214286Y-20848237D01*
X13223809Y-20857760D01*
X13233333Y-20876808D01*
X13233333Y-20933951D01*
X13223809Y-20952999D01*
X13214286Y-20962522D01*
X13195238Y-20972046D01*
X13157143Y-20972046D01*
X13138095Y-20962522D01*
X13319048Y-20952999D02*
X13328571Y-20962522D01*
X13319048Y-20972046D01*
X13309524Y-20962522D01*
X13319048Y-20952999D01*
X13319048Y-20972046D01*
X13319048Y-20848237D02*
X13328571Y-20857760D01*
X13319048Y-20867284D01*
X13309524Y-20857760D01*
X13319048Y-20848237D01*
X13319048Y-20867284D01*
D11*
X11650000Y-21281570D02*
X11690000Y-21321570D01*
X11690000Y-21281570D02*
X11650000Y-21321570D01*
D10*
X11985714Y-21192046D02*
X12004762Y-21192046D01*
X12023809Y-21201570D01*
X12033333Y-21211094D01*
X12042857Y-21230141D01*
X12052381Y-21268237D01*
X12052381Y-21315856D01*
X12042857Y-21353951D01*
X12033333Y-21372999D01*
X12023809Y-21382522D01*
X12004762Y-21392046D01*
X11985714Y-21392046D01*
X11966667Y-21382522D01*
X11957143Y-21372999D01*
X11947619Y-21353951D01*
X11938095Y-21315856D01*
X11938095Y-21268237D01*
X11947619Y-21230141D01*
X11957143Y-21211094D01*
X11966667Y-21201570D01*
X11985714Y-21192046D01*
X12138095Y-21372999D02*
X12147619Y-21382522D01*
X12138095Y-21392046D01*
X12128571Y-21382522D01*
X12138095Y-21372999D01*
X12138095Y-21392046D01*
X12319048Y-21258713D02*
X12319048Y-21392046D01*
X12271428Y-21182522D02*
X12223809Y-21325380D01*
X12347619Y-21325380D01*
X12461905Y-21192046D02*
X12480952Y-21192046D01*
X12500000Y-21201570D01*
X12509524Y-21211094D01*
X12519048Y-21230141D01*
X12528571Y-21268237D01*
X12528571Y-21315856D01*
X12519048Y-21353951D01*
X12509524Y-21372999D01*
X12500000Y-21382522D01*
X12480952Y-21392046D01*
X12461905Y-21392046D01*
X12442857Y-21382522D01*
X12433333Y-21372999D01*
X12423809Y-21353951D01*
X12414286Y-21315856D01*
X12414286Y-21268237D01*
X12423809Y-21230141D01*
X12433333Y-21211094D01*
X12442857Y-21201570D01*
X12461905Y-21192046D01*
X12652381Y-21192046D02*
X12671428Y-21192046D01*
X12690476Y-21201570D01*
X12700000Y-21211094D01*
X12709524Y-21230141D01*
X12719048Y-21268237D01*
X12719048Y-21315856D01*
X12709524Y-21353951D01*
X12700000Y-21372999D01*
X12690476Y-21382522D01*
X12671428Y-21392046D01*
X12652381Y-21392046D01*
X12633333Y-21382522D01*
X12623809Y-21372999D01*
X12614286Y-21353951D01*
X12604762Y-21315856D01*
X12604762Y-21268237D01*
X12614286Y-21230141D01*
X12623809Y-21211094D01*
X12633333Y-21201570D01*
X12652381Y-21192046D01*
X12804762Y-21392046D02*
X12804762Y-21258713D01*
X12804762Y-21277760D02*
X12814286Y-21268237D01*
X12833333Y-21258713D01*
X12861905Y-21258713D01*
X12880952Y-21268237D01*
X12890476Y-21287284D01*
X12890476Y-21392046D01*
X12890476Y-21287284D02*
X12900000Y-21268237D01*
X12919048Y-21258713D01*
X12947619Y-21258713D01*
X12966667Y-21268237D01*
X12976190Y-21287284D01*
X12976190Y-21392046D01*
X13071428Y-21392046D02*
X13071428Y-21258713D01*
X13071428Y-21277760D02*
X13080952Y-21268237D01*
X13100000Y-21258713D01*
X13128571Y-21258713D01*
X13147619Y-21268237D01*
X13157143Y-21287284D01*
X13157143Y-21392046D01*
X13157143Y-21287284D02*
X13166667Y-21268237D01*
X13185714Y-21258713D01*
X13214286Y-21258713D01*
X13233333Y-21268237D01*
X13242857Y-21287284D01*
X13242857Y-21392046D01*
X13633333Y-21182522D02*
X13461905Y-21439665D01*
X13890476Y-21192046D02*
X13909524Y-21192046D01*
X13928571Y-21201570D01*
X13938095Y-21211094D01*
X13947619Y-21230141D01*
X13957143Y-21268237D01*
X13957143Y-21315856D01*
X13947619Y-21353951D01*
X13938095Y-21372999D01*
X13928571Y-21382522D01*
X13909524Y-21392046D01*
X13890476Y-21392046D01*
X13871428Y-21382522D01*
X13861905Y-21372999D01*
X13852381Y-21353951D01*
X13842857Y-21315856D01*
X13842857Y-21268237D01*
X13852381Y-21230141D01*
X13861905Y-21211094D01*
X13871428Y-21201570D01*
X13890476Y-21192046D01*
X14042857Y-21372999D02*
X14052381Y-21382522D01*
X14042857Y-21392046D01*
X14033333Y-21382522D01*
X14042857Y-21372999D01*
X14042857Y-21392046D01*
X14176190Y-21192046D02*
X14195238Y-21192046D01*
X14214286Y-21201570D01*
X14223809Y-21211094D01*
X14233333Y-21230141D01*
X14242857Y-21268237D01*
X14242857Y-21315856D01*
X14233333Y-21353951D01*
X14223809Y-21372999D01*
X14214286Y-21382522D01*
X14195238Y-21392046D01*
X14176190Y-21392046D01*
X14157143Y-21382522D01*
X14147619Y-21372999D01*
X14138095Y-21353951D01*
X14128571Y-21315856D01*
X14128571Y-21268237D01*
X14138095Y-21230141D01*
X14147619Y-21211094D01*
X14157143Y-21201570D01*
X14176190Y-21192046D01*
X14433333Y-21392046D02*
X14319048Y-21392046D01*
X14376190Y-21392046D02*
X14376190Y-21192046D01*
X14357143Y-21220618D01*
X14338095Y-21239665D01*
X14319048Y-21249189D01*
X14614286Y-21192046D02*
X14519048Y-21192046D01*
X14509524Y-21287284D01*
X14519048Y-21277760D01*
X14538095Y-21268237D01*
X14585714Y-21268237D01*
X14604762Y-21277760D01*
X14614286Y-21287284D01*
X14623809Y-21306332D01*
X14623809Y-21353951D01*
X14614286Y-21372999D01*
X14604762Y-21382522D01*
X14585714Y-21392046D01*
X14538095Y-21392046D01*
X14519048Y-21382522D01*
X14509524Y-21372999D01*
X14690476Y-21192046D02*
X14823809Y-21192046D01*
X14738095Y-21392046D01*
X14890476Y-21192046D02*
X14890476Y-21230141D01*
X14966667Y-21192046D02*
X14966667Y-21230141D01*
X15261905Y-21468237D02*
X15252381Y-21458713D01*
X15233333Y-21430141D01*
X15223809Y-21411094D01*
X15214286Y-21382522D01*
X15204762Y-21334903D01*
X15204762Y-21296808D01*
X15214286Y-21249189D01*
X15223809Y-21220618D01*
X15233333Y-21201570D01*
X15252381Y-21172999D01*
X15261905Y-21163475D01*
X15328571Y-21211094D02*
X15338095Y-21201570D01*
X15357143Y-21192046D01*
X15404762Y-21192046D01*
X15423809Y-21201570D01*
X15433333Y-21211094D01*
X15442857Y-21230141D01*
X15442857Y-21249189D01*
X15433333Y-21277760D01*
X15319048Y-21392046D01*
X15442857Y-21392046D01*
X15633333Y-21392046D02*
X15519048Y-21392046D01*
X15576190Y-21392046D02*
X15576190Y-21192046D01*
X15557143Y-21220618D01*
X15538095Y-21239665D01*
X15519048Y-21249189D01*
X15804762Y-21192046D02*
X15766667Y-21192046D01*
X15747619Y-21201570D01*
X15738095Y-21211094D01*
X15719048Y-21239665D01*
X15709524Y-21277760D01*
X15709524Y-21353951D01*
X15719048Y-21372999D01*
X15728571Y-21382522D01*
X15747619Y-21392046D01*
X15785714Y-21392046D01*
X15804762Y-21382522D01*
X15814286Y-21372999D01*
X15823809Y-21353951D01*
X15823809Y-21306332D01*
X15814286Y-21287284D01*
X15804762Y-21277760D01*
X15785714Y-21268237D01*
X15747619Y-21268237D01*
X15728571Y-21277760D01*
X15719048Y-21287284D01*
X15709524Y-21306332D01*
X16061905Y-21392046D02*
X16061905Y-21192046D01*
X16147619Y-21392046D02*
X16147619Y-21287284D01*
X16138095Y-21268237D01*
X16119048Y-21258713D01*
X16090476Y-21258713D01*
X16071428Y-21268237D01*
X16061905Y-21277760D01*
X16271428Y-21392046D02*
X16252381Y-21382522D01*
X16242857Y-21372999D01*
X16233333Y-21353951D01*
X16233333Y-21296808D01*
X16242857Y-21277760D01*
X16252381Y-21268237D01*
X16271428Y-21258713D01*
X16300000Y-21258713D01*
X16319048Y-21268237D01*
X16328571Y-21277760D01*
X16338095Y-21296808D01*
X16338095Y-21353951D01*
X16328571Y-21372999D01*
X16319048Y-21382522D01*
X16300000Y-21392046D01*
X16271428Y-21392046D01*
X16452381Y-21392046D02*
X16433333Y-21382522D01*
X16423809Y-21363475D01*
X16423809Y-21192046D01*
X16604762Y-21382522D02*
X16585714Y-21392046D01*
X16547619Y-21392046D01*
X16528571Y-21382522D01*
X16519048Y-21363475D01*
X16519048Y-21287284D01*
X16528571Y-21268237D01*
X16547619Y-21258713D01*
X16585714Y-21258713D01*
X16604762Y-21268237D01*
X16614286Y-21287284D01*
X16614286Y-21306332D01*
X16519048Y-21325380D01*
X16690476Y-21382522D02*
X16709524Y-21392046D01*
X16747619Y-21392046D01*
X16766667Y-21382522D01*
X16776190Y-21363475D01*
X16776190Y-21353951D01*
X16766667Y-21334903D01*
X16747619Y-21325380D01*
X16719048Y-21325380D01*
X16700000Y-21315856D01*
X16690476Y-21296808D01*
X16690476Y-21287284D01*
X16700000Y-21268237D01*
X16719048Y-21258713D01*
X16747619Y-21258713D01*
X16766667Y-21268237D01*
X16842857Y-21468237D02*
X16852381Y-21458713D01*
X16871429Y-21430141D01*
X16880952Y-21411094D01*
X16890476Y-21382522D01*
X16900000Y-21334903D01*
X16900000Y-21296808D01*
X16890476Y-21249189D01*
X16880952Y-21220618D01*
X16871429Y-21201570D01*
X16852381Y-21172999D01*
X16842857Y-21163475D01*
D12*
X11690000Y-21565570D02*
G75*
G03*
X11690000Y-21565570I-30000J0D01*
G01*
D10*
X11985714Y-21456046D02*
X12004762Y-21456046D01*
X12023809Y-21465570D01*
X12033333Y-21475094D01*
X12042857Y-21494141D01*
X12052381Y-21532237D01*
X12052381Y-21579856D01*
X12042857Y-21617951D01*
X12033333Y-21636999D01*
X12023809Y-21646522D01*
X12004762Y-21656046D01*
X11985714Y-21656046D01*
X11966667Y-21646522D01*
X11957143Y-21636999D01*
X11947619Y-21617951D01*
X11938095Y-21579856D01*
X11938095Y-21532237D01*
X11947619Y-21494141D01*
X11957143Y-21475094D01*
X11966667Y-21465570D01*
X11985714Y-21456046D01*
X12138095Y-21636999D02*
X12147619Y-21646522D01*
X12138095Y-21656046D01*
X12128571Y-21646522D01*
X12138095Y-21636999D01*
X12138095Y-21656046D01*
X12319048Y-21456046D02*
X12280952Y-21456046D01*
X12261905Y-21465570D01*
X12252381Y-21475094D01*
X12233333Y-21503665D01*
X12223809Y-21541760D01*
X12223809Y-21617951D01*
X12233333Y-21636999D01*
X12242857Y-21646522D01*
X12261905Y-21656046D01*
X12300000Y-21656046D01*
X12319048Y-21646522D01*
X12328571Y-21636999D01*
X12338095Y-21617951D01*
X12338095Y-21570332D01*
X12328571Y-21551284D01*
X12319048Y-21541760D01*
X12300000Y-21532237D01*
X12261905Y-21532237D01*
X12242857Y-21541760D01*
X12233333Y-21551284D01*
X12223809Y-21570332D01*
X12461905Y-21456046D02*
X12480952Y-21456046D01*
X12500000Y-21465570D01*
X12509524Y-21475094D01*
X12519048Y-21494141D01*
X12528571Y-21532237D01*
X12528571Y-21579856D01*
X12519048Y-21617951D01*
X12509524Y-21636999D01*
X12500000Y-21646522D01*
X12480952Y-21656046D01*
X12461905Y-21656046D01*
X12442857Y-21646522D01*
X12433333Y-21636999D01*
X12423809Y-21617951D01*
X12414286Y-21579856D01*
X12414286Y-21532237D01*
X12423809Y-21494141D01*
X12433333Y-21475094D01*
X12442857Y-21465570D01*
X12461905Y-21456046D01*
X12652381Y-21456046D02*
X12671428Y-21456046D01*
X12690476Y-21465570D01*
X12700000Y-21475094D01*
X12709524Y-21494141D01*
X12719048Y-21532237D01*
X12719048Y-21579856D01*
X12709524Y-21617951D01*
X12700000Y-21636999D01*
X12690476Y-21646522D01*
X12671428Y-21656046D01*
X12652381Y-21656046D01*
X12633333Y-21646522D01*
X12623809Y-21636999D01*
X12614286Y-21617951D01*
X12604762Y-21579856D01*
X12604762Y-21532237D01*
X12614286Y-21494141D01*
X12623809Y-21475094D01*
X12633333Y-21465570D01*
X12652381Y-21456046D01*
X12804762Y-21656046D02*
X12804762Y-21522713D01*
X12804762Y-21541760D02*
X12814286Y-21532237D01*
X12833333Y-21522713D01*
X12861905Y-21522713D01*
X12880952Y-21532237D01*
X12890476Y-21551284D01*
X12890476Y-21656046D01*
X12890476Y-21551284D02*
X12900000Y-21532237D01*
X12919048Y-21522713D01*
X12947619Y-21522713D01*
X12966667Y-21532237D01*
X12976190Y-21551284D01*
X12976190Y-21656046D01*
X13071428Y-21656046D02*
X13071428Y-21522713D01*
X13071428Y-21541760D02*
X13080952Y-21532237D01*
X13100000Y-21522713D01*
X13128571Y-21522713D01*
X13147619Y-21532237D01*
X13157143Y-21551284D01*
X13157143Y-21656046D01*
X13157143Y-21551284D02*
X13166667Y-21532237D01*
X13185714Y-21522713D01*
X13214286Y-21522713D01*
X13233333Y-21532237D01*
X13242857Y-21551284D01*
X13242857Y-21656046D01*
X13633333Y-21446522D02*
X13461905Y-21703665D01*
X13890476Y-21456046D02*
X13909524Y-21456046D01*
X13928571Y-21465570D01*
X13938095Y-21475094D01*
X13947619Y-21494141D01*
X13957143Y-21532237D01*
X13957143Y-21579856D01*
X13947619Y-21617951D01*
X13938095Y-21636999D01*
X13928571Y-21646522D01*
X13909524Y-21656046D01*
X13890476Y-21656046D01*
X13871428Y-21646522D01*
X13861905Y-21636999D01*
X13852381Y-21617951D01*
X13842857Y-21579856D01*
X13842857Y-21532237D01*
X13852381Y-21494141D01*
X13861905Y-21475094D01*
X13871428Y-21465570D01*
X13890476Y-21456046D01*
X14042857Y-21636999D02*
X14052381Y-21646522D01*
X14042857Y-21656046D01*
X14033333Y-21646522D01*
X14042857Y-21636999D01*
X14042857Y-21656046D01*
X14176190Y-21456046D02*
X14195238Y-21456046D01*
X14214286Y-21465570D01*
X14223809Y-21475094D01*
X14233333Y-21494141D01*
X14242857Y-21532237D01*
X14242857Y-21579856D01*
X14233333Y-21617951D01*
X14223809Y-21636999D01*
X14214286Y-21646522D01*
X14195238Y-21656046D01*
X14176190Y-21656046D01*
X14157143Y-21646522D01*
X14147619Y-21636999D01*
X14138095Y-21617951D01*
X14128571Y-21579856D01*
X14128571Y-21532237D01*
X14138095Y-21494141D01*
X14147619Y-21475094D01*
X14157143Y-21465570D01*
X14176190Y-21456046D01*
X14319048Y-21475094D02*
X14328571Y-21465570D01*
X14347619Y-21456046D01*
X14395238Y-21456046D01*
X14414286Y-21465570D01*
X14423809Y-21475094D01*
X14433333Y-21494141D01*
X14433333Y-21513189D01*
X14423809Y-21541760D01*
X14309524Y-21656046D01*
X14433333Y-21656046D01*
X14500000Y-21456046D02*
X14623809Y-21456046D01*
X14557143Y-21532237D01*
X14585714Y-21532237D01*
X14604762Y-21541760D01*
X14614286Y-21551284D01*
X14623809Y-21570332D01*
X14623809Y-21617951D01*
X14614286Y-21636999D01*
X14604762Y-21646522D01*
X14585714Y-21656046D01*
X14528571Y-21656046D01*
X14509524Y-21646522D01*
X14500000Y-21636999D01*
X14795238Y-21456046D02*
X14757143Y-21456046D01*
X14738095Y-21465570D01*
X14728571Y-21475094D01*
X14709524Y-21503665D01*
X14700000Y-21541760D01*
X14700000Y-21617951D01*
X14709524Y-21636999D01*
X14719048Y-21646522D01*
X14738095Y-21656046D01*
X14776190Y-21656046D01*
X14795238Y-21646522D01*
X14804762Y-21636999D01*
X14814286Y-21617951D01*
X14814286Y-21570332D01*
X14804762Y-21551284D01*
X14795238Y-21541760D01*
X14776190Y-21532237D01*
X14738095Y-21532237D01*
X14719048Y-21541760D01*
X14709524Y-21551284D01*
X14700000Y-21570332D01*
X14890476Y-21456046D02*
X14890476Y-21494141D01*
X14966667Y-21456046D02*
X14966667Y-21494141D01*
X15261905Y-21732237D02*
X15252381Y-21722713D01*
X15233333Y-21694141D01*
X15223809Y-21675094D01*
X15214286Y-21646522D01*
X15204762Y-21598903D01*
X15204762Y-21560808D01*
X15214286Y-21513189D01*
X15223809Y-21484618D01*
X15233333Y-21465570D01*
X15252381Y-21436999D01*
X15261905Y-21427475D01*
X15376190Y-21456046D02*
X15395238Y-21456046D01*
X15414286Y-21465570D01*
X15423809Y-21475094D01*
X15433333Y-21494141D01*
X15442857Y-21532237D01*
X15442857Y-21579856D01*
X15433333Y-21617951D01*
X15423809Y-21636999D01*
X15414286Y-21646522D01*
X15395238Y-21656046D01*
X15376190Y-21656046D01*
X15357143Y-21646522D01*
X15347619Y-21636999D01*
X15338095Y-21617951D01*
X15328571Y-21579856D01*
X15328571Y-21532237D01*
X15338095Y-21494141D01*
X15347619Y-21475094D01*
X15357143Y-21465570D01*
X15376190Y-21456046D01*
X15680952Y-21656046D02*
X15680952Y-21456046D01*
X15766667Y-21656046D02*
X15766667Y-21551284D01*
X15757143Y-21532237D01*
X15738095Y-21522713D01*
X15709524Y-21522713D01*
X15690476Y-21532237D01*
X15680952Y-21541760D01*
X15890476Y-21656046D02*
X15871428Y-21646522D01*
X15861905Y-21636999D01*
X15852381Y-21617951D01*
X15852381Y-21560808D01*
X15861905Y-21541760D01*
X15871428Y-21532237D01*
X15890476Y-21522713D01*
X15919048Y-21522713D01*
X15938095Y-21532237D01*
X15947619Y-21541760D01*
X15957143Y-21560808D01*
X15957143Y-21617951D01*
X15947619Y-21636999D01*
X15938095Y-21646522D01*
X15919048Y-21656046D01*
X15890476Y-21656046D01*
X16071428Y-21656046D02*
X16052381Y-21646522D01*
X16042857Y-21627475D01*
X16042857Y-21456046D01*
X16223809Y-21646522D02*
X16204762Y-21656046D01*
X16166667Y-21656046D01*
X16147619Y-21646522D01*
X16138095Y-21627475D01*
X16138095Y-21551284D01*
X16147619Y-21532237D01*
X16166667Y-21522713D01*
X16204762Y-21522713D01*
X16223809Y-21532237D01*
X16233333Y-21551284D01*
X16233333Y-21570332D01*
X16138095Y-21589380D01*
X16309524Y-21646522D02*
X16328571Y-21656046D01*
X16366667Y-21656046D01*
X16385714Y-21646522D01*
X16395238Y-21627475D01*
X16395238Y-21617951D01*
X16385714Y-21598903D01*
X16366667Y-21589380D01*
X16338095Y-21589380D01*
X16319048Y-21579856D01*
X16309524Y-21560808D01*
X16309524Y-21551284D01*
X16319048Y-21532237D01*
X16338095Y-21522713D01*
X16366667Y-21522713D01*
X16385714Y-21532237D01*
X16633333Y-21579856D02*
X16785714Y-21579856D01*
X16709524Y-21656046D02*
X16709524Y-21503665D01*
X17119048Y-21522713D02*
X17119048Y-21656046D01*
X17071429Y-21446522D02*
X17023810Y-21589380D01*
X17147619Y-21589380D01*
X17366667Y-21646522D02*
X17385714Y-21656046D01*
X17423810Y-21656046D01*
X17442857Y-21646522D01*
X17452381Y-21627475D01*
X17452381Y-21617951D01*
X17442857Y-21598903D01*
X17423810Y-21589380D01*
X17395238Y-21589380D01*
X17376190Y-21579856D01*
X17366667Y-21560808D01*
X17366667Y-21551284D01*
X17376190Y-21532237D01*
X17395238Y-21522713D01*
X17423810Y-21522713D01*
X17442857Y-21532237D01*
X17566667Y-21656046D02*
X17547619Y-21646522D01*
X17538095Y-21627475D01*
X17538095Y-21456046D01*
X17671429Y-21656046D02*
X17652381Y-21646522D01*
X17642857Y-21636999D01*
X17633333Y-21617951D01*
X17633333Y-21560808D01*
X17642857Y-21541760D01*
X17652381Y-21532237D01*
X17671429Y-21522713D01*
X17700000Y-21522713D01*
X17719048Y-21532237D01*
X17728571Y-21541760D01*
X17738095Y-21560808D01*
X17738095Y-21617951D01*
X17728571Y-21636999D01*
X17719048Y-21646522D01*
X17700000Y-21656046D01*
X17671429Y-21656046D01*
X17795238Y-21522713D02*
X17871429Y-21522713D01*
X17823810Y-21456046D02*
X17823810Y-21627475D01*
X17833333Y-21646522D01*
X17852381Y-21656046D01*
X17871429Y-21656046D01*
X17928571Y-21646522D02*
X17947619Y-21656046D01*
X17985714Y-21656046D01*
X18004762Y-21646522D01*
X18014286Y-21627475D01*
X18014286Y-21617951D01*
X18004762Y-21598903D01*
X17985714Y-21589380D01*
X17957143Y-21589380D01*
X17938095Y-21579856D01*
X17928571Y-21560808D01*
X17928571Y-21551284D01*
X17938095Y-21532237D01*
X17957143Y-21522713D01*
X17985714Y-21522713D01*
X18004762Y-21532237D01*
X18080952Y-21732237D02*
X18090476Y-21722713D01*
X18109524Y-21694141D01*
X18119048Y-21675094D01*
X18128571Y-21646522D01*
X18138095Y-21598903D01*
X18138095Y-21560808D01*
X18128571Y-21513189D01*
X18119048Y-21484618D01*
X18109524Y-21465570D01*
X18090476Y-21436999D01*
X18080952Y-21427475D01*
D13*
X11652500Y-21792070D02*
X11652500Y-21867070D01*
X11615000Y-21829570D02*
X11690000Y-21829570D01*
D10*
X11985714Y-21720046D02*
X12004762Y-21720046D01*
X12023809Y-21729570D01*
X12033333Y-21739094D01*
X12042857Y-21758141D01*
X12052381Y-21796237D01*
X12052381Y-21843856D01*
X12042857Y-21881951D01*
X12033333Y-21900999D01*
X12023809Y-21910522D01*
X12004762Y-21920046D01*
X11985714Y-21920046D01*
X11966667Y-21910522D01*
X11957143Y-21900999D01*
X11947619Y-21881951D01*
X11938095Y-21843856D01*
X11938095Y-21796237D01*
X11947619Y-21758141D01*
X11957143Y-21739094D01*
X11966667Y-21729570D01*
X11985714Y-21720046D01*
X12138095Y-21900999D02*
X12147619Y-21910522D01*
X12138095Y-21920046D01*
X12128571Y-21910522D01*
X12138095Y-21900999D01*
X12138095Y-21920046D01*
X12214286Y-21720046D02*
X12347619Y-21720046D01*
X12261905Y-21920046D01*
X12519048Y-21720046D02*
X12423809Y-21720046D01*
X12414286Y-21815284D01*
X12423809Y-21805760D01*
X12442857Y-21796237D01*
X12490476Y-21796237D01*
X12509524Y-21805760D01*
X12519048Y-21815284D01*
X12528571Y-21834332D01*
X12528571Y-21881951D01*
X12519048Y-21900999D01*
X12509524Y-21910522D01*
X12490476Y-21920046D01*
X12442857Y-21920046D01*
X12423809Y-21910522D01*
X12414286Y-21900999D01*
X12652381Y-21720046D02*
X12671428Y-21720046D01*
X12690476Y-21729570D01*
X12700000Y-21739094D01*
X12709524Y-21758141D01*
X12719048Y-21796237D01*
X12719048Y-21843856D01*
X12709524Y-21881951D01*
X12700000Y-21900999D01*
X12690476Y-21910522D01*
X12671428Y-21920046D01*
X12652381Y-21920046D01*
X12633333Y-21910522D01*
X12623809Y-21900999D01*
X12614286Y-21881951D01*
X12604762Y-21843856D01*
X12604762Y-21796237D01*
X12614286Y-21758141D01*
X12623809Y-21739094D01*
X12633333Y-21729570D01*
X12652381Y-21720046D01*
X12804762Y-21920046D02*
X12804762Y-21786713D01*
X12804762Y-21805760D02*
X12814286Y-21796237D01*
X12833333Y-21786713D01*
X12861905Y-21786713D01*
X12880952Y-21796237D01*
X12890476Y-21815284D01*
X12890476Y-21920046D01*
X12890476Y-21815284D02*
X12900000Y-21796237D01*
X12919048Y-21786713D01*
X12947619Y-21786713D01*
X12966667Y-21796237D01*
X12976190Y-21815284D01*
X12976190Y-21920046D01*
X13071428Y-21920046D02*
X13071428Y-21786713D01*
X13071428Y-21805760D02*
X13080952Y-21796237D01*
X13100000Y-21786713D01*
X13128571Y-21786713D01*
X13147619Y-21796237D01*
X13157143Y-21815284D01*
X13157143Y-21920046D01*
X13157143Y-21815284D02*
X13166667Y-21796237D01*
X13185714Y-21786713D01*
X13214286Y-21786713D01*
X13233333Y-21796237D01*
X13242857Y-21815284D01*
X13242857Y-21920046D01*
X13633333Y-21710522D02*
X13461905Y-21967665D01*
X13890476Y-21720046D02*
X13909524Y-21720046D01*
X13928571Y-21729570D01*
X13938095Y-21739094D01*
X13947619Y-21758141D01*
X13957143Y-21796237D01*
X13957143Y-21843856D01*
X13947619Y-21881951D01*
X13938095Y-21900999D01*
X13928571Y-21910522D01*
X13909524Y-21920046D01*
X13890476Y-21920046D01*
X13871428Y-21910522D01*
X13861905Y-21900999D01*
X13852381Y-21881951D01*
X13842857Y-21843856D01*
X13842857Y-21796237D01*
X13852381Y-21758141D01*
X13861905Y-21739094D01*
X13871428Y-21729570D01*
X13890476Y-21720046D01*
X14042857Y-21900999D02*
X14052381Y-21910522D01*
X14042857Y-21920046D01*
X14033333Y-21910522D01*
X14042857Y-21900999D01*
X14042857Y-21920046D01*
X14176190Y-21720046D02*
X14195238Y-21720046D01*
X14214286Y-21729570D01*
X14223809Y-21739094D01*
X14233333Y-21758141D01*
X14242857Y-21796237D01*
X14242857Y-21843856D01*
X14233333Y-21881951D01*
X14223809Y-21900999D01*
X14214286Y-21910522D01*
X14195238Y-21920046D01*
X14176190Y-21920046D01*
X14157143Y-21910522D01*
X14147619Y-21900999D01*
X14138095Y-21881951D01*
X14128571Y-21843856D01*
X14128571Y-21796237D01*
X14138095Y-21758141D01*
X14147619Y-21739094D01*
X14157143Y-21729570D01*
X14176190Y-21720046D01*
X14319048Y-21739094D02*
X14328571Y-21729570D01*
X14347619Y-21720046D01*
X14395238Y-21720046D01*
X14414286Y-21729570D01*
X14423809Y-21739094D01*
X14433333Y-21758141D01*
X14433333Y-21777189D01*
X14423809Y-21805760D01*
X14309524Y-21920046D01*
X14433333Y-21920046D01*
X14528571Y-21920046D02*
X14566667Y-21920046D01*
X14585714Y-21910522D01*
X14595238Y-21900999D01*
X14614286Y-21872427D01*
X14623809Y-21834332D01*
X14623809Y-21758141D01*
X14614286Y-21739094D01*
X14604762Y-21729570D01*
X14585714Y-21720046D01*
X14547619Y-21720046D01*
X14528571Y-21729570D01*
X14519048Y-21739094D01*
X14509524Y-21758141D01*
X14509524Y-21805760D01*
X14519048Y-21824808D01*
X14528571Y-21834332D01*
X14547619Y-21843856D01*
X14585714Y-21843856D01*
X14604762Y-21834332D01*
X14614286Y-21824808D01*
X14623809Y-21805760D01*
X14804762Y-21720046D02*
X14709524Y-21720046D01*
X14700000Y-21815284D01*
X14709524Y-21805760D01*
X14728571Y-21796237D01*
X14776190Y-21796237D01*
X14795238Y-21805760D01*
X14804762Y-21815284D01*
X14814286Y-21834332D01*
X14814286Y-21881951D01*
X14804762Y-21900999D01*
X14795238Y-21910522D01*
X14776190Y-21920046D01*
X14728571Y-21920046D01*
X14709524Y-21910522D01*
X14700000Y-21900999D01*
X14890476Y-21720046D02*
X14890476Y-21758141D01*
X14966667Y-21720046D02*
X14966667Y-21758141D01*
X15261905Y-21996237D02*
X15252381Y-21986713D01*
X15233333Y-21958141D01*
X15223809Y-21939094D01*
X15214286Y-21910522D01*
X15204762Y-21862903D01*
X15204762Y-21824808D01*
X15214286Y-21777189D01*
X15223809Y-21748618D01*
X15233333Y-21729570D01*
X15252381Y-21700999D01*
X15261905Y-21691475D01*
X15347619Y-21920046D02*
X15385714Y-21920046D01*
X15404762Y-21910522D01*
X15414286Y-21900999D01*
X15433333Y-21872427D01*
X15442857Y-21834332D01*
X15442857Y-21758141D01*
X15433333Y-21739094D01*
X15423809Y-21729570D01*
X15404762Y-21720046D01*
X15366667Y-21720046D01*
X15347619Y-21729570D01*
X15338095Y-21739094D01*
X15328571Y-21758141D01*
X15328571Y-21805760D01*
X15338095Y-21824808D01*
X15347619Y-21834332D01*
X15366667Y-21843856D01*
X15404762Y-21843856D01*
X15423809Y-21834332D01*
X15433333Y-21824808D01*
X15442857Y-21805760D01*
X15566667Y-21720046D02*
X15585714Y-21720046D01*
X15604762Y-21729570D01*
X15614286Y-21739094D01*
X15623809Y-21758141D01*
X15633333Y-21796237D01*
X15633333Y-21843856D01*
X15623809Y-21881951D01*
X15614286Y-21900999D01*
X15604762Y-21910522D01*
X15585714Y-21920046D01*
X15566667Y-21920046D01*
X15547619Y-21910522D01*
X15538095Y-21900999D01*
X15528571Y-21881951D01*
X15519048Y-21843856D01*
X15519048Y-21796237D01*
X15528571Y-21758141D01*
X15538095Y-21739094D01*
X15547619Y-21729570D01*
X15566667Y-21720046D01*
X15871428Y-21920046D02*
X15871428Y-21720046D01*
X15957143Y-21920046D02*
X15957143Y-21815284D01*
X15947619Y-21796237D01*
X15928571Y-21786713D01*
X15900000Y-21786713D01*
X15880952Y-21796237D01*
X15871428Y-21805760D01*
X16080952Y-21920046D02*
X16061905Y-21910522D01*
X16052381Y-21900999D01*
X16042857Y-21881951D01*
X16042857Y-21824808D01*
X16052381Y-21805760D01*
X16061905Y-21796237D01*
X16080952Y-21786713D01*
X16109524Y-21786713D01*
X16128571Y-21796237D01*
X16138095Y-21805760D01*
X16147619Y-21824808D01*
X16147619Y-21881951D01*
X16138095Y-21900999D01*
X16128571Y-21910522D01*
X16109524Y-21920046D01*
X16080952Y-21920046D01*
X16261905Y-21920046D02*
X16242857Y-21910522D01*
X16233333Y-21891475D01*
X16233333Y-21720046D01*
X16414286Y-21910522D02*
X16395238Y-21920046D01*
X16357143Y-21920046D01*
X16338095Y-21910522D01*
X16328571Y-21891475D01*
X16328571Y-21815284D01*
X16338095Y-21796237D01*
X16357143Y-21786713D01*
X16395238Y-21786713D01*
X16414286Y-21796237D01*
X16423809Y-21815284D01*
X16423809Y-21834332D01*
X16328571Y-21853380D01*
X16500000Y-21910522D02*
X16519048Y-21920046D01*
X16557143Y-21920046D01*
X16576190Y-21910522D01*
X16585714Y-21891475D01*
X16585714Y-21881951D01*
X16576190Y-21862903D01*
X16557143Y-21853380D01*
X16528571Y-21853380D01*
X16509524Y-21843856D01*
X16500000Y-21824808D01*
X16500000Y-21815284D01*
X16509524Y-21796237D01*
X16528571Y-21786713D01*
X16557143Y-21786713D01*
X16576190Y-21796237D01*
X16823810Y-21843856D02*
X16976190Y-21843856D01*
X16900000Y-21920046D02*
X16900000Y-21767665D01*
X17214286Y-21739094D02*
X17223810Y-21729570D01*
X17242857Y-21720046D01*
X17290476Y-21720046D01*
X17309524Y-21729570D01*
X17319048Y-21739094D01*
X17328571Y-21758141D01*
X17328571Y-21777189D01*
X17319048Y-21805760D01*
X17204762Y-21920046D01*
X17328571Y-21920046D01*
X17557143Y-21910522D02*
X17576190Y-21920046D01*
X17614286Y-21920046D01*
X17633333Y-21910522D01*
X17642857Y-21891475D01*
X17642857Y-21881951D01*
X17633333Y-21862903D01*
X17614286Y-21853380D01*
X17585714Y-21853380D01*
X17566667Y-21843856D01*
X17557143Y-21824808D01*
X17557143Y-21815284D01*
X17566667Y-21796237D01*
X17585714Y-21786713D01*
X17614286Y-21786713D01*
X17633333Y-21796237D01*
X17757143Y-21920046D02*
X17738095Y-21910522D01*
X17728571Y-21891475D01*
X17728571Y-21720046D01*
X17861905Y-21920046D02*
X17842857Y-21910522D01*
X17833333Y-21900999D01*
X17823810Y-21881951D01*
X17823810Y-21824808D01*
X17833333Y-21805760D01*
X17842857Y-21796237D01*
X17861905Y-21786713D01*
X17890476Y-21786713D01*
X17909524Y-21796237D01*
X17919048Y-21805760D01*
X17928571Y-21824808D01*
X17928571Y-21881951D01*
X17919048Y-21900999D01*
X17909524Y-21910522D01*
X17890476Y-21920046D01*
X17861905Y-21920046D01*
X17985714Y-21786713D02*
X18061905Y-21786713D01*
X18014286Y-21720046D02*
X18014286Y-21891475D01*
X18023810Y-21910522D01*
X18042857Y-21920046D01*
X18061905Y-21920046D01*
X18119048Y-21910522D02*
X18138095Y-21920046D01*
X18176190Y-21920046D01*
X18195238Y-21910522D01*
X18204762Y-21891475D01*
X18204762Y-21881951D01*
X18195238Y-21862903D01*
X18176190Y-21853380D01*
X18147619Y-21853380D01*
X18128571Y-21843856D01*
X18119048Y-21824808D01*
X18119048Y-21815284D01*
X18128571Y-21796237D01*
X18147619Y-21786713D01*
X18176190Y-21786713D01*
X18195238Y-21796237D01*
X18271429Y-21996237D02*
X18280952Y-21986713D01*
X18300000Y-21958141D01*
X18309524Y-21939094D01*
X18319048Y-21910522D01*
X18328571Y-21862903D01*
X18328571Y-21824808D01*
X18319048Y-21777189D01*
X18309524Y-21748618D01*
X18300000Y-21729570D01*
X18280952Y-21700999D01*
X18271429Y-21691475D01*
D14*
X11678284Y-22121855D02*
X11678284Y-22065286D01*
X11621715Y-22065286D01*
X11621715Y-22121855D01*
X11678284Y-22121855D01*
D10*
X11985714Y-21984046D02*
X12004762Y-21984046D01*
X12023809Y-21993570D01*
X12033333Y-22003094D01*
X12042857Y-22022141D01*
X12052381Y-22060237D01*
X12052381Y-22107856D01*
X12042857Y-22145951D01*
X12033333Y-22164999D01*
X12023809Y-22174522D01*
X12004762Y-22184046D01*
X11985714Y-22184046D01*
X11966667Y-22174522D01*
X11957143Y-22164999D01*
X11947619Y-22145951D01*
X11938095Y-22107856D01*
X11938095Y-22060237D01*
X11947619Y-22022141D01*
X11957143Y-22003094D01*
X11966667Y-21993570D01*
X11985714Y-21984046D01*
X12138095Y-22164999D02*
X12147619Y-22174522D01*
X12138095Y-22184046D01*
X12128571Y-22174522D01*
X12138095Y-22164999D01*
X12138095Y-22184046D01*
X12261905Y-22069760D02*
X12242857Y-22060237D01*
X12233333Y-22050713D01*
X12223809Y-22031665D01*
X12223809Y-22022141D01*
X12233333Y-22003094D01*
X12242857Y-21993570D01*
X12261905Y-21984046D01*
X12300000Y-21984046D01*
X12319048Y-21993570D01*
X12328571Y-22003094D01*
X12338095Y-22022141D01*
X12338095Y-22031665D01*
X12328571Y-22050713D01*
X12319048Y-22060237D01*
X12300000Y-22069760D01*
X12261905Y-22069760D01*
X12242857Y-22079284D01*
X12233333Y-22088808D01*
X12223809Y-22107856D01*
X12223809Y-22145951D01*
X12233333Y-22164999D01*
X12242857Y-22174522D01*
X12261905Y-22184046D01*
X12300000Y-22184046D01*
X12319048Y-22174522D01*
X12328571Y-22164999D01*
X12338095Y-22145951D01*
X12338095Y-22107856D01*
X12328571Y-22088808D01*
X12319048Y-22079284D01*
X12300000Y-22069760D01*
X12461905Y-21984046D02*
X12480952Y-21984046D01*
X12500000Y-21993570D01*
X12509524Y-22003094D01*
X12519048Y-22022141D01*
X12528571Y-22060237D01*
X12528571Y-22107856D01*
X12519048Y-22145951D01*
X12509524Y-22164999D01*
X12500000Y-22174522D01*
X12480952Y-22184046D01*
X12461905Y-22184046D01*
X12442857Y-22174522D01*
X12433333Y-22164999D01*
X12423809Y-22145951D01*
X12414286Y-22107856D01*
X12414286Y-22060237D01*
X12423809Y-22022141D01*
X12433333Y-22003094D01*
X12442857Y-21993570D01*
X12461905Y-21984046D01*
X12652381Y-21984046D02*
X12671428Y-21984046D01*
X12690476Y-21993570D01*
X12700000Y-22003094D01*
X12709524Y-22022141D01*
X12719048Y-22060237D01*
X12719048Y-22107856D01*
X12709524Y-22145951D01*
X12700000Y-22164999D01*
X12690476Y-22174522D01*
X12671428Y-22184046D01*
X12652381Y-22184046D01*
X12633333Y-22174522D01*
X12623809Y-22164999D01*
X12614286Y-22145951D01*
X12604762Y-22107856D01*
X12604762Y-22060237D01*
X12614286Y-22022141D01*
X12623809Y-22003094D01*
X12633333Y-21993570D01*
X12652381Y-21984046D01*
X12804762Y-22184046D02*
X12804762Y-22050713D01*
X12804762Y-22069760D02*
X12814286Y-22060237D01*
X12833333Y-22050713D01*
X12861905Y-22050713D01*
X12880952Y-22060237D01*
X12890476Y-22079284D01*
X12890476Y-22184046D01*
X12890476Y-22079284D02*
X12900000Y-22060237D01*
X12919048Y-22050713D01*
X12947619Y-22050713D01*
X12966667Y-22060237D01*
X12976190Y-22079284D01*
X12976190Y-22184046D01*
X13071428Y-22184046D02*
X13071428Y-22050713D01*
X13071428Y-22069760D02*
X13080952Y-22060237D01*
X13100000Y-22050713D01*
X13128571Y-22050713D01*
X13147619Y-22060237D01*
X13157143Y-22079284D01*
X13157143Y-22184046D01*
X13157143Y-22079284D02*
X13166667Y-22060237D01*
X13185714Y-22050713D01*
X13214286Y-22050713D01*
X13233333Y-22060237D01*
X13242857Y-22079284D01*
X13242857Y-22184046D01*
X13633333Y-21974522D02*
X13461905Y-22231665D01*
X13890476Y-21984046D02*
X13909524Y-21984046D01*
X13928571Y-21993570D01*
X13938095Y-22003094D01*
X13947619Y-22022141D01*
X13957143Y-22060237D01*
X13957143Y-22107856D01*
X13947619Y-22145951D01*
X13938095Y-22164999D01*
X13928571Y-22174522D01*
X13909524Y-22184046D01*
X13890476Y-22184046D01*
X13871428Y-22174522D01*
X13861905Y-22164999D01*
X13852381Y-22145951D01*
X13842857Y-22107856D01*
X13842857Y-22060237D01*
X13852381Y-22022141D01*
X13861905Y-22003094D01*
X13871428Y-21993570D01*
X13890476Y-21984046D01*
X14042857Y-22164999D02*
X14052381Y-22174522D01*
X14042857Y-22184046D01*
X14033333Y-22174522D01*
X14042857Y-22164999D01*
X14042857Y-22184046D01*
X14176190Y-21984046D02*
X14195238Y-21984046D01*
X14214286Y-21993570D01*
X14223809Y-22003094D01*
X14233333Y-22022141D01*
X14242857Y-22060237D01*
X14242857Y-22107856D01*
X14233333Y-22145951D01*
X14223809Y-22164999D01*
X14214286Y-22174522D01*
X14195238Y-22184046D01*
X14176190Y-22184046D01*
X14157143Y-22174522D01*
X14147619Y-22164999D01*
X14138095Y-22145951D01*
X14128571Y-22107856D01*
X14128571Y-22060237D01*
X14138095Y-22022141D01*
X14147619Y-22003094D01*
X14157143Y-21993570D01*
X14176190Y-21984046D01*
X14309524Y-21984046D02*
X14433333Y-21984046D01*
X14366667Y-22060237D01*
X14395238Y-22060237D01*
X14414286Y-22069760D01*
X14423809Y-22079284D01*
X14433333Y-22098332D01*
X14433333Y-22145951D01*
X14423809Y-22164999D01*
X14414286Y-22174522D01*
X14395238Y-22184046D01*
X14338095Y-22184046D01*
X14319048Y-22174522D01*
X14309524Y-22164999D01*
X14623809Y-22184046D02*
X14509524Y-22184046D01*
X14566667Y-22184046D02*
X14566667Y-21984046D01*
X14547619Y-22012618D01*
X14528571Y-22031665D01*
X14509524Y-22041189D01*
X14804762Y-21984046D02*
X14709524Y-21984046D01*
X14700000Y-22079284D01*
X14709524Y-22069760D01*
X14728571Y-22060237D01*
X14776190Y-22060237D01*
X14795238Y-22069760D01*
X14804762Y-22079284D01*
X14814286Y-22098332D01*
X14814286Y-22145951D01*
X14804762Y-22164999D01*
X14795238Y-22174522D01*
X14776190Y-22184046D01*
X14728571Y-22184046D01*
X14709524Y-22174522D01*
X14700000Y-22164999D01*
X14890476Y-21984046D02*
X14890476Y-22022141D01*
X14966667Y-21984046D02*
X14966667Y-22022141D01*
X15261905Y-22260237D02*
X15252381Y-22250713D01*
X15233333Y-22222141D01*
X15223809Y-22203094D01*
X15214286Y-22174522D01*
X15204762Y-22126903D01*
X15204762Y-22088808D01*
X15214286Y-22041189D01*
X15223809Y-22012618D01*
X15233333Y-21993570D01*
X15252381Y-21964999D01*
X15261905Y-21955475D01*
X15319048Y-21984046D02*
X15442857Y-21984046D01*
X15376190Y-22060237D01*
X15404762Y-22060237D01*
X15423809Y-22069760D01*
X15433333Y-22079284D01*
X15442857Y-22098332D01*
X15442857Y-22145951D01*
X15433333Y-22164999D01*
X15423809Y-22174522D01*
X15404762Y-22184046D01*
X15347619Y-22184046D01*
X15328571Y-22174522D01*
X15319048Y-22164999D01*
X15557143Y-22069760D02*
X15538095Y-22060237D01*
X15528571Y-22050713D01*
X15519048Y-22031665D01*
X15519048Y-22022141D01*
X15528571Y-22003094D01*
X15538095Y-21993570D01*
X15557143Y-21984046D01*
X15595238Y-21984046D01*
X15614286Y-21993570D01*
X15623809Y-22003094D01*
X15633333Y-22022141D01*
X15633333Y-22031665D01*
X15623809Y-22050713D01*
X15614286Y-22060237D01*
X15595238Y-22069760D01*
X15557143Y-22069760D01*
X15538095Y-22079284D01*
X15528571Y-22088808D01*
X15519048Y-22107856D01*
X15519048Y-22145951D01*
X15528571Y-22164999D01*
X15538095Y-22174522D01*
X15557143Y-22184046D01*
X15595238Y-22184046D01*
X15614286Y-22174522D01*
X15623809Y-22164999D01*
X15633333Y-22145951D01*
X15633333Y-22107856D01*
X15623809Y-22088808D01*
X15614286Y-22079284D01*
X15595238Y-22069760D01*
X15871428Y-22184046D02*
X15871428Y-21984046D01*
X15957143Y-22184046D02*
X15957143Y-22079284D01*
X15947619Y-22060237D01*
X15928571Y-22050713D01*
X15900000Y-22050713D01*
X15880952Y-22060237D01*
X15871428Y-22069760D01*
X16080952Y-22184046D02*
X16061905Y-22174522D01*
X16052381Y-22164999D01*
X16042857Y-22145951D01*
X16042857Y-22088808D01*
X16052381Y-22069760D01*
X16061905Y-22060237D01*
X16080952Y-22050713D01*
X16109524Y-22050713D01*
X16128571Y-22060237D01*
X16138095Y-22069760D01*
X16147619Y-22088808D01*
X16147619Y-22145951D01*
X16138095Y-22164999D01*
X16128571Y-22174522D01*
X16109524Y-22184046D01*
X16080952Y-22184046D01*
X16261905Y-22184046D02*
X16242857Y-22174522D01*
X16233333Y-22155475D01*
X16233333Y-21984046D01*
X16414286Y-22174522D02*
X16395238Y-22184046D01*
X16357143Y-22184046D01*
X16338095Y-22174522D01*
X16328571Y-22155475D01*
X16328571Y-22079284D01*
X16338095Y-22060237D01*
X16357143Y-22050713D01*
X16395238Y-22050713D01*
X16414286Y-22060237D01*
X16423809Y-22079284D01*
X16423809Y-22098332D01*
X16328571Y-22117380D01*
X16500000Y-22174522D02*
X16519048Y-22184046D01*
X16557143Y-22184046D01*
X16576190Y-22174522D01*
X16585714Y-22155475D01*
X16585714Y-22145951D01*
X16576190Y-22126903D01*
X16557143Y-22117380D01*
X16528571Y-22117380D01*
X16509524Y-22107856D01*
X16500000Y-22088808D01*
X16500000Y-22079284D01*
X16509524Y-22060237D01*
X16528571Y-22050713D01*
X16557143Y-22050713D01*
X16576190Y-22060237D01*
X16652381Y-22260237D02*
X16661905Y-22250713D01*
X16680952Y-22222141D01*
X16690476Y-22203094D01*
X16700000Y-22174522D01*
X16709524Y-22126903D01*
X16709524Y-22088808D01*
X16700000Y-22041189D01*
X16690476Y-22012618D01*
X16680952Y-21993570D01*
X16661905Y-21964999D01*
X16652381Y-21955475D01*
D15*
X11640000Y-22407570D02*
X11690000Y-22357570D01*
X11640000Y-22307570D01*
X11590000Y-22357570D01*
X11640000Y-22407570D01*
D10*
X12052381Y-22448046D02*
X11938095Y-22448046D01*
X11995238Y-22448046D02*
X11995238Y-22248046D01*
X11976190Y-22276618D01*
X11957143Y-22295665D01*
X11938095Y-22305189D01*
X12138095Y-22428998D02*
X12147619Y-22438522D01*
X12138095Y-22448046D01*
X12128571Y-22438522D01*
X12138095Y-22428998D01*
X12138095Y-22448046D01*
X12271428Y-22248046D02*
X12290476Y-22248046D01*
X12309524Y-22257570D01*
X12319048Y-22267094D01*
X12328571Y-22286141D01*
X12338095Y-22324237D01*
X12338095Y-22371856D01*
X12328571Y-22409951D01*
X12319048Y-22428998D01*
X12309524Y-22438522D01*
X12290476Y-22448046D01*
X12271428Y-22448046D01*
X12252381Y-22438522D01*
X12242857Y-22428998D01*
X12233333Y-22409951D01*
X12223809Y-22371856D01*
X12223809Y-22324237D01*
X12233333Y-22286141D01*
X12242857Y-22267094D01*
X12252381Y-22257570D01*
X12271428Y-22248046D01*
X12461905Y-22248046D02*
X12480952Y-22248046D01*
X12500000Y-22257570D01*
X12509524Y-22267094D01*
X12519048Y-22286141D01*
X12528571Y-22324237D01*
X12528571Y-22371856D01*
X12519048Y-22409951D01*
X12509524Y-22428998D01*
X12500000Y-22438522D01*
X12480952Y-22448046D01*
X12461905Y-22448046D01*
X12442857Y-22438522D01*
X12433333Y-22428998D01*
X12423809Y-22409951D01*
X12414286Y-22371856D01*
X12414286Y-22324237D01*
X12423809Y-22286141D01*
X12433333Y-22267094D01*
X12442857Y-22257570D01*
X12461905Y-22248046D01*
X12652381Y-22248046D02*
X12671428Y-22248046D01*
X12690476Y-22257570D01*
X12700000Y-22267094D01*
X12709524Y-22286141D01*
X12719048Y-22324237D01*
X12719048Y-22371856D01*
X12709524Y-22409951D01*
X12700000Y-22428998D01*
X12690476Y-22438522D01*
X12671428Y-22448046D01*
X12652381Y-22448046D01*
X12633333Y-22438522D01*
X12623809Y-22428998D01*
X12614286Y-22409951D01*
X12604762Y-22371856D01*
X12604762Y-22324237D01*
X12614286Y-22286141D01*
X12623809Y-22267094D01*
X12633333Y-22257570D01*
X12652381Y-22248046D01*
X12804762Y-22448046D02*
X12804762Y-22314713D01*
X12804762Y-22333760D02*
X12814286Y-22324237D01*
X12833333Y-22314713D01*
X12861905Y-22314713D01*
X12880952Y-22324237D01*
X12890476Y-22343284D01*
X12890476Y-22448046D01*
X12890476Y-22343284D02*
X12900000Y-22324237D01*
X12919048Y-22314713D01*
X12947619Y-22314713D01*
X12966667Y-22324237D01*
X12976190Y-22343284D01*
X12976190Y-22448046D01*
X13071428Y-22448046D02*
X13071428Y-22314713D01*
X13071428Y-22333760D02*
X13080952Y-22324237D01*
X13100000Y-22314713D01*
X13128571Y-22314713D01*
X13147619Y-22324237D01*
X13157143Y-22343284D01*
X13157143Y-22448046D01*
X13157143Y-22343284D02*
X13166667Y-22324237D01*
X13185714Y-22314713D01*
X13214286Y-22314713D01*
X13233333Y-22324237D01*
X13242857Y-22343284D01*
X13242857Y-22448046D01*
X13633333Y-22238522D02*
X13461905Y-22495665D01*
X13890476Y-22248046D02*
X13909524Y-22248046D01*
X13928571Y-22257570D01*
X13938095Y-22267094D01*
X13947619Y-22286141D01*
X13957143Y-22324237D01*
X13957143Y-22371856D01*
X13947619Y-22409951D01*
X13938095Y-22428998D01*
X13928571Y-22438522D01*
X13909524Y-22448046D01*
X13890476Y-22448046D01*
X13871428Y-22438522D01*
X13861905Y-22428998D01*
X13852381Y-22409951D01*
X13842857Y-22371856D01*
X13842857Y-22324237D01*
X13852381Y-22286141D01*
X13861905Y-22267094D01*
X13871428Y-22257570D01*
X13890476Y-22248046D01*
X14042857Y-22428998D02*
X14052381Y-22438522D01*
X14042857Y-22448046D01*
X14033333Y-22438522D01*
X14042857Y-22428998D01*
X14042857Y-22448046D01*
X14176190Y-22248046D02*
X14195238Y-22248046D01*
X14214286Y-22257570D01*
X14223809Y-22267094D01*
X14233333Y-22286141D01*
X14242857Y-22324237D01*
X14242857Y-22371856D01*
X14233333Y-22409951D01*
X14223809Y-22428998D01*
X14214286Y-22438522D01*
X14195238Y-22448046D01*
X14176190Y-22448046D01*
X14157143Y-22438522D01*
X14147619Y-22428998D01*
X14138095Y-22409951D01*
X14128571Y-22371856D01*
X14128571Y-22324237D01*
X14138095Y-22286141D01*
X14147619Y-22267094D01*
X14157143Y-22257570D01*
X14176190Y-22248046D01*
X14309524Y-22248046D02*
X14433333Y-22248046D01*
X14366667Y-22324237D01*
X14395238Y-22324237D01*
X14414286Y-22333760D01*
X14423809Y-22343284D01*
X14433333Y-22362332D01*
X14433333Y-22409951D01*
X14423809Y-22428998D01*
X14414286Y-22438522D01*
X14395238Y-22448046D01*
X14338095Y-22448046D01*
X14319048Y-22438522D01*
X14309524Y-22428998D01*
X14528571Y-22448046D02*
X14566667Y-22448046D01*
X14585714Y-22438522D01*
X14595238Y-22428998D01*
X14614286Y-22400427D01*
X14623809Y-22362332D01*
X14623809Y-22286141D01*
X14614286Y-22267094D01*
X14604762Y-22257570D01*
X14585714Y-22248046D01*
X14547619Y-22248046D01*
X14528571Y-22257570D01*
X14519048Y-22267094D01*
X14509524Y-22286141D01*
X14509524Y-22333760D01*
X14519048Y-22352808D01*
X14528571Y-22362332D01*
X14547619Y-22371856D01*
X14585714Y-22371856D01*
X14604762Y-22362332D01*
X14614286Y-22352808D01*
X14623809Y-22333760D01*
X14795238Y-22314713D02*
X14795238Y-22448046D01*
X14747619Y-22238522D02*
X14700000Y-22381379D01*
X14823809Y-22381379D01*
X14890476Y-22248046D02*
X14890476Y-22286141D01*
X14966667Y-22248046D02*
X14966667Y-22286141D01*
X15261905Y-22524237D02*
X15252381Y-22514713D01*
X15233333Y-22486141D01*
X15223809Y-22467094D01*
X15214286Y-22438522D01*
X15204762Y-22390903D01*
X15204762Y-22352808D01*
X15214286Y-22305189D01*
X15223809Y-22276618D01*
X15233333Y-22257570D01*
X15252381Y-22228999D01*
X15261905Y-22219475D01*
X15423809Y-22248046D02*
X15385714Y-22248046D01*
X15366667Y-22257570D01*
X15357143Y-22267094D01*
X15338095Y-22295665D01*
X15328571Y-22333760D01*
X15328571Y-22409951D01*
X15338095Y-22428998D01*
X15347619Y-22438522D01*
X15366667Y-22448046D01*
X15404762Y-22448046D01*
X15423809Y-22438522D01*
X15433333Y-22428998D01*
X15442857Y-22409951D01*
X15442857Y-22362332D01*
X15433333Y-22343284D01*
X15423809Y-22333760D01*
X15404762Y-22324237D01*
X15366667Y-22324237D01*
X15347619Y-22333760D01*
X15338095Y-22343284D01*
X15328571Y-22362332D01*
X15623809Y-22248046D02*
X15528571Y-22248046D01*
X15519048Y-22343284D01*
X15528571Y-22333760D01*
X15547619Y-22324237D01*
X15595238Y-22324237D01*
X15614286Y-22333760D01*
X15623809Y-22343284D01*
X15633333Y-22362332D01*
X15633333Y-22409951D01*
X15623809Y-22428998D01*
X15614286Y-22438522D01*
X15595238Y-22448046D01*
X15547619Y-22448046D01*
X15528571Y-22438522D01*
X15519048Y-22428998D01*
X15871428Y-22448046D02*
X15871428Y-22248046D01*
X15957143Y-22448046D02*
X15957143Y-22343284D01*
X15947619Y-22324237D01*
X15928571Y-22314713D01*
X15900000Y-22314713D01*
X15880952Y-22324237D01*
X15871428Y-22333760D01*
X16080952Y-22448046D02*
X16061905Y-22438522D01*
X16052381Y-22428998D01*
X16042857Y-22409951D01*
X16042857Y-22352808D01*
X16052381Y-22333760D01*
X16061905Y-22324237D01*
X16080952Y-22314713D01*
X16109524Y-22314713D01*
X16128571Y-22324237D01*
X16138095Y-22333760D01*
X16147619Y-22352808D01*
X16147619Y-22409951D01*
X16138095Y-22428998D01*
X16128571Y-22438522D01*
X16109524Y-22448046D01*
X16080952Y-22448046D01*
X16261905Y-22448046D02*
X16242857Y-22438522D01*
X16233333Y-22419475D01*
X16233333Y-22248046D01*
X16414286Y-22438522D02*
X16395238Y-22448046D01*
X16357143Y-22448046D01*
X16338095Y-22438522D01*
X16328571Y-22419475D01*
X16328571Y-22343284D01*
X16338095Y-22324237D01*
X16357143Y-22314713D01*
X16395238Y-22314713D01*
X16414286Y-22324237D01*
X16423809Y-22343284D01*
X16423809Y-22362332D01*
X16328571Y-22381379D01*
X16500000Y-22438522D02*
X16519048Y-22448046D01*
X16557143Y-22448046D01*
X16576190Y-22438522D01*
X16585714Y-22419475D01*
X16585714Y-22409951D01*
X16576190Y-22390903D01*
X16557143Y-22381379D01*
X16528571Y-22381379D01*
X16509524Y-22371856D01*
X16500000Y-22352808D01*
X16500000Y-22343284D01*
X16509524Y-22324237D01*
X16528571Y-22314713D01*
X16557143Y-22314713D01*
X16576190Y-22324237D01*
X16652381Y-22524237D02*
X16661905Y-22514713D01*
X16680952Y-22486141D01*
X16690476Y-22467094D01*
X16700000Y-22438522D01*
X16709524Y-22390903D01*
X16709524Y-22352808D01*
X16700000Y-22305189D01*
X16690476Y-22276618D01*
X16680952Y-22257570D01*
X16661905Y-22228999D01*
X16652381Y-22219475D01*
D16*
X11580000Y-22566570D02*
X11690000Y-22676570D01*
X11690000Y-22566570D02*
X11580000Y-22676570D01*
X11690000Y-22621570D02*
G75*
G03*
X11690000Y-22621570I-55000J0D01*
G01*
D10*
X12052381Y-22712046D02*
X11938095Y-22712046D01*
X11995238Y-22712046D02*
X11995238Y-22512046D01*
X11976190Y-22540618D01*
X11957143Y-22559665D01*
X11938095Y-22569189D01*
X12138095Y-22692998D02*
X12147619Y-22702522D01*
X12138095Y-22712046D01*
X12128571Y-22702522D01*
X12138095Y-22692998D01*
X12138095Y-22712046D01*
X12338095Y-22712046D02*
X12223809Y-22712046D01*
X12280952Y-22712046D02*
X12280952Y-22512046D01*
X12261905Y-22540618D01*
X12242857Y-22559665D01*
X12223809Y-22569189D01*
X12461905Y-22512046D02*
X12480952Y-22512046D01*
X12500000Y-22521570D01*
X12509524Y-22531094D01*
X12519048Y-22550141D01*
X12528571Y-22588237D01*
X12528571Y-22635856D01*
X12519048Y-22673951D01*
X12509524Y-22692998D01*
X12500000Y-22702522D01*
X12480952Y-22712046D01*
X12461905Y-22712046D01*
X12442857Y-22702522D01*
X12433333Y-22692998D01*
X12423809Y-22673951D01*
X12414286Y-22635856D01*
X12414286Y-22588237D01*
X12423809Y-22550141D01*
X12433333Y-22531094D01*
X12442857Y-22521570D01*
X12461905Y-22512046D01*
X12652381Y-22512046D02*
X12671428Y-22512046D01*
X12690476Y-22521570D01*
X12700000Y-22531094D01*
X12709524Y-22550141D01*
X12719048Y-22588237D01*
X12719048Y-22635856D01*
X12709524Y-22673951D01*
X12700000Y-22692998D01*
X12690476Y-22702522D01*
X12671428Y-22712046D01*
X12652381Y-22712046D01*
X12633333Y-22702522D01*
X12623809Y-22692998D01*
X12614286Y-22673951D01*
X12604762Y-22635856D01*
X12604762Y-22588237D01*
X12614286Y-22550141D01*
X12623809Y-22531094D01*
X12633333Y-22521570D01*
X12652381Y-22512046D01*
X12804762Y-22712046D02*
X12804762Y-22578713D01*
X12804762Y-22597760D02*
X12814286Y-22588237D01*
X12833333Y-22578713D01*
X12861905Y-22578713D01*
X12880952Y-22588237D01*
X12890476Y-22607284D01*
X12890476Y-22712046D01*
X12890476Y-22607284D02*
X12900000Y-22588237D01*
X12919048Y-22578713D01*
X12947619Y-22578713D01*
X12966667Y-22588237D01*
X12976190Y-22607284D01*
X12976190Y-22712046D01*
X13071428Y-22712046D02*
X13071428Y-22578713D01*
X13071428Y-22597760D02*
X13080952Y-22588237D01*
X13100000Y-22578713D01*
X13128571Y-22578713D01*
X13147619Y-22588237D01*
X13157143Y-22607284D01*
X13157143Y-22712046D01*
X13157143Y-22607284D02*
X13166667Y-22588237D01*
X13185714Y-22578713D01*
X13214286Y-22578713D01*
X13233333Y-22588237D01*
X13242857Y-22607284D01*
X13242857Y-22712046D01*
X13633333Y-22502522D02*
X13461905Y-22759665D01*
X13890476Y-22512046D02*
X13909524Y-22512046D01*
X13928571Y-22521570D01*
X13938095Y-22531094D01*
X13947619Y-22550141D01*
X13957143Y-22588237D01*
X13957143Y-22635856D01*
X13947619Y-22673951D01*
X13938095Y-22692998D01*
X13928571Y-22702522D01*
X13909524Y-22712046D01*
X13890476Y-22712046D01*
X13871428Y-22702522D01*
X13861905Y-22692998D01*
X13852381Y-22673951D01*
X13842857Y-22635856D01*
X13842857Y-22588237D01*
X13852381Y-22550141D01*
X13861905Y-22531094D01*
X13871428Y-22521570D01*
X13890476Y-22512046D01*
X14042857Y-22692998D02*
X14052381Y-22702522D01*
X14042857Y-22712046D01*
X14033333Y-22702522D01*
X14042857Y-22692998D01*
X14042857Y-22712046D01*
X14176190Y-22512046D02*
X14195238Y-22512046D01*
X14214286Y-22521570D01*
X14223809Y-22531094D01*
X14233333Y-22550141D01*
X14242857Y-22588237D01*
X14242857Y-22635856D01*
X14233333Y-22673951D01*
X14223809Y-22692998D01*
X14214286Y-22702522D01*
X14195238Y-22712046D01*
X14176190Y-22712046D01*
X14157143Y-22702522D01*
X14147619Y-22692998D01*
X14138095Y-22673951D01*
X14128571Y-22635856D01*
X14128571Y-22588237D01*
X14138095Y-22550141D01*
X14147619Y-22531094D01*
X14157143Y-22521570D01*
X14176190Y-22512046D01*
X14414286Y-22578713D02*
X14414286Y-22712046D01*
X14366667Y-22502522D02*
X14319048Y-22645379D01*
X14442857Y-22645379D01*
X14500000Y-22512046D02*
X14623809Y-22512046D01*
X14557143Y-22588237D01*
X14585714Y-22588237D01*
X14604762Y-22597760D01*
X14614286Y-22607284D01*
X14623809Y-22626332D01*
X14623809Y-22673951D01*
X14614286Y-22692998D01*
X14604762Y-22702522D01*
X14585714Y-22712046D01*
X14528571Y-22712046D01*
X14509524Y-22702522D01*
X14500000Y-22692998D01*
X14690476Y-22512046D02*
X14814286Y-22512046D01*
X14747619Y-22588237D01*
X14776190Y-22588237D01*
X14795238Y-22597760D01*
X14804762Y-22607284D01*
X14814286Y-22626332D01*
X14814286Y-22673951D01*
X14804762Y-22692998D01*
X14795238Y-22702522D01*
X14776190Y-22712046D01*
X14719048Y-22712046D01*
X14700000Y-22702522D01*
X14690476Y-22692998D01*
X14890476Y-22512046D02*
X14890476Y-22550141D01*
X14966667Y-22512046D02*
X14966667Y-22550141D01*
X15261905Y-22788237D02*
X15252381Y-22778713D01*
X15233333Y-22750141D01*
X15223809Y-22731094D01*
X15214286Y-22702522D01*
X15204762Y-22654903D01*
X15204762Y-22616808D01*
X15214286Y-22569189D01*
X15223809Y-22540618D01*
X15233333Y-22521570D01*
X15252381Y-22492998D01*
X15261905Y-22483475D01*
X15423809Y-22578713D02*
X15423809Y-22712046D01*
X15376190Y-22502522D02*
X15328571Y-22645379D01*
X15452381Y-22645379D01*
X15680952Y-22712046D02*
X15680952Y-22512046D01*
X15766667Y-22712046D02*
X15766667Y-22607284D01*
X15757143Y-22588237D01*
X15738095Y-22578713D01*
X15709524Y-22578713D01*
X15690476Y-22588237D01*
X15680952Y-22597760D01*
X15890476Y-22712046D02*
X15871428Y-22702522D01*
X15861905Y-22692998D01*
X15852381Y-22673951D01*
X15852381Y-22616808D01*
X15861905Y-22597760D01*
X15871428Y-22588237D01*
X15890476Y-22578713D01*
X15919048Y-22578713D01*
X15938095Y-22588237D01*
X15947619Y-22597760D01*
X15957143Y-22616808D01*
X15957143Y-22673951D01*
X15947619Y-22692998D01*
X15938095Y-22702522D01*
X15919048Y-22712046D01*
X15890476Y-22712046D01*
X16071428Y-22712046D02*
X16052381Y-22702522D01*
X16042857Y-22683475D01*
X16042857Y-22512046D01*
X16223809Y-22702522D02*
X16204762Y-22712046D01*
X16166667Y-22712046D01*
X16147619Y-22702522D01*
X16138095Y-22683475D01*
X16138095Y-22607284D01*
X16147619Y-22588237D01*
X16166667Y-22578713D01*
X16204762Y-22578713D01*
X16223809Y-22588237D01*
X16233333Y-22607284D01*
X16233333Y-22626332D01*
X16138095Y-22645379D01*
X16309524Y-22702522D02*
X16328571Y-22712046D01*
X16366667Y-22712046D01*
X16385714Y-22702522D01*
X16395238Y-22683475D01*
X16395238Y-22673951D01*
X16385714Y-22654903D01*
X16366667Y-22645379D01*
X16338095Y-22645379D01*
X16319048Y-22635856D01*
X16309524Y-22616808D01*
X16309524Y-22607284D01*
X16319048Y-22588237D01*
X16338095Y-22578713D01*
X16366667Y-22578713D01*
X16385714Y-22588237D01*
X16461905Y-22788237D02*
X16471428Y-22778713D01*
X16490476Y-22750141D01*
X16500000Y-22731094D01*
X16509524Y-22702522D01*
X16519048Y-22654903D01*
X16519048Y-22616808D01*
X16509524Y-22569189D01*
X16500000Y-22540618D01*
X16490476Y-22521570D01*
X16471428Y-22492998D01*
X16461905Y-22483475D01*
D17*
X11570000Y-22825570D02*
X11690000Y-22945570D01*
X11690000Y-22825570D02*
X11570000Y-22945570D01*
X11630000Y-22825570D02*
X11630000Y-22945570D01*
X11570000Y-22885570D02*
X11690000Y-22885570D01*
D10*
X12052381Y-22976046D02*
X11938095Y-22976046D01*
X11995238Y-22976046D02*
X11995238Y-22776046D01*
X11976190Y-22804618D01*
X11957143Y-22823665D01*
X11938095Y-22833189D01*
X12138095Y-22956998D02*
X12147619Y-22966522D01*
X12138095Y-22976046D01*
X12128571Y-22966522D01*
X12138095Y-22956998D01*
X12138095Y-22976046D01*
X12223809Y-22795094D02*
X12233333Y-22785570D01*
X12252381Y-22776046D01*
X12300000Y-22776046D01*
X12319048Y-22785570D01*
X12328571Y-22795094D01*
X12338095Y-22814141D01*
X12338095Y-22833189D01*
X12328571Y-22861760D01*
X12214286Y-22976046D01*
X12338095Y-22976046D01*
X12461905Y-22776046D02*
X12480952Y-22776046D01*
X12500000Y-22785570D01*
X12509524Y-22795094D01*
X12519048Y-22814141D01*
X12528571Y-22852237D01*
X12528571Y-22899856D01*
X12519048Y-22937951D01*
X12509524Y-22956998D01*
X12500000Y-22966522D01*
X12480952Y-22976046D01*
X12461905Y-22976046D01*
X12442857Y-22966522D01*
X12433333Y-22956998D01*
X12423809Y-22937951D01*
X12414286Y-22899856D01*
X12414286Y-22852237D01*
X12423809Y-22814141D01*
X12433333Y-22795094D01*
X12442857Y-22785570D01*
X12461905Y-22776046D01*
X12652381Y-22776046D02*
X12671428Y-22776046D01*
X12690476Y-22785570D01*
X12700000Y-22795094D01*
X12709524Y-22814141D01*
X12719048Y-22852237D01*
X12719048Y-22899856D01*
X12709524Y-22937951D01*
X12700000Y-22956998D01*
X12690476Y-22966522D01*
X12671428Y-22976046D01*
X12652381Y-22976046D01*
X12633333Y-22966522D01*
X12623809Y-22956998D01*
X12614286Y-22937951D01*
X12604762Y-22899856D01*
X12604762Y-22852237D01*
X12614286Y-22814141D01*
X12623809Y-22795094D01*
X12633333Y-22785570D01*
X12652381Y-22776046D01*
X12804762Y-22976046D02*
X12804762Y-22842713D01*
X12804762Y-22861760D02*
X12814286Y-22852237D01*
X12833333Y-22842713D01*
X12861905Y-22842713D01*
X12880952Y-22852237D01*
X12890476Y-22871284D01*
X12890476Y-22976046D01*
X12890476Y-22871284D02*
X12900000Y-22852237D01*
X12919048Y-22842713D01*
X12947619Y-22842713D01*
X12966667Y-22852237D01*
X12976190Y-22871284D01*
X12976190Y-22976046D01*
X13071428Y-22976046D02*
X13071428Y-22842713D01*
X13071428Y-22861760D02*
X13080952Y-22852237D01*
X13100000Y-22842713D01*
X13128571Y-22842713D01*
X13147619Y-22852237D01*
X13157143Y-22871284D01*
X13157143Y-22976046D01*
X13157143Y-22871284D02*
X13166667Y-22852237D01*
X13185714Y-22842713D01*
X13214286Y-22842713D01*
X13233333Y-22852237D01*
X13242857Y-22871284D01*
X13242857Y-22976046D01*
X13633333Y-22766522D02*
X13461905Y-23023665D01*
X13890476Y-22776046D02*
X13909524Y-22776046D01*
X13928571Y-22785570D01*
X13938095Y-22795094D01*
X13947619Y-22814141D01*
X13957143Y-22852237D01*
X13957143Y-22899856D01*
X13947619Y-22937951D01*
X13938095Y-22956998D01*
X13928571Y-22966522D01*
X13909524Y-22976046D01*
X13890476Y-22976046D01*
X13871428Y-22966522D01*
X13861905Y-22956998D01*
X13852381Y-22937951D01*
X13842857Y-22899856D01*
X13842857Y-22852237D01*
X13852381Y-22814141D01*
X13861905Y-22795094D01*
X13871428Y-22785570D01*
X13890476Y-22776046D01*
X14042857Y-22956998D02*
X14052381Y-22966522D01*
X14042857Y-22976046D01*
X14033333Y-22966522D01*
X14042857Y-22956998D01*
X14042857Y-22976046D01*
X14176190Y-22776046D02*
X14195238Y-22776046D01*
X14214286Y-22785570D01*
X14223809Y-22795094D01*
X14233333Y-22814141D01*
X14242857Y-22852237D01*
X14242857Y-22899856D01*
X14233333Y-22937951D01*
X14223809Y-22956998D01*
X14214286Y-22966522D01*
X14195238Y-22976046D01*
X14176190Y-22976046D01*
X14157143Y-22966522D01*
X14147619Y-22956998D01*
X14138095Y-22937951D01*
X14128571Y-22899856D01*
X14128571Y-22852237D01*
X14138095Y-22814141D01*
X14147619Y-22795094D01*
X14157143Y-22785570D01*
X14176190Y-22776046D01*
X14414286Y-22842713D02*
X14414286Y-22976046D01*
X14366667Y-22766522D02*
X14319048Y-22909379D01*
X14442857Y-22909379D01*
X14500000Y-22776046D02*
X14633333Y-22776046D01*
X14547619Y-22976046D01*
X14700000Y-22795094D02*
X14709524Y-22785570D01*
X14728571Y-22776046D01*
X14776190Y-22776046D01*
X14795238Y-22785570D01*
X14804762Y-22795094D01*
X14814286Y-22814141D01*
X14814286Y-22833189D01*
X14804762Y-22861760D01*
X14690476Y-22976046D01*
X14814286Y-22976046D01*
X14890476Y-22776046D02*
X14890476Y-22814141D01*
X14966667Y-22776046D02*
X14966667Y-22814141D01*
X15261905Y-23052237D02*
X15252381Y-23042713D01*
X15233333Y-23014141D01*
X15223809Y-22995094D01*
X15214286Y-22966522D01*
X15204762Y-22918903D01*
X15204762Y-22880808D01*
X15214286Y-22833189D01*
X15223809Y-22804618D01*
X15233333Y-22785570D01*
X15252381Y-22756998D01*
X15261905Y-22747475D01*
X15442857Y-22976046D02*
X15328571Y-22976046D01*
X15385714Y-22976046D02*
X15385714Y-22776046D01*
X15366667Y-22804618D01*
X15347619Y-22823665D01*
X15328571Y-22833189D01*
X15519048Y-22795094D02*
X15528571Y-22785570D01*
X15547619Y-22776046D01*
X15595238Y-22776046D01*
X15614286Y-22785570D01*
X15623809Y-22795094D01*
X15633333Y-22814141D01*
X15633333Y-22833189D01*
X15623809Y-22861760D01*
X15509524Y-22976046D01*
X15633333Y-22976046D01*
X15871428Y-22976046D02*
X15871428Y-22776046D01*
X15957143Y-22976046D02*
X15957143Y-22871284D01*
X15947619Y-22852237D01*
X15928571Y-22842713D01*
X15900000Y-22842713D01*
X15880952Y-22852237D01*
X15871428Y-22861760D01*
X16080952Y-22976046D02*
X16061905Y-22966522D01*
X16052381Y-22956998D01*
X16042857Y-22937951D01*
X16042857Y-22880808D01*
X16052381Y-22861760D01*
X16061905Y-22852237D01*
X16080952Y-22842713D01*
X16109524Y-22842713D01*
X16128571Y-22852237D01*
X16138095Y-22861760D01*
X16147619Y-22880808D01*
X16147619Y-22937951D01*
X16138095Y-22956998D01*
X16128571Y-22966522D01*
X16109524Y-22976046D01*
X16080952Y-22976046D01*
X16261905Y-22976046D02*
X16242857Y-22966522D01*
X16233333Y-22947475D01*
X16233333Y-22776046D01*
X16414286Y-22966522D02*
X16395238Y-22976046D01*
X16357143Y-22976046D01*
X16338095Y-22966522D01*
X16328571Y-22947475D01*
X16328571Y-22871284D01*
X16338095Y-22852237D01*
X16357143Y-22842713D01*
X16395238Y-22842713D01*
X16414286Y-22852237D01*
X16423809Y-22871284D01*
X16423809Y-22890332D01*
X16328571Y-22909379D01*
X16500000Y-22966522D02*
X16519048Y-22976046D01*
X16557143Y-22976046D01*
X16576190Y-22966522D01*
X16585714Y-22947475D01*
X16585714Y-22937951D01*
X16576190Y-22918903D01*
X16557143Y-22909379D01*
X16528571Y-22909379D01*
X16509524Y-22899856D01*
X16500000Y-22880808D01*
X16500000Y-22871284D01*
X16509524Y-22852237D01*
X16528571Y-22842713D01*
X16557143Y-22842713D01*
X16576190Y-22852237D01*
X16652381Y-23052237D02*
X16661905Y-23042713D01*
X16680952Y-23014141D01*
X16690476Y-22995094D01*
X16700000Y-22966522D01*
X16709524Y-22918903D01*
X16709524Y-22880808D01*
X16700000Y-22833189D01*
X16690476Y-22804618D01*
X16680952Y-22785570D01*
X16661905Y-22756998D01*
X16652381Y-22747475D01*
D18*
X11550000Y-23079570D02*
X11690000Y-23219570D01*
X11690000Y-23079570D02*
X11550000Y-23219570D01*
X11669498Y-23199068D02*
X11669498Y-23100072D01*
X11570502Y-23100072D01*
X11570502Y-23199068D01*
X11669498Y-23199068D01*
D10*
X12052381Y-23240046D02*
X11938095Y-23240046D01*
X11995238Y-23240046D02*
X11995238Y-23040046D01*
X11976190Y-23068618D01*
X11957143Y-23087665D01*
X11938095Y-23097189D01*
X12138095Y-23220998D02*
X12147619Y-23230522D01*
X12138095Y-23240046D01*
X12128571Y-23230522D01*
X12138095Y-23220998D01*
X12138095Y-23240046D01*
X12319048Y-23106713D02*
X12319048Y-23240046D01*
X12271428Y-23030522D02*
X12223809Y-23173379D01*
X12347619Y-23173379D01*
X12461905Y-23040046D02*
X12480952Y-23040046D01*
X12500000Y-23049570D01*
X12509524Y-23059094D01*
X12519048Y-23078141D01*
X12528571Y-23116237D01*
X12528571Y-23163856D01*
X12519048Y-23201951D01*
X12509524Y-23220998D01*
X12500000Y-23230522D01*
X12480952Y-23240046D01*
X12461905Y-23240046D01*
X12442857Y-23230522D01*
X12433333Y-23220998D01*
X12423809Y-23201951D01*
X12414286Y-23163856D01*
X12414286Y-23116237D01*
X12423809Y-23078141D01*
X12433333Y-23059094D01*
X12442857Y-23049570D01*
X12461905Y-23040046D01*
X12652381Y-23040046D02*
X12671428Y-23040046D01*
X12690476Y-23049570D01*
X12700000Y-23059094D01*
X12709524Y-23078141D01*
X12719048Y-23116237D01*
X12719048Y-23163856D01*
X12709524Y-23201951D01*
X12700000Y-23220998D01*
X12690476Y-23230522D01*
X12671428Y-23240046D01*
X12652381Y-23240046D01*
X12633333Y-23230522D01*
X12623809Y-23220998D01*
X12614286Y-23201951D01*
X12604762Y-23163856D01*
X12604762Y-23116237D01*
X12614286Y-23078141D01*
X12623809Y-23059094D01*
X12633333Y-23049570D01*
X12652381Y-23040046D01*
X12804762Y-23240046D02*
X12804762Y-23106713D01*
X12804762Y-23125760D02*
X12814286Y-23116237D01*
X12833333Y-23106713D01*
X12861905Y-23106713D01*
X12880952Y-23116237D01*
X12890476Y-23135284D01*
X12890476Y-23240046D01*
X12890476Y-23135284D02*
X12900000Y-23116237D01*
X12919048Y-23106713D01*
X12947619Y-23106713D01*
X12966667Y-23116237D01*
X12976190Y-23135284D01*
X12976190Y-23240046D01*
X13071428Y-23240046D02*
X13071428Y-23106713D01*
X13071428Y-23125760D02*
X13080952Y-23116237D01*
X13100000Y-23106713D01*
X13128571Y-23106713D01*
X13147619Y-23116237D01*
X13157143Y-23135284D01*
X13157143Y-23240046D01*
X13157143Y-23135284D02*
X13166667Y-23116237D01*
X13185714Y-23106713D01*
X13214286Y-23106713D01*
X13233333Y-23116237D01*
X13242857Y-23135284D01*
X13242857Y-23240046D01*
X13633333Y-23030522D02*
X13461905Y-23287665D01*
X13890476Y-23040046D02*
X13909524Y-23040046D01*
X13928571Y-23049570D01*
X13938095Y-23059094D01*
X13947619Y-23078141D01*
X13957143Y-23116237D01*
X13957143Y-23163856D01*
X13947619Y-23201951D01*
X13938095Y-23220998D01*
X13928571Y-23230522D01*
X13909524Y-23240046D01*
X13890476Y-23240046D01*
X13871428Y-23230522D01*
X13861905Y-23220998D01*
X13852381Y-23201951D01*
X13842857Y-23163856D01*
X13842857Y-23116237D01*
X13852381Y-23078141D01*
X13861905Y-23059094D01*
X13871428Y-23049570D01*
X13890476Y-23040046D01*
X14042857Y-23220998D02*
X14052381Y-23230522D01*
X14042857Y-23240046D01*
X14033333Y-23230522D01*
X14042857Y-23220998D01*
X14042857Y-23240046D01*
X14176190Y-23040046D02*
X14195238Y-23040046D01*
X14214286Y-23049570D01*
X14223809Y-23059094D01*
X14233333Y-23078141D01*
X14242857Y-23116237D01*
X14242857Y-23163856D01*
X14233333Y-23201951D01*
X14223809Y-23220998D01*
X14214286Y-23230522D01*
X14195238Y-23240046D01*
X14176190Y-23240046D01*
X14157143Y-23230522D01*
X14147619Y-23220998D01*
X14138095Y-23201951D01*
X14128571Y-23163856D01*
X14128571Y-23116237D01*
X14138095Y-23078141D01*
X14147619Y-23059094D01*
X14157143Y-23049570D01*
X14176190Y-23040046D01*
X14423809Y-23040046D02*
X14328571Y-23040046D01*
X14319048Y-23135284D01*
X14328571Y-23125760D01*
X14347619Y-23116237D01*
X14395238Y-23116237D01*
X14414286Y-23125760D01*
X14423809Y-23135284D01*
X14433333Y-23154332D01*
X14433333Y-23201951D01*
X14423809Y-23220998D01*
X14414286Y-23230522D01*
X14395238Y-23240046D01*
X14347619Y-23240046D01*
X14328571Y-23230522D01*
X14319048Y-23220998D01*
X14614286Y-23040046D02*
X14519048Y-23040046D01*
X14509524Y-23135284D01*
X14519048Y-23125760D01*
X14538095Y-23116237D01*
X14585714Y-23116237D01*
X14604762Y-23125760D01*
X14614286Y-23135284D01*
X14623809Y-23154332D01*
X14623809Y-23201951D01*
X14614286Y-23220998D01*
X14604762Y-23230522D01*
X14585714Y-23240046D01*
X14538095Y-23240046D01*
X14519048Y-23230522D01*
X14509524Y-23220998D01*
X14814286Y-23240046D02*
X14700000Y-23240046D01*
X14757143Y-23240046D02*
X14757143Y-23040046D01*
X14738095Y-23068618D01*
X14719048Y-23087665D01*
X14700000Y-23097189D01*
X14890476Y-23040046D02*
X14890476Y-23078141D01*
X14966667Y-23040046D02*
X14966667Y-23078141D01*
X15261905Y-23316237D02*
X15252381Y-23306713D01*
X15233333Y-23278141D01*
X15223809Y-23259094D01*
X15214286Y-23230522D01*
X15204762Y-23182903D01*
X15204762Y-23144808D01*
X15214286Y-23097189D01*
X15223809Y-23068618D01*
X15233333Y-23049570D01*
X15252381Y-23020998D01*
X15261905Y-23011475D01*
X15423809Y-23040046D02*
X15385714Y-23040046D01*
X15366667Y-23049570D01*
X15357143Y-23059094D01*
X15338095Y-23087665D01*
X15328571Y-23125760D01*
X15328571Y-23201951D01*
X15338095Y-23220998D01*
X15347619Y-23230522D01*
X15366667Y-23240046D01*
X15404762Y-23240046D01*
X15423809Y-23230522D01*
X15433333Y-23220998D01*
X15442857Y-23201951D01*
X15442857Y-23154332D01*
X15433333Y-23135284D01*
X15423809Y-23125760D01*
X15404762Y-23116237D01*
X15366667Y-23116237D01*
X15347619Y-23125760D01*
X15338095Y-23135284D01*
X15328571Y-23154332D01*
X15680952Y-23240046D02*
X15680952Y-23040046D01*
X15766667Y-23240046D02*
X15766667Y-23135284D01*
X15757143Y-23116237D01*
X15738095Y-23106713D01*
X15709524Y-23106713D01*
X15690476Y-23116237D01*
X15680952Y-23125760D01*
X15890476Y-23240046D02*
X15871428Y-23230522D01*
X15861905Y-23220998D01*
X15852381Y-23201951D01*
X15852381Y-23144808D01*
X15861905Y-23125760D01*
X15871428Y-23116237D01*
X15890476Y-23106713D01*
X15919048Y-23106713D01*
X15938095Y-23116237D01*
X15947619Y-23125760D01*
X15957143Y-23144808D01*
X15957143Y-23201951D01*
X15947619Y-23220998D01*
X15938095Y-23230522D01*
X15919048Y-23240046D01*
X15890476Y-23240046D01*
X16071428Y-23240046D02*
X16052381Y-23230522D01*
X16042857Y-23211475D01*
X16042857Y-23040046D01*
X16223809Y-23230522D02*
X16204762Y-23240046D01*
X16166667Y-23240046D01*
X16147619Y-23230522D01*
X16138095Y-23211475D01*
X16138095Y-23135284D01*
X16147619Y-23116237D01*
X16166667Y-23106713D01*
X16204762Y-23106713D01*
X16223809Y-23116237D01*
X16233333Y-23135284D01*
X16233333Y-23154332D01*
X16138095Y-23173379D01*
X16309524Y-23230522D02*
X16328571Y-23240046D01*
X16366667Y-23240046D01*
X16385714Y-23230522D01*
X16395238Y-23211475D01*
X16395238Y-23201951D01*
X16385714Y-23182903D01*
X16366667Y-23173379D01*
X16338095Y-23173379D01*
X16319048Y-23163856D01*
X16309524Y-23144808D01*
X16309524Y-23135284D01*
X16319048Y-23116237D01*
X16338095Y-23106713D01*
X16366667Y-23106713D01*
X16385714Y-23116237D01*
X16461905Y-23316237D02*
X16471428Y-23306713D01*
X16490476Y-23278141D01*
X16500000Y-23259094D01*
X16509524Y-23230522D01*
X16519048Y-23182903D01*
X16519048Y-23144808D01*
X16509524Y-23097189D01*
X16500000Y-23068618D01*
X16490476Y-23049570D01*
X16471428Y-23020998D01*
X16461905Y-23011475D01*
D19*
X11540000Y-23338570D02*
X11690000Y-23488570D01*
X11690000Y-23338570D02*
X11540000Y-23488570D01*
X11615000Y-23488570D02*
X11690000Y-23413570D01*
X11615000Y-23338570D01*
X11540000Y-23413570D01*
X11615000Y-23488570D01*
D10*
X12052381Y-23504046D02*
X11938095Y-23504046D01*
X11995238Y-23504046D02*
X11995238Y-23304046D01*
X11976190Y-23332618D01*
X11957143Y-23351665D01*
X11938095Y-23361189D01*
X12138095Y-23484998D02*
X12147619Y-23494522D01*
X12138095Y-23504046D01*
X12128571Y-23494522D01*
X12138095Y-23484998D01*
X12138095Y-23504046D01*
X12328571Y-23304046D02*
X12233333Y-23304046D01*
X12223809Y-23399284D01*
X12233333Y-23389760D01*
X12252381Y-23380237D01*
X12300000Y-23380237D01*
X12319048Y-23389760D01*
X12328571Y-23399284D01*
X12338095Y-23418332D01*
X12338095Y-23465951D01*
X12328571Y-23484998D01*
X12319048Y-23494522D01*
X12300000Y-23504046D01*
X12252381Y-23504046D01*
X12233333Y-23494522D01*
X12223809Y-23484998D01*
X12461905Y-23304046D02*
X12480952Y-23304046D01*
X12500000Y-23313570D01*
X12509524Y-23323094D01*
X12519048Y-23342141D01*
X12528571Y-23380237D01*
X12528571Y-23427856D01*
X12519048Y-23465951D01*
X12509524Y-23484998D01*
X12500000Y-23494522D01*
X12480952Y-23504046D01*
X12461905Y-23504046D01*
X12442857Y-23494522D01*
X12433333Y-23484998D01*
X12423809Y-23465951D01*
X12414286Y-23427856D01*
X12414286Y-23380237D01*
X12423809Y-23342141D01*
X12433333Y-23323094D01*
X12442857Y-23313570D01*
X12461905Y-23304046D01*
X12652381Y-23304046D02*
X12671428Y-23304046D01*
X12690476Y-23313570D01*
X12700000Y-23323094D01*
X12709524Y-23342141D01*
X12719048Y-23380237D01*
X12719048Y-23427856D01*
X12709524Y-23465951D01*
X12700000Y-23484998D01*
X12690476Y-23494522D01*
X12671428Y-23504046D01*
X12652381Y-23504046D01*
X12633333Y-23494522D01*
X12623809Y-23484998D01*
X12614286Y-23465951D01*
X12604762Y-23427856D01*
X12604762Y-23380237D01*
X12614286Y-23342141D01*
X12623809Y-23323094D01*
X12633333Y-23313570D01*
X12652381Y-23304046D01*
X12804762Y-23504046D02*
X12804762Y-23370713D01*
X12804762Y-23389760D02*
X12814286Y-23380237D01*
X12833333Y-23370713D01*
X12861905Y-23370713D01*
X12880952Y-23380237D01*
X12890476Y-23399284D01*
X12890476Y-23504046D01*
X12890476Y-23399284D02*
X12900000Y-23380237D01*
X12919048Y-23370713D01*
X12947619Y-23370713D01*
X12966667Y-23380237D01*
X12976190Y-23399284D01*
X12976190Y-23504046D01*
X13071428Y-23504046D02*
X13071428Y-23370713D01*
X13071428Y-23389760D02*
X13080952Y-23380237D01*
X13100000Y-23370713D01*
X13128571Y-23370713D01*
X13147619Y-23380237D01*
X13157143Y-23399284D01*
X13157143Y-23504046D01*
X13157143Y-23399284D02*
X13166667Y-23380237D01*
X13185714Y-23370713D01*
X13214286Y-23370713D01*
X13233333Y-23380237D01*
X13242857Y-23399284D01*
X13242857Y-23504046D01*
X13633333Y-23294522D02*
X13461905Y-23551665D01*
X13890476Y-23304046D02*
X13909524Y-23304046D01*
X13928571Y-23313570D01*
X13938095Y-23323094D01*
X13947619Y-23342141D01*
X13957143Y-23380237D01*
X13957143Y-23427856D01*
X13947619Y-23465951D01*
X13938095Y-23484998D01*
X13928571Y-23494522D01*
X13909524Y-23504046D01*
X13890476Y-23504046D01*
X13871428Y-23494522D01*
X13861905Y-23484998D01*
X13852381Y-23465951D01*
X13842857Y-23427856D01*
X13842857Y-23380237D01*
X13852381Y-23342141D01*
X13861905Y-23323094D01*
X13871428Y-23313570D01*
X13890476Y-23304046D01*
X14042857Y-23484998D02*
X14052381Y-23494522D01*
X14042857Y-23504046D01*
X14033333Y-23494522D01*
X14042857Y-23484998D01*
X14042857Y-23504046D01*
X14176190Y-23304046D02*
X14195238Y-23304046D01*
X14214286Y-23313570D01*
X14223809Y-23323094D01*
X14233333Y-23342141D01*
X14242857Y-23380237D01*
X14242857Y-23427856D01*
X14233333Y-23465951D01*
X14223809Y-23484998D01*
X14214286Y-23494522D01*
X14195238Y-23504046D01*
X14176190Y-23504046D01*
X14157143Y-23494522D01*
X14147619Y-23484998D01*
X14138095Y-23465951D01*
X14128571Y-23427856D01*
X14128571Y-23380237D01*
X14138095Y-23342141D01*
X14147619Y-23323094D01*
X14157143Y-23313570D01*
X14176190Y-23304046D01*
X14423809Y-23304046D02*
X14328571Y-23304046D01*
X14319048Y-23399284D01*
X14328571Y-23389760D01*
X14347619Y-23380237D01*
X14395238Y-23380237D01*
X14414286Y-23389760D01*
X14423809Y-23399284D01*
X14433333Y-23418332D01*
X14433333Y-23465951D01*
X14423809Y-23484998D01*
X14414286Y-23494522D01*
X14395238Y-23504046D01*
X14347619Y-23504046D01*
X14328571Y-23494522D01*
X14319048Y-23484998D01*
X14528571Y-23504046D02*
X14566667Y-23504046D01*
X14585714Y-23494522D01*
X14595238Y-23484998D01*
X14614286Y-23456427D01*
X14623809Y-23418332D01*
X14623809Y-23342141D01*
X14614286Y-23323094D01*
X14604762Y-23313570D01*
X14585714Y-23304046D01*
X14547619Y-23304046D01*
X14528571Y-23313570D01*
X14519048Y-23323094D01*
X14509524Y-23342141D01*
X14509524Y-23389760D01*
X14519048Y-23408808D01*
X14528571Y-23418332D01*
X14547619Y-23427856D01*
X14585714Y-23427856D01*
X14604762Y-23418332D01*
X14614286Y-23408808D01*
X14623809Y-23389760D01*
X14814286Y-23504046D02*
X14700000Y-23504046D01*
X14757143Y-23504046D02*
X14757143Y-23304046D01*
X14738095Y-23332618D01*
X14719048Y-23351665D01*
X14700000Y-23361189D01*
X14890476Y-23304046D02*
X14890476Y-23342141D01*
X14966667Y-23304046D02*
X14966667Y-23342141D01*
X15261905Y-23580237D02*
X15252381Y-23570713D01*
X15233333Y-23542141D01*
X15223809Y-23523094D01*
X15214286Y-23494522D01*
X15204762Y-23446903D01*
X15204762Y-23408808D01*
X15214286Y-23361189D01*
X15223809Y-23332618D01*
X15233333Y-23313570D01*
X15252381Y-23284998D01*
X15261905Y-23275475D01*
X15442857Y-23504046D02*
X15328571Y-23504046D01*
X15385714Y-23504046D02*
X15385714Y-23304046D01*
X15366667Y-23332618D01*
X15347619Y-23351665D01*
X15328571Y-23361189D01*
X15519048Y-23323094D02*
X15528571Y-23313570D01*
X15547619Y-23304046D01*
X15595238Y-23304046D01*
X15614286Y-23313570D01*
X15623809Y-23323094D01*
X15633333Y-23342141D01*
X15633333Y-23361189D01*
X15623809Y-23389760D01*
X15509524Y-23504046D01*
X15633333Y-23504046D01*
X15871428Y-23504046D02*
X15871428Y-23304046D01*
X15957143Y-23504046D02*
X15957143Y-23399284D01*
X15947619Y-23380237D01*
X15928571Y-23370713D01*
X15900000Y-23370713D01*
X15880952Y-23380237D01*
X15871428Y-23389760D01*
X16080952Y-23504046D02*
X16061905Y-23494522D01*
X16052381Y-23484998D01*
X16042857Y-23465951D01*
X16042857Y-23408808D01*
X16052381Y-23389760D01*
X16061905Y-23380237D01*
X16080952Y-23370713D01*
X16109524Y-23370713D01*
X16128571Y-23380237D01*
X16138095Y-23389760D01*
X16147619Y-23408808D01*
X16147619Y-23465951D01*
X16138095Y-23484998D01*
X16128571Y-23494522D01*
X16109524Y-23504046D01*
X16080952Y-23504046D01*
X16261905Y-23504046D02*
X16242857Y-23494522D01*
X16233333Y-23475475D01*
X16233333Y-23304046D01*
X16414286Y-23494522D02*
X16395238Y-23504046D01*
X16357143Y-23504046D01*
X16338095Y-23494522D01*
X16328571Y-23475475D01*
X16328571Y-23399284D01*
X16338095Y-23380237D01*
X16357143Y-23370713D01*
X16395238Y-23370713D01*
X16414286Y-23380237D01*
X16423809Y-23399284D01*
X16423809Y-23418332D01*
X16328571Y-23437379D01*
X16500000Y-23494522D02*
X16519048Y-23504046D01*
X16557143Y-23504046D01*
X16576190Y-23494522D01*
X16585714Y-23475475D01*
X16585714Y-23465951D01*
X16576190Y-23446903D01*
X16557143Y-23437379D01*
X16528571Y-23437379D01*
X16509524Y-23427856D01*
X16500000Y-23408808D01*
X16500000Y-23399284D01*
X16509524Y-23380237D01*
X16528571Y-23370713D01*
X16557143Y-23370713D01*
X16576190Y-23380237D01*
X16652381Y-23580237D02*
X16661905Y-23570713D01*
X16680952Y-23542141D01*
X16690476Y-23523094D01*
X16700000Y-23494522D01*
X16709524Y-23446903D01*
X16709524Y-23408808D01*
X16700000Y-23361189D01*
X16690476Y-23332618D01*
X16680952Y-23313570D01*
X16661905Y-23284998D01*
X16652381Y-23275475D01*
M02*
