%TF.GenerationSoftware,KiCad,Pcbnew,(6.0.9)*%
%TF.CreationDate,2022-11-10T21:35:02+01:00*%
%TF.ProjectId,libre-MIG-rounded,6c696272-652d-44d4-9947-2d726f756e64,v0.1*%
%TF.SameCoordinates,Original*%
%TF.FileFunction,Drillmap*%
%TF.FilePolarity,Positive*%
%FSLAX45Y45*%
G04 Gerber Fmt 4.5, Leading zero omitted, Abs format (unit mm)*
G04 Created by KiCad (PCBNEW (6.0.9)) date 2022-11-10 21:35:02*
%MOMM*%
%LPD*%
G01*
G04 APERTURE LIST*
%ADD10C,0.200000*%
%ADD11C,0.040000*%
%ADD12C,0.060000*%
%ADD13C,0.075000*%
%ADD14C,0.080000*%
%ADD15C,0.100000*%
%ADD16C,0.110000*%
%ADD17C,0.120000*%
%ADD18C,0.140000*%
%ADD19C,0.150000*%
G04 APERTURE END LIST*
D10*
X13500000Y-18350000D02*
G75*
G03*
X13430000Y-18520000I129348J-152673D01*
G01*
X26600000Y-12630000D02*
G75*
G03*
X26535000Y-13040000I-150J-210129D01*
G01*
X15760000Y-15800000D02*
G75*
G03*
X15760000Y-16300000I0J-250000D01*
G01*
X15930000Y-19800000D02*
G75*
G03*
X16130000Y-19600000I0J200000D01*
G01*
X12509996Y-16120000D02*
G75*
G03*
X12310000Y-15720000I-455686J22160D01*
G01*
X16630000Y-17530000D02*
X16630000Y-17010000D01*
X22630000Y-17010000D02*
G75*
G03*
X22210000Y-16515000I-504594J-2459D01*
G01*
X27815000Y-17250000D02*
G75*
G03*
X27400000Y-16563000I-772992J1900D01*
G01*
X26400000Y-14790000D02*
G75*
G03*
X26535000Y-13040000I-295777J903024D01*
G01*
X25220000Y-14230000D02*
G75*
G03*
X24700000Y-14320000I-252212J-90000D01*
G01*
X19100000Y-16300000D02*
G75*
G03*
X17040000Y-16516000I213443J-11966760D01*
G01*
X25750000Y-13000000D02*
G75*
G03*
X25277500Y-13420000I356656J-877019D01*
G01*
X23410000Y-16360000D02*
G75*
G03*
X23130000Y-16640000I0J-280000D01*
G01*
X12430000Y-18520000D02*
G75*
G03*
X12360000Y-18350000I-199348J17327D01*
G01*
X27200000Y-10630000D02*
X27200000Y-12630000D01*
X24700000Y-11300000D02*
G75*
G03*
X23700000Y-10300000I-1000000J0D01*
G01*
X16130000Y-19600000D02*
X16130000Y-18520000D01*
X14330003Y-18119996D02*
G75*
G03*
X13610000Y-18240000I-306703J-379784D01*
G01*
X14330000Y-19600000D02*
X14330000Y-18120000D01*
X16130000Y-16500000D02*
G75*
G03*
X15930000Y-16300000I-200000J0D01*
G01*
X15760000Y-15800000D02*
X19110000Y-15800000D01*
X22630000Y-18620000D02*
X22625000Y-19250000D01*
X14330000Y-16500000D02*
X14330000Y-17230000D01*
X25830000Y-20650000D02*
X25400000Y-20650000D01*
X20110000Y-15800000D02*
X23700000Y-15800000D01*
X23630000Y-16360000D02*
G75*
G03*
X25085000Y-15410000I1130J1587493D01*
G01*
X13320000Y-16050000D02*
X13320000Y-16440000D01*
X11700000Y-14800000D02*
G75*
G03*
X12310000Y-15720000I1004320J3680D01*
G01*
X26510000Y-15500000D02*
G75*
G03*
X27400000Y-16563000I1719276J535391D01*
G01*
X25200000Y-11300000D02*
X25200000Y-10630000D01*
X13430000Y-16790000D02*
G75*
G03*
X13500000Y-16960000I199347J-17328D01*
G01*
X22630000Y-17620000D02*
G75*
G03*
X23130000Y-17620000I250000J0D01*
G01*
X22630000Y-17620000D02*
X22630000Y-17010000D01*
X27200000Y-12630000D02*
X26600000Y-12630000D01*
X24460000Y-19875000D02*
G75*
G03*
X25400000Y-20650000I933612J174816D01*
G01*
X24700000Y-13160000D02*
G75*
G03*
X25277500Y-13420000I347218J-134D01*
G01*
X23700000Y-15800000D02*
G75*
G03*
X24700000Y-14800000I0J1000000D01*
G01*
X23410000Y-16360000D02*
X23630000Y-16360000D01*
X13700000Y-17190000D02*
G75*
G03*
X13500000Y-16960000I-763142J-461646D01*
G01*
X25395000Y-15180000D02*
G75*
G03*
X25085000Y-15410000I44366J-383711D01*
G01*
X15760000Y-16300000D02*
X15930000Y-16300000D01*
X19100000Y-16300000D02*
G75*
G03*
X19110000Y-15800000I9998J249900D01*
G01*
X23130000Y-18620000D02*
G75*
G03*
X22630000Y-18620000I-250000J0D01*
G01*
X14530000Y-16300000D02*
G75*
G03*
X14330000Y-16500000I-4J-199996D01*
G01*
X25200000Y-12300000D02*
G75*
G03*
X24700000Y-12300000I-250000J0D01*
G01*
X24700000Y-14800000D02*
X24700000Y-14320000D01*
X25200000Y-12630000D02*
X25200000Y-12300000D01*
X25830000Y-20650000D02*
G75*
G03*
X26700000Y-19880000I-2314J879108D01*
G01*
X16625000Y-19225000D02*
G75*
G03*
X17245000Y-19710000I500228J678D01*
G01*
X12430000Y-18520000D02*
G75*
G03*
X13430000Y-18520000I500000J-35805D01*
G01*
X25200000Y-10630000D02*
X27200000Y-10630000D01*
X16130000Y-16500000D02*
X16130000Y-17530000D01*
X26510000Y-15500000D02*
G75*
G03*
X26320000Y-15250000I-436963J-134892D01*
G01*
X12700000Y-10300000D02*
G75*
G03*
X11700000Y-11300000I0J-1000000D01*
G01*
X27365000Y-18960000D02*
G75*
G03*
X27815000Y-18230000I-363564J727813D01*
G01*
X17040000Y-16516000D02*
G75*
G03*
X16630000Y-17010000I88984J-490995D01*
G01*
X13700000Y-17190000D02*
G75*
G03*
X14330000Y-17230000I333303J268270D01*
G01*
X14530000Y-19800000D02*
X15930000Y-19800000D01*
X11700000Y-11300000D02*
X11700000Y-14800000D01*
X27815000Y-17250000D02*
X27815000Y-18230000D01*
X23130000Y-18900000D02*
X23130000Y-18620000D01*
X26400000Y-14790000D02*
G75*
G03*
X26320000Y-15250000I79411J-250767D01*
G01*
X13500000Y-18350000D02*
G75*
G03*
X13610000Y-18240000I-248724J358724D01*
G01*
X16630000Y-18530000D02*
G75*
G03*
X16130000Y-18520000I-250100J2D01*
G01*
X22033000Y-19716000D02*
G75*
G03*
X17245000Y-19710000I-2406165J-9704825D01*
G01*
X24700000Y-12300000D02*
X24700000Y-13160000D01*
X14760000Y-16300000D02*
G75*
G03*
X14760000Y-15800000I0J250000D01*
G01*
X25750000Y-13000000D02*
G75*
G03*
X25620000Y-12630000I-130683J161922D01*
G01*
X14760000Y-15800000D02*
X13460000Y-15800000D01*
X25395000Y-15180000D02*
G75*
G03*
X25532500Y-14645000I-31489J293262D01*
G01*
X22210000Y-16515000D02*
G75*
G03*
X20110000Y-16300000I-2287686J-11981526D01*
G01*
X25220000Y-14230000D02*
G75*
G03*
X25532500Y-14645000I873392J332517D01*
G01*
X12360000Y-16960000D02*
G75*
G03*
X12430000Y-16790000I-129347J152672D01*
G01*
X16630000Y-18530000D02*
X16625000Y-19225000D01*
X25620000Y-12630000D02*
X25200000Y-12630000D01*
X12510000Y-16120000D02*
X12510000Y-16480000D01*
X20110000Y-15800000D02*
G75*
G03*
X20110000Y-16300000I0J-250000D01*
G01*
X23700000Y-10300000D02*
X12700000Y-10300000D01*
X24700000Y-11300000D02*
G75*
G03*
X25200000Y-11300000I250000J0D01*
G01*
X23130000Y-17620000D02*
X23130000Y-16640000D01*
X23400000Y-19180000D02*
X23630000Y-19180000D01*
X22033000Y-19716000D02*
G75*
G03*
X22625000Y-19250000I113735J464547D01*
G01*
X27365000Y-18959000D02*
G75*
G03*
X26700000Y-19880000I527596J-1081525D01*
G01*
X12510000Y-16480000D02*
G75*
G03*
X12430000Y-16790000I438480J-278479D01*
G01*
X16130000Y-17530000D02*
G75*
G03*
X16630000Y-17530000I250000J0D01*
G01*
X23130000Y-18900000D02*
G75*
G03*
X23400000Y-19180000I275000J-5000D01*
G01*
X24460000Y-19875000D02*
G75*
G03*
X23630000Y-19180000I-830753J-149011D01*
G01*
X14760000Y-16300000D02*
X14530000Y-16300000D01*
X13460001Y-15800001D02*
G75*
G03*
X13320000Y-16050000I133639J-239039D01*
G01*
X14330000Y-19600000D02*
G75*
G03*
X14530000Y-19800000I200001J1D01*
G01*
X13430000Y-16790000D02*
G75*
G03*
X13320000Y-16440000I-507840J32679D01*
G01*
X12360000Y-16960000D02*
G75*
G03*
X12360000Y-18350000I570896J-695000D01*
G01*
D11*
X11800000Y-13920000D02*
X11840000Y-13960000D01*
X11840000Y-13920000D02*
X11800000Y-13960000D01*
X11800000Y-14170000D02*
X11840000Y-14210000D01*
X11840000Y-14170000D02*
X11800000Y-14210000D01*
X11800000Y-14390000D02*
X11840000Y-14430000D01*
X11840000Y-14390000D02*
X11800000Y-14430000D01*
X11800000Y-14650000D02*
X11840000Y-14690000D01*
X11840000Y-14650000D02*
X11800000Y-14690000D01*
X11800000Y-14890000D02*
X11840000Y-14930000D01*
X11840000Y-14890000D02*
X11800000Y-14930000D01*
X11860000Y-12080000D02*
X11900000Y-12120000D01*
X11900000Y-12080000D02*
X11860000Y-12120000D01*
X11860000Y-15110000D02*
X11900000Y-15150000D01*
X11900000Y-15110000D02*
X11860000Y-15150000D01*
X11960000Y-13920000D02*
X12000000Y-13960000D01*
X12000000Y-13920000D02*
X11960000Y-13960000D01*
X11960000Y-14170000D02*
X12000000Y-14210000D01*
X12000000Y-14170000D02*
X11960000Y-14210000D01*
X11960000Y-14390000D02*
X12000000Y-14430000D01*
X12000000Y-14390000D02*
X11960000Y-14430000D01*
X11960000Y-14650000D02*
X12000000Y-14690000D01*
X12000000Y-14650000D02*
X11960000Y-14690000D01*
X11960000Y-14890000D02*
X12000000Y-14930000D01*
X12000000Y-14890000D02*
X11960000Y-14930000D01*
X12000000Y-15260000D02*
X12040000Y-15300000D01*
X12040000Y-15260000D02*
X12000000Y-15300000D01*
X12030000Y-12240000D02*
X12070000Y-12280000D01*
X12070000Y-12240000D02*
X12030000Y-12280000D01*
X12030000Y-15030000D02*
X12070000Y-15070000D01*
X12070000Y-15030000D02*
X12030000Y-15070000D01*
X12110000Y-13920000D02*
X12150000Y-13960000D01*
X12150000Y-13920000D02*
X12110000Y-13960000D01*
X12110000Y-14170000D02*
X12150000Y-14210000D01*
X12150000Y-14170000D02*
X12110000Y-14210000D01*
X12110000Y-14390000D02*
X12150000Y-14430000D01*
X12150000Y-14390000D02*
X12110000Y-14430000D01*
X12110000Y-14650000D02*
X12150000Y-14690000D01*
X12150000Y-14650000D02*
X12110000Y-14690000D01*
X12140000Y-15150000D02*
X12180000Y-15190000D01*
X12180000Y-15150000D02*
X12140000Y-15190000D01*
X12190000Y-12420000D02*
X12230000Y-12460000D01*
X12230000Y-12420000D02*
X12190000Y-12460000D01*
X12190000Y-15370000D02*
X12230000Y-15410000D01*
X12230000Y-15370000D02*
X12190000Y-15410000D01*
X12300000Y-15240000D02*
X12340000Y-15280000D01*
X12340000Y-15240000D02*
X12300000Y-15280000D01*
X12423334Y-15420000D02*
X12463334Y-15460000D01*
X12463334Y-15420000D02*
X12423334Y-15460000D01*
X12548889Y-15240000D02*
X12588889Y-15280000D01*
X12588889Y-15240000D02*
X12548889Y-15280000D01*
X12550000Y-15090000D02*
X12590000Y-15130000D01*
X12590000Y-15090000D02*
X12550000Y-15130000D01*
X12610000Y-11360000D02*
X12650000Y-11400000D01*
X12650000Y-11360000D02*
X12610000Y-11400000D01*
X12640000Y-14420000D02*
X12680000Y-14460000D01*
X12680000Y-14420000D02*
X12640000Y-14460000D01*
X12672222Y-15420000D02*
X12712222Y-15460000D01*
X12712222Y-15420000D02*
X12672222Y-15460000D01*
X12750000Y-12040000D02*
X12790000Y-12080000D01*
X12790000Y-12040000D02*
X12750000Y-12080000D01*
X12750000Y-12340000D02*
X12790000Y-12380000D01*
X12790000Y-12340000D02*
X12750000Y-12380000D01*
X12750000Y-12640000D02*
X12790000Y-12680000D01*
X12790000Y-12640000D02*
X12750000Y-12680000D01*
X12750000Y-12960000D02*
X12790000Y-13000000D01*
X12790000Y-12960000D02*
X12750000Y-13000000D01*
X12750000Y-13250000D02*
X12790000Y-13290000D01*
X12790000Y-13250000D02*
X12750000Y-13290000D01*
X12750000Y-13520000D02*
X12790000Y-13560000D01*
X12790000Y-13520000D02*
X12750000Y-13560000D01*
X12750000Y-13800000D02*
X12790000Y-13840000D01*
X12790000Y-13800000D02*
X12750000Y-13840000D01*
X12750000Y-14090000D02*
X12790000Y-14130000D01*
X12790000Y-14090000D02*
X12750000Y-14130000D01*
X12770000Y-11510000D02*
X12810000Y-11550000D01*
X12810000Y-11510000D02*
X12770000Y-11550000D01*
X12797778Y-15240000D02*
X12837778Y-15280000D01*
X12837778Y-15240000D02*
X12797778Y-15280000D01*
X12798889Y-15090000D02*
X12838889Y-15130000D01*
X12838889Y-15090000D02*
X12798889Y-15130000D01*
X12810000Y-11810000D02*
X12850000Y-11850000D01*
X12850000Y-11810000D02*
X12810000Y-11850000D01*
X12840000Y-11270000D02*
X12880000Y-11310000D01*
X12880000Y-11270000D02*
X12840000Y-11310000D01*
X12921111Y-15420000D02*
X12961111Y-15460000D01*
X12961111Y-15420000D02*
X12921111Y-15460000D01*
X12940000Y-11670000D02*
X12980000Y-11710000D01*
X12980000Y-11670000D02*
X12940000Y-11710000D01*
X12970000Y-11310000D02*
X13010000Y-11350000D01*
X13010000Y-11310000D02*
X12970000Y-11350000D01*
X12970000Y-11480000D02*
X13010000Y-11520000D01*
X13010000Y-11480000D02*
X12970000Y-11520000D01*
X13040000Y-14070000D02*
X13080000Y-14110000D01*
X13080000Y-14070000D02*
X13040000Y-14110000D01*
X13046666Y-15240000D02*
X13086666Y-15280000D01*
X13086666Y-15240000D02*
X13046666Y-15280000D01*
X13047778Y-15090000D02*
X13087778Y-15130000D01*
X13087778Y-15090000D02*
X13047778Y-15130000D01*
X13170000Y-12340000D02*
X13210000Y-12380000D01*
X13210000Y-12340000D02*
X13170000Y-12380000D01*
X13170000Y-12640000D02*
X13210000Y-12680000D01*
X13210000Y-12640000D02*
X13170000Y-12680000D01*
X13170000Y-13250000D02*
X13210000Y-13290000D01*
X13210000Y-13250000D02*
X13170000Y-13290000D01*
X13170000Y-13520000D02*
X13210000Y-13560000D01*
X13210000Y-13520000D02*
X13170000Y-13560000D01*
X13170000Y-13800000D02*
X13210000Y-13840000D01*
X13210000Y-13800000D02*
X13170000Y-13840000D01*
X13170000Y-15420000D02*
X13210000Y-15460000D01*
X13210000Y-15420000D02*
X13170000Y-15460000D01*
X13180000Y-12960000D02*
X13220000Y-13000000D01*
X13220000Y-12960000D02*
X13180000Y-13000000D01*
X13200000Y-14040000D02*
X13240000Y-14080000D01*
X13240000Y-14040000D02*
X13200000Y-14080000D01*
X13260000Y-11310000D02*
X13300000Y-11350000D01*
X13300000Y-11310000D02*
X13260000Y-11350000D01*
X13260000Y-11480000D02*
X13300000Y-11520000D01*
X13300000Y-11480000D02*
X13260000Y-11520000D01*
X13295555Y-15240000D02*
X13335555Y-15280000D01*
X13335555Y-15240000D02*
X13295555Y-15280000D01*
X13296666Y-15090000D02*
X13336666Y-15130000D01*
X13336666Y-15090000D02*
X13296666Y-15130000D01*
X13400000Y-12130000D02*
X13440000Y-12170000D01*
X13440000Y-12130000D02*
X13400000Y-12170000D01*
X13544444Y-15240000D02*
X13584444Y-15280000D01*
X13584444Y-15240000D02*
X13544444Y-15280000D01*
X13545555Y-15090000D02*
X13585555Y-15130000D01*
X13585555Y-15090000D02*
X13545555Y-15130000D01*
X13660000Y-12130000D02*
X13700000Y-12170000D01*
X13700000Y-12130000D02*
X13660000Y-12170000D01*
X13793333Y-15240000D02*
X13833333Y-15280000D01*
X13833333Y-15240000D02*
X13793333Y-15280000D01*
X13794444Y-15090000D02*
X13834444Y-15130000D01*
X13834444Y-15090000D02*
X13794444Y-15130000D01*
X13900000Y-12220000D02*
X13940000Y-12260000D01*
X13940000Y-12220000D02*
X13900000Y-12260000D01*
X14042222Y-15240000D02*
X14082222Y-15280000D01*
X14082222Y-15240000D02*
X14042222Y-15280000D01*
X14043333Y-15090000D02*
X14083333Y-15130000D01*
X14083333Y-15090000D02*
X14043333Y-15130000D01*
X14110000Y-12140000D02*
X14150000Y-12180000D01*
X14150000Y-12140000D02*
X14110000Y-12180000D01*
X14291110Y-15240000D02*
X14331110Y-15280000D01*
X14331110Y-15240000D02*
X14291110Y-15280000D01*
X14292222Y-15090000D02*
X14332222Y-15130000D01*
X14332222Y-15090000D02*
X14292222Y-15130000D01*
X14470000Y-14220000D02*
X14510000Y-14260000D01*
X14510000Y-14220000D02*
X14470000Y-14260000D01*
X14540000Y-15240000D02*
X14580000Y-15280000D01*
X14580000Y-15240000D02*
X14540000Y-15280000D01*
X14541110Y-15090000D02*
X14581110Y-15130000D01*
X14581110Y-15090000D02*
X14541110Y-15130000D01*
X14660000Y-11940000D02*
X14700000Y-11980000D01*
X14700000Y-11940000D02*
X14660000Y-11980000D01*
X14680000Y-11690000D02*
X14720000Y-11730000D01*
X14720000Y-11690000D02*
X14680000Y-11730000D01*
X14680000Y-15320000D02*
X14720000Y-15360000D01*
X14720000Y-15320000D02*
X14680000Y-15360000D01*
X14710000Y-12370000D02*
X14750000Y-12410000D01*
X14750000Y-12370000D02*
X14710000Y-12410000D01*
X14740000Y-11580000D02*
X14780000Y-11620000D01*
X14780000Y-11580000D02*
X14740000Y-11620000D01*
X14790000Y-15090000D02*
X14830000Y-15130000D01*
X14830000Y-15090000D02*
X14790000Y-15130000D01*
X14790000Y-17828579D02*
X14830000Y-17868579D01*
X14830000Y-17828579D02*
X14790000Y-17868579D01*
X14910000Y-15240000D02*
X14950000Y-15280000D01*
X14950000Y-15240000D02*
X14910000Y-15280000D01*
X14940000Y-11560000D02*
X14980000Y-11600000D01*
X14980000Y-11560000D02*
X14940000Y-11600000D01*
X14940000Y-11970000D02*
X14980000Y-12010000D01*
X14980000Y-11970000D02*
X14940000Y-12010000D01*
X15010000Y-11190000D02*
X15050000Y-11230000D01*
X15050000Y-11190000D02*
X15010000Y-11230000D01*
X15100000Y-11560000D02*
X15140000Y-11600000D01*
X15140000Y-11560000D02*
X15100000Y-11600000D01*
X15110000Y-11030000D02*
X15150000Y-11070000D01*
X15150000Y-11030000D02*
X15110000Y-11070000D01*
X15120000Y-11300000D02*
X15160000Y-11340000D01*
X15160000Y-11300000D02*
X15120000Y-11340000D01*
X15240000Y-11410000D02*
X15280000Y-11450000D01*
X15280000Y-11410000D02*
X15240000Y-11450000D01*
X15260000Y-11560000D02*
X15300000Y-11600000D01*
X15300000Y-11560000D02*
X15260000Y-11600000D01*
X15291300Y-10650000D02*
X15331300Y-10690000D01*
X15331300Y-10650000D02*
X15291300Y-10690000D01*
X15291300Y-10830000D02*
X15331300Y-10870000D01*
X15331300Y-10830000D02*
X15291300Y-10870000D01*
X15291300Y-11010000D02*
X15331300Y-11050000D01*
X15331300Y-11010000D02*
X15291300Y-11050000D01*
X15291300Y-11190000D02*
X15331300Y-11230000D01*
X15331300Y-11190000D02*
X15291300Y-11230000D01*
X15405000Y-10544900D02*
X15445000Y-10584900D01*
X15445000Y-10544900D02*
X15405000Y-10584900D01*
X15410000Y-11560000D02*
X15450000Y-11600000D01*
X15450000Y-11560000D02*
X15410000Y-11600000D01*
X15440000Y-11320000D02*
X15480000Y-11360000D01*
X15480000Y-11320000D02*
X15440000Y-11360000D01*
X15500000Y-12110000D02*
X15540000Y-12150000D01*
X15540000Y-12110000D02*
X15500000Y-12150000D01*
X15530000Y-11760000D02*
X15570000Y-11800000D01*
X15570000Y-11760000D02*
X15530000Y-11800000D01*
X15531300Y-10430000D02*
X15571300Y-10470000D01*
X15571300Y-10430000D02*
X15531300Y-10470000D01*
X15545000Y-14645000D02*
X15585000Y-14685000D01*
X15585000Y-14645000D02*
X15545000Y-14685000D01*
X15680190Y-10430000D02*
X15720190Y-10470000D01*
X15720190Y-10430000D02*
X15680190Y-10470000D01*
X15700000Y-12240000D02*
X15740000Y-12280000D01*
X15740000Y-12240000D02*
X15700000Y-12280000D01*
X15720000Y-11980000D02*
X15760000Y-12020000D01*
X15760000Y-11980000D02*
X15720000Y-12020000D01*
X15730000Y-11800000D02*
X15770000Y-11840000D01*
X15770000Y-11800000D02*
X15730000Y-11840000D01*
X15810000Y-11740000D02*
X15850000Y-11780000D01*
X15850000Y-11740000D02*
X15810000Y-11780000D01*
X15829078Y-10430000D02*
X15869078Y-10470000D01*
X15869078Y-10430000D02*
X15829078Y-10470000D01*
X15900000Y-12240000D02*
X15940000Y-12280000D01*
X15940000Y-12240000D02*
X15900000Y-12280000D01*
X15977967Y-10430000D02*
X16017967Y-10470000D01*
X16017967Y-10430000D02*
X15977967Y-10470000D01*
X15980000Y-11820000D02*
X16020000Y-11860000D01*
X16020000Y-11820000D02*
X15980000Y-11860000D01*
X15990000Y-12090000D02*
X16030000Y-12130000D01*
X16030000Y-12090000D02*
X15990000Y-12130000D01*
X16071300Y-11350000D02*
X16111300Y-11390000D01*
X16111300Y-11350000D02*
X16071300Y-11390000D01*
X16126856Y-10430000D02*
X16166856Y-10470000D01*
X16166856Y-10430000D02*
X16126856Y-10470000D01*
X16231300Y-11350000D02*
X16271300Y-11390000D01*
X16271300Y-11350000D02*
X16231300Y-11390000D01*
X16275745Y-10430000D02*
X16315745Y-10470000D01*
X16315745Y-10430000D02*
X16275745Y-10470000D01*
X16310000Y-12540000D02*
X16350000Y-12580000D01*
X16350000Y-12540000D02*
X16310000Y-12580000D01*
X16360000Y-11899150D02*
X16400000Y-11939150D01*
X16400000Y-11899150D02*
X16360000Y-11939150D01*
X16371300Y-11350000D02*
X16411300Y-11390000D01*
X16411300Y-11350000D02*
X16371300Y-11390000D01*
X16400000Y-12440000D02*
X16440000Y-12480000D01*
X16440000Y-12440000D02*
X16400000Y-12480000D01*
X16424634Y-10430000D02*
X16464634Y-10470000D01*
X16464634Y-10430000D02*
X16424634Y-10470000D01*
X16440000Y-12620000D02*
X16480000Y-12660000D01*
X16480000Y-12620000D02*
X16440000Y-12660000D01*
X16500000Y-11840000D02*
X16540000Y-11880000D01*
X16540000Y-11840000D02*
X16500000Y-11880000D01*
X16530000Y-12240000D02*
X16570000Y-12280000D01*
X16570000Y-12240000D02*
X16530000Y-12280000D01*
X16530000Y-12460000D02*
X16570000Y-12500000D01*
X16570000Y-12460000D02*
X16530000Y-12500000D01*
X16560000Y-12110000D02*
X16600000Y-12150000D01*
X16600000Y-12110000D02*
X16560000Y-12150000D01*
X16573522Y-10430000D02*
X16613522Y-10470000D01*
X16613522Y-10430000D02*
X16573522Y-10470000D01*
X16580000Y-12690000D02*
X16620000Y-12730000D01*
X16620000Y-12690000D02*
X16580000Y-12730000D01*
X16712100Y-11297900D02*
X16752100Y-11337900D01*
X16752100Y-11297900D02*
X16712100Y-11337900D01*
X16720000Y-12770000D02*
X16760000Y-12810000D01*
X16760000Y-12770000D02*
X16720000Y-12810000D01*
X16722411Y-10430000D02*
X16762411Y-10470000D01*
X16762411Y-10430000D02*
X16722411Y-10470000D01*
X16760000Y-11680000D02*
X16800000Y-11720000D01*
X16800000Y-11680000D02*
X16760000Y-11720000D01*
X16811300Y-11190000D02*
X16851300Y-11230000D01*
X16851300Y-11190000D02*
X16811300Y-11230000D01*
X16850000Y-12862550D02*
X16890000Y-12902550D01*
X16890000Y-12862550D02*
X16850000Y-12902550D01*
X16871300Y-10430000D02*
X16911300Y-10470000D01*
X16911300Y-10430000D02*
X16871300Y-10470000D01*
X16871300Y-10582000D02*
X16911300Y-10622000D01*
X16911300Y-10582000D02*
X16871300Y-10622000D01*
X16871300Y-10734000D02*
X16911300Y-10774000D01*
X16911300Y-10734000D02*
X16871300Y-10774000D01*
X16871300Y-10886000D02*
X16911300Y-10926000D01*
X16911300Y-10886000D02*
X16871300Y-10926000D01*
X16871300Y-11038000D02*
X16911300Y-11078000D01*
X16911300Y-11038000D02*
X16871300Y-11078000D01*
X17030000Y-11440000D02*
X17070000Y-11480000D01*
X17070000Y-11440000D02*
X17030000Y-11480000D01*
X17182694Y-12742694D02*
X17222694Y-12782694D01*
X17222694Y-12742694D02*
X17182694Y-12782694D01*
X17200000Y-12910000D02*
X17240000Y-12950000D01*
X17240000Y-12910000D02*
X17200000Y-12950000D01*
X17250000Y-16754900D02*
X17290000Y-16794900D01*
X17290000Y-16754900D02*
X17250000Y-16794900D01*
X17300000Y-12660000D02*
X17340000Y-12700000D01*
X17340000Y-12660000D02*
X17300000Y-12700000D01*
X17320000Y-13000000D02*
X17360000Y-13040000D01*
X17360000Y-13000000D02*
X17320000Y-13040000D01*
X17356600Y-11402200D02*
X17396600Y-11442200D01*
X17396600Y-11402200D02*
X17356600Y-11442200D01*
X17410000Y-12530000D02*
X17450000Y-12570000D01*
X17450000Y-12530000D02*
X17410000Y-12570000D01*
X17450000Y-13100000D02*
X17490000Y-13140000D01*
X17490000Y-13100000D02*
X17450000Y-13140000D01*
X17464900Y-17401200D02*
X17504900Y-17441200D01*
X17504900Y-17401200D02*
X17464900Y-17441200D01*
X17484300Y-19400000D02*
X17524300Y-19440000D01*
X17524300Y-19400000D02*
X17484300Y-19440000D01*
X17490000Y-16874900D02*
X17530000Y-16914900D01*
X17530000Y-16874900D02*
X17490000Y-16914900D01*
X17524900Y-17021200D02*
X17564900Y-17061200D01*
X17564900Y-17021200D02*
X17524900Y-17061200D01*
X17600000Y-13210000D02*
X17640000Y-13250000D01*
X17640000Y-13210000D02*
X17600000Y-13250000D01*
X17630000Y-16914900D02*
X17670000Y-16954900D01*
X17670000Y-16914900D02*
X17630000Y-16954900D01*
X17630000Y-17474900D02*
X17670000Y-17514900D01*
X17670000Y-17474900D02*
X17630000Y-17514900D01*
X17684300Y-19400000D02*
X17724300Y-19440000D01*
X17724300Y-19400000D02*
X17684300Y-19440000D01*
X17710000Y-16834900D02*
X17750000Y-16874900D01*
X17750000Y-16834900D02*
X17710000Y-16874900D01*
X17730000Y-17494900D02*
X17770000Y-17534900D01*
X17770000Y-17494900D02*
X17730000Y-17534900D01*
X17770000Y-13330000D02*
X17810000Y-13370000D01*
X17810000Y-13330000D02*
X17770000Y-13370000D01*
X17800000Y-11710000D02*
X17840000Y-11750000D01*
X17840000Y-11710000D02*
X17800000Y-11750000D01*
X17840000Y-12040000D02*
X17880000Y-12080000D01*
X17880000Y-12040000D02*
X17840000Y-12080000D01*
X17884300Y-19400000D02*
X17924300Y-19440000D01*
X17924300Y-19400000D02*
X17884300Y-19440000D01*
X17890000Y-16974900D02*
X17930000Y-17014900D01*
X17930000Y-16974900D02*
X17890000Y-17014900D01*
X17900000Y-12720000D02*
X17940000Y-12760000D01*
X17940000Y-12720000D02*
X17900000Y-12760000D01*
X17990000Y-11630000D02*
X18030000Y-11670000D01*
X18030000Y-11630000D02*
X17990000Y-11670000D01*
X18030000Y-16594900D02*
X18070000Y-16634900D01*
X18070000Y-16594900D02*
X18030000Y-16634900D01*
X18070000Y-17474900D02*
X18110000Y-17514900D01*
X18110000Y-17474900D02*
X18070000Y-17514900D01*
X18090000Y-16894900D02*
X18130000Y-16934900D01*
X18130000Y-16894900D02*
X18090000Y-16934900D01*
X18094300Y-19400000D02*
X18134300Y-19440000D01*
X18134300Y-19400000D02*
X18094300Y-19440000D01*
X18095000Y-14705000D02*
X18135000Y-14745000D01*
X18135000Y-14705000D02*
X18095000Y-14745000D01*
X18104300Y-17980000D02*
X18144300Y-18020000D01*
X18144300Y-17980000D02*
X18104300Y-18020000D01*
X18104905Y-17283655D02*
X18144905Y-17323655D01*
X18144905Y-17283655D02*
X18104905Y-17323655D01*
X18120000Y-11550000D02*
X18160000Y-11590000D01*
X18160000Y-11550000D02*
X18120000Y-11590000D01*
X18140000Y-13680000D02*
X18180000Y-13720000D01*
X18180000Y-13680000D02*
X18140000Y-13720000D01*
X18210000Y-17474900D02*
X18250000Y-17514900D01*
X18250000Y-17474900D02*
X18210000Y-17514900D01*
X18250000Y-13430000D02*
X18290000Y-13470000D01*
X18290000Y-13430000D02*
X18250000Y-13470000D01*
X18254900Y-16901200D02*
X18294900Y-16941200D01*
X18294900Y-16901200D02*
X18254900Y-16941200D01*
X18270000Y-16594900D02*
X18310000Y-16634900D01*
X18310000Y-16594900D02*
X18270000Y-16634900D01*
X18293183Y-17382450D02*
X18333183Y-17422450D01*
X18333183Y-17382450D02*
X18293183Y-17422450D01*
X18304300Y-19390000D02*
X18344300Y-19430000D01*
X18344300Y-19390000D02*
X18304300Y-19430000D01*
X18310000Y-11180000D02*
X18350000Y-11220000D01*
X18350000Y-11180000D02*
X18310000Y-11220000D01*
X18330000Y-13770000D02*
X18370000Y-13810000D01*
X18370000Y-13770000D02*
X18330000Y-13810000D01*
X18380000Y-11600000D02*
X18420000Y-11640000D01*
X18420000Y-11600000D02*
X18380000Y-11640000D01*
X18400000Y-12800000D02*
X18440000Y-12840000D01*
X18440000Y-12800000D02*
X18400000Y-12840000D01*
X18400000Y-13580000D02*
X18440000Y-13620000D01*
X18440000Y-13580000D02*
X18400000Y-13620000D01*
X18420000Y-11950000D02*
X18460000Y-11990000D01*
X18460000Y-11950000D02*
X18420000Y-11990000D01*
X18430000Y-11280000D02*
X18470000Y-11320000D01*
X18470000Y-11280000D02*
X18430000Y-11320000D01*
X18430000Y-12200000D02*
X18470000Y-12240000D01*
X18470000Y-12200000D02*
X18430000Y-12240000D01*
X18470000Y-11760000D02*
X18510000Y-11800000D01*
X18510000Y-11760000D02*
X18470000Y-11800000D01*
X18530000Y-13220000D02*
X18570000Y-13260000D01*
X18570000Y-13220000D02*
X18530000Y-13260000D01*
X18540150Y-16901200D02*
X18580150Y-16941200D01*
X18580150Y-16901200D02*
X18540150Y-16941200D01*
X18569950Y-13010000D02*
X18609950Y-13050000D01*
X18609950Y-13010000D02*
X18569950Y-13050000D01*
X18570000Y-11410000D02*
X18610000Y-11450000D01*
X18610000Y-11410000D02*
X18570000Y-11450000D01*
X18704900Y-16881200D02*
X18744900Y-16921200D01*
X18744900Y-16881200D02*
X18704900Y-16921200D01*
X18720000Y-11860000D02*
X18760000Y-11900000D01*
X18760000Y-11860000D02*
X18720000Y-11900000D01*
X18770000Y-11490000D02*
X18810000Y-11530000D01*
X18810000Y-11490000D02*
X18770000Y-11530000D01*
X18800000Y-13130000D02*
X18840000Y-13170000D01*
X18840000Y-13130000D02*
X18800000Y-13170000D01*
X18830000Y-17154900D02*
X18870000Y-17194900D01*
X18870000Y-17154900D02*
X18830000Y-17194900D01*
X18830000Y-17985700D02*
X18870000Y-18025700D01*
X18870000Y-17985700D02*
X18830000Y-18025700D01*
X18850000Y-17634900D02*
X18890000Y-17674900D01*
X18890000Y-17634900D02*
X18850000Y-17674900D01*
X18855700Y-11254900D02*
X18895700Y-11294900D01*
X18895700Y-11254900D02*
X18855700Y-11294900D01*
X18970000Y-11140000D02*
X19010000Y-11180000D01*
X19010000Y-11140000D02*
X18970000Y-11180000D01*
X19060000Y-11060000D02*
X19100000Y-11100000D01*
X19100000Y-11060000D02*
X19060000Y-11100000D01*
X19070000Y-11790000D02*
X19110000Y-11830000D01*
X19110000Y-11790000D02*
X19070000Y-11830000D01*
X19260000Y-12280000D02*
X19300000Y-12320000D01*
X19300000Y-12280000D02*
X19260000Y-12320000D01*
X19330000Y-11060000D02*
X19370000Y-11100000D01*
X19370000Y-11060000D02*
X19330000Y-11100000D01*
X19330000Y-11410000D02*
X19370000Y-11450000D01*
X19370000Y-11410000D02*
X19330000Y-11450000D01*
X19410000Y-11980000D02*
X19450000Y-12020000D01*
X19450000Y-11980000D02*
X19410000Y-12020000D01*
X19454900Y-17861200D02*
X19494900Y-17901200D01*
X19494900Y-17861200D02*
X19454900Y-17901200D01*
X19560000Y-10760000D02*
X19600000Y-10800000D01*
X19600000Y-10760000D02*
X19560000Y-10800000D01*
X19600000Y-11410000D02*
X19640000Y-11450000D01*
X19640000Y-11410000D02*
X19600000Y-11450000D01*
X19615700Y-12064900D02*
X19655700Y-12104900D01*
X19655700Y-12064900D02*
X19615700Y-12104900D01*
X19745700Y-11964900D02*
X19785700Y-12004900D01*
X19785700Y-11964900D02*
X19745700Y-12004900D01*
X19865700Y-12064900D02*
X19905700Y-12104900D01*
X19905700Y-12064900D02*
X19865700Y-12104900D01*
X19920000Y-11180000D02*
X19960000Y-11220000D01*
X19960000Y-11180000D02*
X19920000Y-11220000D01*
X19974300Y-18000000D02*
X20014300Y-18040000D01*
X20014300Y-18000000D02*
X19974300Y-18040000D01*
X20100000Y-15300000D02*
X20140000Y-15340000D01*
X20140000Y-15300000D02*
X20100000Y-15340000D01*
X20320000Y-12720000D02*
X20360000Y-12760000D01*
X20360000Y-12720000D02*
X20320000Y-12760000D01*
X20320000Y-12900000D02*
X20360000Y-12940000D01*
X20360000Y-12900000D02*
X20320000Y-12940000D01*
X20530000Y-14140000D02*
X20570000Y-14180000D01*
X20570000Y-14140000D02*
X20530000Y-14180000D01*
X20670000Y-14030000D02*
X20710000Y-14070000D01*
X20710000Y-14030000D02*
X20670000Y-14070000D01*
X20670000Y-14280000D02*
X20710000Y-14320000D01*
X20710000Y-14280000D02*
X20670000Y-14320000D01*
X20900000Y-14200000D02*
X20940000Y-14240000D01*
X20940000Y-14200000D02*
X20900000Y-14240000D01*
X21020000Y-11730000D02*
X21060000Y-11770000D01*
X21060000Y-11730000D02*
X21020000Y-11770000D01*
X21110000Y-17454900D02*
X21150000Y-17494900D01*
X21150000Y-17454900D02*
X21110000Y-17494900D01*
X21110000Y-17630000D02*
X21150000Y-17670000D01*
X21150000Y-17630000D02*
X21110000Y-17670000D01*
X21210000Y-11730000D02*
X21250000Y-11770000D01*
X21250000Y-11730000D02*
X21210000Y-11770000D01*
X21230000Y-18040000D02*
X21270000Y-18080000D01*
X21270000Y-18040000D02*
X21230000Y-18080000D01*
X21390000Y-11730000D02*
X21430000Y-11770000D01*
X21430000Y-11730000D02*
X21390000Y-11770000D01*
X25314926Y-19950000D02*
X25354926Y-19990000D01*
X25354926Y-19950000D02*
X25314926Y-19990000D01*
X25497124Y-20177924D02*
X25537124Y-20217924D01*
X25537124Y-20177924D02*
X25497124Y-20217924D01*
X25640000Y-11800000D02*
X25680000Y-11840000D01*
X25680000Y-11800000D02*
X25640000Y-11840000D01*
X25650000Y-12080000D02*
X25690000Y-12120000D01*
X25690000Y-12080000D02*
X25650000Y-12120000D01*
X25700000Y-16110000D02*
X25740000Y-16150000D01*
X25740000Y-16110000D02*
X25700000Y-16150000D01*
X25754300Y-17535100D02*
X25794300Y-17575100D01*
X25794300Y-17535100D02*
X25754300Y-17575100D01*
X25840000Y-19310800D02*
X25880000Y-19350800D01*
X25880000Y-19310800D02*
X25840000Y-19350800D01*
X25930000Y-19539987D02*
X25970000Y-19579987D01*
X25970000Y-19539987D02*
X25930000Y-19579987D01*
X26064300Y-19315100D02*
X26104300Y-19355100D01*
X26104300Y-19315100D02*
X26064300Y-19355100D01*
X26354300Y-11465000D02*
X26394300Y-11505000D01*
X26394300Y-11465000D02*
X26354300Y-11505000D01*
D12*
X25842300Y-10800000D02*
G75*
G03*
X25842300Y-10800000I-30000J0D01*
G01*
D10*
X25842300Y-10830000D02*
X25842300Y-10770000D01*
X25782300Y-10830000D02*
X25782300Y-10770000D01*
X25842300Y-10770000D02*
G75*
G03*
X25782300Y-10770000I-30000J0D01*
G01*
X25782300Y-10830000D02*
G75*
G03*
X25842300Y-10830000I30000J0D01*
G01*
D12*
X25842300Y-11218000D02*
G75*
G03*
X25842300Y-11218000I-30000J0D01*
G01*
D10*
X25842300Y-11273000D02*
X25842300Y-11163000D01*
X25782300Y-11273000D02*
X25782300Y-11163000D01*
X25842300Y-11163000D02*
G75*
G03*
X25782300Y-11163000I-30000J0D01*
G01*
X25782300Y-11273000D02*
G75*
G03*
X25842300Y-11273000I30000J0D01*
G01*
D12*
X26706300Y-10800000D02*
G75*
G03*
X26706300Y-10800000I-30000J0D01*
G01*
D10*
X26706300Y-10830000D02*
X26706300Y-10770000D01*
X26646300Y-10830000D02*
X26646300Y-10770000D01*
X26706300Y-10770000D02*
G75*
G03*
X26646300Y-10770000I-30000J0D01*
G01*
X26646300Y-10830000D02*
G75*
G03*
X26706300Y-10830000I30000J0D01*
G01*
D12*
X26706300Y-11218000D02*
G75*
G03*
X26706300Y-11218000I-30000J0D01*
G01*
D10*
X26706300Y-11273000D02*
X26706300Y-11163000D01*
X26646300Y-11273000D02*
X26646300Y-11163000D01*
X26706300Y-11163000D02*
G75*
G03*
X26646300Y-11163000I-30000J0D01*
G01*
X26646300Y-11273000D02*
G75*
G03*
X26706300Y-11273000I30000J0D01*
G01*
D13*
X12410570Y-17157337D02*
X12410570Y-17232337D01*
X12373070Y-17194837D02*
X12448070Y-17194837D01*
X12610570Y-17157337D02*
X12610570Y-17232337D01*
X12573070Y-17194837D02*
X12648070Y-17194837D01*
X12810570Y-17157337D02*
X12810570Y-17232337D01*
X12773070Y-17194837D02*
X12848070Y-17194837D01*
X13010570Y-17157337D02*
X13010570Y-17232337D01*
X12973070Y-17194837D02*
X13048070Y-17194837D01*
X13115700Y-10697400D02*
X13115700Y-10772400D01*
X13078200Y-10734900D02*
X13153200Y-10734900D01*
X13210570Y-17157337D02*
X13210570Y-17232337D01*
X13173070Y-17194837D02*
X13248070Y-17194837D01*
X13315700Y-10697400D02*
X13315700Y-10772400D01*
X13278200Y-10734900D02*
X13353200Y-10734900D01*
X13410570Y-17157337D02*
X13410570Y-17232337D01*
X13373070Y-17194837D02*
X13448070Y-17194837D01*
X14105000Y-10712500D02*
X14105000Y-10787500D01*
X14067500Y-10750000D02*
X14142500Y-10750000D01*
X14105000Y-10912500D02*
X14105000Y-10987500D01*
X14067500Y-10950000D02*
X14142500Y-10950000D01*
X14105000Y-11112500D02*
X14105000Y-11187500D01*
X14067500Y-11150000D02*
X14142500Y-11150000D01*
X14805000Y-10712500D02*
X14805000Y-10787500D01*
X14767500Y-10750000D02*
X14842500Y-10750000D01*
X14805000Y-10912500D02*
X14805000Y-10987500D01*
X14767500Y-10950000D02*
X14842500Y-10950000D01*
X14805000Y-11112500D02*
X14805000Y-11187500D01*
X14767500Y-11150000D02*
X14842500Y-11150000D01*
X15060000Y-17642500D02*
X15060000Y-17717500D01*
X15022500Y-17680000D02*
X15097500Y-17680000D01*
X15260000Y-17642500D02*
X15260000Y-17717500D01*
X15222500Y-17680000D02*
X15297500Y-17680000D01*
X15460000Y-17642500D02*
X15460000Y-17717500D01*
X15422500Y-17680000D02*
X15497500Y-17680000D01*
X16912800Y-18617400D02*
X16912800Y-18692400D01*
X16875300Y-18654900D02*
X16950300Y-18654900D01*
X16912800Y-18817400D02*
X16912800Y-18892400D01*
X16875300Y-18854900D02*
X16950300Y-18854900D01*
X16912800Y-19017400D02*
X16912800Y-19092400D01*
X16875300Y-19054900D02*
X16950300Y-19054900D01*
X17039900Y-17299800D02*
X17039900Y-17374800D01*
X17002400Y-17337300D02*
X17077400Y-17337300D01*
X17039900Y-17499800D02*
X17039900Y-17574800D01*
X17002400Y-17537300D02*
X17077400Y-17537300D01*
X17039900Y-17699800D02*
X17039900Y-17774800D01*
X17002400Y-17737300D02*
X17077400Y-17737300D01*
X17039900Y-17899800D02*
X17039900Y-17974800D01*
X17002400Y-17937300D02*
X17077400Y-17937300D01*
X17039900Y-18099800D02*
X17039900Y-18174800D01*
X17002400Y-18137300D02*
X17077400Y-18137300D01*
X17509200Y-18686200D02*
X17509200Y-18761200D01*
X17471700Y-18723700D02*
X17546700Y-18723700D01*
X17709200Y-18686200D02*
X17709200Y-18761200D01*
X17671700Y-18723700D02*
X17746700Y-18723700D01*
X17830000Y-10602500D02*
X17830000Y-10677500D01*
X17792500Y-10640000D02*
X17867500Y-10640000D01*
X17830000Y-10802500D02*
X17830000Y-10877500D01*
X17792500Y-10840000D02*
X17867500Y-10840000D01*
X17830000Y-11002500D02*
X17830000Y-11077500D01*
X17792500Y-11040000D02*
X17867500Y-11040000D01*
X17830000Y-11202500D02*
X17830000Y-11277500D01*
X17792500Y-11240000D02*
X17867500Y-11240000D01*
X17830000Y-11402500D02*
X17830000Y-11477500D01*
X17792500Y-11440000D02*
X17867500Y-11440000D01*
X17909200Y-18686200D02*
X17909200Y-18761200D01*
X17871700Y-18723700D02*
X17946700Y-18723700D01*
X18109200Y-18686200D02*
X18109200Y-18761200D01*
X18071700Y-18723700D02*
X18146700Y-18723700D01*
X18309200Y-18686200D02*
X18309200Y-18761200D01*
X18271700Y-18723700D02*
X18346700Y-18723700D01*
X18509200Y-18686200D02*
X18509200Y-18761200D01*
X18471700Y-18723700D02*
X18546700Y-18723700D01*
X19254300Y-18887500D02*
X19254300Y-18962500D01*
X19216800Y-18925000D02*
X19291800Y-18925000D01*
X19454300Y-18887500D02*
X19454300Y-18962500D01*
X19416800Y-18925000D02*
X19491800Y-18925000D01*
X19654300Y-18887500D02*
X19654300Y-18962500D01*
X19616800Y-18925000D02*
X19691800Y-18925000D01*
X19770000Y-16737400D02*
X19770000Y-16812400D01*
X19732500Y-16774900D02*
X19807500Y-16774900D01*
X19970000Y-16737400D02*
X19970000Y-16812400D01*
X19932500Y-16774900D02*
X20007500Y-16774900D01*
X20170000Y-16737400D02*
X20170000Y-16812400D01*
X20132500Y-16774900D02*
X20207500Y-16774900D01*
X20370000Y-16737400D02*
X20370000Y-16812400D01*
X20332500Y-16774900D02*
X20407500Y-16774900D01*
X20570000Y-16737400D02*
X20570000Y-16812400D01*
X20532500Y-16774900D02*
X20607500Y-16774900D01*
X20770000Y-16737400D02*
X20770000Y-16812400D01*
X20732500Y-16774900D02*
X20807500Y-16774900D01*
X20845000Y-18587400D02*
X20845000Y-18662400D01*
X20807500Y-18624900D02*
X20882500Y-18624900D01*
X20845000Y-18787400D02*
X20845000Y-18862400D01*
X20807500Y-18824900D02*
X20882500Y-18824900D01*
X20845000Y-18987400D02*
X20845000Y-19062400D01*
X20807500Y-19024900D02*
X20882500Y-19024900D01*
X20915700Y-10607400D02*
X20915700Y-10682400D01*
X20878200Y-10644900D02*
X20953200Y-10644900D01*
X20915700Y-10807400D02*
X20915700Y-10882400D01*
X20878200Y-10844900D02*
X20953200Y-10844900D01*
X20915700Y-11007400D02*
X20915700Y-11082400D01*
X20878200Y-11044900D02*
X20953200Y-11044900D01*
X20915700Y-11207400D02*
X20915700Y-11282400D01*
X20878200Y-11244900D02*
X20953200Y-11244900D01*
X20915700Y-11407400D02*
X20915700Y-11482400D01*
X20878200Y-11444900D02*
X20953200Y-11444900D01*
X20970000Y-16737400D02*
X20970000Y-16812400D01*
X20932500Y-16774900D02*
X21007500Y-16774900D01*
X21170000Y-16737400D02*
X21170000Y-16812400D01*
X21132500Y-16774900D02*
X21207500Y-16774900D01*
X21470000Y-18967400D02*
X21470000Y-19042400D01*
X21432500Y-19004900D02*
X21507500Y-19004900D01*
X21670000Y-18967400D02*
X21670000Y-19042400D01*
X21632500Y-19004900D02*
X21707500Y-19004900D01*
X21870000Y-18967400D02*
X21870000Y-19042400D01*
X21832500Y-19004900D02*
X21907500Y-19004900D01*
X22306000Y-17101400D02*
X22306000Y-17176400D01*
X22268500Y-17138900D02*
X22343500Y-17138900D01*
X22306000Y-17301400D02*
X22306000Y-17376400D01*
X22268500Y-17338900D02*
X22343500Y-17338900D01*
X22306000Y-17501400D02*
X22306000Y-17576400D01*
X22268500Y-17538900D02*
X22343500Y-17538900D01*
X22306000Y-17701400D02*
X22306000Y-17776400D01*
X22268500Y-17738900D02*
X22343500Y-17738900D01*
X22306000Y-17901400D02*
X22306000Y-17976400D01*
X22268500Y-17938900D02*
X22343500Y-17938900D01*
X22306000Y-18101400D02*
X22306000Y-18176400D01*
X22268500Y-18138900D02*
X22343500Y-18138900D01*
X22306000Y-18301400D02*
X22306000Y-18376400D01*
X22268500Y-18338900D02*
X22343500Y-18338900D01*
X22306000Y-18501400D02*
X22306000Y-18576400D01*
X22268500Y-18538900D02*
X22343500Y-18538900D01*
X24827500Y-16446787D02*
X24827500Y-16521787D01*
X24790000Y-16484287D02*
X24865000Y-16484287D01*
X25027500Y-16446787D02*
X25027500Y-16521787D01*
X24990000Y-16484287D02*
X25065000Y-16484287D01*
X25227500Y-16446787D02*
X25227500Y-16521787D01*
X25190000Y-16484287D02*
X25265000Y-16484287D01*
X25526500Y-17122587D02*
X25526500Y-17197587D01*
X25489000Y-17160087D02*
X25564000Y-17160087D01*
X25526500Y-17322587D02*
X25526500Y-17397587D01*
X25489000Y-17360087D02*
X25564000Y-17360087D01*
X25526500Y-17522587D02*
X25526500Y-17597587D01*
X25489000Y-17560087D02*
X25564000Y-17560087D01*
X25526500Y-17722587D02*
X25526500Y-17797587D01*
X25489000Y-17760087D02*
X25564000Y-17760087D01*
X25526500Y-17922587D02*
X25526500Y-17997587D01*
X25489000Y-17960087D02*
X25564000Y-17960087D01*
X25526500Y-18122587D02*
X25526500Y-18197587D01*
X25489000Y-18160087D02*
X25564000Y-18160087D01*
X25526500Y-18322587D02*
X25526500Y-18397587D01*
X25489000Y-18360087D02*
X25564000Y-18360087D01*
X25526500Y-18522587D02*
X25526500Y-18597587D01*
X25489000Y-18560087D02*
X25564000Y-18560087D01*
X25563400Y-15704087D02*
X25563400Y-15779087D01*
X25525900Y-15741587D02*
X25600900Y-15741587D01*
D10*
X25600900Y-15816587D02*
X25600900Y-15666587D01*
X25525900Y-15816587D02*
X25525900Y-15666587D01*
X25600900Y-15666587D02*
G75*
G03*
X25525900Y-15666587I-37500J0D01*
G01*
X25525900Y-15816587D02*
G75*
G03*
X25600900Y-15816587I37500J0D01*
G01*
D13*
X25658937Y-14391386D02*
X25658937Y-14466386D01*
X25621437Y-14428886D02*
X25696437Y-14428886D01*
X25800358Y-14249965D02*
X25800358Y-14324965D01*
X25762858Y-14287465D02*
X25837858Y-14287465D01*
X25844300Y-11902500D02*
X25844300Y-11977500D01*
X25806800Y-11940000D02*
X25881800Y-11940000D01*
X25941779Y-14108543D02*
X25941779Y-14183543D01*
X25904279Y-14146043D02*
X25979279Y-14146043D01*
X25963400Y-15704087D02*
X25963400Y-15779087D01*
X25925900Y-15741587D02*
X26000900Y-15741587D01*
D10*
X26000900Y-15816587D02*
X26000900Y-15666587D01*
X25925900Y-15816587D02*
X25925900Y-15666587D01*
X26000900Y-15666587D02*
G75*
G03*
X25925900Y-15666587I-37500J0D01*
G01*
X25925900Y-15816587D02*
G75*
G03*
X26000900Y-15816587I37500J0D01*
G01*
D13*
X26044300Y-11902500D02*
X26044300Y-11977500D01*
X26006800Y-11940000D02*
X26081800Y-11940000D01*
X26083201Y-13967122D02*
X26083201Y-14042122D01*
X26045701Y-14004622D02*
X26120701Y-14004622D01*
X26224622Y-13825701D02*
X26224622Y-13900701D01*
X26187122Y-13863201D02*
X26262122Y-13863201D01*
X26244300Y-11902500D02*
X26244300Y-11977500D01*
X26206800Y-11940000D02*
X26281800Y-11940000D01*
X26366043Y-13684279D02*
X26366043Y-13759279D01*
X26328543Y-13721779D02*
X26403543Y-13721779D01*
X26444300Y-11902500D02*
X26444300Y-11977500D01*
X26406800Y-11940000D02*
X26481800Y-11940000D01*
X26507465Y-13542858D02*
X26507465Y-13617858D01*
X26469965Y-13580358D02*
X26544965Y-13580358D01*
X26644300Y-11902500D02*
X26644300Y-11977500D01*
X26606800Y-11940000D02*
X26681800Y-11940000D01*
X26648886Y-13401437D02*
X26648886Y-13476437D01*
X26611386Y-13438937D02*
X26686386Y-13438937D01*
D14*
X14633284Y-13128284D02*
X14633284Y-13071715D01*
X14576715Y-13071715D01*
X14576715Y-13128284D01*
X14633284Y-13128284D01*
X14887284Y-13128284D02*
X14887284Y-13071715D01*
X14830715Y-13071715D01*
X14830715Y-13128284D01*
X14887284Y-13128284D01*
X15141284Y-13128284D02*
X15141284Y-13071715D01*
X15084715Y-13071715D01*
X15084715Y-13128284D01*
X15141284Y-13128284D01*
X15395284Y-13128284D02*
X15395284Y-13071715D01*
X15338715Y-13071715D01*
X15338715Y-13128284D01*
X15395284Y-13128284D01*
X15649284Y-13128284D02*
X15649284Y-13071715D01*
X15592715Y-13071715D01*
X15592715Y-13128284D01*
X15649284Y-13128284D01*
X15903284Y-13128284D02*
X15903284Y-13071715D01*
X15846715Y-13071715D01*
X15846715Y-13128284D01*
X15903284Y-13128284D01*
X15994584Y-10858285D02*
X15994584Y-10801716D01*
X15938015Y-10801716D01*
X15938015Y-10858285D01*
X15994584Y-10858285D01*
X16482584Y-10858285D02*
X16482584Y-10801716D01*
X16426015Y-10801716D01*
X16426015Y-10858285D01*
X16482584Y-10858285D01*
X17478685Y-18349785D02*
X17478685Y-18293216D01*
X17422116Y-18293216D01*
X17422116Y-18349785D01*
X17478685Y-18349785D01*
X17732685Y-18349785D02*
X17732685Y-18293216D01*
X17676116Y-18293216D01*
X17676116Y-18349785D01*
X17732685Y-18349785D01*
X17986685Y-18349785D02*
X17986685Y-18293216D01*
X17930116Y-18293216D01*
X17930116Y-18349785D01*
X17986685Y-18349785D01*
X18240685Y-18349785D02*
X18240685Y-18293216D01*
X18184116Y-18293216D01*
X18184116Y-18349785D01*
X18240685Y-18349785D01*
X18494685Y-18349785D02*
X18494685Y-18293216D01*
X18438116Y-18293216D01*
X18438116Y-18349785D01*
X18494685Y-18349785D01*
X18748685Y-18349785D02*
X18748685Y-18293216D01*
X18692116Y-18293216D01*
X18692116Y-18349785D01*
X18748685Y-18349785D01*
X19155085Y-18425985D02*
X19155085Y-18369416D01*
X19098516Y-18369416D01*
X19098516Y-18425985D01*
X19155085Y-18425985D01*
X19409085Y-18425985D02*
X19409085Y-18369416D01*
X19352516Y-18369416D01*
X19352516Y-18425985D01*
X19409085Y-18425985D01*
X19663085Y-18425985D02*
X19663085Y-18369416D01*
X19606516Y-18369416D01*
X19606516Y-18425985D01*
X19663085Y-18425985D01*
X19866285Y-17130585D02*
X19866285Y-17074016D01*
X19809716Y-17074016D01*
X19809716Y-17130585D01*
X19866285Y-17130585D01*
X19917085Y-18425985D02*
X19917085Y-18369416D01*
X19860516Y-18369416D01*
X19860516Y-18425985D01*
X19917085Y-18425985D01*
X20120285Y-17130585D02*
X20120285Y-17074016D01*
X20063716Y-17074016D01*
X20063716Y-17130585D01*
X20120285Y-17130585D01*
X20171085Y-18425985D02*
X20171085Y-18369416D01*
X20114516Y-18369416D01*
X20114516Y-18425985D01*
X20171085Y-18425985D01*
X20373685Y-13186684D02*
X20373685Y-13130115D01*
X20317116Y-13130115D01*
X20317116Y-13186684D01*
X20373685Y-13186684D01*
X20373685Y-13440684D02*
X20373685Y-13384115D01*
X20317116Y-13384115D01*
X20317116Y-13440684D01*
X20373685Y-13440684D01*
X20373685Y-13694684D02*
X20373685Y-13638115D01*
X20317116Y-13638115D01*
X20317116Y-13694684D01*
X20373685Y-13694684D01*
X20373685Y-13948684D02*
X20373685Y-13892115D01*
X20317116Y-13892115D01*
X20317116Y-13948684D01*
X20373685Y-13948684D01*
X20373685Y-14202684D02*
X20373685Y-14146115D01*
X20317116Y-14146115D01*
X20317116Y-14202684D01*
X20373685Y-14202684D01*
X20373685Y-14456684D02*
X20373685Y-14400115D01*
X20317116Y-14400115D01*
X20317116Y-14456684D01*
X20373685Y-14456684D01*
X20374285Y-17130585D02*
X20374285Y-17074016D01*
X20317716Y-17074016D01*
X20317716Y-17130585D01*
X20374285Y-17130585D01*
X20425085Y-18425985D02*
X20425085Y-18369416D01*
X20368516Y-18369416D01*
X20368516Y-18425985D01*
X20425085Y-18425985D01*
X20628285Y-17130585D02*
X20628285Y-17074016D01*
X20571716Y-17074016D01*
X20571716Y-17130585D01*
X20628285Y-17130585D01*
X20882285Y-17130585D02*
X20882285Y-17074016D01*
X20825716Y-17074016D01*
X20825716Y-17130585D01*
X20882285Y-17130585D01*
X21136285Y-17130585D02*
X21136285Y-17074016D01*
X21079716Y-17074016D01*
X21079716Y-17130585D01*
X21136285Y-17130585D01*
X21832585Y-17257585D02*
X21832585Y-17201016D01*
X21776016Y-17201016D01*
X21776016Y-17257585D01*
X21832585Y-17257585D01*
X21832585Y-17511585D02*
X21832585Y-17455016D01*
X21776016Y-17455016D01*
X21776016Y-17511585D01*
X21832585Y-17511585D01*
X21832585Y-17765585D02*
X21832585Y-17709016D01*
X21776016Y-17709016D01*
X21776016Y-17765585D01*
X21832585Y-17765585D01*
X21832585Y-18019585D02*
X21832585Y-17963016D01*
X21776016Y-17963016D01*
X21776016Y-18019585D01*
X21832585Y-18019585D01*
X21832585Y-18273585D02*
X21832585Y-18217016D01*
X21776016Y-18217016D01*
X21776016Y-18273585D01*
X21832585Y-18273585D01*
X21832585Y-18527585D02*
X21832585Y-18471016D01*
X21776016Y-18471016D01*
X21776016Y-18527585D01*
X21832585Y-18527585D01*
D15*
X12310000Y-14457500D02*
X12360000Y-14407500D01*
X12310000Y-14357500D01*
X12260000Y-14407500D01*
X12310000Y-14457500D01*
X12310000Y-14711500D02*
X12360000Y-14661500D01*
X12310000Y-14611500D01*
X12260000Y-14661500D01*
X12310000Y-14711500D01*
X12310000Y-14965500D02*
X12360000Y-14915500D01*
X12310000Y-14865500D01*
X12260000Y-14915500D01*
X12310000Y-14965500D01*
X13550000Y-14026000D02*
X13600000Y-13976000D01*
X13550000Y-13926000D01*
X13500000Y-13976000D01*
X13550000Y-14026000D01*
X13550000Y-15550000D02*
X13600000Y-15500000D01*
X13550000Y-15450000D01*
X13500000Y-15500000D01*
X13550000Y-15550000D01*
X13564050Y-14457500D02*
X13614050Y-14407500D01*
X13564050Y-14357500D01*
X13514050Y-14407500D01*
X13564050Y-14457500D01*
X13564050Y-14711500D02*
X13614050Y-14661500D01*
X13564050Y-14611500D01*
X13514050Y-14661500D01*
X13564050Y-14711500D01*
X13564050Y-14965500D02*
X13614050Y-14915500D01*
X13564050Y-14865500D01*
X13514050Y-14915500D01*
X13564050Y-14965500D01*
X13804000Y-14026000D02*
X13854000Y-13976000D01*
X13804000Y-13926000D01*
X13754000Y-13976000D01*
X13804000Y-14026000D01*
X13804000Y-15550000D02*
X13854000Y-15500000D01*
X13804000Y-15450000D01*
X13754000Y-15500000D01*
X13804000Y-15550000D01*
X14058000Y-14026000D02*
X14108000Y-13976000D01*
X14058000Y-13926000D01*
X14008000Y-13976000D01*
X14058000Y-14026000D01*
X14058000Y-15550000D02*
X14108000Y-15500000D01*
X14058000Y-15450000D01*
X14008000Y-15500000D01*
X14058000Y-15550000D01*
X14312000Y-14026000D02*
X14362000Y-13976000D01*
X14312000Y-13926000D01*
X14262000Y-13976000D01*
X14312000Y-14026000D01*
X14312000Y-15550000D02*
X14362000Y-15500000D01*
X14312000Y-15450000D01*
X14262000Y-15500000D01*
X14312000Y-15550000D01*
X14566000Y-14026000D02*
X14616000Y-13976000D01*
X14566000Y-13926000D01*
X14516000Y-13976000D01*
X14566000Y-14026000D01*
X14566000Y-15550000D02*
X14616000Y-15500000D01*
X14566000Y-15450000D01*
X14516000Y-15500000D01*
X14566000Y-15550000D01*
X14818100Y-14457500D02*
X14868100Y-14407500D01*
X14818100Y-14357500D01*
X14768100Y-14407500D01*
X14818100Y-14457500D01*
X14818100Y-14711500D02*
X14868100Y-14661500D01*
X14818100Y-14611500D01*
X14768100Y-14661500D01*
X14818100Y-14711500D01*
X14818100Y-14965500D02*
X14868100Y-14915500D01*
X14818100Y-14865500D01*
X14768100Y-14915500D01*
X14818100Y-14965500D01*
X14820000Y-14026000D02*
X14870000Y-13976000D01*
X14820000Y-13926000D01*
X14770000Y-13976000D01*
X14820000Y-14026000D01*
X14820000Y-15550000D02*
X14870000Y-15500000D01*
X14820000Y-15450000D01*
X14770000Y-15500000D01*
X14820000Y-15550000D01*
X15074000Y-14026000D02*
X15124000Y-13976000D01*
X15074000Y-13926000D01*
X15024000Y-13976000D01*
X15074000Y-14026000D01*
X15074000Y-15550000D02*
X15124000Y-15500000D01*
X15074000Y-15450000D01*
X15024000Y-15500000D01*
X15074000Y-15550000D01*
X15328000Y-14026000D02*
X15378000Y-13976000D01*
X15328000Y-13926000D01*
X15278000Y-13976000D01*
X15328000Y-14026000D01*
X15328000Y-15550000D02*
X15378000Y-15500000D01*
X15328000Y-15450000D01*
X15278000Y-15500000D01*
X15328000Y-15550000D01*
X15582000Y-14026000D02*
X15632000Y-13976000D01*
X15582000Y-13926000D01*
X15532000Y-13976000D01*
X15582000Y-14026000D01*
X15582000Y-15550000D02*
X15632000Y-15500000D01*
X15582000Y-15450000D01*
X15532000Y-15500000D01*
X15582000Y-15550000D01*
X15836000Y-14026000D02*
X15886000Y-13976000D01*
X15836000Y-13926000D01*
X15786000Y-13976000D01*
X15836000Y-14026000D01*
X15836000Y-15550000D02*
X15886000Y-15500000D01*
X15836000Y-15450000D01*
X15786000Y-15500000D01*
X15836000Y-15550000D01*
X16090000Y-14026000D02*
X16140000Y-13976000D01*
X16090000Y-13926000D01*
X16040000Y-13976000D01*
X16090000Y-14026000D01*
X16090000Y-15550000D02*
X16140000Y-15500000D01*
X16090000Y-15450000D01*
X16040000Y-15500000D01*
X16090000Y-15550000D01*
X16344000Y-14026000D02*
X16394000Y-13976000D01*
X16344000Y-13926000D01*
X16294000Y-13976000D01*
X16344000Y-14026000D01*
X16344000Y-15550000D02*
X16394000Y-15500000D01*
X16344000Y-15450000D01*
X16294000Y-15500000D01*
X16344000Y-15550000D01*
X16598000Y-14026000D02*
X16648000Y-13976000D01*
X16598000Y-13926000D01*
X16548000Y-13976000D01*
X16598000Y-14026000D01*
X16598000Y-15550000D02*
X16648000Y-15500000D01*
X16598000Y-15450000D01*
X16548000Y-15500000D01*
X16598000Y-15550000D01*
X16852000Y-14026000D02*
X16902000Y-13976000D01*
X16852000Y-13926000D01*
X16802000Y-13976000D01*
X16852000Y-14026000D01*
X16852000Y-15550000D02*
X16902000Y-15500000D01*
X16852000Y-15450000D01*
X16802000Y-15500000D01*
X16852000Y-15550000D01*
X17106000Y-14026000D02*
X17156000Y-13976000D01*
X17106000Y-13926000D01*
X17056000Y-13976000D01*
X17106000Y-14026000D01*
X17106000Y-15550000D02*
X17156000Y-15500000D01*
X17106000Y-15450000D01*
X17056000Y-15500000D01*
X17106000Y-15550000D01*
X17360000Y-14026000D02*
X17410000Y-13976000D01*
X17360000Y-13926000D01*
X17310000Y-13976000D01*
X17360000Y-14026000D01*
X17360000Y-15550000D02*
X17410000Y-15500000D01*
X17360000Y-15450000D01*
X17310000Y-15500000D01*
X17360000Y-15550000D01*
X17614000Y-14026000D02*
X17664000Y-13976000D01*
X17614000Y-13926000D01*
X17564000Y-13976000D01*
X17614000Y-14026000D01*
X17614000Y-15550000D02*
X17664000Y-15500000D01*
X17614000Y-15450000D01*
X17564000Y-15500000D01*
X17614000Y-15550000D01*
X17868000Y-14026000D02*
X17918000Y-13976000D01*
X17868000Y-13926000D01*
X17818000Y-13976000D01*
X17868000Y-14026000D01*
X17868000Y-15550000D02*
X17918000Y-15500000D01*
X17868000Y-15450000D01*
X17818000Y-15500000D01*
X17868000Y-15550000D01*
X18122000Y-14026000D02*
X18172000Y-13976000D01*
X18122000Y-13926000D01*
X18072000Y-13976000D01*
X18122000Y-14026000D01*
X18122000Y-15550000D02*
X18172000Y-15500000D01*
X18122000Y-15450000D01*
X18072000Y-15500000D01*
X18122000Y-15550000D01*
X18376000Y-14026000D02*
X18426000Y-13976000D01*
X18376000Y-13926000D01*
X18326000Y-13976000D01*
X18376000Y-14026000D01*
X18376000Y-15550000D02*
X18426000Y-15500000D01*
X18376000Y-15450000D01*
X18326000Y-15500000D01*
X18376000Y-15550000D01*
X25325020Y-13787420D02*
X25375020Y-13737420D01*
X25325020Y-13687420D01*
X25275020Y-13737420D01*
X25325020Y-13787420D01*
X25325020Y-14087420D02*
X25375020Y-14037420D01*
X25325020Y-13987420D01*
X25275020Y-14037420D01*
X25325020Y-14087420D01*
X25955020Y-13157420D02*
X26005020Y-13107420D01*
X25955020Y-13057420D01*
X25905020Y-13107420D01*
X25955020Y-13157420D01*
X25955020Y-14717420D02*
X26005020Y-14667420D01*
X25955020Y-14617420D01*
X25905020Y-14667420D01*
X25955020Y-14717420D01*
X26005020Y-13359420D02*
X26055020Y-13309420D01*
X26005020Y-13259420D01*
X25955020Y-13309420D01*
X26005020Y-13359420D01*
X26205020Y-14637420D02*
X26255020Y-14587420D01*
X26205020Y-14537420D01*
X26155020Y-14587420D01*
X26205020Y-14637420D01*
X26245020Y-13157420D02*
X26295020Y-13107420D01*
X26245020Y-13057420D01*
X26195020Y-13107420D01*
X26245020Y-13157420D01*
X26518400Y-16878587D02*
X26568400Y-16828587D01*
X26518400Y-16778587D01*
X26468400Y-16828587D01*
X26518400Y-16878587D01*
X26768400Y-16878587D02*
X26818400Y-16828587D01*
X26768400Y-16778587D01*
X26718400Y-16828587D01*
X26768400Y-16878587D01*
X26791020Y-14312420D02*
X26841020Y-14262420D01*
X26791020Y-14212420D01*
X26741020Y-14262420D01*
X26791020Y-14312420D01*
X26885020Y-13787420D02*
X26935020Y-13737420D01*
X26885020Y-13687420D01*
X26835020Y-13737420D01*
X26885020Y-13787420D01*
X26885020Y-14087420D02*
X26935020Y-14037420D01*
X26885020Y-13987420D01*
X26835020Y-14037420D01*
X26885020Y-14087420D01*
X27018400Y-16878587D02*
X27068400Y-16828587D01*
X27018400Y-16778587D01*
X26968400Y-16828587D01*
X27018400Y-16878587D01*
X27641400Y-17501587D02*
X27691400Y-17451587D01*
X27641400Y-17401587D01*
X27591400Y-17451587D01*
X27641400Y-17501587D01*
X27641400Y-17751587D02*
X27691400Y-17701587D01*
X27641400Y-17651587D01*
X27591400Y-17701587D01*
X27641400Y-17751587D01*
X27641400Y-18001587D02*
X27691400Y-17951587D01*
X27641400Y-17901587D01*
X27591400Y-17951587D01*
X27641400Y-18001587D01*
D16*
X16920000Y-12150000D02*
X17030000Y-12260000D01*
X17030000Y-12150000D02*
X16920000Y-12260000D01*
X17030000Y-12205000D02*
G75*
G03*
X17030000Y-12205000I-55000J0D01*
G01*
X16920000Y-12600000D02*
X17030000Y-12710000D01*
X17030000Y-12600000D02*
X16920000Y-12710000D01*
X17030000Y-12655000D02*
G75*
G03*
X17030000Y-12655000I-55000J0D01*
G01*
X17570000Y-12150000D02*
X17680000Y-12260000D01*
X17680000Y-12150000D02*
X17570000Y-12260000D01*
X17680000Y-12205000D02*
G75*
G03*
X17680000Y-12205000I-55000J0D01*
G01*
X17570000Y-12600000D02*
X17680000Y-12710000D01*
X17680000Y-12600000D02*
X17570000Y-12710000D01*
X17680000Y-12655000D02*
G75*
G03*
X17680000Y-12655000I-55000J0D01*
G01*
D17*
X14585000Y-16658579D02*
X14705000Y-16778579D01*
X14705000Y-16658579D02*
X14585000Y-16778579D01*
X14645000Y-16658579D02*
X14645000Y-16778579D01*
X14585000Y-16718579D02*
X14705000Y-16718579D01*
X14585000Y-17158579D02*
X14705000Y-17278579D01*
X14705000Y-17158579D02*
X14585000Y-17278579D01*
X14645000Y-17158579D02*
X14645000Y-17278579D01*
X14585000Y-17218579D02*
X14705000Y-17218579D01*
X14585000Y-18110000D02*
X14705000Y-18230000D01*
X14705000Y-18110000D02*
X14585000Y-18230000D01*
X14645000Y-18110000D02*
X14645000Y-18230000D01*
X14585000Y-18170000D02*
X14705000Y-18170000D01*
X14585000Y-18610000D02*
X14705000Y-18730000D01*
X14705000Y-18610000D02*
X14585000Y-18730000D01*
X14645000Y-18610000D02*
X14645000Y-18730000D01*
X14585000Y-18670000D02*
X14705000Y-18670000D01*
X15835000Y-16658579D02*
X15955000Y-16778579D01*
X15955000Y-16658579D02*
X15835000Y-16778579D01*
X15895000Y-16658579D02*
X15895000Y-16778579D01*
X15835000Y-16718579D02*
X15955000Y-16718579D01*
X15835000Y-17158579D02*
X15955000Y-17278579D01*
X15955000Y-17158579D02*
X15835000Y-17278579D01*
X15895000Y-17158579D02*
X15895000Y-17278579D01*
X15835000Y-17218579D02*
X15955000Y-17218579D01*
X15835000Y-18110000D02*
X15955000Y-18230000D01*
X15955000Y-18110000D02*
X15835000Y-18230000D01*
X15895000Y-18110000D02*
X15895000Y-18230000D01*
X15835000Y-18170000D02*
X15955000Y-18170000D01*
X15835000Y-18610000D02*
X15955000Y-18730000D01*
X15955000Y-18610000D02*
X15835000Y-18730000D01*
X15895000Y-18610000D02*
X15895000Y-18730000D01*
X15835000Y-18670000D02*
X15955000Y-18670000D01*
X23633400Y-17465587D02*
X23753400Y-17585587D01*
X23753400Y-17465587D02*
X23633400Y-17585587D01*
X23693400Y-17465587D02*
X23693400Y-17585587D01*
X23633400Y-17525587D02*
X23753400Y-17525587D01*
X23633400Y-17965587D02*
X23753400Y-18085587D01*
X23753400Y-17965587D02*
X23633400Y-18085587D01*
X23693400Y-17965587D02*
X23693400Y-18085587D01*
X23633400Y-18025587D02*
X23753400Y-18025587D01*
X24883400Y-17465587D02*
X25003400Y-17585587D01*
X25003400Y-17465587D02*
X24883400Y-17585587D01*
X24943400Y-17465587D02*
X24943400Y-17585587D01*
X24883400Y-17525587D02*
X25003400Y-17525587D01*
X24883400Y-17965587D02*
X25003400Y-18085587D01*
X25003400Y-17965587D02*
X24883400Y-18085587D01*
X24943400Y-17965587D02*
X24943400Y-18085587D01*
X24883400Y-18025587D02*
X25003400Y-18025587D01*
D18*
X12177500Y-12723600D02*
X12317500Y-12863600D01*
X12317500Y-12723600D02*
X12177500Y-12863600D01*
X12296998Y-12843098D02*
X12296998Y-12744102D01*
X12198002Y-12744102D01*
X12198002Y-12843098D01*
X12296998Y-12843098D01*
X13626400Y-12542100D02*
X13766400Y-12682100D01*
X13766400Y-12542100D02*
X13626400Y-12682100D01*
X13745898Y-12661598D02*
X13745898Y-12562602D01*
X13646902Y-12562602D01*
X13646902Y-12661598D01*
X13745898Y-12661598D01*
X14010000Y-13218600D02*
X14150000Y-13358600D01*
X14150000Y-13218600D02*
X14010000Y-13358600D01*
X14129498Y-13338098D02*
X14129498Y-13239102D01*
X14030502Y-13239102D01*
X14030502Y-13338098D01*
X14129498Y-13338098D01*
X14017000Y-11660600D02*
X14157000Y-11800600D01*
X14157000Y-11660600D02*
X14017000Y-11800600D01*
X14136498Y-11780098D02*
X14136498Y-11681102D01*
X14037502Y-11681102D01*
X14037502Y-11780098D01*
X14136498Y-11780098D01*
X14302500Y-12153600D02*
X14442500Y-12293600D01*
X14442500Y-12153600D02*
X14302500Y-12293600D01*
X14421998Y-12273098D02*
X14421998Y-12174102D01*
X14323002Y-12174102D01*
X14323002Y-12273098D01*
X14421998Y-12273098D01*
X14302500Y-12723600D02*
X14442500Y-12863600D01*
X14442500Y-12723600D02*
X14302500Y-12863600D01*
X14421998Y-12843098D02*
X14421998Y-12744102D01*
X14323002Y-12744102D01*
X14323002Y-12843098D01*
X14421998Y-12843098D01*
D19*
X18987000Y-12346800D02*
X19137000Y-12496800D01*
X19137000Y-12346800D02*
X18987000Y-12496800D01*
X19062000Y-12496800D02*
X19137000Y-12421800D01*
X19062000Y-12346800D01*
X18987000Y-12421800D01*
X19062000Y-12496800D01*
X18987000Y-14302600D02*
X19137000Y-14452600D01*
X19137000Y-14302600D02*
X18987000Y-14452600D01*
X19062000Y-14452600D02*
X19137000Y-14377600D01*
X19062000Y-14302600D01*
X18987000Y-14377600D01*
X19062000Y-14452600D01*
X19622000Y-12600800D02*
X19772000Y-12750800D01*
X19772000Y-12600800D02*
X19622000Y-12750800D01*
X19697000Y-12750800D02*
X19772000Y-12675800D01*
X19697000Y-12600800D01*
X19622000Y-12675800D01*
X19697000Y-12750800D01*
X19622000Y-14556600D02*
X19772000Y-14706600D01*
X19772000Y-14556600D02*
X19622000Y-14706600D01*
X19697000Y-14706600D02*
X19772000Y-14631600D01*
X19697000Y-14556600D01*
X19622000Y-14631600D01*
X19697000Y-14706600D01*
X21007000Y-12346800D02*
X21157000Y-12496800D01*
X21157000Y-12346800D02*
X21007000Y-12496800D01*
X21082000Y-12496800D02*
X21157000Y-12421800D01*
X21082000Y-12346800D01*
X21007000Y-12421800D01*
X21082000Y-12496800D01*
X21007000Y-14302600D02*
X21157000Y-14452600D01*
X21157000Y-14302600D02*
X21007000Y-14452600D01*
X21082000Y-14452600D02*
X21157000Y-14377600D01*
X21082000Y-14302600D01*
X21007000Y-14377600D01*
X21082000Y-14452600D01*
X21642000Y-12600800D02*
X21792000Y-12750800D01*
X21792000Y-12600800D02*
X21642000Y-12750800D01*
X21717000Y-12750800D02*
X21792000Y-12675800D01*
X21717000Y-12600800D01*
X21642000Y-12675800D01*
X21717000Y-12750800D01*
X21642000Y-14556600D02*
X21792000Y-14706600D01*
X21792000Y-14556600D02*
X21642000Y-14706600D01*
X21717000Y-14706600D02*
X21792000Y-14631600D01*
X21717000Y-14556600D01*
X21642000Y-14631600D01*
X21717000Y-14706600D01*
X23027000Y-12346800D02*
X23177000Y-12496800D01*
X23177000Y-12346800D02*
X23027000Y-12496800D01*
X23102000Y-12496800D02*
X23177000Y-12421800D01*
X23102000Y-12346800D01*
X23027000Y-12421800D01*
X23102000Y-12496800D01*
X23027000Y-14302600D02*
X23177000Y-14452600D01*
X23177000Y-14302600D02*
X23027000Y-14452600D01*
X23102000Y-14452600D02*
X23177000Y-14377600D01*
X23102000Y-14302600D01*
X23027000Y-14377600D01*
X23102000Y-14452600D01*
X23662000Y-12600800D02*
X23812000Y-12750800D01*
X23812000Y-12600800D02*
X23662000Y-12750800D01*
X23737000Y-12750800D02*
X23812000Y-12675800D01*
X23737000Y-12600800D01*
X23662000Y-12675800D01*
X23737000Y-12750800D01*
X23662000Y-14556600D02*
X23812000Y-14706600D01*
X23812000Y-14556600D02*
X23662000Y-14706600D01*
X23737000Y-14706600D02*
X23812000Y-14631600D01*
X23737000Y-14556600D01*
X23662000Y-14631600D01*
X23737000Y-14706600D01*
D10*
X11947619Y-20970498D02*
X11947619Y-20770498D01*
X11995238Y-20770498D01*
X12023809Y-20780022D01*
X12042857Y-20799069D01*
X12052381Y-20818117D01*
X12061905Y-20856212D01*
X12061905Y-20884783D01*
X12052381Y-20922879D01*
X12042857Y-20941926D01*
X12023809Y-20960974D01*
X11995238Y-20970498D01*
X11947619Y-20970498D01*
X12147619Y-20970498D02*
X12147619Y-20837164D01*
X12147619Y-20875260D02*
X12157143Y-20856212D01*
X12166667Y-20846688D01*
X12185714Y-20837164D01*
X12204762Y-20837164D01*
X12271428Y-20970498D02*
X12271428Y-20837164D01*
X12271428Y-20770498D02*
X12261905Y-20780022D01*
X12271428Y-20789545D01*
X12280952Y-20780022D01*
X12271428Y-20770498D01*
X12271428Y-20789545D01*
X12395238Y-20970498D02*
X12376190Y-20960974D01*
X12366667Y-20941926D01*
X12366667Y-20770498D01*
X12500000Y-20970498D02*
X12480952Y-20960974D01*
X12471428Y-20941926D01*
X12471428Y-20770498D01*
X12728571Y-20970498D02*
X12728571Y-20770498D01*
X12795238Y-20913355D01*
X12861905Y-20770498D01*
X12861905Y-20970498D01*
X13042857Y-20970498D02*
X13042857Y-20865736D01*
X13033333Y-20846688D01*
X13014286Y-20837164D01*
X12976190Y-20837164D01*
X12957143Y-20846688D01*
X13042857Y-20960974D02*
X13023809Y-20970498D01*
X12976190Y-20970498D01*
X12957143Y-20960974D01*
X12947619Y-20941926D01*
X12947619Y-20922879D01*
X12957143Y-20903831D01*
X12976190Y-20894307D01*
X13023809Y-20894307D01*
X13042857Y-20884783D01*
X13138095Y-20837164D02*
X13138095Y-21037164D01*
X13138095Y-20846688D02*
X13157143Y-20837164D01*
X13195238Y-20837164D01*
X13214286Y-20846688D01*
X13223809Y-20856212D01*
X13233333Y-20875260D01*
X13233333Y-20932402D01*
X13223809Y-20951450D01*
X13214286Y-20960974D01*
X13195238Y-20970498D01*
X13157143Y-20970498D01*
X13138095Y-20960974D01*
X13319048Y-20951450D02*
X13328571Y-20960974D01*
X13319048Y-20970498D01*
X13309524Y-20960974D01*
X13319048Y-20951450D01*
X13319048Y-20970498D01*
X13319048Y-20846688D02*
X13328571Y-20856212D01*
X13319048Y-20865736D01*
X13309524Y-20856212D01*
X13319048Y-20846688D01*
X13319048Y-20865736D01*
D11*
X11650000Y-21280022D02*
X11690000Y-21320022D01*
X11690000Y-21280022D02*
X11650000Y-21320022D01*
D10*
X11985714Y-21190498D02*
X12004762Y-21190498D01*
X12023809Y-21200022D01*
X12033333Y-21209545D01*
X12042857Y-21228593D01*
X12052381Y-21266688D01*
X12052381Y-21314307D01*
X12042857Y-21352402D01*
X12033333Y-21371450D01*
X12023809Y-21380974D01*
X12004762Y-21390498D01*
X11985714Y-21390498D01*
X11966667Y-21380974D01*
X11957143Y-21371450D01*
X11947619Y-21352402D01*
X11938095Y-21314307D01*
X11938095Y-21266688D01*
X11947619Y-21228593D01*
X11957143Y-21209545D01*
X11966667Y-21200022D01*
X11985714Y-21190498D01*
X12138095Y-21371450D02*
X12147619Y-21380974D01*
X12138095Y-21390498D01*
X12128571Y-21380974D01*
X12138095Y-21371450D01*
X12138095Y-21390498D01*
X12319048Y-21257164D02*
X12319048Y-21390498D01*
X12271428Y-21180974D02*
X12223809Y-21323831D01*
X12347619Y-21323831D01*
X12461905Y-21190498D02*
X12480952Y-21190498D01*
X12500000Y-21200022D01*
X12509524Y-21209545D01*
X12519048Y-21228593D01*
X12528571Y-21266688D01*
X12528571Y-21314307D01*
X12519048Y-21352402D01*
X12509524Y-21371450D01*
X12500000Y-21380974D01*
X12480952Y-21390498D01*
X12461905Y-21390498D01*
X12442857Y-21380974D01*
X12433333Y-21371450D01*
X12423809Y-21352402D01*
X12414286Y-21314307D01*
X12414286Y-21266688D01*
X12423809Y-21228593D01*
X12433333Y-21209545D01*
X12442857Y-21200022D01*
X12461905Y-21190498D01*
X12652381Y-21190498D02*
X12671428Y-21190498D01*
X12690476Y-21200022D01*
X12700000Y-21209545D01*
X12709524Y-21228593D01*
X12719048Y-21266688D01*
X12719048Y-21314307D01*
X12709524Y-21352402D01*
X12700000Y-21371450D01*
X12690476Y-21380974D01*
X12671428Y-21390498D01*
X12652381Y-21390498D01*
X12633333Y-21380974D01*
X12623809Y-21371450D01*
X12614286Y-21352402D01*
X12604762Y-21314307D01*
X12604762Y-21266688D01*
X12614286Y-21228593D01*
X12623809Y-21209545D01*
X12633333Y-21200022D01*
X12652381Y-21190498D01*
X12804762Y-21390498D02*
X12804762Y-21257164D01*
X12804762Y-21276212D02*
X12814286Y-21266688D01*
X12833333Y-21257164D01*
X12861905Y-21257164D01*
X12880952Y-21266688D01*
X12890476Y-21285736D01*
X12890476Y-21390498D01*
X12890476Y-21285736D02*
X12900000Y-21266688D01*
X12919048Y-21257164D01*
X12947619Y-21257164D01*
X12966667Y-21266688D01*
X12976190Y-21285736D01*
X12976190Y-21390498D01*
X13071428Y-21390498D02*
X13071428Y-21257164D01*
X13071428Y-21276212D02*
X13080952Y-21266688D01*
X13100000Y-21257164D01*
X13128571Y-21257164D01*
X13147619Y-21266688D01*
X13157143Y-21285736D01*
X13157143Y-21390498D01*
X13157143Y-21285736D02*
X13166667Y-21266688D01*
X13185714Y-21257164D01*
X13214286Y-21257164D01*
X13233333Y-21266688D01*
X13242857Y-21285736D01*
X13242857Y-21390498D01*
X13633333Y-21180974D02*
X13461905Y-21438117D01*
X13890476Y-21190498D02*
X13909524Y-21190498D01*
X13928571Y-21200022D01*
X13938095Y-21209545D01*
X13947619Y-21228593D01*
X13957143Y-21266688D01*
X13957143Y-21314307D01*
X13947619Y-21352402D01*
X13938095Y-21371450D01*
X13928571Y-21380974D01*
X13909524Y-21390498D01*
X13890476Y-21390498D01*
X13871428Y-21380974D01*
X13861905Y-21371450D01*
X13852381Y-21352402D01*
X13842857Y-21314307D01*
X13842857Y-21266688D01*
X13852381Y-21228593D01*
X13861905Y-21209545D01*
X13871428Y-21200022D01*
X13890476Y-21190498D01*
X14042857Y-21371450D02*
X14052381Y-21380974D01*
X14042857Y-21390498D01*
X14033333Y-21380974D01*
X14042857Y-21371450D01*
X14042857Y-21390498D01*
X14176190Y-21190498D02*
X14195238Y-21190498D01*
X14214286Y-21200022D01*
X14223809Y-21209545D01*
X14233333Y-21228593D01*
X14242857Y-21266688D01*
X14242857Y-21314307D01*
X14233333Y-21352402D01*
X14223809Y-21371450D01*
X14214286Y-21380974D01*
X14195238Y-21390498D01*
X14176190Y-21390498D01*
X14157143Y-21380974D01*
X14147619Y-21371450D01*
X14138095Y-21352402D01*
X14128571Y-21314307D01*
X14128571Y-21266688D01*
X14138095Y-21228593D01*
X14147619Y-21209545D01*
X14157143Y-21200022D01*
X14176190Y-21190498D01*
X14433333Y-21390498D02*
X14319048Y-21390498D01*
X14376190Y-21390498D02*
X14376190Y-21190498D01*
X14357143Y-21219069D01*
X14338095Y-21238117D01*
X14319048Y-21247641D01*
X14614286Y-21190498D02*
X14519048Y-21190498D01*
X14509524Y-21285736D01*
X14519048Y-21276212D01*
X14538095Y-21266688D01*
X14585714Y-21266688D01*
X14604762Y-21276212D01*
X14614286Y-21285736D01*
X14623809Y-21304783D01*
X14623809Y-21352402D01*
X14614286Y-21371450D01*
X14604762Y-21380974D01*
X14585714Y-21390498D01*
X14538095Y-21390498D01*
X14519048Y-21380974D01*
X14509524Y-21371450D01*
X14690476Y-21190498D02*
X14823809Y-21190498D01*
X14738095Y-21390498D01*
X14890476Y-21190498D02*
X14890476Y-21228593D01*
X14966667Y-21190498D02*
X14966667Y-21228593D01*
X15261905Y-21466688D02*
X15252381Y-21457164D01*
X15233333Y-21428593D01*
X15223809Y-21409545D01*
X15214286Y-21380974D01*
X15204762Y-21333355D01*
X15204762Y-21295260D01*
X15214286Y-21247641D01*
X15223809Y-21219069D01*
X15233333Y-21200022D01*
X15252381Y-21171450D01*
X15261905Y-21161926D01*
X15328571Y-21209545D02*
X15338095Y-21200022D01*
X15357143Y-21190498D01*
X15404762Y-21190498D01*
X15423809Y-21200022D01*
X15433333Y-21209545D01*
X15442857Y-21228593D01*
X15442857Y-21247641D01*
X15433333Y-21276212D01*
X15319048Y-21390498D01*
X15442857Y-21390498D01*
X15614286Y-21257164D02*
X15614286Y-21390498D01*
X15566667Y-21180974D02*
X15519048Y-21323831D01*
X15642857Y-21323831D01*
X15757143Y-21190498D02*
X15776190Y-21190498D01*
X15795238Y-21200022D01*
X15804762Y-21209545D01*
X15814286Y-21228593D01*
X15823809Y-21266688D01*
X15823809Y-21314307D01*
X15814286Y-21352402D01*
X15804762Y-21371450D01*
X15795238Y-21380974D01*
X15776190Y-21390498D01*
X15757143Y-21390498D01*
X15738095Y-21380974D01*
X15728571Y-21371450D01*
X15719048Y-21352402D01*
X15709524Y-21314307D01*
X15709524Y-21266688D01*
X15719048Y-21228593D01*
X15728571Y-21209545D01*
X15738095Y-21200022D01*
X15757143Y-21190498D01*
X16061905Y-21390498D02*
X16061905Y-21190498D01*
X16147619Y-21390498D02*
X16147619Y-21285736D01*
X16138095Y-21266688D01*
X16119048Y-21257164D01*
X16090476Y-21257164D01*
X16071428Y-21266688D01*
X16061905Y-21276212D01*
X16271428Y-21390498D02*
X16252381Y-21380974D01*
X16242857Y-21371450D01*
X16233333Y-21352402D01*
X16233333Y-21295260D01*
X16242857Y-21276212D01*
X16252381Y-21266688D01*
X16271428Y-21257164D01*
X16300000Y-21257164D01*
X16319048Y-21266688D01*
X16328571Y-21276212D01*
X16338095Y-21295260D01*
X16338095Y-21352402D01*
X16328571Y-21371450D01*
X16319048Y-21380974D01*
X16300000Y-21390498D01*
X16271428Y-21390498D01*
X16452381Y-21390498D02*
X16433333Y-21380974D01*
X16423809Y-21361926D01*
X16423809Y-21190498D01*
X16604762Y-21380974D02*
X16585714Y-21390498D01*
X16547619Y-21390498D01*
X16528571Y-21380974D01*
X16519048Y-21361926D01*
X16519048Y-21285736D01*
X16528571Y-21266688D01*
X16547619Y-21257164D01*
X16585714Y-21257164D01*
X16604762Y-21266688D01*
X16614286Y-21285736D01*
X16614286Y-21304783D01*
X16519048Y-21323831D01*
X16690476Y-21380974D02*
X16709524Y-21390498D01*
X16747619Y-21390498D01*
X16766667Y-21380974D01*
X16776190Y-21361926D01*
X16776190Y-21352402D01*
X16766667Y-21333355D01*
X16747619Y-21323831D01*
X16719048Y-21323831D01*
X16700000Y-21314307D01*
X16690476Y-21295260D01*
X16690476Y-21285736D01*
X16700000Y-21266688D01*
X16719048Y-21257164D01*
X16747619Y-21257164D01*
X16766667Y-21266688D01*
X16842857Y-21466688D02*
X16852381Y-21457164D01*
X16871429Y-21428593D01*
X16880952Y-21409545D01*
X16890476Y-21380974D01*
X16900000Y-21333355D01*
X16900000Y-21295260D01*
X16890476Y-21247641D01*
X16880952Y-21219069D01*
X16871429Y-21200022D01*
X16852381Y-21171450D01*
X16842857Y-21161926D01*
D12*
X11690000Y-21564022D02*
G75*
G03*
X11690000Y-21564022I-30000J0D01*
G01*
D10*
X11985714Y-21454498D02*
X12004762Y-21454498D01*
X12023809Y-21464022D01*
X12033333Y-21473545D01*
X12042857Y-21492593D01*
X12052381Y-21530688D01*
X12052381Y-21578307D01*
X12042857Y-21616402D01*
X12033333Y-21635450D01*
X12023809Y-21644974D01*
X12004762Y-21654498D01*
X11985714Y-21654498D01*
X11966667Y-21644974D01*
X11957143Y-21635450D01*
X11947619Y-21616402D01*
X11938095Y-21578307D01*
X11938095Y-21530688D01*
X11947619Y-21492593D01*
X11957143Y-21473545D01*
X11966667Y-21464022D01*
X11985714Y-21454498D01*
X12138095Y-21635450D02*
X12147619Y-21644974D01*
X12138095Y-21654498D01*
X12128571Y-21644974D01*
X12138095Y-21635450D01*
X12138095Y-21654498D01*
X12319048Y-21454498D02*
X12280952Y-21454498D01*
X12261905Y-21464022D01*
X12252381Y-21473545D01*
X12233333Y-21502117D01*
X12223809Y-21540212D01*
X12223809Y-21616402D01*
X12233333Y-21635450D01*
X12242857Y-21644974D01*
X12261905Y-21654498D01*
X12300000Y-21654498D01*
X12319048Y-21644974D01*
X12328571Y-21635450D01*
X12338095Y-21616402D01*
X12338095Y-21568783D01*
X12328571Y-21549736D01*
X12319048Y-21540212D01*
X12300000Y-21530688D01*
X12261905Y-21530688D01*
X12242857Y-21540212D01*
X12233333Y-21549736D01*
X12223809Y-21568783D01*
X12461905Y-21454498D02*
X12480952Y-21454498D01*
X12500000Y-21464022D01*
X12509524Y-21473545D01*
X12519048Y-21492593D01*
X12528571Y-21530688D01*
X12528571Y-21578307D01*
X12519048Y-21616402D01*
X12509524Y-21635450D01*
X12500000Y-21644974D01*
X12480952Y-21654498D01*
X12461905Y-21654498D01*
X12442857Y-21644974D01*
X12433333Y-21635450D01*
X12423809Y-21616402D01*
X12414286Y-21578307D01*
X12414286Y-21530688D01*
X12423809Y-21492593D01*
X12433333Y-21473545D01*
X12442857Y-21464022D01*
X12461905Y-21454498D01*
X12652381Y-21454498D02*
X12671428Y-21454498D01*
X12690476Y-21464022D01*
X12700000Y-21473545D01*
X12709524Y-21492593D01*
X12719048Y-21530688D01*
X12719048Y-21578307D01*
X12709524Y-21616402D01*
X12700000Y-21635450D01*
X12690476Y-21644974D01*
X12671428Y-21654498D01*
X12652381Y-21654498D01*
X12633333Y-21644974D01*
X12623809Y-21635450D01*
X12614286Y-21616402D01*
X12604762Y-21578307D01*
X12604762Y-21530688D01*
X12614286Y-21492593D01*
X12623809Y-21473545D01*
X12633333Y-21464022D01*
X12652381Y-21454498D01*
X12804762Y-21654498D02*
X12804762Y-21521164D01*
X12804762Y-21540212D02*
X12814286Y-21530688D01*
X12833333Y-21521164D01*
X12861905Y-21521164D01*
X12880952Y-21530688D01*
X12890476Y-21549736D01*
X12890476Y-21654498D01*
X12890476Y-21549736D02*
X12900000Y-21530688D01*
X12919048Y-21521164D01*
X12947619Y-21521164D01*
X12966667Y-21530688D01*
X12976190Y-21549736D01*
X12976190Y-21654498D01*
X13071428Y-21654498D02*
X13071428Y-21521164D01*
X13071428Y-21540212D02*
X13080952Y-21530688D01*
X13100000Y-21521164D01*
X13128571Y-21521164D01*
X13147619Y-21530688D01*
X13157143Y-21549736D01*
X13157143Y-21654498D01*
X13157143Y-21549736D02*
X13166667Y-21530688D01*
X13185714Y-21521164D01*
X13214286Y-21521164D01*
X13233333Y-21530688D01*
X13242857Y-21549736D01*
X13242857Y-21654498D01*
X13633333Y-21444974D02*
X13461905Y-21702117D01*
X13890476Y-21454498D02*
X13909524Y-21454498D01*
X13928571Y-21464022D01*
X13938095Y-21473545D01*
X13947619Y-21492593D01*
X13957143Y-21530688D01*
X13957143Y-21578307D01*
X13947619Y-21616402D01*
X13938095Y-21635450D01*
X13928571Y-21644974D01*
X13909524Y-21654498D01*
X13890476Y-21654498D01*
X13871428Y-21644974D01*
X13861905Y-21635450D01*
X13852381Y-21616402D01*
X13842857Y-21578307D01*
X13842857Y-21530688D01*
X13852381Y-21492593D01*
X13861905Y-21473545D01*
X13871428Y-21464022D01*
X13890476Y-21454498D01*
X14042857Y-21635450D02*
X14052381Y-21644974D01*
X14042857Y-21654498D01*
X14033333Y-21644974D01*
X14042857Y-21635450D01*
X14042857Y-21654498D01*
X14176190Y-21454498D02*
X14195238Y-21454498D01*
X14214286Y-21464022D01*
X14223809Y-21473545D01*
X14233333Y-21492593D01*
X14242857Y-21530688D01*
X14242857Y-21578307D01*
X14233333Y-21616402D01*
X14223809Y-21635450D01*
X14214286Y-21644974D01*
X14195238Y-21654498D01*
X14176190Y-21654498D01*
X14157143Y-21644974D01*
X14147619Y-21635450D01*
X14138095Y-21616402D01*
X14128571Y-21578307D01*
X14128571Y-21530688D01*
X14138095Y-21492593D01*
X14147619Y-21473545D01*
X14157143Y-21464022D01*
X14176190Y-21454498D01*
X14319048Y-21473545D02*
X14328571Y-21464022D01*
X14347619Y-21454498D01*
X14395238Y-21454498D01*
X14414286Y-21464022D01*
X14423809Y-21473545D01*
X14433333Y-21492593D01*
X14433333Y-21511641D01*
X14423809Y-21540212D01*
X14309524Y-21654498D01*
X14433333Y-21654498D01*
X14500000Y-21454498D02*
X14623809Y-21454498D01*
X14557143Y-21530688D01*
X14585714Y-21530688D01*
X14604762Y-21540212D01*
X14614286Y-21549736D01*
X14623809Y-21568783D01*
X14623809Y-21616402D01*
X14614286Y-21635450D01*
X14604762Y-21644974D01*
X14585714Y-21654498D01*
X14528571Y-21654498D01*
X14509524Y-21644974D01*
X14500000Y-21635450D01*
X14795238Y-21454498D02*
X14757143Y-21454498D01*
X14738095Y-21464022D01*
X14728571Y-21473545D01*
X14709524Y-21502117D01*
X14700000Y-21540212D01*
X14700000Y-21616402D01*
X14709524Y-21635450D01*
X14719048Y-21644974D01*
X14738095Y-21654498D01*
X14776190Y-21654498D01*
X14795238Y-21644974D01*
X14804762Y-21635450D01*
X14814286Y-21616402D01*
X14814286Y-21568783D01*
X14804762Y-21549736D01*
X14795238Y-21540212D01*
X14776190Y-21530688D01*
X14738095Y-21530688D01*
X14719048Y-21540212D01*
X14709524Y-21549736D01*
X14700000Y-21568783D01*
X14890476Y-21454498D02*
X14890476Y-21492593D01*
X14966667Y-21454498D02*
X14966667Y-21492593D01*
X15261905Y-21730688D02*
X15252381Y-21721164D01*
X15233333Y-21692593D01*
X15223809Y-21673545D01*
X15214286Y-21644974D01*
X15204762Y-21597355D01*
X15204762Y-21559260D01*
X15214286Y-21511641D01*
X15223809Y-21483069D01*
X15233333Y-21464022D01*
X15252381Y-21435450D01*
X15261905Y-21425926D01*
X15376190Y-21454498D02*
X15395238Y-21454498D01*
X15414286Y-21464022D01*
X15423809Y-21473545D01*
X15433333Y-21492593D01*
X15442857Y-21530688D01*
X15442857Y-21578307D01*
X15433333Y-21616402D01*
X15423809Y-21635450D01*
X15414286Y-21644974D01*
X15395238Y-21654498D01*
X15376190Y-21654498D01*
X15357143Y-21644974D01*
X15347619Y-21635450D01*
X15338095Y-21616402D01*
X15328571Y-21578307D01*
X15328571Y-21530688D01*
X15338095Y-21492593D01*
X15347619Y-21473545D01*
X15357143Y-21464022D01*
X15376190Y-21454498D01*
X15680952Y-21654498D02*
X15680952Y-21454498D01*
X15766667Y-21654498D02*
X15766667Y-21549736D01*
X15757143Y-21530688D01*
X15738095Y-21521164D01*
X15709524Y-21521164D01*
X15690476Y-21530688D01*
X15680952Y-21540212D01*
X15890476Y-21654498D02*
X15871428Y-21644974D01*
X15861905Y-21635450D01*
X15852381Y-21616402D01*
X15852381Y-21559260D01*
X15861905Y-21540212D01*
X15871428Y-21530688D01*
X15890476Y-21521164D01*
X15919048Y-21521164D01*
X15938095Y-21530688D01*
X15947619Y-21540212D01*
X15957143Y-21559260D01*
X15957143Y-21616402D01*
X15947619Y-21635450D01*
X15938095Y-21644974D01*
X15919048Y-21654498D01*
X15890476Y-21654498D01*
X16071428Y-21654498D02*
X16052381Y-21644974D01*
X16042857Y-21625926D01*
X16042857Y-21454498D01*
X16223809Y-21644974D02*
X16204762Y-21654498D01*
X16166667Y-21654498D01*
X16147619Y-21644974D01*
X16138095Y-21625926D01*
X16138095Y-21549736D01*
X16147619Y-21530688D01*
X16166667Y-21521164D01*
X16204762Y-21521164D01*
X16223809Y-21530688D01*
X16233333Y-21549736D01*
X16233333Y-21568783D01*
X16138095Y-21587831D01*
X16309524Y-21644974D02*
X16328571Y-21654498D01*
X16366667Y-21654498D01*
X16385714Y-21644974D01*
X16395238Y-21625926D01*
X16395238Y-21616402D01*
X16385714Y-21597355D01*
X16366667Y-21587831D01*
X16338095Y-21587831D01*
X16319048Y-21578307D01*
X16309524Y-21559260D01*
X16309524Y-21549736D01*
X16319048Y-21530688D01*
X16338095Y-21521164D01*
X16366667Y-21521164D01*
X16385714Y-21530688D01*
X16633333Y-21578307D02*
X16785714Y-21578307D01*
X16709524Y-21654498D02*
X16709524Y-21502117D01*
X17119048Y-21521164D02*
X17119048Y-21654498D01*
X17071429Y-21444974D02*
X17023810Y-21587831D01*
X17147619Y-21587831D01*
X17366667Y-21644974D02*
X17385714Y-21654498D01*
X17423810Y-21654498D01*
X17442857Y-21644974D01*
X17452381Y-21625926D01*
X17452381Y-21616402D01*
X17442857Y-21597355D01*
X17423810Y-21587831D01*
X17395238Y-21587831D01*
X17376190Y-21578307D01*
X17366667Y-21559260D01*
X17366667Y-21549736D01*
X17376190Y-21530688D01*
X17395238Y-21521164D01*
X17423810Y-21521164D01*
X17442857Y-21530688D01*
X17566667Y-21654498D02*
X17547619Y-21644974D01*
X17538095Y-21625926D01*
X17538095Y-21454498D01*
X17671429Y-21654498D02*
X17652381Y-21644974D01*
X17642857Y-21635450D01*
X17633333Y-21616402D01*
X17633333Y-21559260D01*
X17642857Y-21540212D01*
X17652381Y-21530688D01*
X17671429Y-21521164D01*
X17700000Y-21521164D01*
X17719048Y-21530688D01*
X17728571Y-21540212D01*
X17738095Y-21559260D01*
X17738095Y-21616402D01*
X17728571Y-21635450D01*
X17719048Y-21644974D01*
X17700000Y-21654498D01*
X17671429Y-21654498D01*
X17795238Y-21521164D02*
X17871429Y-21521164D01*
X17823810Y-21454498D02*
X17823810Y-21625926D01*
X17833333Y-21644974D01*
X17852381Y-21654498D01*
X17871429Y-21654498D01*
X17928571Y-21644974D02*
X17947619Y-21654498D01*
X17985714Y-21654498D01*
X18004762Y-21644974D01*
X18014286Y-21625926D01*
X18014286Y-21616402D01*
X18004762Y-21597355D01*
X17985714Y-21587831D01*
X17957143Y-21587831D01*
X17938095Y-21578307D01*
X17928571Y-21559260D01*
X17928571Y-21549736D01*
X17938095Y-21530688D01*
X17957143Y-21521164D01*
X17985714Y-21521164D01*
X18004762Y-21530688D01*
X18080952Y-21730688D02*
X18090476Y-21721164D01*
X18109524Y-21692593D01*
X18119048Y-21673545D01*
X18128571Y-21644974D01*
X18138095Y-21597355D01*
X18138095Y-21559260D01*
X18128571Y-21511641D01*
X18119048Y-21483069D01*
X18109524Y-21464022D01*
X18090476Y-21435450D01*
X18080952Y-21425926D01*
D13*
X11652500Y-21790522D02*
X11652500Y-21865522D01*
X11615000Y-21828022D02*
X11690000Y-21828022D01*
D10*
X11985714Y-21718498D02*
X12004762Y-21718498D01*
X12023809Y-21728022D01*
X12033333Y-21737545D01*
X12042857Y-21756593D01*
X12052381Y-21794688D01*
X12052381Y-21842307D01*
X12042857Y-21880402D01*
X12033333Y-21899450D01*
X12023809Y-21908974D01*
X12004762Y-21918498D01*
X11985714Y-21918498D01*
X11966667Y-21908974D01*
X11957143Y-21899450D01*
X11947619Y-21880402D01*
X11938095Y-21842307D01*
X11938095Y-21794688D01*
X11947619Y-21756593D01*
X11957143Y-21737545D01*
X11966667Y-21728022D01*
X11985714Y-21718498D01*
X12138095Y-21899450D02*
X12147619Y-21908974D01*
X12138095Y-21918498D01*
X12128571Y-21908974D01*
X12138095Y-21899450D01*
X12138095Y-21918498D01*
X12214286Y-21718498D02*
X12347619Y-21718498D01*
X12261905Y-21918498D01*
X12519048Y-21718498D02*
X12423809Y-21718498D01*
X12414286Y-21813736D01*
X12423809Y-21804212D01*
X12442857Y-21794688D01*
X12490476Y-21794688D01*
X12509524Y-21804212D01*
X12519048Y-21813736D01*
X12528571Y-21832783D01*
X12528571Y-21880402D01*
X12519048Y-21899450D01*
X12509524Y-21908974D01*
X12490476Y-21918498D01*
X12442857Y-21918498D01*
X12423809Y-21908974D01*
X12414286Y-21899450D01*
X12652381Y-21718498D02*
X12671428Y-21718498D01*
X12690476Y-21728022D01*
X12700000Y-21737545D01*
X12709524Y-21756593D01*
X12719048Y-21794688D01*
X12719048Y-21842307D01*
X12709524Y-21880402D01*
X12700000Y-21899450D01*
X12690476Y-21908974D01*
X12671428Y-21918498D01*
X12652381Y-21918498D01*
X12633333Y-21908974D01*
X12623809Y-21899450D01*
X12614286Y-21880402D01*
X12604762Y-21842307D01*
X12604762Y-21794688D01*
X12614286Y-21756593D01*
X12623809Y-21737545D01*
X12633333Y-21728022D01*
X12652381Y-21718498D01*
X12804762Y-21918498D02*
X12804762Y-21785164D01*
X12804762Y-21804212D02*
X12814286Y-21794688D01*
X12833333Y-21785164D01*
X12861905Y-21785164D01*
X12880952Y-21794688D01*
X12890476Y-21813736D01*
X12890476Y-21918498D01*
X12890476Y-21813736D02*
X12900000Y-21794688D01*
X12919048Y-21785164D01*
X12947619Y-21785164D01*
X12966667Y-21794688D01*
X12976190Y-21813736D01*
X12976190Y-21918498D01*
X13071428Y-21918498D02*
X13071428Y-21785164D01*
X13071428Y-21804212D02*
X13080952Y-21794688D01*
X13100000Y-21785164D01*
X13128571Y-21785164D01*
X13147619Y-21794688D01*
X13157143Y-21813736D01*
X13157143Y-21918498D01*
X13157143Y-21813736D02*
X13166667Y-21794688D01*
X13185714Y-21785164D01*
X13214286Y-21785164D01*
X13233333Y-21794688D01*
X13242857Y-21813736D01*
X13242857Y-21918498D01*
X13633333Y-21708974D02*
X13461905Y-21966117D01*
X13890476Y-21718498D02*
X13909524Y-21718498D01*
X13928571Y-21728022D01*
X13938095Y-21737545D01*
X13947619Y-21756593D01*
X13957143Y-21794688D01*
X13957143Y-21842307D01*
X13947619Y-21880402D01*
X13938095Y-21899450D01*
X13928571Y-21908974D01*
X13909524Y-21918498D01*
X13890476Y-21918498D01*
X13871428Y-21908974D01*
X13861905Y-21899450D01*
X13852381Y-21880402D01*
X13842857Y-21842307D01*
X13842857Y-21794688D01*
X13852381Y-21756593D01*
X13861905Y-21737545D01*
X13871428Y-21728022D01*
X13890476Y-21718498D01*
X14042857Y-21899450D02*
X14052381Y-21908974D01*
X14042857Y-21918498D01*
X14033333Y-21908974D01*
X14042857Y-21899450D01*
X14042857Y-21918498D01*
X14176190Y-21718498D02*
X14195238Y-21718498D01*
X14214286Y-21728022D01*
X14223809Y-21737545D01*
X14233333Y-21756593D01*
X14242857Y-21794688D01*
X14242857Y-21842307D01*
X14233333Y-21880402D01*
X14223809Y-21899450D01*
X14214286Y-21908974D01*
X14195238Y-21918498D01*
X14176190Y-21918498D01*
X14157143Y-21908974D01*
X14147619Y-21899450D01*
X14138095Y-21880402D01*
X14128571Y-21842307D01*
X14128571Y-21794688D01*
X14138095Y-21756593D01*
X14147619Y-21737545D01*
X14157143Y-21728022D01*
X14176190Y-21718498D01*
X14319048Y-21737545D02*
X14328571Y-21728022D01*
X14347619Y-21718498D01*
X14395238Y-21718498D01*
X14414286Y-21728022D01*
X14423809Y-21737545D01*
X14433333Y-21756593D01*
X14433333Y-21775641D01*
X14423809Y-21804212D01*
X14309524Y-21918498D01*
X14433333Y-21918498D01*
X14528571Y-21918498D02*
X14566667Y-21918498D01*
X14585714Y-21908974D01*
X14595238Y-21899450D01*
X14614286Y-21870879D01*
X14623809Y-21832783D01*
X14623809Y-21756593D01*
X14614286Y-21737545D01*
X14604762Y-21728022D01*
X14585714Y-21718498D01*
X14547619Y-21718498D01*
X14528571Y-21728022D01*
X14519048Y-21737545D01*
X14509524Y-21756593D01*
X14509524Y-21804212D01*
X14519048Y-21823260D01*
X14528571Y-21832783D01*
X14547619Y-21842307D01*
X14585714Y-21842307D01*
X14604762Y-21832783D01*
X14614286Y-21823260D01*
X14623809Y-21804212D01*
X14804762Y-21718498D02*
X14709524Y-21718498D01*
X14700000Y-21813736D01*
X14709524Y-21804212D01*
X14728571Y-21794688D01*
X14776190Y-21794688D01*
X14795238Y-21804212D01*
X14804762Y-21813736D01*
X14814286Y-21832783D01*
X14814286Y-21880402D01*
X14804762Y-21899450D01*
X14795238Y-21908974D01*
X14776190Y-21918498D01*
X14728571Y-21918498D01*
X14709524Y-21908974D01*
X14700000Y-21899450D01*
X14890476Y-21718498D02*
X14890476Y-21756593D01*
X14966667Y-21718498D02*
X14966667Y-21756593D01*
X15261905Y-21994688D02*
X15252381Y-21985164D01*
X15233333Y-21956593D01*
X15223809Y-21937545D01*
X15214286Y-21908974D01*
X15204762Y-21861355D01*
X15204762Y-21823260D01*
X15214286Y-21775641D01*
X15223809Y-21747069D01*
X15233333Y-21728022D01*
X15252381Y-21699450D01*
X15261905Y-21689926D01*
X15347619Y-21918498D02*
X15385714Y-21918498D01*
X15404762Y-21908974D01*
X15414286Y-21899450D01*
X15433333Y-21870879D01*
X15442857Y-21832783D01*
X15442857Y-21756593D01*
X15433333Y-21737545D01*
X15423809Y-21728022D01*
X15404762Y-21718498D01*
X15366667Y-21718498D01*
X15347619Y-21728022D01*
X15338095Y-21737545D01*
X15328571Y-21756593D01*
X15328571Y-21804212D01*
X15338095Y-21823260D01*
X15347619Y-21832783D01*
X15366667Y-21842307D01*
X15404762Y-21842307D01*
X15423809Y-21832783D01*
X15433333Y-21823260D01*
X15442857Y-21804212D01*
X15566667Y-21718498D02*
X15585714Y-21718498D01*
X15604762Y-21728022D01*
X15614286Y-21737545D01*
X15623809Y-21756593D01*
X15633333Y-21794688D01*
X15633333Y-21842307D01*
X15623809Y-21880402D01*
X15614286Y-21899450D01*
X15604762Y-21908974D01*
X15585714Y-21918498D01*
X15566667Y-21918498D01*
X15547619Y-21908974D01*
X15538095Y-21899450D01*
X15528571Y-21880402D01*
X15519048Y-21842307D01*
X15519048Y-21794688D01*
X15528571Y-21756593D01*
X15538095Y-21737545D01*
X15547619Y-21728022D01*
X15566667Y-21718498D01*
X15871428Y-21918498D02*
X15871428Y-21718498D01*
X15957143Y-21918498D02*
X15957143Y-21813736D01*
X15947619Y-21794688D01*
X15928571Y-21785164D01*
X15900000Y-21785164D01*
X15880952Y-21794688D01*
X15871428Y-21804212D01*
X16080952Y-21918498D02*
X16061905Y-21908974D01*
X16052381Y-21899450D01*
X16042857Y-21880402D01*
X16042857Y-21823260D01*
X16052381Y-21804212D01*
X16061905Y-21794688D01*
X16080952Y-21785164D01*
X16109524Y-21785164D01*
X16128571Y-21794688D01*
X16138095Y-21804212D01*
X16147619Y-21823260D01*
X16147619Y-21880402D01*
X16138095Y-21899450D01*
X16128571Y-21908974D01*
X16109524Y-21918498D01*
X16080952Y-21918498D01*
X16261905Y-21918498D02*
X16242857Y-21908974D01*
X16233333Y-21889926D01*
X16233333Y-21718498D01*
X16414286Y-21908974D02*
X16395238Y-21918498D01*
X16357143Y-21918498D01*
X16338095Y-21908974D01*
X16328571Y-21889926D01*
X16328571Y-21813736D01*
X16338095Y-21794688D01*
X16357143Y-21785164D01*
X16395238Y-21785164D01*
X16414286Y-21794688D01*
X16423809Y-21813736D01*
X16423809Y-21832783D01*
X16328571Y-21851831D01*
X16500000Y-21908974D02*
X16519048Y-21918498D01*
X16557143Y-21918498D01*
X16576190Y-21908974D01*
X16585714Y-21889926D01*
X16585714Y-21880402D01*
X16576190Y-21861355D01*
X16557143Y-21851831D01*
X16528571Y-21851831D01*
X16509524Y-21842307D01*
X16500000Y-21823260D01*
X16500000Y-21813736D01*
X16509524Y-21794688D01*
X16528571Y-21785164D01*
X16557143Y-21785164D01*
X16576190Y-21794688D01*
X16823810Y-21842307D02*
X16976190Y-21842307D01*
X16900000Y-21918498D02*
X16900000Y-21766117D01*
X17214286Y-21737545D02*
X17223810Y-21728022D01*
X17242857Y-21718498D01*
X17290476Y-21718498D01*
X17309524Y-21728022D01*
X17319048Y-21737545D01*
X17328571Y-21756593D01*
X17328571Y-21775641D01*
X17319048Y-21804212D01*
X17204762Y-21918498D01*
X17328571Y-21918498D01*
X17557143Y-21908974D02*
X17576190Y-21918498D01*
X17614286Y-21918498D01*
X17633333Y-21908974D01*
X17642857Y-21889926D01*
X17642857Y-21880402D01*
X17633333Y-21861355D01*
X17614286Y-21851831D01*
X17585714Y-21851831D01*
X17566667Y-21842307D01*
X17557143Y-21823260D01*
X17557143Y-21813736D01*
X17566667Y-21794688D01*
X17585714Y-21785164D01*
X17614286Y-21785164D01*
X17633333Y-21794688D01*
X17757143Y-21918498D02*
X17738095Y-21908974D01*
X17728571Y-21889926D01*
X17728571Y-21718498D01*
X17861905Y-21918498D02*
X17842857Y-21908974D01*
X17833333Y-21899450D01*
X17823810Y-21880402D01*
X17823810Y-21823260D01*
X17833333Y-21804212D01*
X17842857Y-21794688D01*
X17861905Y-21785164D01*
X17890476Y-21785164D01*
X17909524Y-21794688D01*
X17919048Y-21804212D01*
X17928571Y-21823260D01*
X17928571Y-21880402D01*
X17919048Y-21899450D01*
X17909524Y-21908974D01*
X17890476Y-21918498D01*
X17861905Y-21918498D01*
X17985714Y-21785164D02*
X18061905Y-21785164D01*
X18014286Y-21718498D02*
X18014286Y-21889926D01*
X18023810Y-21908974D01*
X18042857Y-21918498D01*
X18061905Y-21918498D01*
X18119048Y-21908974D02*
X18138095Y-21918498D01*
X18176190Y-21918498D01*
X18195238Y-21908974D01*
X18204762Y-21889926D01*
X18204762Y-21880402D01*
X18195238Y-21861355D01*
X18176190Y-21851831D01*
X18147619Y-21851831D01*
X18128571Y-21842307D01*
X18119048Y-21823260D01*
X18119048Y-21813736D01*
X18128571Y-21794688D01*
X18147619Y-21785164D01*
X18176190Y-21785164D01*
X18195238Y-21794688D01*
X18271429Y-21994688D02*
X18280952Y-21985164D01*
X18300000Y-21956593D01*
X18309524Y-21937545D01*
X18319048Y-21908974D01*
X18328571Y-21861355D01*
X18328571Y-21823260D01*
X18319048Y-21775641D01*
X18309524Y-21747069D01*
X18300000Y-21728022D01*
X18280952Y-21699450D01*
X18271429Y-21689926D01*
D14*
X11678284Y-22120306D02*
X11678284Y-22063737D01*
X11621715Y-22063737D01*
X11621715Y-22120306D01*
X11678284Y-22120306D01*
D10*
X11985714Y-21982498D02*
X12004762Y-21982498D01*
X12023809Y-21992022D01*
X12033333Y-22001545D01*
X12042857Y-22020593D01*
X12052381Y-22058688D01*
X12052381Y-22106307D01*
X12042857Y-22144402D01*
X12033333Y-22163450D01*
X12023809Y-22172974D01*
X12004762Y-22182498D01*
X11985714Y-22182498D01*
X11966667Y-22172974D01*
X11957143Y-22163450D01*
X11947619Y-22144402D01*
X11938095Y-22106307D01*
X11938095Y-22058688D01*
X11947619Y-22020593D01*
X11957143Y-22001545D01*
X11966667Y-21992022D01*
X11985714Y-21982498D01*
X12138095Y-22163450D02*
X12147619Y-22172974D01*
X12138095Y-22182498D01*
X12128571Y-22172974D01*
X12138095Y-22163450D01*
X12138095Y-22182498D01*
X12261905Y-22068212D02*
X12242857Y-22058688D01*
X12233333Y-22049164D01*
X12223809Y-22030117D01*
X12223809Y-22020593D01*
X12233333Y-22001545D01*
X12242857Y-21992022D01*
X12261905Y-21982498D01*
X12300000Y-21982498D01*
X12319048Y-21992022D01*
X12328571Y-22001545D01*
X12338095Y-22020593D01*
X12338095Y-22030117D01*
X12328571Y-22049164D01*
X12319048Y-22058688D01*
X12300000Y-22068212D01*
X12261905Y-22068212D01*
X12242857Y-22077736D01*
X12233333Y-22087260D01*
X12223809Y-22106307D01*
X12223809Y-22144402D01*
X12233333Y-22163450D01*
X12242857Y-22172974D01*
X12261905Y-22182498D01*
X12300000Y-22182498D01*
X12319048Y-22172974D01*
X12328571Y-22163450D01*
X12338095Y-22144402D01*
X12338095Y-22106307D01*
X12328571Y-22087260D01*
X12319048Y-22077736D01*
X12300000Y-22068212D01*
X12461905Y-21982498D02*
X12480952Y-21982498D01*
X12500000Y-21992022D01*
X12509524Y-22001545D01*
X12519048Y-22020593D01*
X12528571Y-22058688D01*
X12528571Y-22106307D01*
X12519048Y-22144402D01*
X12509524Y-22163450D01*
X12500000Y-22172974D01*
X12480952Y-22182498D01*
X12461905Y-22182498D01*
X12442857Y-22172974D01*
X12433333Y-22163450D01*
X12423809Y-22144402D01*
X12414286Y-22106307D01*
X12414286Y-22058688D01*
X12423809Y-22020593D01*
X12433333Y-22001545D01*
X12442857Y-21992022D01*
X12461905Y-21982498D01*
X12652381Y-21982498D02*
X12671428Y-21982498D01*
X12690476Y-21992022D01*
X12700000Y-22001545D01*
X12709524Y-22020593D01*
X12719048Y-22058688D01*
X12719048Y-22106307D01*
X12709524Y-22144402D01*
X12700000Y-22163450D01*
X12690476Y-22172974D01*
X12671428Y-22182498D01*
X12652381Y-22182498D01*
X12633333Y-22172974D01*
X12623809Y-22163450D01*
X12614286Y-22144402D01*
X12604762Y-22106307D01*
X12604762Y-22058688D01*
X12614286Y-22020593D01*
X12623809Y-22001545D01*
X12633333Y-21992022D01*
X12652381Y-21982498D01*
X12804762Y-22182498D02*
X12804762Y-22049164D01*
X12804762Y-22068212D02*
X12814286Y-22058688D01*
X12833333Y-22049164D01*
X12861905Y-22049164D01*
X12880952Y-22058688D01*
X12890476Y-22077736D01*
X12890476Y-22182498D01*
X12890476Y-22077736D02*
X12900000Y-22058688D01*
X12919048Y-22049164D01*
X12947619Y-22049164D01*
X12966667Y-22058688D01*
X12976190Y-22077736D01*
X12976190Y-22182498D01*
X13071428Y-22182498D02*
X13071428Y-22049164D01*
X13071428Y-22068212D02*
X13080952Y-22058688D01*
X13100000Y-22049164D01*
X13128571Y-22049164D01*
X13147619Y-22058688D01*
X13157143Y-22077736D01*
X13157143Y-22182498D01*
X13157143Y-22077736D02*
X13166667Y-22058688D01*
X13185714Y-22049164D01*
X13214286Y-22049164D01*
X13233333Y-22058688D01*
X13242857Y-22077736D01*
X13242857Y-22182498D01*
X13633333Y-21972974D02*
X13461905Y-22230117D01*
X13890476Y-21982498D02*
X13909524Y-21982498D01*
X13928571Y-21992022D01*
X13938095Y-22001545D01*
X13947619Y-22020593D01*
X13957143Y-22058688D01*
X13957143Y-22106307D01*
X13947619Y-22144402D01*
X13938095Y-22163450D01*
X13928571Y-22172974D01*
X13909524Y-22182498D01*
X13890476Y-22182498D01*
X13871428Y-22172974D01*
X13861905Y-22163450D01*
X13852381Y-22144402D01*
X13842857Y-22106307D01*
X13842857Y-22058688D01*
X13852381Y-22020593D01*
X13861905Y-22001545D01*
X13871428Y-21992022D01*
X13890476Y-21982498D01*
X14042857Y-22163450D02*
X14052381Y-22172974D01*
X14042857Y-22182498D01*
X14033333Y-22172974D01*
X14042857Y-22163450D01*
X14042857Y-22182498D01*
X14176190Y-21982498D02*
X14195238Y-21982498D01*
X14214286Y-21992022D01*
X14223809Y-22001545D01*
X14233333Y-22020593D01*
X14242857Y-22058688D01*
X14242857Y-22106307D01*
X14233333Y-22144402D01*
X14223809Y-22163450D01*
X14214286Y-22172974D01*
X14195238Y-22182498D01*
X14176190Y-22182498D01*
X14157143Y-22172974D01*
X14147619Y-22163450D01*
X14138095Y-22144402D01*
X14128571Y-22106307D01*
X14128571Y-22058688D01*
X14138095Y-22020593D01*
X14147619Y-22001545D01*
X14157143Y-21992022D01*
X14176190Y-21982498D01*
X14309524Y-21982498D02*
X14433333Y-21982498D01*
X14366667Y-22058688D01*
X14395238Y-22058688D01*
X14414286Y-22068212D01*
X14423809Y-22077736D01*
X14433333Y-22096783D01*
X14433333Y-22144402D01*
X14423809Y-22163450D01*
X14414286Y-22172974D01*
X14395238Y-22182498D01*
X14338095Y-22182498D01*
X14319048Y-22172974D01*
X14309524Y-22163450D01*
X14623809Y-22182498D02*
X14509524Y-22182498D01*
X14566667Y-22182498D02*
X14566667Y-21982498D01*
X14547619Y-22011069D01*
X14528571Y-22030117D01*
X14509524Y-22039641D01*
X14804762Y-21982498D02*
X14709524Y-21982498D01*
X14700000Y-22077736D01*
X14709524Y-22068212D01*
X14728571Y-22058688D01*
X14776190Y-22058688D01*
X14795238Y-22068212D01*
X14804762Y-22077736D01*
X14814286Y-22096783D01*
X14814286Y-22144402D01*
X14804762Y-22163450D01*
X14795238Y-22172974D01*
X14776190Y-22182498D01*
X14728571Y-22182498D01*
X14709524Y-22172974D01*
X14700000Y-22163450D01*
X14890476Y-21982498D02*
X14890476Y-22020593D01*
X14966667Y-21982498D02*
X14966667Y-22020593D01*
X15261905Y-22258688D02*
X15252381Y-22249164D01*
X15233333Y-22220593D01*
X15223809Y-22201545D01*
X15214286Y-22172974D01*
X15204762Y-22125355D01*
X15204762Y-22087260D01*
X15214286Y-22039641D01*
X15223809Y-22011069D01*
X15233333Y-21992022D01*
X15252381Y-21963450D01*
X15261905Y-21953926D01*
X15319048Y-21982498D02*
X15442857Y-21982498D01*
X15376190Y-22058688D01*
X15404762Y-22058688D01*
X15423809Y-22068212D01*
X15433333Y-22077736D01*
X15442857Y-22096783D01*
X15442857Y-22144402D01*
X15433333Y-22163450D01*
X15423809Y-22172974D01*
X15404762Y-22182498D01*
X15347619Y-22182498D01*
X15328571Y-22172974D01*
X15319048Y-22163450D01*
X15557143Y-22068212D02*
X15538095Y-22058688D01*
X15528571Y-22049164D01*
X15519048Y-22030117D01*
X15519048Y-22020593D01*
X15528571Y-22001545D01*
X15538095Y-21992022D01*
X15557143Y-21982498D01*
X15595238Y-21982498D01*
X15614286Y-21992022D01*
X15623809Y-22001545D01*
X15633333Y-22020593D01*
X15633333Y-22030117D01*
X15623809Y-22049164D01*
X15614286Y-22058688D01*
X15595238Y-22068212D01*
X15557143Y-22068212D01*
X15538095Y-22077736D01*
X15528571Y-22087260D01*
X15519048Y-22106307D01*
X15519048Y-22144402D01*
X15528571Y-22163450D01*
X15538095Y-22172974D01*
X15557143Y-22182498D01*
X15595238Y-22182498D01*
X15614286Y-22172974D01*
X15623809Y-22163450D01*
X15633333Y-22144402D01*
X15633333Y-22106307D01*
X15623809Y-22087260D01*
X15614286Y-22077736D01*
X15595238Y-22068212D01*
X15871428Y-22182498D02*
X15871428Y-21982498D01*
X15957143Y-22182498D02*
X15957143Y-22077736D01*
X15947619Y-22058688D01*
X15928571Y-22049164D01*
X15900000Y-22049164D01*
X15880952Y-22058688D01*
X15871428Y-22068212D01*
X16080952Y-22182498D02*
X16061905Y-22172974D01*
X16052381Y-22163450D01*
X16042857Y-22144402D01*
X16042857Y-22087260D01*
X16052381Y-22068212D01*
X16061905Y-22058688D01*
X16080952Y-22049164D01*
X16109524Y-22049164D01*
X16128571Y-22058688D01*
X16138095Y-22068212D01*
X16147619Y-22087260D01*
X16147619Y-22144402D01*
X16138095Y-22163450D01*
X16128571Y-22172974D01*
X16109524Y-22182498D01*
X16080952Y-22182498D01*
X16261905Y-22182498D02*
X16242857Y-22172974D01*
X16233333Y-22153926D01*
X16233333Y-21982498D01*
X16414286Y-22172974D02*
X16395238Y-22182498D01*
X16357143Y-22182498D01*
X16338095Y-22172974D01*
X16328571Y-22153926D01*
X16328571Y-22077736D01*
X16338095Y-22058688D01*
X16357143Y-22049164D01*
X16395238Y-22049164D01*
X16414286Y-22058688D01*
X16423809Y-22077736D01*
X16423809Y-22096783D01*
X16328571Y-22115831D01*
X16500000Y-22172974D02*
X16519048Y-22182498D01*
X16557143Y-22182498D01*
X16576190Y-22172974D01*
X16585714Y-22153926D01*
X16585714Y-22144402D01*
X16576190Y-22125355D01*
X16557143Y-22115831D01*
X16528571Y-22115831D01*
X16509524Y-22106307D01*
X16500000Y-22087260D01*
X16500000Y-22077736D01*
X16509524Y-22058688D01*
X16528571Y-22049164D01*
X16557143Y-22049164D01*
X16576190Y-22058688D01*
X16652381Y-22258688D02*
X16661905Y-22249164D01*
X16680952Y-22220593D01*
X16690476Y-22201545D01*
X16700000Y-22172974D01*
X16709524Y-22125355D01*
X16709524Y-22087260D01*
X16700000Y-22039641D01*
X16690476Y-22011069D01*
X16680952Y-21992022D01*
X16661905Y-21963450D01*
X16652381Y-21953926D01*
D15*
X11640000Y-22406021D02*
X11690000Y-22356022D01*
X11640000Y-22306022D01*
X11590000Y-22356022D01*
X11640000Y-22406021D01*
D10*
X12052381Y-22446498D02*
X11938095Y-22446498D01*
X11995238Y-22446498D02*
X11995238Y-22246498D01*
X11976190Y-22275069D01*
X11957143Y-22294117D01*
X11938095Y-22303641D01*
X12138095Y-22427450D02*
X12147619Y-22436974D01*
X12138095Y-22446498D01*
X12128571Y-22436974D01*
X12138095Y-22427450D01*
X12138095Y-22446498D01*
X12271428Y-22246498D02*
X12290476Y-22246498D01*
X12309524Y-22256022D01*
X12319048Y-22265545D01*
X12328571Y-22284593D01*
X12338095Y-22322688D01*
X12338095Y-22370307D01*
X12328571Y-22408402D01*
X12319048Y-22427450D01*
X12309524Y-22436974D01*
X12290476Y-22446498D01*
X12271428Y-22446498D01*
X12252381Y-22436974D01*
X12242857Y-22427450D01*
X12233333Y-22408402D01*
X12223809Y-22370307D01*
X12223809Y-22322688D01*
X12233333Y-22284593D01*
X12242857Y-22265545D01*
X12252381Y-22256022D01*
X12271428Y-22246498D01*
X12461905Y-22246498D02*
X12480952Y-22246498D01*
X12500000Y-22256022D01*
X12509524Y-22265545D01*
X12519048Y-22284593D01*
X12528571Y-22322688D01*
X12528571Y-22370307D01*
X12519048Y-22408402D01*
X12509524Y-22427450D01*
X12500000Y-22436974D01*
X12480952Y-22446498D01*
X12461905Y-22446498D01*
X12442857Y-22436974D01*
X12433333Y-22427450D01*
X12423809Y-22408402D01*
X12414286Y-22370307D01*
X12414286Y-22322688D01*
X12423809Y-22284593D01*
X12433333Y-22265545D01*
X12442857Y-22256022D01*
X12461905Y-22246498D01*
X12652381Y-22246498D02*
X12671428Y-22246498D01*
X12690476Y-22256022D01*
X12700000Y-22265545D01*
X12709524Y-22284593D01*
X12719048Y-22322688D01*
X12719048Y-22370307D01*
X12709524Y-22408402D01*
X12700000Y-22427450D01*
X12690476Y-22436974D01*
X12671428Y-22446498D01*
X12652381Y-22446498D01*
X12633333Y-22436974D01*
X12623809Y-22427450D01*
X12614286Y-22408402D01*
X12604762Y-22370307D01*
X12604762Y-22322688D01*
X12614286Y-22284593D01*
X12623809Y-22265545D01*
X12633333Y-22256022D01*
X12652381Y-22246498D01*
X12804762Y-22446498D02*
X12804762Y-22313164D01*
X12804762Y-22332212D02*
X12814286Y-22322688D01*
X12833333Y-22313164D01*
X12861905Y-22313164D01*
X12880952Y-22322688D01*
X12890476Y-22341736D01*
X12890476Y-22446498D01*
X12890476Y-22341736D02*
X12900000Y-22322688D01*
X12919048Y-22313164D01*
X12947619Y-22313164D01*
X12966667Y-22322688D01*
X12976190Y-22341736D01*
X12976190Y-22446498D01*
X13071428Y-22446498D02*
X13071428Y-22313164D01*
X13071428Y-22332212D02*
X13080952Y-22322688D01*
X13100000Y-22313164D01*
X13128571Y-22313164D01*
X13147619Y-22322688D01*
X13157143Y-22341736D01*
X13157143Y-22446498D01*
X13157143Y-22341736D02*
X13166667Y-22322688D01*
X13185714Y-22313164D01*
X13214286Y-22313164D01*
X13233333Y-22322688D01*
X13242857Y-22341736D01*
X13242857Y-22446498D01*
X13633333Y-22236974D02*
X13461905Y-22494117D01*
X13890476Y-22246498D02*
X13909524Y-22246498D01*
X13928571Y-22256022D01*
X13938095Y-22265545D01*
X13947619Y-22284593D01*
X13957143Y-22322688D01*
X13957143Y-22370307D01*
X13947619Y-22408402D01*
X13938095Y-22427450D01*
X13928571Y-22436974D01*
X13909524Y-22446498D01*
X13890476Y-22446498D01*
X13871428Y-22436974D01*
X13861905Y-22427450D01*
X13852381Y-22408402D01*
X13842857Y-22370307D01*
X13842857Y-22322688D01*
X13852381Y-22284593D01*
X13861905Y-22265545D01*
X13871428Y-22256022D01*
X13890476Y-22246498D01*
X14042857Y-22427450D02*
X14052381Y-22436974D01*
X14042857Y-22446498D01*
X14033333Y-22436974D01*
X14042857Y-22427450D01*
X14042857Y-22446498D01*
X14176190Y-22246498D02*
X14195238Y-22246498D01*
X14214286Y-22256022D01*
X14223809Y-22265545D01*
X14233333Y-22284593D01*
X14242857Y-22322688D01*
X14242857Y-22370307D01*
X14233333Y-22408402D01*
X14223809Y-22427450D01*
X14214286Y-22436974D01*
X14195238Y-22446498D01*
X14176190Y-22446498D01*
X14157143Y-22436974D01*
X14147619Y-22427450D01*
X14138095Y-22408402D01*
X14128571Y-22370307D01*
X14128571Y-22322688D01*
X14138095Y-22284593D01*
X14147619Y-22265545D01*
X14157143Y-22256022D01*
X14176190Y-22246498D01*
X14309524Y-22246498D02*
X14433333Y-22246498D01*
X14366667Y-22322688D01*
X14395238Y-22322688D01*
X14414286Y-22332212D01*
X14423809Y-22341736D01*
X14433333Y-22360783D01*
X14433333Y-22408402D01*
X14423809Y-22427450D01*
X14414286Y-22436974D01*
X14395238Y-22446498D01*
X14338095Y-22446498D01*
X14319048Y-22436974D01*
X14309524Y-22427450D01*
X14528571Y-22446498D02*
X14566667Y-22446498D01*
X14585714Y-22436974D01*
X14595238Y-22427450D01*
X14614286Y-22398879D01*
X14623809Y-22360783D01*
X14623809Y-22284593D01*
X14614286Y-22265545D01*
X14604762Y-22256022D01*
X14585714Y-22246498D01*
X14547619Y-22246498D01*
X14528571Y-22256022D01*
X14519048Y-22265545D01*
X14509524Y-22284593D01*
X14509524Y-22332212D01*
X14519048Y-22351260D01*
X14528571Y-22360783D01*
X14547619Y-22370307D01*
X14585714Y-22370307D01*
X14604762Y-22360783D01*
X14614286Y-22351260D01*
X14623809Y-22332212D01*
X14795238Y-22313164D02*
X14795238Y-22446498D01*
X14747619Y-22236974D02*
X14700000Y-22379831D01*
X14823809Y-22379831D01*
X14890476Y-22246498D02*
X14890476Y-22284593D01*
X14966667Y-22246498D02*
X14966667Y-22284593D01*
X15261905Y-22522688D02*
X15252381Y-22513164D01*
X15233333Y-22484593D01*
X15223809Y-22465545D01*
X15214286Y-22436974D01*
X15204762Y-22389355D01*
X15204762Y-22351260D01*
X15214286Y-22303641D01*
X15223809Y-22275069D01*
X15233333Y-22256022D01*
X15252381Y-22227450D01*
X15261905Y-22217926D01*
X15423809Y-22246498D02*
X15385714Y-22246498D01*
X15366667Y-22256022D01*
X15357143Y-22265545D01*
X15338095Y-22294117D01*
X15328571Y-22332212D01*
X15328571Y-22408402D01*
X15338095Y-22427450D01*
X15347619Y-22436974D01*
X15366667Y-22446498D01*
X15404762Y-22446498D01*
X15423809Y-22436974D01*
X15433333Y-22427450D01*
X15442857Y-22408402D01*
X15442857Y-22360783D01*
X15433333Y-22341736D01*
X15423809Y-22332212D01*
X15404762Y-22322688D01*
X15366667Y-22322688D01*
X15347619Y-22332212D01*
X15338095Y-22341736D01*
X15328571Y-22360783D01*
X15623809Y-22246498D02*
X15528571Y-22246498D01*
X15519048Y-22341736D01*
X15528571Y-22332212D01*
X15547619Y-22322688D01*
X15595238Y-22322688D01*
X15614286Y-22332212D01*
X15623809Y-22341736D01*
X15633333Y-22360783D01*
X15633333Y-22408402D01*
X15623809Y-22427450D01*
X15614286Y-22436974D01*
X15595238Y-22446498D01*
X15547619Y-22446498D01*
X15528571Y-22436974D01*
X15519048Y-22427450D01*
X15871428Y-22446498D02*
X15871428Y-22246498D01*
X15957143Y-22446498D02*
X15957143Y-22341736D01*
X15947619Y-22322688D01*
X15928571Y-22313164D01*
X15900000Y-22313164D01*
X15880952Y-22322688D01*
X15871428Y-22332212D01*
X16080952Y-22446498D02*
X16061905Y-22436974D01*
X16052381Y-22427450D01*
X16042857Y-22408402D01*
X16042857Y-22351260D01*
X16052381Y-22332212D01*
X16061905Y-22322688D01*
X16080952Y-22313164D01*
X16109524Y-22313164D01*
X16128571Y-22322688D01*
X16138095Y-22332212D01*
X16147619Y-22351260D01*
X16147619Y-22408402D01*
X16138095Y-22427450D01*
X16128571Y-22436974D01*
X16109524Y-22446498D01*
X16080952Y-22446498D01*
X16261905Y-22446498D02*
X16242857Y-22436974D01*
X16233333Y-22417926D01*
X16233333Y-22246498D01*
X16414286Y-22436974D02*
X16395238Y-22446498D01*
X16357143Y-22446498D01*
X16338095Y-22436974D01*
X16328571Y-22417926D01*
X16328571Y-22341736D01*
X16338095Y-22322688D01*
X16357143Y-22313164D01*
X16395238Y-22313164D01*
X16414286Y-22322688D01*
X16423809Y-22341736D01*
X16423809Y-22360783D01*
X16328571Y-22379831D01*
X16500000Y-22436974D02*
X16519048Y-22446498D01*
X16557143Y-22446498D01*
X16576190Y-22436974D01*
X16585714Y-22417926D01*
X16585714Y-22408402D01*
X16576190Y-22389355D01*
X16557143Y-22379831D01*
X16528571Y-22379831D01*
X16509524Y-22370307D01*
X16500000Y-22351260D01*
X16500000Y-22341736D01*
X16509524Y-22322688D01*
X16528571Y-22313164D01*
X16557143Y-22313164D01*
X16576190Y-22322688D01*
X16652381Y-22522688D02*
X16661905Y-22513164D01*
X16680952Y-22484593D01*
X16690476Y-22465545D01*
X16700000Y-22436974D01*
X16709524Y-22389355D01*
X16709524Y-22351260D01*
X16700000Y-22303641D01*
X16690476Y-22275069D01*
X16680952Y-22256022D01*
X16661905Y-22227450D01*
X16652381Y-22217926D01*
D16*
X11580000Y-22565021D02*
X11690000Y-22675021D01*
X11690000Y-22565021D02*
X11580000Y-22675021D01*
X11690000Y-22620021D02*
G75*
G03*
X11690000Y-22620021I-55000J0D01*
G01*
D10*
X12052381Y-22710498D02*
X11938095Y-22710498D01*
X11995238Y-22710498D02*
X11995238Y-22510498D01*
X11976190Y-22539069D01*
X11957143Y-22558117D01*
X11938095Y-22567640D01*
X12138095Y-22691450D02*
X12147619Y-22700974D01*
X12138095Y-22710498D01*
X12128571Y-22700974D01*
X12138095Y-22691450D01*
X12138095Y-22710498D01*
X12338095Y-22710498D02*
X12223809Y-22710498D01*
X12280952Y-22710498D02*
X12280952Y-22510498D01*
X12261905Y-22539069D01*
X12242857Y-22558117D01*
X12223809Y-22567640D01*
X12461905Y-22510498D02*
X12480952Y-22510498D01*
X12500000Y-22520021D01*
X12509524Y-22529545D01*
X12519048Y-22548593D01*
X12528571Y-22586688D01*
X12528571Y-22634307D01*
X12519048Y-22672402D01*
X12509524Y-22691450D01*
X12500000Y-22700974D01*
X12480952Y-22710498D01*
X12461905Y-22710498D01*
X12442857Y-22700974D01*
X12433333Y-22691450D01*
X12423809Y-22672402D01*
X12414286Y-22634307D01*
X12414286Y-22586688D01*
X12423809Y-22548593D01*
X12433333Y-22529545D01*
X12442857Y-22520021D01*
X12461905Y-22510498D01*
X12652381Y-22510498D02*
X12671428Y-22510498D01*
X12690476Y-22520021D01*
X12700000Y-22529545D01*
X12709524Y-22548593D01*
X12719048Y-22586688D01*
X12719048Y-22634307D01*
X12709524Y-22672402D01*
X12700000Y-22691450D01*
X12690476Y-22700974D01*
X12671428Y-22710498D01*
X12652381Y-22710498D01*
X12633333Y-22700974D01*
X12623809Y-22691450D01*
X12614286Y-22672402D01*
X12604762Y-22634307D01*
X12604762Y-22586688D01*
X12614286Y-22548593D01*
X12623809Y-22529545D01*
X12633333Y-22520021D01*
X12652381Y-22510498D01*
X12804762Y-22710498D02*
X12804762Y-22577164D01*
X12804762Y-22596212D02*
X12814286Y-22586688D01*
X12833333Y-22577164D01*
X12861905Y-22577164D01*
X12880952Y-22586688D01*
X12890476Y-22605736D01*
X12890476Y-22710498D01*
X12890476Y-22605736D02*
X12900000Y-22586688D01*
X12919048Y-22577164D01*
X12947619Y-22577164D01*
X12966667Y-22586688D01*
X12976190Y-22605736D01*
X12976190Y-22710498D01*
X13071428Y-22710498D02*
X13071428Y-22577164D01*
X13071428Y-22596212D02*
X13080952Y-22586688D01*
X13100000Y-22577164D01*
X13128571Y-22577164D01*
X13147619Y-22586688D01*
X13157143Y-22605736D01*
X13157143Y-22710498D01*
X13157143Y-22605736D02*
X13166667Y-22586688D01*
X13185714Y-22577164D01*
X13214286Y-22577164D01*
X13233333Y-22586688D01*
X13242857Y-22605736D01*
X13242857Y-22710498D01*
X13633333Y-22500974D02*
X13461905Y-22758117D01*
X13890476Y-22510498D02*
X13909524Y-22510498D01*
X13928571Y-22520021D01*
X13938095Y-22529545D01*
X13947619Y-22548593D01*
X13957143Y-22586688D01*
X13957143Y-22634307D01*
X13947619Y-22672402D01*
X13938095Y-22691450D01*
X13928571Y-22700974D01*
X13909524Y-22710498D01*
X13890476Y-22710498D01*
X13871428Y-22700974D01*
X13861905Y-22691450D01*
X13852381Y-22672402D01*
X13842857Y-22634307D01*
X13842857Y-22586688D01*
X13852381Y-22548593D01*
X13861905Y-22529545D01*
X13871428Y-22520021D01*
X13890476Y-22510498D01*
X14042857Y-22691450D02*
X14052381Y-22700974D01*
X14042857Y-22710498D01*
X14033333Y-22700974D01*
X14042857Y-22691450D01*
X14042857Y-22710498D01*
X14176190Y-22510498D02*
X14195238Y-22510498D01*
X14214286Y-22520021D01*
X14223809Y-22529545D01*
X14233333Y-22548593D01*
X14242857Y-22586688D01*
X14242857Y-22634307D01*
X14233333Y-22672402D01*
X14223809Y-22691450D01*
X14214286Y-22700974D01*
X14195238Y-22710498D01*
X14176190Y-22710498D01*
X14157143Y-22700974D01*
X14147619Y-22691450D01*
X14138095Y-22672402D01*
X14128571Y-22634307D01*
X14128571Y-22586688D01*
X14138095Y-22548593D01*
X14147619Y-22529545D01*
X14157143Y-22520021D01*
X14176190Y-22510498D01*
X14414286Y-22577164D02*
X14414286Y-22710498D01*
X14366667Y-22500974D02*
X14319048Y-22643831D01*
X14442857Y-22643831D01*
X14500000Y-22510498D02*
X14623809Y-22510498D01*
X14557143Y-22586688D01*
X14585714Y-22586688D01*
X14604762Y-22596212D01*
X14614286Y-22605736D01*
X14623809Y-22624783D01*
X14623809Y-22672402D01*
X14614286Y-22691450D01*
X14604762Y-22700974D01*
X14585714Y-22710498D01*
X14528571Y-22710498D01*
X14509524Y-22700974D01*
X14500000Y-22691450D01*
X14690476Y-22510498D02*
X14814286Y-22510498D01*
X14747619Y-22586688D01*
X14776190Y-22586688D01*
X14795238Y-22596212D01*
X14804762Y-22605736D01*
X14814286Y-22624783D01*
X14814286Y-22672402D01*
X14804762Y-22691450D01*
X14795238Y-22700974D01*
X14776190Y-22710498D01*
X14719048Y-22710498D01*
X14700000Y-22700974D01*
X14690476Y-22691450D01*
X14890476Y-22510498D02*
X14890476Y-22548593D01*
X14966667Y-22510498D02*
X14966667Y-22548593D01*
X15261905Y-22786688D02*
X15252381Y-22777164D01*
X15233333Y-22748593D01*
X15223809Y-22729545D01*
X15214286Y-22700974D01*
X15204762Y-22653355D01*
X15204762Y-22615259D01*
X15214286Y-22567640D01*
X15223809Y-22539069D01*
X15233333Y-22520021D01*
X15252381Y-22491450D01*
X15261905Y-22481926D01*
X15423809Y-22577164D02*
X15423809Y-22710498D01*
X15376190Y-22500974D02*
X15328571Y-22643831D01*
X15452381Y-22643831D01*
X15680952Y-22710498D02*
X15680952Y-22510498D01*
X15766667Y-22710498D02*
X15766667Y-22605736D01*
X15757143Y-22586688D01*
X15738095Y-22577164D01*
X15709524Y-22577164D01*
X15690476Y-22586688D01*
X15680952Y-22596212D01*
X15890476Y-22710498D02*
X15871428Y-22700974D01*
X15861905Y-22691450D01*
X15852381Y-22672402D01*
X15852381Y-22615259D01*
X15861905Y-22596212D01*
X15871428Y-22586688D01*
X15890476Y-22577164D01*
X15919048Y-22577164D01*
X15938095Y-22586688D01*
X15947619Y-22596212D01*
X15957143Y-22615259D01*
X15957143Y-22672402D01*
X15947619Y-22691450D01*
X15938095Y-22700974D01*
X15919048Y-22710498D01*
X15890476Y-22710498D01*
X16071428Y-22710498D02*
X16052381Y-22700974D01*
X16042857Y-22681926D01*
X16042857Y-22510498D01*
X16223809Y-22700974D02*
X16204762Y-22710498D01*
X16166667Y-22710498D01*
X16147619Y-22700974D01*
X16138095Y-22681926D01*
X16138095Y-22605736D01*
X16147619Y-22586688D01*
X16166667Y-22577164D01*
X16204762Y-22577164D01*
X16223809Y-22586688D01*
X16233333Y-22605736D01*
X16233333Y-22624783D01*
X16138095Y-22643831D01*
X16309524Y-22700974D02*
X16328571Y-22710498D01*
X16366667Y-22710498D01*
X16385714Y-22700974D01*
X16395238Y-22681926D01*
X16395238Y-22672402D01*
X16385714Y-22653355D01*
X16366667Y-22643831D01*
X16338095Y-22643831D01*
X16319048Y-22634307D01*
X16309524Y-22615259D01*
X16309524Y-22605736D01*
X16319048Y-22586688D01*
X16338095Y-22577164D01*
X16366667Y-22577164D01*
X16385714Y-22586688D01*
X16461905Y-22786688D02*
X16471428Y-22777164D01*
X16490476Y-22748593D01*
X16500000Y-22729545D01*
X16509524Y-22700974D01*
X16519048Y-22653355D01*
X16519048Y-22615259D01*
X16509524Y-22567640D01*
X16500000Y-22539069D01*
X16490476Y-22520021D01*
X16471428Y-22491450D01*
X16461905Y-22481926D01*
D17*
X11570000Y-22824021D02*
X11690000Y-22944021D01*
X11690000Y-22824021D02*
X11570000Y-22944021D01*
X11630000Y-22824021D02*
X11630000Y-22944021D01*
X11570000Y-22884021D02*
X11690000Y-22884021D01*
D10*
X12052381Y-22974498D02*
X11938095Y-22974498D01*
X11995238Y-22974498D02*
X11995238Y-22774498D01*
X11976190Y-22803069D01*
X11957143Y-22822117D01*
X11938095Y-22831640D01*
X12138095Y-22955450D02*
X12147619Y-22964974D01*
X12138095Y-22974498D01*
X12128571Y-22964974D01*
X12138095Y-22955450D01*
X12138095Y-22974498D01*
X12223809Y-22793545D02*
X12233333Y-22784021D01*
X12252381Y-22774498D01*
X12300000Y-22774498D01*
X12319048Y-22784021D01*
X12328571Y-22793545D01*
X12338095Y-22812593D01*
X12338095Y-22831640D01*
X12328571Y-22860212D01*
X12214286Y-22974498D01*
X12338095Y-22974498D01*
X12461905Y-22774498D02*
X12480952Y-22774498D01*
X12500000Y-22784021D01*
X12509524Y-22793545D01*
X12519048Y-22812593D01*
X12528571Y-22850688D01*
X12528571Y-22898307D01*
X12519048Y-22936402D01*
X12509524Y-22955450D01*
X12500000Y-22964974D01*
X12480952Y-22974498D01*
X12461905Y-22974498D01*
X12442857Y-22964974D01*
X12433333Y-22955450D01*
X12423809Y-22936402D01*
X12414286Y-22898307D01*
X12414286Y-22850688D01*
X12423809Y-22812593D01*
X12433333Y-22793545D01*
X12442857Y-22784021D01*
X12461905Y-22774498D01*
X12652381Y-22774498D02*
X12671428Y-22774498D01*
X12690476Y-22784021D01*
X12700000Y-22793545D01*
X12709524Y-22812593D01*
X12719048Y-22850688D01*
X12719048Y-22898307D01*
X12709524Y-22936402D01*
X12700000Y-22955450D01*
X12690476Y-22964974D01*
X12671428Y-22974498D01*
X12652381Y-22974498D01*
X12633333Y-22964974D01*
X12623809Y-22955450D01*
X12614286Y-22936402D01*
X12604762Y-22898307D01*
X12604762Y-22850688D01*
X12614286Y-22812593D01*
X12623809Y-22793545D01*
X12633333Y-22784021D01*
X12652381Y-22774498D01*
X12804762Y-22974498D02*
X12804762Y-22841164D01*
X12804762Y-22860212D02*
X12814286Y-22850688D01*
X12833333Y-22841164D01*
X12861905Y-22841164D01*
X12880952Y-22850688D01*
X12890476Y-22869736D01*
X12890476Y-22974498D01*
X12890476Y-22869736D02*
X12900000Y-22850688D01*
X12919048Y-22841164D01*
X12947619Y-22841164D01*
X12966667Y-22850688D01*
X12976190Y-22869736D01*
X12976190Y-22974498D01*
X13071428Y-22974498D02*
X13071428Y-22841164D01*
X13071428Y-22860212D02*
X13080952Y-22850688D01*
X13100000Y-22841164D01*
X13128571Y-22841164D01*
X13147619Y-22850688D01*
X13157143Y-22869736D01*
X13157143Y-22974498D01*
X13157143Y-22869736D02*
X13166667Y-22850688D01*
X13185714Y-22841164D01*
X13214286Y-22841164D01*
X13233333Y-22850688D01*
X13242857Y-22869736D01*
X13242857Y-22974498D01*
X13633333Y-22764974D02*
X13461905Y-23022117D01*
X13890476Y-22774498D02*
X13909524Y-22774498D01*
X13928571Y-22784021D01*
X13938095Y-22793545D01*
X13947619Y-22812593D01*
X13957143Y-22850688D01*
X13957143Y-22898307D01*
X13947619Y-22936402D01*
X13938095Y-22955450D01*
X13928571Y-22964974D01*
X13909524Y-22974498D01*
X13890476Y-22974498D01*
X13871428Y-22964974D01*
X13861905Y-22955450D01*
X13852381Y-22936402D01*
X13842857Y-22898307D01*
X13842857Y-22850688D01*
X13852381Y-22812593D01*
X13861905Y-22793545D01*
X13871428Y-22784021D01*
X13890476Y-22774498D01*
X14042857Y-22955450D02*
X14052381Y-22964974D01*
X14042857Y-22974498D01*
X14033333Y-22964974D01*
X14042857Y-22955450D01*
X14042857Y-22974498D01*
X14176190Y-22774498D02*
X14195238Y-22774498D01*
X14214286Y-22784021D01*
X14223809Y-22793545D01*
X14233333Y-22812593D01*
X14242857Y-22850688D01*
X14242857Y-22898307D01*
X14233333Y-22936402D01*
X14223809Y-22955450D01*
X14214286Y-22964974D01*
X14195238Y-22974498D01*
X14176190Y-22974498D01*
X14157143Y-22964974D01*
X14147619Y-22955450D01*
X14138095Y-22936402D01*
X14128571Y-22898307D01*
X14128571Y-22850688D01*
X14138095Y-22812593D01*
X14147619Y-22793545D01*
X14157143Y-22784021D01*
X14176190Y-22774498D01*
X14414286Y-22841164D02*
X14414286Y-22974498D01*
X14366667Y-22764974D02*
X14319048Y-22907831D01*
X14442857Y-22907831D01*
X14500000Y-22774498D02*
X14633333Y-22774498D01*
X14547619Y-22974498D01*
X14700000Y-22793545D02*
X14709524Y-22784021D01*
X14728571Y-22774498D01*
X14776190Y-22774498D01*
X14795238Y-22784021D01*
X14804762Y-22793545D01*
X14814286Y-22812593D01*
X14814286Y-22831640D01*
X14804762Y-22860212D01*
X14690476Y-22974498D01*
X14814286Y-22974498D01*
X14890476Y-22774498D02*
X14890476Y-22812593D01*
X14966667Y-22774498D02*
X14966667Y-22812593D01*
X15261905Y-23050688D02*
X15252381Y-23041164D01*
X15233333Y-23012593D01*
X15223809Y-22993545D01*
X15214286Y-22964974D01*
X15204762Y-22917355D01*
X15204762Y-22879259D01*
X15214286Y-22831640D01*
X15223809Y-22803069D01*
X15233333Y-22784021D01*
X15252381Y-22755450D01*
X15261905Y-22745926D01*
X15442857Y-22974498D02*
X15328571Y-22974498D01*
X15385714Y-22974498D02*
X15385714Y-22774498D01*
X15366667Y-22803069D01*
X15347619Y-22822117D01*
X15328571Y-22831640D01*
X15519048Y-22793545D02*
X15528571Y-22784021D01*
X15547619Y-22774498D01*
X15595238Y-22774498D01*
X15614286Y-22784021D01*
X15623809Y-22793545D01*
X15633333Y-22812593D01*
X15633333Y-22831640D01*
X15623809Y-22860212D01*
X15509524Y-22974498D01*
X15633333Y-22974498D01*
X15871428Y-22974498D02*
X15871428Y-22774498D01*
X15957143Y-22974498D02*
X15957143Y-22869736D01*
X15947619Y-22850688D01*
X15928571Y-22841164D01*
X15900000Y-22841164D01*
X15880952Y-22850688D01*
X15871428Y-22860212D01*
X16080952Y-22974498D02*
X16061905Y-22964974D01*
X16052381Y-22955450D01*
X16042857Y-22936402D01*
X16042857Y-22879259D01*
X16052381Y-22860212D01*
X16061905Y-22850688D01*
X16080952Y-22841164D01*
X16109524Y-22841164D01*
X16128571Y-22850688D01*
X16138095Y-22860212D01*
X16147619Y-22879259D01*
X16147619Y-22936402D01*
X16138095Y-22955450D01*
X16128571Y-22964974D01*
X16109524Y-22974498D01*
X16080952Y-22974498D01*
X16261905Y-22974498D02*
X16242857Y-22964974D01*
X16233333Y-22945926D01*
X16233333Y-22774498D01*
X16414286Y-22964974D02*
X16395238Y-22974498D01*
X16357143Y-22974498D01*
X16338095Y-22964974D01*
X16328571Y-22945926D01*
X16328571Y-22869736D01*
X16338095Y-22850688D01*
X16357143Y-22841164D01*
X16395238Y-22841164D01*
X16414286Y-22850688D01*
X16423809Y-22869736D01*
X16423809Y-22888783D01*
X16328571Y-22907831D01*
X16500000Y-22964974D02*
X16519048Y-22974498D01*
X16557143Y-22974498D01*
X16576190Y-22964974D01*
X16585714Y-22945926D01*
X16585714Y-22936402D01*
X16576190Y-22917355D01*
X16557143Y-22907831D01*
X16528571Y-22907831D01*
X16509524Y-22898307D01*
X16500000Y-22879259D01*
X16500000Y-22869736D01*
X16509524Y-22850688D01*
X16528571Y-22841164D01*
X16557143Y-22841164D01*
X16576190Y-22850688D01*
X16652381Y-23050688D02*
X16661905Y-23041164D01*
X16680952Y-23012593D01*
X16690476Y-22993545D01*
X16700000Y-22964974D01*
X16709524Y-22917355D01*
X16709524Y-22879259D01*
X16700000Y-22831640D01*
X16690476Y-22803069D01*
X16680952Y-22784021D01*
X16661905Y-22755450D01*
X16652381Y-22745926D01*
D18*
X11550000Y-23078021D02*
X11690000Y-23218021D01*
X11690000Y-23078021D02*
X11550000Y-23218021D01*
X11669498Y-23197519D02*
X11669498Y-23098524D01*
X11570502Y-23098524D01*
X11570502Y-23197519D01*
X11669498Y-23197519D01*
D10*
X12052381Y-23238498D02*
X11938095Y-23238498D01*
X11995238Y-23238498D02*
X11995238Y-23038498D01*
X11976190Y-23067069D01*
X11957143Y-23086117D01*
X11938095Y-23095640D01*
X12138095Y-23219450D02*
X12147619Y-23228974D01*
X12138095Y-23238498D01*
X12128571Y-23228974D01*
X12138095Y-23219450D01*
X12138095Y-23238498D01*
X12319048Y-23105164D02*
X12319048Y-23238498D01*
X12271428Y-23028974D02*
X12223809Y-23171831D01*
X12347619Y-23171831D01*
X12461905Y-23038498D02*
X12480952Y-23038498D01*
X12500000Y-23048021D01*
X12509524Y-23057545D01*
X12519048Y-23076593D01*
X12528571Y-23114688D01*
X12528571Y-23162307D01*
X12519048Y-23200402D01*
X12509524Y-23219450D01*
X12500000Y-23228974D01*
X12480952Y-23238498D01*
X12461905Y-23238498D01*
X12442857Y-23228974D01*
X12433333Y-23219450D01*
X12423809Y-23200402D01*
X12414286Y-23162307D01*
X12414286Y-23114688D01*
X12423809Y-23076593D01*
X12433333Y-23057545D01*
X12442857Y-23048021D01*
X12461905Y-23038498D01*
X12652381Y-23038498D02*
X12671428Y-23038498D01*
X12690476Y-23048021D01*
X12700000Y-23057545D01*
X12709524Y-23076593D01*
X12719048Y-23114688D01*
X12719048Y-23162307D01*
X12709524Y-23200402D01*
X12700000Y-23219450D01*
X12690476Y-23228974D01*
X12671428Y-23238498D01*
X12652381Y-23238498D01*
X12633333Y-23228974D01*
X12623809Y-23219450D01*
X12614286Y-23200402D01*
X12604762Y-23162307D01*
X12604762Y-23114688D01*
X12614286Y-23076593D01*
X12623809Y-23057545D01*
X12633333Y-23048021D01*
X12652381Y-23038498D01*
X12804762Y-23238498D02*
X12804762Y-23105164D01*
X12804762Y-23124212D02*
X12814286Y-23114688D01*
X12833333Y-23105164D01*
X12861905Y-23105164D01*
X12880952Y-23114688D01*
X12890476Y-23133736D01*
X12890476Y-23238498D01*
X12890476Y-23133736D02*
X12900000Y-23114688D01*
X12919048Y-23105164D01*
X12947619Y-23105164D01*
X12966667Y-23114688D01*
X12976190Y-23133736D01*
X12976190Y-23238498D01*
X13071428Y-23238498D02*
X13071428Y-23105164D01*
X13071428Y-23124212D02*
X13080952Y-23114688D01*
X13100000Y-23105164D01*
X13128571Y-23105164D01*
X13147619Y-23114688D01*
X13157143Y-23133736D01*
X13157143Y-23238498D01*
X13157143Y-23133736D02*
X13166667Y-23114688D01*
X13185714Y-23105164D01*
X13214286Y-23105164D01*
X13233333Y-23114688D01*
X13242857Y-23133736D01*
X13242857Y-23238498D01*
X13633333Y-23028974D02*
X13461905Y-23286117D01*
X13890476Y-23038498D02*
X13909524Y-23038498D01*
X13928571Y-23048021D01*
X13938095Y-23057545D01*
X13947619Y-23076593D01*
X13957143Y-23114688D01*
X13957143Y-23162307D01*
X13947619Y-23200402D01*
X13938095Y-23219450D01*
X13928571Y-23228974D01*
X13909524Y-23238498D01*
X13890476Y-23238498D01*
X13871428Y-23228974D01*
X13861905Y-23219450D01*
X13852381Y-23200402D01*
X13842857Y-23162307D01*
X13842857Y-23114688D01*
X13852381Y-23076593D01*
X13861905Y-23057545D01*
X13871428Y-23048021D01*
X13890476Y-23038498D01*
X14042857Y-23219450D02*
X14052381Y-23228974D01*
X14042857Y-23238498D01*
X14033333Y-23228974D01*
X14042857Y-23219450D01*
X14042857Y-23238498D01*
X14176190Y-23038498D02*
X14195238Y-23038498D01*
X14214286Y-23048021D01*
X14223809Y-23057545D01*
X14233333Y-23076593D01*
X14242857Y-23114688D01*
X14242857Y-23162307D01*
X14233333Y-23200402D01*
X14223809Y-23219450D01*
X14214286Y-23228974D01*
X14195238Y-23238498D01*
X14176190Y-23238498D01*
X14157143Y-23228974D01*
X14147619Y-23219450D01*
X14138095Y-23200402D01*
X14128571Y-23162307D01*
X14128571Y-23114688D01*
X14138095Y-23076593D01*
X14147619Y-23057545D01*
X14157143Y-23048021D01*
X14176190Y-23038498D01*
X14423809Y-23038498D02*
X14328571Y-23038498D01*
X14319048Y-23133736D01*
X14328571Y-23124212D01*
X14347619Y-23114688D01*
X14395238Y-23114688D01*
X14414286Y-23124212D01*
X14423809Y-23133736D01*
X14433333Y-23152783D01*
X14433333Y-23200402D01*
X14423809Y-23219450D01*
X14414286Y-23228974D01*
X14395238Y-23238498D01*
X14347619Y-23238498D01*
X14328571Y-23228974D01*
X14319048Y-23219450D01*
X14614286Y-23038498D02*
X14519048Y-23038498D01*
X14509524Y-23133736D01*
X14519048Y-23124212D01*
X14538095Y-23114688D01*
X14585714Y-23114688D01*
X14604762Y-23124212D01*
X14614286Y-23133736D01*
X14623809Y-23152783D01*
X14623809Y-23200402D01*
X14614286Y-23219450D01*
X14604762Y-23228974D01*
X14585714Y-23238498D01*
X14538095Y-23238498D01*
X14519048Y-23228974D01*
X14509524Y-23219450D01*
X14814286Y-23238498D02*
X14700000Y-23238498D01*
X14757143Y-23238498D02*
X14757143Y-23038498D01*
X14738095Y-23067069D01*
X14719048Y-23086117D01*
X14700000Y-23095640D01*
X14890476Y-23038498D02*
X14890476Y-23076593D01*
X14966667Y-23038498D02*
X14966667Y-23076593D01*
X15261905Y-23314688D02*
X15252381Y-23305164D01*
X15233333Y-23276593D01*
X15223809Y-23257545D01*
X15214286Y-23228974D01*
X15204762Y-23181355D01*
X15204762Y-23143259D01*
X15214286Y-23095640D01*
X15223809Y-23067069D01*
X15233333Y-23048021D01*
X15252381Y-23019450D01*
X15261905Y-23009926D01*
X15423809Y-23038498D02*
X15385714Y-23038498D01*
X15366667Y-23048021D01*
X15357143Y-23057545D01*
X15338095Y-23086117D01*
X15328571Y-23124212D01*
X15328571Y-23200402D01*
X15338095Y-23219450D01*
X15347619Y-23228974D01*
X15366667Y-23238498D01*
X15404762Y-23238498D01*
X15423809Y-23228974D01*
X15433333Y-23219450D01*
X15442857Y-23200402D01*
X15442857Y-23152783D01*
X15433333Y-23133736D01*
X15423809Y-23124212D01*
X15404762Y-23114688D01*
X15366667Y-23114688D01*
X15347619Y-23124212D01*
X15338095Y-23133736D01*
X15328571Y-23152783D01*
X15680952Y-23238498D02*
X15680952Y-23038498D01*
X15766667Y-23238498D02*
X15766667Y-23133736D01*
X15757143Y-23114688D01*
X15738095Y-23105164D01*
X15709524Y-23105164D01*
X15690476Y-23114688D01*
X15680952Y-23124212D01*
X15890476Y-23238498D02*
X15871428Y-23228974D01*
X15861905Y-23219450D01*
X15852381Y-23200402D01*
X15852381Y-23143259D01*
X15861905Y-23124212D01*
X15871428Y-23114688D01*
X15890476Y-23105164D01*
X15919048Y-23105164D01*
X15938095Y-23114688D01*
X15947619Y-23124212D01*
X15957143Y-23143259D01*
X15957143Y-23200402D01*
X15947619Y-23219450D01*
X15938095Y-23228974D01*
X15919048Y-23238498D01*
X15890476Y-23238498D01*
X16071428Y-23238498D02*
X16052381Y-23228974D01*
X16042857Y-23209926D01*
X16042857Y-23038498D01*
X16223809Y-23228974D02*
X16204762Y-23238498D01*
X16166667Y-23238498D01*
X16147619Y-23228974D01*
X16138095Y-23209926D01*
X16138095Y-23133736D01*
X16147619Y-23114688D01*
X16166667Y-23105164D01*
X16204762Y-23105164D01*
X16223809Y-23114688D01*
X16233333Y-23133736D01*
X16233333Y-23152783D01*
X16138095Y-23171831D01*
X16309524Y-23228974D02*
X16328571Y-23238498D01*
X16366667Y-23238498D01*
X16385714Y-23228974D01*
X16395238Y-23209926D01*
X16395238Y-23200402D01*
X16385714Y-23181355D01*
X16366667Y-23171831D01*
X16338095Y-23171831D01*
X16319048Y-23162307D01*
X16309524Y-23143259D01*
X16309524Y-23133736D01*
X16319048Y-23114688D01*
X16338095Y-23105164D01*
X16366667Y-23105164D01*
X16385714Y-23114688D01*
X16461905Y-23314688D02*
X16471428Y-23305164D01*
X16490476Y-23276593D01*
X16500000Y-23257545D01*
X16509524Y-23228974D01*
X16519048Y-23181355D01*
X16519048Y-23143259D01*
X16509524Y-23095640D01*
X16500000Y-23067069D01*
X16490476Y-23048021D01*
X16471428Y-23019450D01*
X16461905Y-23009926D01*
D19*
X11540000Y-23337021D02*
X11690000Y-23487021D01*
X11690000Y-23337021D02*
X11540000Y-23487021D01*
X11615000Y-23487021D02*
X11690000Y-23412021D01*
X11615000Y-23337021D01*
X11540000Y-23412021D01*
X11615000Y-23487021D01*
D10*
X12052381Y-23502498D02*
X11938095Y-23502498D01*
X11995238Y-23502498D02*
X11995238Y-23302498D01*
X11976190Y-23331069D01*
X11957143Y-23350117D01*
X11938095Y-23359640D01*
X12138095Y-23483450D02*
X12147619Y-23492974D01*
X12138095Y-23502498D01*
X12128571Y-23492974D01*
X12138095Y-23483450D01*
X12138095Y-23502498D01*
X12328571Y-23302498D02*
X12233333Y-23302498D01*
X12223809Y-23397736D01*
X12233333Y-23388212D01*
X12252381Y-23378688D01*
X12300000Y-23378688D01*
X12319048Y-23388212D01*
X12328571Y-23397736D01*
X12338095Y-23416783D01*
X12338095Y-23464402D01*
X12328571Y-23483450D01*
X12319048Y-23492974D01*
X12300000Y-23502498D01*
X12252381Y-23502498D01*
X12233333Y-23492974D01*
X12223809Y-23483450D01*
X12461905Y-23302498D02*
X12480952Y-23302498D01*
X12500000Y-23312021D01*
X12509524Y-23321545D01*
X12519048Y-23340593D01*
X12528571Y-23378688D01*
X12528571Y-23426307D01*
X12519048Y-23464402D01*
X12509524Y-23483450D01*
X12500000Y-23492974D01*
X12480952Y-23502498D01*
X12461905Y-23502498D01*
X12442857Y-23492974D01*
X12433333Y-23483450D01*
X12423809Y-23464402D01*
X12414286Y-23426307D01*
X12414286Y-23378688D01*
X12423809Y-23340593D01*
X12433333Y-23321545D01*
X12442857Y-23312021D01*
X12461905Y-23302498D01*
X12652381Y-23302498D02*
X12671428Y-23302498D01*
X12690476Y-23312021D01*
X12700000Y-23321545D01*
X12709524Y-23340593D01*
X12719048Y-23378688D01*
X12719048Y-23426307D01*
X12709524Y-23464402D01*
X12700000Y-23483450D01*
X12690476Y-23492974D01*
X12671428Y-23502498D01*
X12652381Y-23502498D01*
X12633333Y-23492974D01*
X12623809Y-23483450D01*
X12614286Y-23464402D01*
X12604762Y-23426307D01*
X12604762Y-23378688D01*
X12614286Y-23340593D01*
X12623809Y-23321545D01*
X12633333Y-23312021D01*
X12652381Y-23302498D01*
X12804762Y-23502498D02*
X12804762Y-23369164D01*
X12804762Y-23388212D02*
X12814286Y-23378688D01*
X12833333Y-23369164D01*
X12861905Y-23369164D01*
X12880952Y-23378688D01*
X12890476Y-23397736D01*
X12890476Y-23502498D01*
X12890476Y-23397736D02*
X12900000Y-23378688D01*
X12919048Y-23369164D01*
X12947619Y-23369164D01*
X12966667Y-23378688D01*
X12976190Y-23397736D01*
X12976190Y-23502498D01*
X13071428Y-23502498D02*
X13071428Y-23369164D01*
X13071428Y-23388212D02*
X13080952Y-23378688D01*
X13100000Y-23369164D01*
X13128571Y-23369164D01*
X13147619Y-23378688D01*
X13157143Y-23397736D01*
X13157143Y-23502498D01*
X13157143Y-23397736D02*
X13166667Y-23378688D01*
X13185714Y-23369164D01*
X13214286Y-23369164D01*
X13233333Y-23378688D01*
X13242857Y-23397736D01*
X13242857Y-23502498D01*
X13633333Y-23292974D02*
X13461905Y-23550117D01*
X13890476Y-23302498D02*
X13909524Y-23302498D01*
X13928571Y-23312021D01*
X13938095Y-23321545D01*
X13947619Y-23340593D01*
X13957143Y-23378688D01*
X13957143Y-23426307D01*
X13947619Y-23464402D01*
X13938095Y-23483450D01*
X13928571Y-23492974D01*
X13909524Y-23502498D01*
X13890476Y-23502498D01*
X13871428Y-23492974D01*
X13861905Y-23483450D01*
X13852381Y-23464402D01*
X13842857Y-23426307D01*
X13842857Y-23378688D01*
X13852381Y-23340593D01*
X13861905Y-23321545D01*
X13871428Y-23312021D01*
X13890476Y-23302498D01*
X14042857Y-23483450D02*
X14052381Y-23492974D01*
X14042857Y-23502498D01*
X14033333Y-23492974D01*
X14042857Y-23483450D01*
X14042857Y-23502498D01*
X14176190Y-23302498D02*
X14195238Y-23302498D01*
X14214286Y-23312021D01*
X14223809Y-23321545D01*
X14233333Y-23340593D01*
X14242857Y-23378688D01*
X14242857Y-23426307D01*
X14233333Y-23464402D01*
X14223809Y-23483450D01*
X14214286Y-23492974D01*
X14195238Y-23502498D01*
X14176190Y-23502498D01*
X14157143Y-23492974D01*
X14147619Y-23483450D01*
X14138095Y-23464402D01*
X14128571Y-23426307D01*
X14128571Y-23378688D01*
X14138095Y-23340593D01*
X14147619Y-23321545D01*
X14157143Y-23312021D01*
X14176190Y-23302498D01*
X14423809Y-23302498D02*
X14328571Y-23302498D01*
X14319048Y-23397736D01*
X14328571Y-23388212D01*
X14347619Y-23378688D01*
X14395238Y-23378688D01*
X14414286Y-23388212D01*
X14423809Y-23397736D01*
X14433333Y-23416783D01*
X14433333Y-23464402D01*
X14423809Y-23483450D01*
X14414286Y-23492974D01*
X14395238Y-23502498D01*
X14347619Y-23502498D01*
X14328571Y-23492974D01*
X14319048Y-23483450D01*
X14528571Y-23502498D02*
X14566667Y-23502498D01*
X14585714Y-23492974D01*
X14595238Y-23483450D01*
X14614286Y-23454879D01*
X14623809Y-23416783D01*
X14623809Y-23340593D01*
X14614286Y-23321545D01*
X14604762Y-23312021D01*
X14585714Y-23302498D01*
X14547619Y-23302498D01*
X14528571Y-23312021D01*
X14519048Y-23321545D01*
X14509524Y-23340593D01*
X14509524Y-23388212D01*
X14519048Y-23407259D01*
X14528571Y-23416783D01*
X14547619Y-23426307D01*
X14585714Y-23426307D01*
X14604762Y-23416783D01*
X14614286Y-23407259D01*
X14623809Y-23388212D01*
X14814286Y-23502498D02*
X14700000Y-23502498D01*
X14757143Y-23502498D02*
X14757143Y-23302498D01*
X14738095Y-23331069D01*
X14719048Y-23350117D01*
X14700000Y-23359640D01*
X14890476Y-23302498D02*
X14890476Y-23340593D01*
X14966667Y-23302498D02*
X14966667Y-23340593D01*
X15261905Y-23578688D02*
X15252381Y-23569164D01*
X15233333Y-23540593D01*
X15223809Y-23521545D01*
X15214286Y-23492974D01*
X15204762Y-23445355D01*
X15204762Y-23407259D01*
X15214286Y-23359640D01*
X15223809Y-23331069D01*
X15233333Y-23312021D01*
X15252381Y-23283450D01*
X15261905Y-23273926D01*
X15442857Y-23502498D02*
X15328571Y-23502498D01*
X15385714Y-23502498D02*
X15385714Y-23302498D01*
X15366667Y-23331069D01*
X15347619Y-23350117D01*
X15328571Y-23359640D01*
X15519048Y-23321545D02*
X15528571Y-23312021D01*
X15547619Y-23302498D01*
X15595238Y-23302498D01*
X15614286Y-23312021D01*
X15623809Y-23321545D01*
X15633333Y-23340593D01*
X15633333Y-23359640D01*
X15623809Y-23388212D01*
X15509524Y-23502498D01*
X15633333Y-23502498D01*
X15871428Y-23502498D02*
X15871428Y-23302498D01*
X15957143Y-23502498D02*
X15957143Y-23397736D01*
X15947619Y-23378688D01*
X15928571Y-23369164D01*
X15900000Y-23369164D01*
X15880952Y-23378688D01*
X15871428Y-23388212D01*
X16080952Y-23502498D02*
X16061905Y-23492974D01*
X16052381Y-23483450D01*
X16042857Y-23464402D01*
X16042857Y-23407259D01*
X16052381Y-23388212D01*
X16061905Y-23378688D01*
X16080952Y-23369164D01*
X16109524Y-23369164D01*
X16128571Y-23378688D01*
X16138095Y-23388212D01*
X16147619Y-23407259D01*
X16147619Y-23464402D01*
X16138095Y-23483450D01*
X16128571Y-23492974D01*
X16109524Y-23502498D01*
X16080952Y-23502498D01*
X16261905Y-23502498D02*
X16242857Y-23492974D01*
X16233333Y-23473926D01*
X16233333Y-23302498D01*
X16414286Y-23492974D02*
X16395238Y-23502498D01*
X16357143Y-23502498D01*
X16338095Y-23492974D01*
X16328571Y-23473926D01*
X16328571Y-23397736D01*
X16338095Y-23378688D01*
X16357143Y-23369164D01*
X16395238Y-23369164D01*
X16414286Y-23378688D01*
X16423809Y-23397736D01*
X16423809Y-23416783D01*
X16328571Y-23435831D01*
X16500000Y-23492974D02*
X16519048Y-23502498D01*
X16557143Y-23502498D01*
X16576190Y-23492974D01*
X16585714Y-23473926D01*
X16585714Y-23464402D01*
X16576190Y-23445355D01*
X16557143Y-23435831D01*
X16528571Y-23435831D01*
X16509524Y-23426307D01*
X16500000Y-23407259D01*
X16500000Y-23397736D01*
X16509524Y-23378688D01*
X16528571Y-23369164D01*
X16557143Y-23369164D01*
X16576190Y-23378688D01*
X16652381Y-23578688D02*
X16661905Y-23569164D01*
X16680952Y-23540593D01*
X16690476Y-23521545D01*
X16700000Y-23492974D01*
X16709524Y-23445355D01*
X16709524Y-23407259D01*
X16700000Y-23359640D01*
X16690476Y-23331069D01*
X16680952Y-23312021D01*
X16661905Y-23283450D01*
X16652381Y-23273926D01*
M02*
