M48
; DRILL file {KiCad (6.0.9)} date Wed 09 Nov 2022 09:55:08 PM CET
; FORMAT={-:-/ absolute / inch / decimal}
; #@! TF.CreationDate,2022-11-09T21:55:08+01:00
; #@! TF.GenerationSoftware,Kicad,Pcbnew,(6.0.9)
; #@! TF.FileFunction,Plated,1,2,PTH
FMAT,2
INCH
; #@! TA.AperFunction,Plated,PTH,ViaDrill
T1C0.0157
; #@! TA.AperFunction,Plated,PTH,ComponentDrill
T2C0.0236
; #@! TA.AperFunction,Plated,PTH,ComponentDrill
T3C0.0295
; #@! TA.AperFunction,Plated,PTH,ComponentDrill
T4C0.0315
; #@! TA.AperFunction,Plated,PTH,ComponentDrill
T5C0.0394
; #@! TA.AperFunction,Plated,PTH,ComponentDrill
T6C0.0433
; #@! TA.AperFunction,Plated,PTH,ComponentDrill
T7C0.0472
; #@! TA.AperFunction,Plated,PTH,ComponentDrill
T8C0.0551
; #@! TA.AperFunction,Plated,PTH,ComponentDrill
T9C0.0591
%
G90
G05
T1
X4.6535Y-5.4882
X4.6535Y-5.5866
X4.6535Y-5.6732
X4.6535Y-5.7756
X4.6535Y-5.8701
X4.6772Y-4.7638
X4.6772Y-5.9567
X4.7165Y-5.4882
X4.7165Y-5.5866
X4.7165Y-5.6732
X4.7165Y-5.7756
X4.7165Y-5.8701
X4.7283Y-6.0236
X4.7441Y-4.8268
X4.7441Y-5.9291
X4.7756Y-5.4882
X4.7756Y-5.5866
X4.7756Y-5.6732
X4.7756Y-5.7756
X4.7913Y-5.9764
X4.7953Y-6.0669
X4.8071Y-4.8976
X4.8504Y-6.0079
X4.899Y-6.0787
X4.9484Y-6.0079
X4.9488Y-5.9488
X4.9724Y-4.4803
X4.9843Y-5.685
X4.9969Y-6.0787
X5.0276Y-4.748
X5.0276Y-4.8661
X5.0276Y-4.9843
X5.0276Y-5.1102
X5.0276Y-5.2244
X5.0276Y-5.3307
X5.0276Y-5.4409
X5.0276Y-5.5551
X5.0354Y-4.5394
X5.0464Y-6.0079
X5.0468Y-5.9488
X5.0512Y-4.6575
X5.063Y-4.4449
X5.0949Y-6.0787
X5.1024Y-4.6024
X5.1142Y-4.4606
X5.1142Y-4.5276
X5.1417Y-5.5472
X5.1444Y-6.0079
X5.1448Y-5.9488
X5.1929Y-4.8661
X5.1929Y-4.9843
X5.1929Y-5.2244
X5.1929Y-5.3307
X5.1929Y-5.4409
X5.1929Y-6.0787
X5.1969Y-5.1102
X5.2047Y-5.5354
X5.2283Y-4.4606
X5.2283Y-4.5276
X5.2423Y-6.0079
X5.2428Y-5.9488
X5.2835Y-4.7835
X5.3403Y-6.0079
X5.3408Y-5.9488
X5.3858Y-4.7835
X5.4383Y-6.0079
X5.4388Y-5.9488
X5.4803Y-4.8189
X5.5363Y-6.0079
X5.5367Y-5.9488
X5.563Y-4.7874
X5.6343Y-6.0079
X5.6347Y-5.9488
X5.7047Y-5.6063
X5.7323Y-6.0079
X5.7327Y-5.9488
X5.7795Y-4.7087
X5.7874Y-4.6102
X5.7874Y-6.0394
X5.7992Y-4.878
X5.811Y-4.5669
X5.8307Y-5.9488
X5.8307Y-7.027
X5.878Y-6.0079
X5.8898Y-4.5591
X5.8898Y-4.7205
X5.9173Y-4.4134
X5.9528Y-4.5591
X5.9567Y-4.3504
X5.9606Y-4.4567
X6.0079Y-4.5
X6.0157Y-4.5591
X6.0281Y-4.2008
X6.0281Y-4.2717
X6.0281Y-4.3425
X6.0281Y-4.4134
X6.0728Y-4.1594
X6.0748Y-4.5591
X6.0753Y-4.4685
X6.1102Y-4.7756
X6.122Y-4.6378
X6.1226Y-4.1142
X6.128Y-5.7736
X6.1383Y-4.4764
X6.1812Y-4.1142
X6.189Y-4.8268
X6.1969Y-4.7244
X6.2008Y-4.6535
X6.2323Y-4.6299
X6.2398Y-4.1142
X6.2677Y-4.8268
X6.2984Y-4.1142
X6.2992Y-4.6614
X6.3031Y-4.7677
X6.3352Y-4.4764
X6.357Y-4.1142
X6.3981Y-4.4764
X6.4156Y-4.1142
X6.4291Y-4.9449
X6.4488Y-4.6926
X6.4533Y-4.4764
X6.4646Y-4.9055
X6.4743Y-4.1142
X6.4803Y-4.9764
X6.5039Y-4.6693
X6.5157Y-4.8268
X6.5157Y-4.9134
X6.5276Y-4.7756
X6.5329Y-4.1142
X6.5354Y-5.0039
X6.5874Y-4.4559
X6.5906Y-5.0354
X6.5915Y-4.1142
X6.6063Y-4.6063
X6.6265Y-4.4134
X6.6417Y-5.0719
X6.6501Y-4.1142
X6.6501Y-4.174
X6.6501Y-4.2339
X6.6501Y-4.2937
X6.6501Y-4.3535
X6.7126Y-4.5118
X6.7727Y-5.0247
X6.7795Y-5.0906
X6.7992Y-6.6043
X6.8189Y-4.9921
X6.8268Y-5.126
X6.8412Y-4.4969
X6.8622Y-4.9409
X6.878Y-5.1654
X6.8868Y-6.8638
X6.8915Y-7.6457
X6.8937Y-6.6515
X6.9074Y-6.7091
X6.937Y-5.2087
X6.9488Y-6.6673
X6.9488Y-6.8878
X6.9702Y-7.6457
X6.9803Y-6.6358
X6.9882Y-6.8956
X7.0039Y-5.2559
X7.0157Y-4.6181
X7.0489Y-7.6457
X7.0512Y-6.6909
X7.0906Y-4.5866
X7.1063Y-6.5413
X7.122Y-6.8878
X7.1299Y-6.6594
X7.1316Y-7.6457
X7.1319Y-5.7972
X7.1356Y-7.0866
X7.1417Y-4.5551
X7.1417Y-6.8228
X7.1496Y-5.3937
X7.1772Y-6.8878
X7.1929Y-5.2953
X7.1948Y-6.6619
X7.2008Y-6.5413
X7.2099Y-6.8514
X7.2143Y-7.6417
X7.2165Y-4.4094
X7.2244Y-5.4291
X7.2441Y-4.5748
X7.252Y-5.0472
X7.252Y-5.3543
X7.2638Y-4.4488
X7.3031Y-5.2126
X7.3071Y-6.6619
X7.3189Y-5.1299
X7.3189Y-4.5
X7.372Y-6.654
X7.378Y-4.6772
X7.4094Y-5.1772
X7.4213Y-6.7618
X7.4213Y-7.0889
X7.4291Y-6.9507
X7.4314Y-4.4389
X7.5118Y-4.3622
X7.6673Y-7.0398
X7.7306Y-4.7578
X7.7818Y-4.7185
X7.829Y-4.7578
X7.8504Y-4.4094
X7.8718Y-7.0945
X7.9213Y-6.0315
X8.3189Y-6.8799
X8.3189Y-6.966
X8.3888Y-7.1073
X9.9744Y-7.8622
X10.0461Y-7.9519
X10.126Y-6.3504
X10.1474Y-6.9115
X10.1811Y-7.6106
X10.2165Y-7.7008
X10.2694Y-7.6122
X10.3836Y-4.5217
T3
X4.8861Y-6.7696
X4.9648Y-6.7696
X5.0435Y-6.7696
X5.1223Y-6.7696
X5.1637Y-4.2263
X5.201Y-6.7696
X5.2424Y-4.2263
X5.2798Y-6.7696
X5.5531Y-4.2323
X5.5531Y-4.311
X5.5531Y-4.3898
X5.8287Y-4.2323
X5.8287Y-4.311
X5.8287Y-4.3898
X5.9291Y-6.9606
X6.0079Y-6.9606
X6.0866Y-6.9606
X6.6586Y-7.3444
X6.6586Y-7.4232
X6.6586Y-7.5019
X6.7086Y-6.8257
X6.7086Y-6.9044
X6.7086Y-6.9832
X6.7086Y-7.0619
X6.7086Y-7.1407
X6.8934Y-7.3715
X6.9721Y-7.3715
X7.0197Y-4.189
X7.0197Y-4.2677
X7.0197Y-4.3465
X7.0197Y-4.4252
X7.0197Y-4.5039
X7.0509Y-7.3715
X7.1296Y-7.3715
X7.2083Y-7.3715
X7.2871Y-7.3715
X7.5804Y-7.4508
X7.6592Y-7.4508
X7.7379Y-7.4508
X7.7835Y-6.6043
X7.8622Y-6.6043
X7.9409Y-6.6043
X8.0197Y-6.6043
X8.0984Y-6.6043
X8.1772Y-6.6043
X8.2067Y-7.3326
X8.2067Y-7.4114
X8.2067Y-7.4901
X8.2345Y-4.1909
X8.2345Y-4.2696
X8.2345Y-4.3484
X8.2345Y-4.4271
X8.2345Y-4.5059
X8.2559Y-6.6043
X8.3346Y-6.6043
X8.4528Y-7.4822
X8.5315Y-7.4822
X8.6102Y-7.4822
X8.7819Y-6.7476
X8.7819Y-6.8263
X8.7819Y-6.9051
X8.7819Y-6.9838
X8.7819Y-7.0626
X8.7819Y-7.1413
X8.7819Y-7.22
X8.7819Y-7.2988
X9.7746Y-6.4899
X9.8533Y-6.4899
X9.9321Y-6.4899
X10.0498Y-6.7559
X10.0498Y-6.8347
X10.0498Y-6.9134
X10.0498Y-6.9922
X10.0498Y-7.0709
X10.0498Y-7.1496
X10.0498Y-7.2284
X10.0498Y-7.3071
X10.1019Y-5.6807
X10.1576Y-5.625
X10.1749Y-4.7008
X10.2133Y-5.5693
X10.2537Y-4.7008
X10.269Y-5.5136
X10.3247Y-5.458
X10.3324Y-4.7008
X10.3803Y-5.4023
X10.4111Y-4.7008
X10.436Y-5.3466
X10.4899Y-4.7008
X10.4917Y-5.2909
T4
X5.75Y-5.1575
X5.85Y-5.1575
X5.95Y-5.1575
X6.05Y-5.1575
X6.15Y-5.1575
X6.25Y-5.1575
X6.2859Y-4.2638
X6.4781Y-4.2638
X6.8702Y-7.2132
X6.9702Y-7.2132
X7.0702Y-7.2132
X7.1702Y-7.2132
X7.2702Y-7.2132
X7.3702Y-7.2132
X7.5302Y-7.2432
X7.6302Y-7.2432
X7.7302Y-7.2432
X7.8102Y-6.7332
X7.8302Y-7.2432
X7.9102Y-6.7332
X7.9302Y-7.2432
X8.01Y-5.1805
X8.01Y-5.2805
X8.01Y-5.3805
X8.01Y-5.4805
X8.01Y-5.5805
X8.01Y-5.6805
X8.0102Y-6.7332
X8.0302Y-7.2432
X8.1102Y-6.7332
X8.2102Y-6.7332
X8.3102Y-6.7332
X8.5844Y-6.7832
X8.5844Y-6.8832
X8.5844Y-6.9832
X8.5844Y-7.0832
X8.5844Y-7.1832
X8.5844Y-7.2832
T5
X4.8465Y-5.6722
X4.8465Y-5.7722
X4.8465Y-5.8722
X5.3346Y-5.5024
X5.3346Y-6.1024
X5.3402Y-5.6722
X5.3402Y-5.7722
X5.3402Y-5.8722
X5.4346Y-5.5024
X5.4346Y-6.1024
X5.5346Y-5.5024
X5.5346Y-6.1024
X5.6346Y-5.5024
X5.6346Y-6.1024
X5.7346Y-5.5024
X5.7346Y-6.1024
X5.8339Y-5.6722
X5.8339Y-5.7722
X5.8339Y-5.8722
X5.8346Y-5.5024
X5.8346Y-6.1024
X5.9346Y-5.5024
X5.9346Y-6.1024
X6.0346Y-5.5024
X6.0346Y-6.1024
X6.1346Y-5.5024
X6.1346Y-6.1024
X6.2346Y-5.5024
X6.2346Y-6.1024
X6.3346Y-5.5024
X6.3346Y-6.1024
X6.4346Y-5.5024
X6.4346Y-6.1024
X6.5346Y-5.5024
X6.5346Y-6.1024
X6.6346Y-5.5024
X6.6346Y-6.1024
X6.7346Y-5.5024
X6.7346Y-6.1024
X6.8346Y-5.5024
X6.8346Y-6.1024
X6.9346Y-5.5024
X6.9346Y-6.1024
X7.0346Y-5.5024
X7.0346Y-6.1024
X7.1346Y-5.5024
X7.1346Y-6.1024
X7.2346Y-5.5024
X7.2346Y-6.1024
X9.9705Y-5.4084
X9.9705Y-5.5265
X10.2185Y-5.1604
X10.2185Y-5.7746
X10.2382Y-5.2399
X10.3169Y-5.7431
X10.3327Y-5.1604
X10.4403Y-6.6254
X10.5387Y-6.6254
X10.5476Y-5.6151
X10.5847Y-5.4084
X10.5847Y-5.5265
X10.6372Y-6.6254
X10.8824Y-6.8707
X10.8824Y-6.9691
X10.8824Y-7.0676
T6
X6.6831Y-4.8051
X6.6831Y-4.9823
X6.939Y-4.8051
X6.939Y-4.9823
T7
X5.7657Y-6.5821
X5.7657Y-6.779
X5.7657Y-7.1535
X5.7657Y-7.3504
X6.2579Y-6.5821
X6.2579Y-6.779
X6.2579Y-7.1535
X6.2579Y-7.3504
X9.3281Y-6.8998
X9.3281Y-7.0967
X9.8202Y-6.8998
X9.8202Y-7.0967
T8
X4.8219Y-5.0369
X5.3923Y-4.9654
X5.5433Y-5.2317
X5.5461Y-4.6183
X5.6585Y-4.8124
X5.6585Y-5.0369
T9
X7.5047Y-4.8905
X7.5047Y-5.6605
X7.7547Y-4.9905
X7.7547Y-5.7605
X8.3Y-4.8905
X8.3Y-5.6605
X8.55Y-4.9905
X8.55Y-5.7605
X9.0953Y-4.8905
X9.0953Y-5.6605
X9.3453Y-4.9905
X9.3453Y-5.7605
T2
G00X10.1623Y-4.2638
M15
G01X10.1623Y-4.2402
M16
G05
G00X10.1623Y-4.4382
M15
G01X10.1623Y-4.3949
M16
G05
G00X10.5025Y-4.2638
M15
G01X10.5025Y-4.2402
M16
G05
G00X10.5025Y-4.4382
M15
G01X10.5025Y-4.3949
M16
G05
T3
G00X10.0643Y-6.227
M15
G01X10.0643Y-6.1679
M16
G05
G00X10.2218Y-6.227
M15
G01X10.2218Y-6.1679
M16
G05
T0
M30
