%TF.GenerationSoftware,KiCad,Pcbnew,(6.0.9)*%
%TF.CreationDate,2022-11-10T21:34:59+01:00*%
%TF.ProjectId,libre-MIG-rounded,6c696272-652d-44d4-9947-2d726f756e64,v0.1*%
%TF.SameCoordinates,Original*%
%TF.FileFunction,Profile,NP*%
%FSLAX46Y46*%
G04 Gerber Fmt 4.6, Leading zero omitted, Abs format (unit mm)*
G04 Created by KiCad (PCBNEW (6.0.9)) date 2022-11-10 21:34:59*
%MOMM*%
%LPD*%
G01*
G04 APERTURE LIST*
%TA.AperFunction,Profile*%
%ADD10C,0.200000*%
%TD*%
G04 APERTURE END LIST*
D10*
X135000000Y-183500000D02*
G75*
G03*
X134300000Y-185200000I1293481J-1526728D01*
G01*
X266000000Y-126300000D02*
G75*
G03*
X265350000Y-130400000I-1497J-2101287D01*
G01*
X157600000Y-158000000D02*
G75*
G03*
X157600000Y-163000000I0J-2500000D01*
G01*
X159300000Y-198000000D02*
G75*
G03*
X161300000Y-196000000I0J2000000D01*
G01*
X125099956Y-161199998D02*
G75*
G03*
X123100000Y-157200000I-4556856J221598D01*
G01*
X166300000Y-175300000D02*
X166300000Y-170100000D01*
X226300000Y-170100000D02*
G75*
G03*
X222100000Y-165150000I-5045945J-24590D01*
G01*
X278150000Y-172500000D02*
G75*
G03*
X274000000Y-165630000I-7729917J19002D01*
G01*
X264000000Y-147900001D02*
G75*
G03*
X265350000Y-130400000I-2957770J9030243D01*
G01*
X252200000Y-142300000D02*
G75*
G03*
X247000000Y-143200000I-2522115J-900003D01*
G01*
X191000000Y-163000000D02*
G75*
G03*
X170400000Y-165160000I2134428J-119667599D01*
G01*
X257500000Y-130000000D02*
G75*
G03*
X252775000Y-134200000I3566560J-8770192D01*
G01*
X234100000Y-163600000D02*
G75*
G03*
X231300000Y-166400000I0J-2800000D01*
G01*
X124300001Y-185200000D02*
G75*
G03*
X123600000Y-183500000I-1993482J173272D01*
G01*
X272000000Y-106300000D02*
X272000000Y-126300000D01*
X247000000Y-113000000D02*
G75*
G03*
X237000000Y-103000000I-10000000J0D01*
G01*
X161300000Y-196000000D02*
X161300000Y-185200000D01*
X143300031Y-181199962D02*
G75*
G03*
X136100000Y-182400000I-3067031J-3797838D01*
G01*
X143300000Y-196000000D02*
X143300000Y-181200000D01*
X161300000Y-165000000D02*
G75*
G03*
X159300000Y-163000000I-2000000J0D01*
G01*
X157600000Y-158000000D02*
X191100000Y-158000000D01*
X226300000Y-186200000D02*
X226250000Y-192500000D01*
X143300000Y-165000000D02*
X143300000Y-172300000D01*
X258300000Y-206500000D02*
X254000000Y-206500000D01*
X201100000Y-158000000D02*
X237000000Y-158000000D01*
X236300000Y-163600000D02*
G75*
G03*
X250850000Y-154100000I11301J15874928D01*
G01*
X133200000Y-160500000D02*
X133200000Y-164400000D01*
X116999996Y-148000000D02*
G75*
G03*
X123100000Y-157200000I10043204J36800D01*
G01*
X265100000Y-155000000D02*
G75*
G03*
X274000000Y-165630000I17192759J5353914D01*
G01*
X252000000Y-113000000D02*
X252000000Y-106300000D01*
X134300001Y-167900000D02*
G75*
G03*
X135000000Y-169600000I1993470J-173277D01*
G01*
X226300000Y-176200000D02*
G75*
G03*
X231300000Y-176200000I2500000J0D01*
G01*
X226300000Y-176200000D02*
X226300000Y-170100000D01*
X272000000Y-126300000D02*
X266000000Y-126300000D01*
X244599999Y-198750000D02*
G75*
G03*
X254000000Y-206500000I9336117J1748161D01*
G01*
X247000000Y-131600000D02*
G75*
G03*
X252775000Y-134200000I3472178J-1340D01*
G01*
X237000000Y-158000000D02*
G75*
G03*
X247000000Y-148000000I0J10000000D01*
G01*
X234100000Y-163600000D02*
X236300000Y-163600000D01*
X137000000Y-171900000D02*
G75*
G03*
X135000000Y-169600000I-7631424J-4616456D01*
G01*
X253950000Y-151800000D02*
G75*
G03*
X250850000Y-154100000I443660J-3837107D01*
G01*
X157600000Y-163000000D02*
X159300000Y-163000000D01*
X191000000Y-163000001D02*
G75*
G03*
X191100000Y-158000000I99980J2499001D01*
G01*
X231300000Y-186200000D02*
G75*
G03*
X226300000Y-186200000I-2500000J0D01*
G01*
X145300000Y-163000000D02*
G75*
G03*
X143300000Y-165000000I-40J-1999960D01*
G01*
X252000000Y-123000000D02*
G75*
G03*
X247000000Y-123000000I-2500000J0D01*
G01*
X247000000Y-148000000D02*
X247000000Y-143200000D01*
X252000000Y-126300000D02*
X252000000Y-123000000D01*
X258300000Y-206500000D02*
G75*
G03*
X267000000Y-198800000I-23141J8791082D01*
G01*
X166250001Y-192250000D02*
G75*
G03*
X172450000Y-197100000I5002282J6784D01*
G01*
X124300000Y-185200000D02*
G75*
G03*
X134300000Y-185200000I5000000J-358054D01*
G01*
X252000000Y-106300000D02*
X272000000Y-106300000D01*
X161300000Y-165000000D02*
X161300000Y-175300000D01*
X265099999Y-155000000D02*
G75*
G03*
X263200000Y-152500000I-4369625J-1348915D01*
G01*
X127000000Y-103000000D02*
G75*
G03*
X117000000Y-113000000I0J-10000000D01*
G01*
X273650000Y-189600000D02*
G75*
G03*
X278150000Y-182300000I-3635637J7278132D01*
G01*
X170400000Y-165160000D02*
G75*
G03*
X166300000Y-170100000I889840J-4909948D01*
G01*
X137000000Y-171900000D02*
G75*
G03*
X143300000Y-172300000I3333028J2682698D01*
G01*
X145300000Y-198000000D02*
X159300000Y-198000000D01*
X117000000Y-113000000D02*
X117000000Y-148000000D01*
X278150000Y-172500000D02*
X278150000Y-182300000D01*
X231300000Y-189000000D02*
X231300000Y-186200000D01*
X264000000Y-147899999D02*
G75*
G03*
X263200000Y-152500000I794105J-2507671D01*
G01*
X135000000Y-183500000D02*
G75*
G03*
X136100000Y-182400000I-2487240J3587240D01*
G01*
X166299999Y-185300000D02*
G75*
G03*
X161300000Y-185200000I-2500999J20D01*
G01*
X220330000Y-197160000D02*
G75*
G03*
X172450000Y-197100000I-24061652J-97048246D01*
G01*
X247000000Y-123000000D02*
X247000000Y-131600000D01*
X147600000Y-163000000D02*
G75*
G03*
X147600000Y-158000000I0J2500000D01*
G01*
X257500001Y-130000001D02*
G75*
G03*
X256200000Y-126300000I-1306826J1619224D01*
G01*
X147600000Y-158000000D02*
X134600000Y-158000000D01*
X253950000Y-151799999D02*
G75*
G03*
X255325000Y-146450000I-314894J2932624D01*
G01*
X222100000Y-165150000D02*
G75*
G03*
X201100000Y-163000000I-22876860J-119815262D01*
G01*
X252200000Y-142300000D02*
G75*
G03*
X255325000Y-146450000I8733924J3325168D01*
G01*
X123600000Y-169600001D02*
G75*
G03*
X124300000Y-167900000I-1293471J1526724D01*
G01*
X166300000Y-185300000D02*
X166250000Y-192250000D01*
X256200000Y-126300000D02*
X252000000Y-126300000D01*
X125100000Y-161200000D02*
X125100000Y-164800000D01*
X201100000Y-158000000D02*
G75*
G03*
X201100000Y-163000000I0J-2500000D01*
G01*
X237000000Y-103000000D02*
X127000000Y-103000000D01*
X247000000Y-113000000D02*
G75*
G03*
X252000000Y-113000000I2500000J0D01*
G01*
X231300000Y-176200000D02*
X231300000Y-166400000D01*
X234000000Y-191800000D02*
X236300000Y-191800000D01*
X220330000Y-197159999D02*
G75*
G03*
X226250000Y-192500000I1137351J4645468D01*
G01*
X273650000Y-189589999D02*
G75*
G03*
X267000000Y-198800000I5275955J-10815245D01*
G01*
X125100000Y-164800000D02*
G75*
G03*
X124300000Y-167900000I4384804J-2784788D01*
G01*
X161300000Y-175300000D02*
G75*
G03*
X166300000Y-175300000I2500000J0D01*
G01*
X231300000Y-189000000D02*
G75*
G03*
X234000000Y-191800000I2750000J-50000D01*
G01*
X244599999Y-198750000D02*
G75*
G03*
X236300000Y-191800000I-8307527J-1490105D01*
G01*
X147600000Y-163000000D02*
X145300000Y-163000000D01*
X134600007Y-158000013D02*
G75*
G03*
X133200000Y-160500000I1336393J-2390387D01*
G01*
X143300000Y-196000000D02*
G75*
G03*
X145300000Y-198000000I2000010J10D01*
G01*
X134300000Y-167900000D02*
G75*
G03*
X133200000Y-164400000I-5078403J326788D01*
G01*
X123600000Y-169600000D02*
G75*
G03*
X123600000Y-183500000I5708957J-6950000D01*
G01*
M02*
