M48
; DRILL file {KiCad (6.0.9)} date Thu 10 Nov 2022 09:35:01 PM CET
; FORMAT={-:-/ absolute / metric / decimal}
; #@! TF.CreationDate,2022-11-10T21:35:01+01:00
; #@! TF.GenerationSoftware,Kicad,Pcbnew,(6.0.9)
; #@! TF.FileFunction,Plated,1,2,PTH
FMAT,2
METRIC
; #@! TA.AperFunction,Plated,PTH,ViaDrill
T1C0.400
; #@! TA.AperFunction,Plated,PTH,ComponentDrill
T2C0.600
; #@! TA.AperFunction,Plated,PTH,ComponentDrill
T3C0.750
; #@! TA.AperFunction,Plated,PTH,ComponentDrill
T4C0.800
; #@! TA.AperFunction,Plated,PTH,ComponentDrill
T5C1.000
; #@! TA.AperFunction,Plated,PTH,ComponentDrill
T6C1.100
; #@! TA.AperFunction,Plated,PTH,ComponentDrill
T7C1.200
; #@! TA.AperFunction,Plated,PTH,ComponentDrill
T8C1.400
; #@! TA.AperFunction,Plated,PTH,ComponentDrill
T9C1.500
%
G90
G05
T1
X118.2Y-139.4
X118.2Y-141.9
X118.2Y-144.1
X118.2Y-146.7
X118.2Y-149.1
X118.8Y-121.0
X118.8Y-151.3
X119.8Y-139.4
X119.8Y-141.9
X119.8Y-144.1
X119.8Y-146.7
X119.8Y-149.1
X120.2Y-152.8
X120.5Y-122.6
X120.5Y-150.5
X121.3Y-139.4
X121.3Y-141.9
X121.3Y-144.1
X121.3Y-146.7
X121.6Y-151.7
X122.1Y-124.4
X122.1Y-153.9
X123.2Y-152.6
X124.433Y-154.4
X125.689Y-152.6
X125.7Y-151.1
X126.3Y-113.8
X126.6Y-144.4
X126.922Y-154.4
X127.7Y-120.6
X127.7Y-123.6
X127.7Y-126.6
X127.7Y-129.8
X127.7Y-132.7
X127.7Y-135.4
X127.7Y-138.2
X127.7Y-141.1
X127.9Y-115.3
X128.178Y-152.6
X128.189Y-151.1
X128.3Y-118.3
X128.6Y-112.9
X129.411Y-154.4
X129.6Y-116.9
X129.9Y-113.3
X129.9Y-115.0
X130.6Y-140.9
X130.667Y-152.6
X130.678Y-151.1
X131.9Y-123.6
X131.9Y-126.6
X131.9Y-132.7
X131.9Y-135.4
X131.9Y-138.2
X131.9Y-154.4
X132.0Y-129.8
X132.2Y-140.6
X132.8Y-113.3
X132.8Y-115.0
X133.156Y-152.6
X133.167Y-151.1
X134.2Y-121.5
X135.644Y-152.6
X135.656Y-151.1
X136.8Y-121.5
X138.133Y-152.6
X138.144Y-151.1
X139.2Y-122.4
X140.622Y-152.6
X140.633Y-151.1
X141.3Y-121.6
X143.111Y-152.6
X143.122Y-151.1
X144.9Y-142.4
X145.6Y-152.6
X145.611Y-151.1
X146.8Y-119.6
X147.0Y-117.1
X147.0Y-153.4
X147.3Y-123.9
X147.6Y-116.0
X148.1Y-151.1
X148.1Y-178.486
X149.3Y-152.6
X149.6Y-115.8
X149.6Y-119.9
X150.3Y-112.1
X151.2Y-115.8
X151.3Y-110.5
X151.4Y-113.2
X152.6Y-114.3
X152.8Y-115.8
X153.113Y-106.7
X153.113Y-108.5
X153.113Y-110.3
X153.113Y-112.1
X154.25Y-105.649
X154.3Y-115.8
X154.6Y-113.4
X155.2Y-121.3
X155.5Y-117.8
X155.513Y-104.5
X155.65Y-146.65
X157.002Y-104.5
X157.2Y-122.6
X157.4Y-120.0
X157.5Y-118.2
X158.3Y-117.6
X158.491Y-104.5
X159.2Y-122.6
X159.98Y-104.5
X160.0Y-118.4
X160.1Y-121.1
X160.913Y-113.7
X161.469Y-104.5
X162.513Y-113.7
X162.957Y-104.5
X163.3Y-125.6
X163.8Y-119.191
X163.913Y-113.7
X164.2Y-124.6
X164.446Y-104.5
X164.6Y-126.4
X165.2Y-118.6
X165.5Y-122.6
X165.5Y-124.8
X165.8Y-121.3
X165.935Y-104.5
X166.0Y-127.1
X167.321Y-113.179
X167.4Y-127.9
X167.424Y-104.5
X167.8Y-117.0
X168.313Y-112.1
X168.7Y-128.826
X168.913Y-104.5
X168.913Y-106.02
X168.913Y-107.54
X168.913Y-109.06
X168.913Y-110.58
X170.5Y-114.6
X172.027Y-127.627
X172.2Y-129.3
X172.7Y-167.749
X173.2Y-126.8
X173.4Y-130.2
X173.766Y-114.222
X174.3Y-125.5
X174.7Y-131.2
X174.849Y-174.212
X175.043Y-194.2
X175.1Y-168.949
X175.449Y-170.412
X176.2Y-132.3
X176.5Y-169.349
X176.5Y-174.949
X177.043Y-194.2
X177.3Y-168.549
X177.5Y-175.149
X177.9Y-133.5
X178.2Y-117.3
X178.6Y-120.6
X179.043Y-194.2
X179.1Y-169.949
X179.2Y-127.4
X180.1Y-116.5
X180.5Y-166.149
X180.9Y-174.949
X181.1Y-169.149
X181.143Y-194.2
X181.15Y-147.25
X181.243Y-180.0
X181.249Y-173.037
X181.4Y-115.7
X181.6Y-137.0
X182.3Y-174.949
X182.7Y-134.5
X182.749Y-169.212
X182.9Y-166.149
X183.132Y-174.024
X183.243Y-194.1
X183.3Y-112.0
X183.5Y-137.9
X184.0Y-116.2
X184.2Y-128.2
X184.2Y-136.0
X184.4Y-119.7
X184.5Y-113.0
X184.5Y-122.2
X184.9Y-117.8
X185.5Y-132.4
X185.601Y-169.212
X185.899Y-130.3
X185.9Y-114.3
X187.249Y-169.012
X187.4Y-118.8
X187.9Y-115.1
X188.2Y-131.5
X188.5Y-171.749
X188.5Y-180.057
X188.7Y-176.549
X188.757Y-112.749
X189.9Y-111.6
X190.8Y-110.8
X190.9Y-118.1
X192.8Y-123.0
X193.5Y-110.8
X193.5Y-114.3
X194.3Y-120.0
X194.749Y-178.812
X195.8Y-107.8
X196.2Y-114.3
X196.357Y-120.849
X197.657Y-119.849
X198.857Y-120.849
X199.4Y-112.0
X199.943Y-180.2
X201.2Y-153.2
X203.4Y-127.4
X203.4Y-129.2
X205.5Y-141.6
X206.9Y-140.5
X206.9Y-143.0
X209.2Y-142.2
X210.4Y-117.5
X211.3Y-174.749
X211.3Y-176.5
X212.3Y-117.5
X212.5Y-180.6
X214.1Y-117.5
X253.349Y-199.7
X255.171Y-201.979
X256.6Y-118.2
X256.7Y-121.0
X257.2Y-161.3
X257.743Y-175.551
X258.6Y-193.308
X259.5Y-195.6
X260.843Y-193.351
X263.743Y-114.85
T3
X124.106Y-171.948
X126.106Y-171.948
X128.106Y-171.948
X130.106Y-171.948
X131.157Y-107.349
X132.106Y-171.948
X133.157Y-107.349
X134.106Y-171.948
X141.05Y-107.5
X141.05Y-109.5
X141.05Y-111.5
X148.05Y-107.5
X148.05Y-109.5
X148.05Y-111.5
X150.6Y-176.8
X152.6Y-176.8
X154.6Y-176.8
X169.128Y-186.549
X169.128Y-188.549
X169.128Y-190.549
X170.399Y-173.373
X170.399Y-175.373
X170.399Y-177.373
X170.399Y-179.373
X170.399Y-181.373
X175.092Y-187.237
X177.092Y-187.237
X178.3Y-106.4
X178.3Y-108.4
X178.3Y-110.4
X178.3Y-112.4
X178.3Y-114.4
X179.092Y-187.237
X181.092Y-187.237
X183.092Y-187.237
X185.092Y-187.237
X192.543Y-189.25
X194.543Y-189.25
X196.543Y-189.25
X197.7Y-167.749
X199.7Y-167.749
X201.7Y-167.749
X203.7Y-167.749
X205.7Y-167.749
X207.7Y-167.749
X208.45Y-186.249
X208.45Y-188.249
X208.45Y-190.249
X209.157Y-106.449
X209.157Y-108.449
X209.157Y-110.449
X209.157Y-112.449
X209.157Y-114.449
X209.7Y-167.749
X211.7Y-167.749
X214.7Y-190.049
X216.7Y-190.049
X218.7Y-190.049
X223.06Y-171.389
X223.06Y-173.389
X223.06Y-175.389
X223.06Y-177.389
X223.06Y-179.389
X223.06Y-181.389
X223.06Y-183.389
X223.06Y-185.389
X248.275Y-164.843
X250.275Y-164.843
X252.275Y-164.843
X255.265Y-171.601
X255.265Y-173.601
X255.265Y-175.601
X255.265Y-177.601
X255.265Y-179.601
X255.265Y-181.601
X255.265Y-183.601
X255.265Y-185.601
X256.589Y-144.289
X258.004Y-142.875
X258.443Y-119.4
X259.418Y-141.46
X260.443Y-119.4
X260.832Y-140.046
X262.246Y-138.632
X262.443Y-119.4
X263.66Y-137.218
X264.443Y-119.4
X265.075Y-135.804
X266.443Y-119.4
X266.489Y-134.389
T4
X146.05Y-131.0
X148.59Y-131.0
X151.13Y-131.0
X153.67Y-131.0
X156.21Y-131.0
X158.75Y-131.0
X159.663Y-108.3
X164.543Y-108.3
X174.504Y-183.215
X177.044Y-183.215
X179.584Y-183.215
X182.124Y-183.215
X184.664Y-183.215
X187.204Y-183.215
X191.268Y-183.977
X193.808Y-183.977
X196.348Y-183.977
X198.38Y-171.023
X198.888Y-183.977
X200.92Y-171.023
X201.428Y-183.977
X203.454Y-131.584
X203.454Y-134.124
X203.454Y-136.664
X203.454Y-139.204
X203.454Y-141.744
X203.454Y-144.284
X203.46Y-171.023
X203.968Y-183.977
X206.0Y-171.023
X208.54Y-171.023
X211.08Y-171.023
X218.043Y-172.293
X218.043Y-174.833
X218.043Y-177.373
X218.043Y-179.913
X218.043Y-182.453
X218.043Y-184.993
T5
X123.1Y-144.075
X123.1Y-146.615
X123.1Y-149.155
X135.5Y-139.76
X135.5Y-155.0
X135.641Y-144.075
X135.641Y-146.615
X135.641Y-149.155
X138.04Y-139.76
X138.04Y-155.0
X140.58Y-139.76
X140.58Y-155.0
X143.12Y-139.76
X143.12Y-155.0
X145.66Y-139.76
X145.66Y-155.0
X148.181Y-144.075
X148.181Y-146.615
X148.181Y-149.155
X148.2Y-139.76
X148.2Y-155.0
X150.74Y-139.76
X150.74Y-155.0
X153.28Y-139.76
X153.28Y-155.0
X155.82Y-139.76
X155.82Y-155.0
X158.36Y-139.76
X158.36Y-155.0
X160.9Y-139.76
X160.9Y-155.0
X163.44Y-139.76
X163.44Y-155.0
X165.98Y-139.76
X165.98Y-155.0
X168.52Y-139.76
X168.52Y-155.0
X171.06Y-139.76
X171.06Y-155.0
X173.6Y-139.76
X173.6Y-155.0
X176.14Y-139.76
X176.14Y-155.0
X178.68Y-139.76
X178.68Y-155.0
X181.22Y-139.76
X181.22Y-155.0
X183.76Y-139.76
X183.76Y-155.0
X253.25Y-137.374
X253.25Y-140.374
X259.55Y-131.074
X259.55Y-146.674
X260.05Y-133.094
X262.05Y-145.874
X262.45Y-131.074
X265.184Y-168.286
X267.684Y-168.286
X267.91Y-142.624
X268.85Y-137.374
X268.85Y-140.374
X270.184Y-168.286
X276.414Y-174.516
X276.414Y-177.016
X276.414Y-179.516
T6
X169.75Y-122.05
X169.75Y-126.55
X176.25Y-122.05
X176.25Y-126.55
T7
X146.45Y-167.186
X146.45Y-172.186
X146.45Y-181.7
X146.45Y-186.7
X158.95Y-167.186
X158.95Y-172.186
X158.95Y-181.7
X158.95Y-186.7
X236.934Y-175.256
X236.934Y-180.256
X249.434Y-175.256
X249.434Y-180.256
T8
X122.475Y-127.936
X136.964Y-126.121
X140.8Y-132.886
X140.87Y-117.306
X143.725Y-122.236
X143.725Y-127.936
T9
X190.62Y-124.218
X190.62Y-143.776
X196.97Y-126.758
X196.97Y-146.316
X210.82Y-124.218
X210.82Y-143.776
X217.17Y-126.758
X217.17Y-146.316
X231.02Y-124.218
X231.02Y-143.776
X237.37Y-126.758
X237.37Y-146.316
T2
X258.123Y-108.3G85X258.123Y-107.7
G05
X258.123Y-112.73G85X258.123Y-111.63
G05
X266.763Y-108.3G85X266.763Y-107.7
G05
X266.763Y-112.73G85X266.763Y-111.63
G05
T3
X255.634Y-158.166G85X255.634Y-156.666
G05
X259.634Y-158.166G85X259.634Y-156.666
G05
T0
M30
