M48
; DRILL file {KiCad (6.0.9)} date Wed 09 Nov 2022 09:55:08 PM CET
; FORMAT={-:-/ absolute / inch / decimal}
; #@! TF.CreationDate,2022-11-09T21:55:08+01:00
; #@! TF.GenerationSoftware,Kicad,Pcbnew,(6.0.9)
; #@! TF.FileFunction,NonPlated,1,2,NPTH
FMAT,2
INCH
; #@! TA.AperFunction,NonPlated,NPTH,ComponentDrill
T1C0.0197
; #@! TA.AperFunction,NonPlated,NPTH,ComponentDrill
T2C0.0256
; #@! TA.AperFunction,NonPlated,NPTH,ComponentDrill
T3C0.0295
; #@! TA.AperFunction,NonPlated,NPTH,ComponentDrill
T4C0.0413
; #@! TA.AperFunction,NonPlated,NPTH,ComponentDrill
T5C0.0433
; #@! TA.AperFunction,NonPlated,NPTH,ComponentDrill
T6C0.0591
; #@! TA.AperFunction,NonPlated,NPTH,ComponentDrill
T7C0.0630
; #@! TA.AperFunction,NonPlated,NPTH,ComponentDrill
T8C0.0669
; #@! TA.AperFunction,NonPlated,NPTH,ComponentDrill
T9C0.0866
; #@! TA.AperFunction,NonPlated,NPTH,ComponentDrill
T10C0.1260
; #@! TA.AperFunction,NonPlated,NPTH,ComponentDrill
T11C0.1378
; #@! TA.AperFunction,NonPlated,NPTH,ComponentDrill
T12C0.1575
%
G90
G05
T1
X4.8819Y-6.1969
X4.9094Y-6.2087
X4.939Y-6.2165
X4.9449Y-6.4606
X4.9685Y-6.2205
X4.9685Y-6.4409
X4.9961Y-6.4213
X4.998Y-6.2205
X5.0236Y-6.4094
X5.0276Y-6.2205
X5.0531Y-6.4016
X5.0571Y-6.2205
X5.0827Y-6.3976
X5.0866Y-6.2205
X5.1122Y-6.3976
X5.1161Y-6.2205
X5.1417Y-6.4055
X5.1457Y-6.2205
X5.1713Y-6.4134
X5.1752Y-6.2205
X5.1969Y-6.4291
X5.2047Y-6.2205
X5.2205Y-6.4488
X5.2343Y-6.2205
X5.2677Y-6.2205
X5.4134Y-7.1024
X5.4173Y-6.811
X5.4252Y-7.0748
X5.4291Y-6.8386
X5.4331Y-7.0453
X5.437Y-6.8681
X5.4409Y-7.0157
X5.4449Y-6.8976
X5.4449Y-6.9272
X5.4449Y-6.9567
X5.4449Y-6.9862
X5.6417Y-6.8091
X5.6417Y-6.8386
X5.6417Y-6.8681
X5.6417Y-6.8976
X5.6417Y-6.9272
X5.6417Y-6.9567
X5.6417Y-6.9862
X5.6417Y-7.0157
X5.6417Y-7.0453
X5.6417Y-7.0748
X5.6417Y-7.1043
X5.8602Y-6.2205
X5.8602Y-6.4173
X5.8898Y-6.2205
X5.8898Y-6.2205
X5.8898Y-6.4173
X5.8898Y-6.4173
X5.9193Y-6.2205
X5.9193Y-6.4173
X5.9488Y-6.2205
X5.9488Y-6.4173
X5.9783Y-6.2205
X5.9783Y-6.4173
X6.0079Y-6.2205
X6.0079Y-6.4173
X6.0374Y-6.2205
X6.0374Y-6.4173
X6.0669Y-6.2205
X6.0669Y-6.4173
X6.0965Y-6.2205
X6.0965Y-6.4173
X6.126Y-6.2205
X6.126Y-6.4173
X6.1555Y-6.2205
X6.1555Y-6.4173
X6.3504Y-6.9508
X6.3504Y-6.9803
X6.3504Y-7.0098
X6.3504Y-7.0394
X6.3504Y-7.0689
X6.3504Y-7.0984
X6.3504Y-7.128
X6.3504Y-7.1575
X6.3504Y-7.187
X6.3504Y-7.2165
X6.3504Y-7.2165
X6.3504Y-7.2461
X6.5472Y-6.9508
X6.5472Y-6.9803
X6.5472Y-7.0098
X6.5472Y-7.0394
X6.5472Y-7.0689
X6.5472Y-7.0984
X6.5472Y-7.128
X6.5472Y-7.1575
X6.5472Y-7.187
X6.5472Y-7.2165
X6.5472Y-7.2165
X6.5472Y-7.2461
X7.5728Y-6.2205
X7.5728Y-6.4173
X7.6024Y-6.2205
X7.6024Y-6.2205
X7.6024Y-6.4173
X7.6024Y-6.4173
X7.6319Y-6.2205
X7.6319Y-6.4173
X7.6614Y-6.2205
X7.6614Y-6.4173
X7.6909Y-6.2205
X7.6909Y-6.4173
X7.7205Y-6.2205
X7.7205Y-6.4173
X7.75Y-6.2205
X7.75Y-6.4173
X7.7795Y-6.2205
X7.7795Y-6.4173
X7.8091Y-6.2205
X7.8091Y-6.4173
X7.8386Y-6.2205
X7.8386Y-6.4173
X7.8681Y-6.2205
X7.8681Y-6.4173
X8.9094Y-6.9862
X8.9094Y-7.0157
X8.9094Y-7.0453
X8.9094Y-7.0748
X8.9094Y-7.1043
X8.9094Y-7.1339
X8.9094Y-7.1634
X8.9094Y-7.1929
X8.9094Y-7.2224
X8.9094Y-7.252
X8.9094Y-7.252
X8.9094Y-7.2815
X9.1063Y-6.9862
X9.1063Y-7.0157
X9.1063Y-7.0453
X9.1063Y-7.0748
X9.1063Y-7.1043
X9.1063Y-7.1339
X9.1063Y-7.1634
X9.1063Y-7.1929
X9.1063Y-7.2224
X9.1063Y-7.252
X9.1063Y-7.252
X9.1063Y-7.2815
X9.7234Y-5.2589
X9.7234Y-5.2904
X9.7234Y-5.3199
X9.7234Y-5.3494
X9.7234Y-5.3789
X9.7234Y-5.4085
X9.7234Y-5.438
X9.7234Y-5.4675
X9.7234Y-5.497
X9.7234Y-5.5266
X9.7234Y-5.5561
X9.7234Y-5.5856
X9.7244Y-4.498
X9.7244Y-4.5276
X9.7244Y-4.5571
X9.7244Y-4.5866
X9.7244Y-4.6161
X9.7244Y-4.6457
X9.7244Y-4.6752
X9.7244Y-4.7047
X9.7244Y-4.7343
X9.7244Y-4.7638
X9.7244Y-4.7638
X9.7244Y-4.7933
X9.8967Y-5.4724
X9.8976Y-5.4419
X9.8986Y-5.503
X9.9006Y-5.4114
X9.9026Y-5.5335
X9.9065Y-5.3819
X9.9144Y-5.3533
X9.9213Y-4.498
X9.9213Y-4.5276
X9.9213Y-4.5571
X9.9213Y-4.5866
X9.9213Y-4.6161
X9.9213Y-4.6457
X9.9213Y-4.6752
X9.9213Y-4.7047
X9.9213Y-4.7343
X9.9213Y-4.7638
X9.9213Y-4.7638
X9.9213Y-4.7933
X9.9242Y-5.3248
X10.0551Y-5.9715
X10.0846Y-5.9715
X10.0984Y-5.8041
X10.1142Y-5.9715
X10.126Y-5.8179
X10.1309Y-4.9695
X10.1437Y-5.9715
X10.1555Y-5.8297
X10.1604Y-4.9695
X10.1713Y-5.1033
X10.1732Y-5.9715
X10.186Y-5.8376
X10.19Y-4.9695
X10.1998Y-5.0955
X10.2028Y-5.9715
X10.2165Y-5.8445
X10.2195Y-4.9695
X10.2293Y-5.0896
X10.2323Y-5.9715
X10.247Y-5.8484
X10.249Y-4.9695
X10.2589Y-5.0866
X10.2618Y-5.9715
X10.2776Y-5.8494
X10.2785Y-4.9695
X10.2884Y-5.0866
X10.2913Y-5.9715
X10.3081Y-4.9695
X10.3081Y-5.8484
X10.3179Y-5.0886
X10.3209Y-5.9764
X10.3376Y-4.9695
X10.3376Y-5.8445
X10.3484Y-5.0935
X10.3671Y-4.9695
X10.378Y-5.1004
X10.3967Y-4.9695
X10.4262Y-4.9695
T2
X10.2186Y-4.3957
X10.4462Y-4.3957
T3
X5.1695Y-7.0019
X10.1192Y-7.9039
T4
X5.0199Y-7.0019
X10.0134Y-7.7981
T5
X10.128Y-5.5265
T6
X10.2897Y-6.7723
X10.2897Y-7.166
X10.7878Y-6.7723
X10.7878Y-7.166
T7
X10.3694Y-6.9691
X10.708Y-6.9691
T8
X7.4047Y-5.0905
X7.4047Y-5.8605
X7.8047Y-5.0905
X7.8047Y-5.8605
X8.2Y-5.0905
X8.2Y-5.8605
X8.6Y-5.0905
X8.6Y-5.8605
X8.9953Y-5.0905
X8.9953Y-5.8605
X9.3953Y-5.0905
X9.3953Y-5.8605
T10
X4.8819Y-4.3701
X5.0871Y-6.5551
X5.0911Y-7.3465
X5.0984Y-5.7677
X6.2104Y-7.6392
X7.185Y-4.9213
X7.5607Y-6.5709
X7.973Y-7.4469
X9.3307Y-4.3701
X9.5789Y-6.6024
X9.5791Y-7.3898
X10.0169Y-4.29
X10.6172Y-4.29
T11
X10.5387Y-7.2841
T12
X7.6047Y-5.0905
X7.6047Y-5.8605
X8.4Y-5.0905
X8.4Y-5.8605
X9.1953Y-5.0905
X9.1953Y-5.8605
X10.5387Y-6.9691
T9
G00X10.5387Y-7.0124
M15
G01X10.5387Y-7.2408
M16
G05
T0
M30
